ISO-10303-21;
HEADER;

/* File generated by Shapr3D Version 5.791.8191.0 */

FILE_DESCRIPTION(('HOOPS Exchange Step'),'2;1');

FILE_NAME('C:\\Users\\bilal\\AppData\\Local\\Packages\\Shapr3D.Shapr3D_j403pzjkqtqbj\\TempState\\export\\temp_export',
'2025-02-19T18:22:05+01:00',
('bilal'),
('Shapr3D Limited'),
'HOOPS Exchange 2024.8',
'Shapr3D',
'Authorized');

FILE_SCHEMA( ('AP242_MANAGED_MODEL_BASED_3D_ENGINEERING_MIM_LF {1 0 10303 442 1 1 4}') );

ENDSEC;

DATA;
#3=(NAMED_UNIT(*)PLANE_ANGLE_UNIT()SI_UNIT($,.RADIAN.));
#4=PLANE_ANGLE_MEASURE_WITH_UNIT(PLANE_ANGLE_MEASURE(0.0174532925),#3);
#5=(CONVERSION_BASED_UNIT('DEGREE',#4)NAMED_UNIT(#6)PLANE_ANGLE_UNIT());
#6=DIMENSIONAL_EXPONENTS(0.,0.,0.,0.,0.,0.,0.);
#7=(NAMED_UNIT(*)SI_UNIT($,.STERADIAN.)SOLID_ANGLE_UNIT());
#8=(LENGTH_UNIT()NAMED_UNIT(*)SI_UNIT(.MILLI.,.METRE.));
#9=UNCERTAINTY_MEASURE_WITH_UNIT(LENGTH_MEASURE(1.000000E-03),#8,'DISTANCE_ACCURACY_VALUE','Maximum Tolerance applied to model');
#10=(GEOMETRIC_REPRESENTATION_CONTEXT(3)GLOBAL_UNCERTAINTY_ASSIGNED_CONTEXT((#9))GLOBAL_UNIT_ASSIGNED_CONTEXT((#8,#5,#7))REPRESENTATION_CONTEXT('','root'));
#12=CARTESIAN_POINT('',(0.,0.,0.));
#13=DIRECTION('',(0.,0.,1.));
#14=DIRECTION('',(1.,0.,0.));
#15=AXIS2_PLACEMENT_3D('',#12,#13,#14);
#26=(NAMED_UNIT(*)PLANE_ANGLE_UNIT()SI_UNIT($,.RADIAN.));
#27=PLANE_ANGLE_MEASURE_WITH_UNIT(PLANE_ANGLE_MEASURE(0.0174532925),#26);
#28=(CONVERSION_BASED_UNIT('DEGREE',#27)NAMED_UNIT(#29)PLANE_ANGLE_UNIT());
#29=DIMENSIONAL_EXPONENTS(0.,0.,0.,0.,0.,0.,0.);
#30=(NAMED_UNIT(*)SI_UNIT($,.STERADIAN.)SOLID_ANGLE_UNIT());
#31=(LENGTH_UNIT()NAMED_UNIT(*)SI_UNIT(.MILLI.,.METRE.));
#32=UNCERTAINTY_MEASURE_WITH_UNIT(LENGTH_MEASURE(1.000000E-05),#31,'DISTANCE_ACCURACY_VALUE','Maximum Tolerance applied to model');
#33=(GEOMETRIC_REPRESENTATION_CONTEXT(3)GLOBAL_UNCERTAINTY_ASSIGNED_CONTEXT((#32))GLOBAL_UNIT_ASSIGNED_CONTEXT((#31,#28,#30))REPRESENTATION_CONTEXT('','[WOJ-CUENC-015-RevAB] Cable Clamp Mid.SLDPRT'));
#45=CARTESIAN_POINT('',(0.,0.,0.));
#46=DIRECTION('',(0.,0.,1.));
#47=DIRECTION('',(1.,0.,-0.));
#48=AXIS2_PLACEMENT_3D('',#45,#46,#47);
#49=ITEM_DEFINED_TRANSFORMATION('','',#48,#15);
#50=(REPRESENTATION_RELATIONSHIP('','',#35,#16)REPRESENTATION_RELATIONSHIP_WITH_TRANSFORMATION(#49)SHAPE_REPRESENTATION_RELATIONSHIP());
#51=NEXT_ASSEMBLY_USAGE_OCCURRENCE('[WOJ-CUENC-015-RevAB] Cable Clamp Mid.SLDPRT_1','[WOJ-CUENC-015-RevAB] Cable Clamp Mid.SLDPRT','[WOJ-CUENC-015-RevAB] Cable Clamp Mid.SLDPRT',#25,#44,$);
#52=PRODUCT_DEFINITION_SHAPE('','',#51);
#53=CONTEXT_DEPENDENT_SHAPE_REPRESENTATION(#50,#52);
#55=CARTESIAN_POINT('',(6.35,7.,-4.7625));
#56=DIRECTION('',(0.,0.,1.));
#57=DIRECTION('',(1.,0.,-0.));
#58=AXIS2_PLACEMENT_3D('',#55,#56,#57);
#59=PLANE('',#58);
#60=CARTESIAN_POINT('',(178.5125,3.,-4.7625));
#61=VERTEX_POINT('',#60);
#62=CARTESIAN_POINT('',(178.5125,13.,-4.7625));
#63=VERTEX_POINT('',#62);
#64=CARTESIAN_POINT('',(178.5125,3.,-4.7625));
#65=DIRECTION('',(0.,1.,0.));
#66=VECTOR('',#65,10.);
#67=LINE('',#64,#66);
#68=EDGE_CURVE('',#61,#63,#67,.T.);
#69=ORIENTED_EDGE('',*,*,#68,.F.);
#70=CARTESIAN_POINT('',(145.447768587,3.,-4.7625));
#71=VERTEX_POINT('',#70);
#72=CARTESIAN_POINT('',(178.5125,3.,-4.7625));
#73=DIRECTION('',(-1.,0.,0.));
#74=VECTOR('',#73,33.064731413);
#75=LINE('',#72,#74);
#76=EDGE_CURVE('',#61,#71,#75,.T.);
#77=ORIENTED_EDGE('',*,*,#76,.T.);
#78=CARTESIAN_POINT('',(145.447768587,13.,-4.7625));
#79=VERTEX_POINT('',#78);
#80=CARTESIAN_POINT('',(145.447768587,13.,-4.7625));
#81=DIRECTION('',(0.,-1.,0.));
#82=VECTOR('',#81,10.);
#83=LINE('',#80,#82);
#84=EDGE_CURVE('',#79,#71,#83,.T.);
#85=ORIENTED_EDGE('',*,*,#84,.F.);
#86=CARTESIAN_POINT('',(178.5125,13.,-4.7625));
#87=DIRECTION('',(-1.,0.,0.));
#88=VECTOR('',#87,33.064731413);
#89=LINE('',#86,#88);
#90=EDGE_CURVE('',#63,#79,#89,.T.);
#91=ORIENTED_EDGE('',*,*,#90,.F.);
#92=EDGE_LOOP('',(#69,#77,#85,#91));
#93=FACE_BOUND('',#92,.T.);
#94=ADVANCED_FACE('',(#93),#59,.F.);
#95=CARTESIAN_POINT('',(6.35,7.,-4.7625));
#96=DIRECTION('',(0.,0.,1.));
#97=DIRECTION('',(1.,0.,-0.));
#98=AXIS2_PLACEMENT_3D('',#95,#96,#97);
#99=PLANE('',#98);
#100=CARTESIAN_POINT('',(4.7625,13.,-4.7625));
#101=VERTEX_POINT('',#100);
#102=CARTESIAN_POINT('',(4.7625,3.,-4.7625));
#103=VERTEX_POINT('',#102);
#104=CARTESIAN_POINT('',(4.7625,13.,-4.7625));
#105=DIRECTION('',(-0.,-1.,0.));
#106=VECTOR('',#105,10.);
#107=LINE('',#104,#106);
#108=EDGE_CURVE('',#101,#103,#107,.T.);
#109=ORIENTED_EDGE('',*,*,#108,.F.);
#110=CARTESIAN_POINT('',(37.827231413,13.,-4.7625));
#111=VERTEX_POINT('',#110);
#112=CARTESIAN_POINT('',(37.827231413,13.,-4.7625));
#113=DIRECTION('',(-1.,0.,0.));
#114=VECTOR('',#113,33.064731413);
#115=LINE('',#112,#114);
#116=EDGE_CURVE('',#111,#101,#115,.T.);
#117=ORIENTED_EDGE('',*,*,#116,.F.);
#118=CARTESIAN_POINT('',(37.827231413,3.,-4.7625));
#119=VERTEX_POINT('',#118);
#120=CARTESIAN_POINT('',(37.827231413,3.,-4.7625));
#121=DIRECTION('',(-0.,1.,-0.));
#122=VECTOR('',#121,10.);
#123=LINE('',#120,#122);
#124=EDGE_CURVE('',#119,#111,#123,.T.);
#125=ORIENTED_EDGE('',*,*,#124,.F.);
#126=CARTESIAN_POINT('',(37.827231413,3.,-4.7625));
#127=DIRECTION('',(-1.,0.,0.));
#128=VECTOR('',#127,33.064731413);
#129=LINE('',#126,#128);
#130=EDGE_CURVE('',#119,#103,#129,.T.);
#131=ORIENTED_EDGE('',*,*,#130,.T.);
#132=EDGE_LOOP('',(#109,#117,#125,#131));
#133=FACE_BOUND('',#132,.T.);
#134=ADVANCED_FACE('',(#133),#99,.F.);
#135=CARTESIAN_POINT('',(0.,3.,0.));
#136=DIRECTION('',(0.,1.,0.));
#137=DIRECTION('',(0.,0.,1.));
#138=AXIS2_PLACEMENT_3D('',#135,#136,#137);
#139=PLANE('',#138);
#140=CARTESIAN_POINT('',(141.2125,3.,-2.7625));
#141=VERTEX_POINT('',#140);
#142=CARTESIAN_POINT('',(141.2125,3.,1.7375));
#143=VERTEX_POINT('',#142);
#144=CARTESIAN_POINT('',(141.2125,3.,-0.5125));
#145=DIRECTION('',(-0.,-1.,-0.));
#146=DIRECTION('',(0.,-0.,1.));
#147=AXIS2_PLACEMENT_3D('',#144,#145,#146);
#148=CIRCLE('',#147,2.25);
#149=EDGE_CURVE('',#141,#143,#148,.T.);
#150=ORIENTED_EDGE('',*,*,#149,.F.);
#151=CARTESIAN_POINT('',(141.2125,3.,-0.5125));
#152=DIRECTION('',(-0.,-1.,-0.));
#153=DIRECTION('',(0.,-0.,1.));
#154=AXIS2_PLACEMENT_3D('',#151,#152,#153);
#155=CIRCLE('',#154,2.25);
#156=EDGE_CURVE('',#143,#141,#155,.T.);
#157=ORIENTED_EDGE('',*,*,#156,.F.);
#158=EDGE_LOOP('',(#150,#157));
#159=FACE_BOUND('',#158,.T.);
#160=CARTESIAN_POINT('',(3.,3.,0.));
#161=VERTEX_POINT('',#160);
#162=CARTESIAN_POINT('',(36.084428091,3.,-0.));
#163=VERTEX_POINT('',#162);
#164=CARTESIAN_POINT('',(3.,3.,0.));
#165=DIRECTION('',(1.,0.,-0.));
#166=VECTOR('',#165,33.084428091);
#167=LINE('',#164,#166);
#168=EDGE_CURVE('',#161,#163,#167,.T.);
#169=ORIENTED_EDGE('',*,*,#168,.F.);
#170=CARTESIAN_POINT('',(0.,3.,-3.));
#171=VERTEX_POINT('',#170);
#172=CARTESIAN_POINT('',(3.,3.,-3.));
#173=DIRECTION('',(-0.,-1.,-0.));
#174=DIRECTION('',(0.,-0.,1.));
#175=AXIS2_PLACEMENT_3D('',#172,#173,#174);
#176=CIRCLE('',#175,3.);
#177=EDGE_CURVE('',#161,#171,#176,.T.);
#178=ORIENTED_EDGE('',*,*,#177,.T.);
#179=CARTESIAN_POINT('',(-0.,3.,-8.7625));
#180=VERTEX_POINT('',#179);
#181=CARTESIAN_POINT('',(0.,3.,-8.7625));
#182=DIRECTION('',(0.,0.,1.));
#183=VECTOR('',#182,5.7625);
#184=LINE('',#181,#183);
#185=EDGE_CURVE('',#180,#171,#184,.T.);
#186=ORIENTED_EDGE('',*,*,#185,.F.);
#187=CARTESIAN_POINT('',(4.7625,3.,-8.7625));
#188=VERTEX_POINT('',#187);
#189=CARTESIAN_POINT('',(4.7625,3.,-8.7625));
#190=DIRECTION('',(-1.,0.,0.));
#191=VECTOR('',#190,4.7625);
#192=LINE('',#189,#191);
#193=EDGE_CURVE('',#188,#180,#192,.T.);
#194=ORIENTED_EDGE('',*,*,#193,.F.);
#195=CARTESIAN_POINT('',(4.7625,3.,-8.7625));
#196=DIRECTION('',(0.,0.,1.));
#197=VECTOR('',#196,4.);
#198=LINE('',#195,#197);
#199=EDGE_CURVE('',#188,#103,#198,.T.);
#200=ORIENTED_EDGE('',*,*,#199,.T.);
#201=ORIENTED_EDGE('',*,*,#130,.F.);
#202=CARTESIAN_POINT('',(42.0625,3.,-6.5125));
#203=VERTEX_POINT('',#202);
#204=CARTESIAN_POINT('',(42.0625,3.,-0.5125));
#205=DIRECTION('',(0.,1.,0.));
#206=DIRECTION('',(0.,-0.,1.));
#207=AXIS2_PLACEMENT_3D('',#204,#205,#206);
#208=CIRCLE('',#207,6.);
#209=EDGE_CURVE('',#203,#119,#208,.T.);
#210=ORIENTED_EDGE('',*,*,#209,.F.);
#211=CARTESIAN_POINT('',(46.297768587,3.,-4.7625));
#212=VERTEX_POINT('',#211);
#213=CARTESIAN_POINT('',(42.0625,3.,-0.5125));
#214=DIRECTION('',(0.,1.,0.));
#215=DIRECTION('',(0.,-0.,1.));
#216=AXIS2_PLACEMENT_3D('',#213,#214,#215);
#217=CIRCLE('',#216,6.);
#218=EDGE_CURVE('',#212,#203,#217,.T.);
#219=ORIENTED_EDGE('',*,*,#218,.F.);
#220=CARTESIAN_POINT('',(136.977231413,3.,-4.7625));
#221=VERTEX_POINT('',#220);
#222=CARTESIAN_POINT('',(136.977231413,3.,-4.7625));
#223=DIRECTION('',(-1.,0.,0.));
#224=VECTOR('',#223,90.679462827);
#225=LINE('',#222,#224);
#226=EDGE_CURVE('',#221,#212,#225,.T.);
#227=ORIENTED_EDGE('',*,*,#226,.F.);
#228=CARTESIAN_POINT('',(141.2125,3.,-6.5125));
#229=VERTEX_POINT('',#228);
#230=CARTESIAN_POINT('',(141.2125,3.,-0.5125));
#231=DIRECTION('',(0.,1.,0.));
#232=DIRECTION('',(0.,-0.,1.));
#233=AXIS2_PLACEMENT_3D('',#230,#231,#232);
#234=CIRCLE('',#233,6.);
#235=EDGE_CURVE('',#229,#221,#234,.T.);
#236=ORIENTED_EDGE('',*,*,#235,.F.);
#237=CARTESIAN_POINT('',(141.2125,3.,-0.5125));
#238=DIRECTION('',(0.,1.,0.));
#239=DIRECTION('',(0.,-0.,1.));
#240=AXIS2_PLACEMENT_3D('',#237,#238,#239);
#241=CIRCLE('',#240,6.);
#242=EDGE_CURVE('',#71,#229,#241,.T.);
#243=ORIENTED_EDGE('',*,*,#242,.F.);
#244=ORIENTED_EDGE('',*,*,#76,.F.);
#245=CARTESIAN_POINT('',(178.5125,3.,-8.7625));
#246=VERTEX_POINT('',#245);
#247=CARTESIAN_POINT('',(178.5125,3.,-8.7625));
#248=DIRECTION('',(0.,0.,1.));
#249=VECTOR('',#248,4.);
#250=LINE('',#247,#249);
#251=EDGE_CURVE('',#246,#61,#250,.T.);
#252=ORIENTED_EDGE('',*,*,#251,.F.);
#253=CARTESIAN_POINT('',(183.275,3.,-8.7625));
#254=VERTEX_POINT('',#253);
#255=CARTESIAN_POINT('',(183.275,3.,-8.7625));
#256=DIRECTION('',(-1.,0.,0.));
#257=VECTOR('',#256,4.7625);
#258=LINE('',#255,#257);
#259=EDGE_CURVE('',#254,#246,#258,.T.);
#260=ORIENTED_EDGE('',*,*,#259,.F.);
#261=CARTESIAN_POINT('',(183.275,3.,-3.));
#262=VERTEX_POINT('',#261);
#263=CARTESIAN_POINT('',(183.275,3.,-3.));
#264=DIRECTION('',(0.,0.,-1.));
#265=VECTOR('',#264,5.7625);
#266=LINE('',#263,#265);
#267=EDGE_CURVE('',#262,#254,#266,.T.);
#268=ORIENTED_EDGE('',*,*,#267,.F.);
#269=CARTESIAN_POINT('',(180.275,3.,0.));
#270=VERTEX_POINT('',#269);
#271=CARTESIAN_POINT('',(180.275,3.,-3.));
#272=DIRECTION('',(-0.,-1.,-0.));
#273=DIRECTION('',(0.,-0.,1.));
#274=AXIS2_PLACEMENT_3D('',#271,#272,#273);
#275=CIRCLE('',#274,3.);
#276=EDGE_CURVE('',#262,#270,#275,.T.);
#277=ORIENTED_EDGE('',*,*,#276,.T.);
#278=CARTESIAN_POINT('',(147.190571909,3.,-0.));
#279=VERTEX_POINT('',#278);
#280=CARTESIAN_POINT('',(147.190571909,3.,0.));
#281=DIRECTION('',(1.,0.,-0.));
#282=VECTOR('',#281,33.084428091);
#283=LINE('',#280,#282);
#284=EDGE_CURVE('',#279,#270,#283,.T.);
#285=ORIENTED_EDGE('',*,*,#284,.F.);
#286=CARTESIAN_POINT('',(135.234428091,3.,-0.));
#287=VERTEX_POINT('',#286);
#288=CARTESIAN_POINT('',(141.2125,3.,-0.5125));
#289=DIRECTION('',(0.,1.,0.));
#290=DIRECTION('',(0.,-0.,1.));
#291=AXIS2_PLACEMENT_3D('',#288,#289,#290);
#292=CIRCLE('',#291,6.);
#293=EDGE_CURVE('',#287,#279,#292,.T.);
#294=ORIENTED_EDGE('',*,*,#293,.F.);
#295=CARTESIAN_POINT('',(48.040571909,3.,-0.));
#296=VERTEX_POINT('',#295);
#297=CARTESIAN_POINT('',(48.040571909,3.,0.));
#298=DIRECTION('',(1.,0.,-0.));
#299=VECTOR('',#298,87.193856182);
#300=LINE('',#297,#299);
#301=EDGE_CURVE('',#296,#287,#300,.T.);
#302=ORIENTED_EDGE('',*,*,#301,.F.);
#303=CARTESIAN_POINT('',(42.0625,3.,-0.5125));
#304=DIRECTION('',(0.,1.,0.));
#305=DIRECTION('',(0.,-0.,1.));
#306=AXIS2_PLACEMENT_3D('',#303,#304,#305);
#307=CIRCLE('',#306,6.);
#308=EDGE_CURVE('',#163,#296,#307,.T.);
#309=ORIENTED_EDGE('',*,*,#308,.F.);
#310=EDGE_LOOP('',(#169,#178,#186,#194,#200,#201,#210,#219,#227,#236,#243,#244,#252,#260,#268,#277,#285,#294,#302,#309));
#311=FACE_BOUND('',#310,.T.);
#312=CARTESIAN_POINT('',(42.0625,3.,-2.7625));
#313=VERTEX_POINT('',#312);
#314=CARTESIAN_POINT('',(42.0625,3.,1.7375));
#315=VERTEX_POINT('',#314);
#316=CARTESIAN_POINT('',(42.0625,3.,-0.5125));
#317=DIRECTION('',(-0.,-1.,-0.));
#318=DIRECTION('',(0.,-0.,1.));
#319=AXIS2_PLACEMENT_3D('',#316,#317,#318);
#320=CIRCLE('',#319,2.25);
#321=EDGE_CURVE('',#313,#315,#320,.T.);
#322=ORIENTED_EDGE('',*,*,#321,.F.);
#323=CARTESIAN_POINT('',(42.0625,3.,-0.5125));
#324=DIRECTION('',(-0.,-1.,-0.));
#325=DIRECTION('',(0.,-0.,1.));
#326=AXIS2_PLACEMENT_3D('',#323,#324,#325);
#327=CIRCLE('',#326,2.25);
#328=EDGE_CURVE('',#315,#313,#327,.T.);
#329=ORIENTED_EDGE('',*,*,#328,.F.);
#330=EDGE_LOOP('',(#322,#329));
#331=FACE_BOUND('',#330,.T.);
#332=ADVANCED_FACE('',(#159,#311,#331),#139,.F.);
#333=CARTESIAN_POINT('',(0.,7.,0.));
#334=DIRECTION('',(0.,0.,-1.));
#335=DIRECTION('',(-1.,0.,0.));
#336=AXIS2_PLACEMENT_3D('',#333,#334,#335);
#337=PLANE('',#336);
#338=CARTESIAN_POINT('',(48.040571909,13.,-0.));
#339=VERTEX_POINT('',#338);
#340=CARTESIAN_POINT('',(48.040571909,3.,-0.));
#341=DIRECTION('',(-0.,1.,-0.));
#342=VECTOR('',#341,10.);
#343=LINE('',#340,#342);
#344=EDGE_CURVE('',#296,#339,#343,.T.);
#345=ORIENTED_EDGE('',*,*,#344,.F.);
#346=ORIENTED_EDGE('',*,*,#301,.T.);
#347=CARTESIAN_POINT('',(135.234428091,13.,-0.));
#348=VERTEX_POINT('',#347);
#349=CARTESIAN_POINT('',(135.234428091,13.,-0.));
#350=DIRECTION('',(0.,-1.,0.));
#351=VECTOR('',#350,10.);
#352=LINE('',#349,#351);
#353=EDGE_CURVE('',#348,#287,#352,.T.);
#354=ORIENTED_EDGE('',*,*,#353,.F.);
#355=CARTESIAN_POINT('',(48.040571909,13.,0.));
#356=DIRECTION('',(1.,0.,-0.));
#357=VECTOR('',#356,87.193856182);
#358=LINE('',#355,#357);
#359=EDGE_CURVE('',#339,#348,#358,.T.);
#360=ORIENTED_EDGE('',*,*,#359,.F.);
#361=EDGE_LOOP('',(#345,#346,#354,#360));
#362=FACE_BOUND('',#361,.T.);
#363=ADVANCED_FACE('',(#362),#337,.F.);
#364=CARTESIAN_POINT('',(0.,7.,0.));
#365=DIRECTION('',(0.,0.,-1.));
#366=DIRECTION('',(-1.,0.,0.));
#367=AXIS2_PLACEMENT_3D('',#364,#365,#366);
#368=PLANE('',#367);
#369=CARTESIAN_POINT('',(3.,13.,0.));
#370=VERTEX_POINT('',#369);
#371=CARTESIAN_POINT('',(36.084428091,13.,-0.));
#372=VERTEX_POINT('',#371);
#373=CARTESIAN_POINT('',(3.,13.,0.));
#374=DIRECTION('',(1.,0.,-0.));
#375=VECTOR('',#374,33.084428091);
#376=LINE('',#373,#375);
#377=EDGE_CURVE('',#370,#372,#376,.T.);
#378=ORIENTED_EDGE('',*,*,#377,.F.);
#379=CARTESIAN_POINT('',(3.,13.,0.));
#380=DIRECTION('',(0.,-1.,0.));
#381=VECTOR('',#380,10.);
#382=LINE('',#379,#381);
#383=EDGE_CURVE('',#370,#161,#382,.T.);
#384=ORIENTED_EDGE('',*,*,#383,.T.);
#385=ORIENTED_EDGE('',*,*,#168,.T.);
#386=CARTESIAN_POINT('',(36.084428091,13.,-0.));
#387=DIRECTION('',(0.,-1.,0.));
#388=VECTOR('',#387,10.);
#389=LINE('',#386,#388);
#390=EDGE_CURVE('',#372,#163,#389,.T.);
#391=ORIENTED_EDGE('',*,*,#390,.F.);
#392=EDGE_LOOP('',(#378,#384,#385,#391));
#393=FACE_BOUND('',#392,.T.);
#394=ADVANCED_FACE('',(#393),#368,.F.);
#395=CARTESIAN_POINT('',(6.35,7.,-4.7625));
#396=DIRECTION('',(0.,0.,1.));
#397=DIRECTION('',(1.,0.,-0.));
#398=AXIS2_PLACEMENT_3D('',#395,#396,#397);
#399=PLANE('',#398);
#400=CARTESIAN_POINT('',(46.297768587,13.,-4.7625));
#401=VERTEX_POINT('',#400);
#402=CARTESIAN_POINT('',(46.297768587,13.,-4.7625));
#403=DIRECTION('',(0.,-1.,0.));
#404=VECTOR('',#403,10.);
#405=LINE('',#402,#404);
#406=EDGE_CURVE('',#401,#212,#405,.T.);
#407=ORIENTED_EDGE('',*,*,#406,.F.);
#408=CARTESIAN_POINT('',(136.977231413,13.,-4.7625));
#409=VERTEX_POINT('',#408);
#410=CARTESIAN_POINT('',(136.977231413,13.,-4.7625));
#411=DIRECTION('',(-1.,0.,0.));
#412=VECTOR('',#411,90.679462827);
#413=LINE('',#410,#412);
#414=EDGE_CURVE('',#409,#401,#413,.T.);
#415=ORIENTED_EDGE('',*,*,#414,.F.);
#416=CARTESIAN_POINT('',(136.977231413,3.,-4.7625));
#417=DIRECTION('',(-0.,1.,-0.));
#418=VECTOR('',#417,10.);
#419=LINE('',#416,#418);
#420=EDGE_CURVE('',#221,#409,#419,.T.);
#421=ORIENTED_EDGE('',*,*,#420,.F.);
#422=ORIENTED_EDGE('',*,*,#226,.T.);
#423=EDGE_LOOP('',(#407,#415,#421,#422));
#424=FACE_BOUND('',#423,.T.);
#425=ADVANCED_FACE('',(#424),#399,.F.);
#426=CARTESIAN_POINT('',(0.,7.,0.));
#427=DIRECTION('',(0.,0.,-1.));
#428=DIRECTION('',(-1.,0.,0.));
#429=AXIS2_PLACEMENT_3D('',#426,#427,#428);
#430=PLANE('',#429);
#431=ORIENTED_EDGE('',*,*,#284,.T.);
#432=CARTESIAN_POINT('',(180.275,13.,0.));
#433=VERTEX_POINT('',#432);
#434=CARTESIAN_POINT('',(180.275,3.,0.));
#435=DIRECTION('',(-0.,1.,-0.));
#436=VECTOR('',#435,10.);
#437=LINE('',#434,#436);
#438=EDGE_CURVE('',#270,#433,#437,.T.);
#439=ORIENTED_EDGE('',*,*,#438,.T.);
#440=CARTESIAN_POINT('',(147.190571909,13.,-0.));
#441=VERTEX_POINT('',#440);
#442=CARTESIAN_POINT('',(147.190571909,13.,0.));
#443=DIRECTION('',(1.,0.,-0.));
#444=VECTOR('',#443,33.084428091);
#445=LINE('',#442,#444);
#446=EDGE_CURVE('',#441,#433,#445,.T.);
#447=ORIENTED_EDGE('',*,*,#446,.F.);
#448=CARTESIAN_POINT('',(147.190571909,3.,-0.));
#449=DIRECTION('',(-0.,1.,-0.));
#450=VECTOR('',#449,10.);
#451=LINE('',#448,#450);
#452=EDGE_CURVE('',#279,#441,#451,.T.);
#453=ORIENTED_EDGE('',*,*,#452,.F.);
#454=EDGE_LOOP('',(#431,#439,#447,#453));
#455=FACE_BOUND('',#454,.T.);
#456=ADVANCED_FACE('',(#455),#430,.F.);
#457=CARTESIAN_POINT('',(0.,7.,-4.7625));
#458=DIRECTION('',(1.,0.,0.));
#459=DIRECTION('',(0.,0.,-1.));
#460=AXIS2_PLACEMENT_3D('',#457,#458,#459);
#461=PLANE('',#460);
#462=ORIENTED_EDGE('',*,*,#185,.T.);
#463=CARTESIAN_POINT('',(0.,13.,-3.));
#464=VERTEX_POINT('',#463);
#465=CARTESIAN_POINT('',(0.,3.,-3.));
#466=DIRECTION('',(-0.,1.,-0.));
#467=VECTOR('',#466,10.);
#468=LINE('',#465,#467);
#469=EDGE_CURVE('',#171,#464,#468,.T.);
#470=ORIENTED_EDGE('',*,*,#469,.T.);
#471=CARTESIAN_POINT('',(-0.,13.,-8.7625));
#472=VERTEX_POINT('',#471);
#473=CARTESIAN_POINT('',(0.,13.,-8.7625));
#474=DIRECTION('',(0.,0.,1.));
#475=VECTOR('',#474,5.7625);
#476=LINE('',#473,#475);
#477=EDGE_CURVE('',#472,#464,#476,.T.);
#478=ORIENTED_EDGE('',*,*,#477,.F.);
#479=CARTESIAN_POINT('',(-0.,3.,-8.7625));
#480=DIRECTION('',(0.,1.,0.));
#481=VECTOR('',#480,10.);
#482=LINE('',#479,#481);
#483=EDGE_CURVE('',#180,#472,#482,.T.);
#484=ORIENTED_EDGE('',*,*,#483,.F.);
#485=EDGE_LOOP('',(#462,#470,#478,#484));
#486=FACE_BOUND('',#485,.T.);
#487=ADVANCED_FACE('',(#486),#461,.F.);
#488=CARTESIAN_POINT('',(183.275,7.,0.));
#489=DIRECTION('',(-1.,0.,0.));
#490=DIRECTION('',(0.,0.,1.));
#491=AXIS2_PLACEMENT_3D('',#488,#489,#490);
#492=PLANE('',#491);
#493=CARTESIAN_POINT('',(183.275,13.,-3.));
#494=VERTEX_POINT('',#493);
#495=CARTESIAN_POINT('',(183.275,13.,-8.7625));
#496=VERTEX_POINT('',#495);
#497=CARTESIAN_POINT('',(183.275,13.,-3.));
#498=DIRECTION('',(0.,0.,-1.));
#499=VECTOR('',#498,5.7625);
#500=LINE('',#497,#499);
#501=EDGE_CURVE('',#494,#496,#500,.T.);
#502=ORIENTED_EDGE('',*,*,#501,.F.);
#503=CARTESIAN_POINT('',(183.275,13.,-3.));
#504=DIRECTION('',(0.,-1.,0.));
#505=VECTOR('',#504,10.);
#506=LINE('',#503,#505);
#507=EDGE_CURVE('',#494,#262,#506,.T.);
#508=ORIENTED_EDGE('',*,*,#507,.T.);
#509=ORIENTED_EDGE('',*,*,#267,.T.);
#510=CARTESIAN_POINT('',(183.275,13.,-8.7625));
#511=DIRECTION('',(0.,-1.,0.));
#512=VECTOR('',#511,10.);
#513=LINE('',#510,#512);
#514=EDGE_CURVE('',#496,#254,#513,.T.);
#515=ORIENTED_EDGE('',*,*,#514,.F.);
#516=EDGE_LOOP('',(#502,#508,#509,#515));
#517=FACE_BOUND('',#516,.T.);
#518=ADVANCED_FACE('',(#517),#492,.F.);
#519=CARTESIAN_POINT('',(0.,13.,0.));
#520=DIRECTION('',(0.,1.,0.));
#521=DIRECTION('',(0.,0.,1.));
#522=AXIS2_PLACEMENT_3D('',#519,#520,#521);
#523=PLANE('',#522);
#524=CARTESIAN_POINT('',(42.0625,13.,1.7375));
#525=VERTEX_POINT('',#524);
#526=CARTESIAN_POINT('',(42.0625,13.,-2.7625));
#527=VERTEX_POINT('',#526);
#528=CARTESIAN_POINT('',(42.0625,13.,-0.5125));
#529=DIRECTION('',(-0.,-1.,-0.));
#530=DIRECTION('',(0.,-0.,1.));
#531=AXIS2_PLACEMENT_3D('',#528,#529,#530);
#532=CIRCLE('',#531,2.25);
#533=EDGE_CURVE('',#525,#527,#532,.T.);
#534=ORIENTED_EDGE('',*,*,#533,.T.);
#535=CARTESIAN_POINT('',(42.0625,13.,-0.5125));
#536=DIRECTION('',(-0.,-1.,-0.));
#537=DIRECTION('',(0.,-0.,1.));
#538=AXIS2_PLACEMENT_3D('',#535,#536,#537);
#539=CIRCLE('',#538,2.25);
#540=EDGE_CURVE('',#527,#525,#539,.T.);
#541=ORIENTED_EDGE('',*,*,#540,.T.);
#542=EDGE_LOOP('',(#534,#541));
#543=FACE_BOUND('',#542,.T.);
#544=CARTESIAN_POINT('',(141.2125,13.,1.7375));
#545=VERTEX_POINT('',#544);
#546=CARTESIAN_POINT('',(141.2125,13.,-2.7625));
#547=VERTEX_POINT('',#546);
#548=CARTESIAN_POINT('',(141.2125,13.,-0.5125));
#549=DIRECTION('',(-0.,-1.,-0.));
#550=DIRECTION('',(0.,-0.,1.));
#551=AXIS2_PLACEMENT_3D('',#548,#549,#550);
#552=CIRCLE('',#551,2.25);
#553=EDGE_CURVE('',#545,#547,#552,.T.);
#554=ORIENTED_EDGE('',*,*,#553,.T.);
#555=CARTESIAN_POINT('',(141.2125,13.,-0.5125));
#556=DIRECTION('',(-0.,-1.,-0.));
#557=DIRECTION('',(0.,-0.,1.));
#558=AXIS2_PLACEMENT_3D('',#555,#556,#557);
#559=CIRCLE('',#558,2.25);
#560=EDGE_CURVE('',#547,#545,#559,.T.);
#561=ORIENTED_EDGE('',*,*,#560,.T.);
#562=EDGE_LOOP('',(#554,#561));
#563=FACE_BOUND('',#562,.T.);
#564=ORIENTED_EDGE('',*,*,#477,.T.);
#565=CARTESIAN_POINT('',(3.,13.,-3.));
#566=DIRECTION('',(0.,1.,0.));
#567=DIRECTION('',(0.,-0.,1.));
#568=AXIS2_PLACEMENT_3D('',#565,#566,#567);
#569=CIRCLE('',#568,3.);
#570=EDGE_CURVE('',#464,#370,#569,.T.);
#571=ORIENTED_EDGE('',*,*,#570,.T.);
#572=ORIENTED_EDGE('',*,*,#377,.T.);
#573=CARTESIAN_POINT('',(42.0625,13.,-0.5125));
#574=DIRECTION('',(0.,1.,0.));
#575=DIRECTION('',(0.,-0.,1.));
#576=AXIS2_PLACEMENT_3D('',#573,#574,#575);
#577=CIRCLE('',#576,6.);
#578=EDGE_CURVE('',#372,#339,#577,.T.);
#579=ORIENTED_EDGE('',*,*,#578,.T.);
#580=ORIENTED_EDGE('',*,*,#359,.T.);
#581=CARTESIAN_POINT('',(141.2125,13.,-0.5125));
#582=DIRECTION('',(0.,1.,0.));
#583=DIRECTION('',(0.,-0.,1.));
#584=AXIS2_PLACEMENT_3D('',#581,#582,#583);
#585=CIRCLE('',#584,6.);
#586=EDGE_CURVE('',#348,#441,#585,.T.);
#587=ORIENTED_EDGE('',*,*,#586,.T.);
#588=ORIENTED_EDGE('',*,*,#446,.T.);
#589=CARTESIAN_POINT('',(180.275,13.,-3.));
#590=DIRECTION('',(0.,1.,0.));
#591=DIRECTION('',(0.,-0.,1.));
#592=AXIS2_PLACEMENT_3D('',#589,#590,#591);
#593=CIRCLE('',#592,3.);
#594=EDGE_CURVE('',#433,#494,#593,.T.);
#595=ORIENTED_EDGE('',*,*,#594,.T.);
#596=ORIENTED_EDGE('',*,*,#501,.T.);
#597=CARTESIAN_POINT('',(178.5125,13.,-8.7625));
#598=VERTEX_POINT('',#597);
#599=CARTESIAN_POINT('',(178.5125,13.,-8.7625));
#600=DIRECTION('',(1.,0.,-0.));
#601=VECTOR('',#600,4.7625);
#602=LINE('',#599,#601);
#603=EDGE_CURVE('',#598,#496,#602,.T.);
#604=ORIENTED_EDGE('',*,*,#603,.F.);
#605=CARTESIAN_POINT('',(178.5125,13.,-8.7625));
#606=DIRECTION('',(0.,0.,1.));
#607=VECTOR('',#606,4.);
#608=LINE('',#605,#607);
#609=EDGE_CURVE('',#598,#63,#608,.T.);
#610=ORIENTED_EDGE('',*,*,#609,.T.);
#611=ORIENTED_EDGE('',*,*,#90,.T.);
#612=CARTESIAN_POINT('',(141.2125,13.,-6.5125));
#613=VERTEX_POINT('',#612);
#614=CARTESIAN_POINT('',(141.2125,13.,-0.5125));
#615=DIRECTION('',(0.,1.,0.));
#616=DIRECTION('',(0.,-0.,1.));
#617=AXIS2_PLACEMENT_3D('',#614,#615,#616);
#618=CIRCLE('',#617,6.);
#619=EDGE_CURVE('',#79,#613,#618,.T.);
#620=ORIENTED_EDGE('',*,*,#619,.T.);
#621=CARTESIAN_POINT('',(141.2125,13.,-0.5125));
#622=DIRECTION('',(0.,1.,0.));
#623=DIRECTION('',(0.,-0.,1.));
#624=AXIS2_PLACEMENT_3D('',#621,#622,#623);
#625=CIRCLE('',#624,6.);
#626=EDGE_CURVE('',#613,#409,#625,.T.);
#627=ORIENTED_EDGE('',*,*,#626,.T.);
#628=ORIENTED_EDGE('',*,*,#414,.T.);
#629=CARTESIAN_POINT('',(42.0625,13.,-6.5125));
#630=VERTEX_POINT('',#629);
#631=CARTESIAN_POINT('',(42.0625,13.,-0.5125));
#632=DIRECTION('',(0.,1.,0.));
#633=DIRECTION('',(0.,-0.,1.));
#634=AXIS2_PLACEMENT_3D('',#631,#632,#633);
#635=CIRCLE('',#634,6.);
#636=EDGE_CURVE('',#401,#630,#635,.T.);
#637=ORIENTED_EDGE('',*,*,#636,.T.);
#638=CARTESIAN_POINT('',(42.0625,13.,-0.5125));
#639=DIRECTION('',(0.,1.,0.));
#640=DIRECTION('',(0.,-0.,1.));
#641=AXIS2_PLACEMENT_3D('',#638,#639,#640);
#642=CIRCLE('',#641,6.);
#643=EDGE_CURVE('',#630,#111,#642,.T.);
#644=ORIENTED_EDGE('',*,*,#643,.T.);
#645=ORIENTED_EDGE('',*,*,#116,.T.);
#646=CARTESIAN_POINT('',(4.7625,13.,-8.7625));
#647=VERTEX_POINT('',#646);
#648=CARTESIAN_POINT('',(4.7625,13.,-8.7625));
#649=DIRECTION('',(0.,0.,1.));
#650=VECTOR('',#649,4.);
#651=LINE('',#648,#650);
#652=EDGE_CURVE('',#647,#101,#651,.T.);
#653=ORIENTED_EDGE('',*,*,#652,.F.);
#654=CARTESIAN_POINT('',(-0.,13.,-8.7625));
#655=DIRECTION('',(1.,0.,-0.));
#656=VECTOR('',#655,4.7625);
#657=LINE('',#654,#656);
#658=EDGE_CURVE('',#472,#647,#657,.T.);
#659=ORIENTED_EDGE('',*,*,#658,.F.);
#660=EDGE_LOOP('',(#564,#571,#572,#579,#580,#587,#588,#595,#596,#604,#610,#611,#620,#627,#628,#637,#644,#645,#653,#659));
#661=FACE_BOUND('',#660,.T.);
#662=ADVANCED_FACE('',(#543,#563,#661),#523,.T.);
#663=CARTESIAN_POINT('',(141.2125,23.970562748,-0.5125));
#664=DIRECTION('',(0.,-1.,0.));
#665=DIRECTION('',(0.,0.,-1.));
#666=AXIS2_PLACEMENT_3D('',#663,#664,#665);
#667=CYLINDRICAL_SURFACE('',#666,6.);
#668=CARTESIAN_POINT('',(141.2125,3.,-6.5125));
#669=DIRECTION('',(-0.,1.,-0.));
#670=VECTOR('',#669,10.);
#671=LINE('',#668,#670);
#672=EDGE_CURVE('',#229,#613,#671,.T.);
#673=ORIENTED_EDGE('',*,*,#672,.T.);
#674=ORIENTED_EDGE('',*,*,#619,.F.);
#675=ORIENTED_EDGE('',*,*,#84,.T.);
#676=ORIENTED_EDGE('',*,*,#242,.T.);
#677=EDGE_LOOP('',(#673,#674,#675,#676));
#678=FACE_BOUND('',#677,.T.);
#679=ADVANCED_FACE('',(#678),#667,.T.);
#680=CARTESIAN_POINT('',(141.2125,23.970562748,-0.5125));
#681=DIRECTION('',(0.,-1.,0.));
#682=DIRECTION('',(0.,0.,-1.));
#683=AXIS2_PLACEMENT_3D('',#680,#681,#682);
#684=CYLINDRICAL_SURFACE('',#683,6.);
#685=ORIENTED_EDGE('',*,*,#293,.T.);
#686=ORIENTED_EDGE('',*,*,#452,.T.);
#687=ORIENTED_EDGE('',*,*,#586,.F.);
#688=ORIENTED_EDGE('',*,*,#353,.T.);
#689=EDGE_LOOP('',(#685,#686,#687,#688));
#690=FACE_BOUND('',#689,.T.);
#691=ADVANCED_FACE('',(#690),#684,.T.);
#692=CARTESIAN_POINT('',(42.0625,23.970562748,-0.5125));
#693=DIRECTION('',(0.,-1.,0.));
#694=DIRECTION('',(0.,0.,-1.));
#695=AXIS2_PLACEMENT_3D('',#692,#693,#694);
#696=CYLINDRICAL_SURFACE('',#695,6.);
#697=CARTESIAN_POINT('',(42.0625,3.,-6.5125));
#698=DIRECTION('',(-0.,1.,-0.));
#699=VECTOR('',#698,10.);
#700=LINE('',#697,#699);
#701=EDGE_CURVE('',#203,#630,#700,.T.);
#702=ORIENTED_EDGE('',*,*,#701,.T.);
#703=ORIENTED_EDGE('',*,*,#636,.F.);
#704=ORIENTED_EDGE('',*,*,#406,.T.);
#705=ORIENTED_EDGE('',*,*,#218,.T.);
#706=EDGE_LOOP('',(#702,#703,#704,#705));
#707=FACE_BOUND('',#706,.T.);
#708=ADVANCED_FACE('',(#707),#696,.T.);
#709=CARTESIAN_POINT('',(42.0625,23.970562748,-0.5125));
#710=DIRECTION('',(0.,-1.,0.));
#711=DIRECTION('',(0.,0.,-1.));
#712=AXIS2_PLACEMENT_3D('',#709,#710,#711);
#713=CYLINDRICAL_SURFACE('',#712,6.);
#714=ORIENTED_EDGE('',*,*,#308,.T.);
#715=ORIENTED_EDGE('',*,*,#344,.T.);
#716=ORIENTED_EDGE('',*,*,#578,.F.);
#717=ORIENTED_EDGE('',*,*,#390,.T.);
#718=EDGE_LOOP('',(#714,#715,#716,#717));
#719=FACE_BOUND('',#718,.T.);
#720=ADVANCED_FACE('',(#719),#713,.T.);
#721=CARTESIAN_POINT('',(141.2125,0.,-0.5125));
#722=DIRECTION('',(0.,-1.,0.));
#723=DIRECTION('',(0.,0.,-1.));
#724=AXIS2_PLACEMENT_3D('',#721,#722,#723);
#725=CYLINDRICAL_SURFACE('',#724,2.25);
#726=CARTESIAN_POINT('',(141.2125,3.,-2.7625));
#727=DIRECTION('',(-0.,1.,-0.));
#728=VECTOR('',#727,10.);
#729=LINE('',#726,#728);
#730=EDGE_CURVE('',#141,#547,#729,.T.);
#731=ORIENTED_EDGE('',*,*,#730,.F.);
#732=ORIENTED_EDGE('',*,*,#149,.T.);
#733=ORIENTED_EDGE('',*,*,#156,.T.);
#734=ORIENTED_EDGE('',*,*,#730,.T.);
#735=ORIENTED_EDGE('',*,*,#553,.F.);
#736=ORIENTED_EDGE('',*,*,#560,.F.);
#737=EDGE_LOOP('',(#731,#732,#733,#734,#735,#736));
#738=FACE_BOUND('',#737,.T.);
#739=ADVANCED_FACE('',(#738),#725,.F.);
#740=CARTESIAN_POINT('',(42.0625,0.,-0.5125));
#741=DIRECTION('',(0.,-1.,0.));
#742=DIRECTION('',(0.,0.,-1.));
#743=AXIS2_PLACEMENT_3D('',#740,#741,#742);
#744=CYLINDRICAL_SURFACE('',#743,2.25);
#745=CARTESIAN_POINT('',(42.0625,3.,-2.7625));
#746=DIRECTION('',(-0.,1.,-0.));
#747=VECTOR('',#746,10.);
#748=LINE('',#745,#747);
#749=EDGE_CURVE('',#313,#527,#748,.T.);
#750=ORIENTED_EDGE('',*,*,#749,.F.);
#751=ORIENTED_EDGE('',*,*,#321,.T.);
#752=ORIENTED_EDGE('',*,*,#328,.T.);
#753=ORIENTED_EDGE('',*,*,#749,.T.);
#754=ORIENTED_EDGE('',*,*,#533,.F.);
#755=ORIENTED_EDGE('',*,*,#540,.F.);
#756=EDGE_LOOP('',(#750,#751,#752,#753,#754,#755));
#757=FACE_BOUND('',#756,.T.);
#758=ADVANCED_FACE('',(#757),#744,.F.);
#759=CARTESIAN_POINT('',(4.7625,7.,-8.7625));
#760=DIRECTION('',(-1.,0.,0.));
#761=DIRECTION('',(0.,0.,1.));
#762=AXIS2_PLACEMENT_3D('',#759,#760,#761);
#763=PLANE('',#762);
#764=ORIENTED_EDGE('',*,*,#108,.T.);
#765=ORIENTED_EDGE('',*,*,#199,.F.);
#766=CARTESIAN_POINT('',(4.7625,13.,-8.7625));
#767=DIRECTION('',(-0.,-1.,0.));
#768=VECTOR('',#767,10.);
#769=LINE('',#766,#768);
#770=EDGE_CURVE('',#647,#188,#769,.T.);
#771=ORIENTED_EDGE('',*,*,#770,.F.);
#772=ORIENTED_EDGE('',*,*,#652,.T.);
#773=EDGE_LOOP('',(#764,#765,#771,#772));
#774=FACE_BOUND('',#773,.T.);
#775=ADVANCED_FACE('',(#774),#763,.F.);
#776=CARTESIAN_POINT('',(-0.,0.,-8.7625));
#777=DIRECTION('',(0.,0.,1.));
#778=DIRECTION('',(1.,0.,-0.));
#779=AXIS2_PLACEMENT_3D('',#776,#777,#778);
#780=PLANE('',#779);
#781=ORIENTED_EDGE('',*,*,#483,.T.);
#782=ORIENTED_EDGE('',*,*,#658,.T.);
#783=ORIENTED_EDGE('',*,*,#770,.T.);
#784=ORIENTED_EDGE('',*,*,#193,.T.);
#785=EDGE_LOOP('',(#781,#782,#783,#784));
#786=FACE_BOUND('',#785,.T.);
#787=ADVANCED_FACE('',(#786),#780,.F.);
#788=CARTESIAN_POINT('',(178.5125,7.,-8.7625));
#789=DIRECTION('',(1.,0.,-0.));
#790=DIRECTION('',(-0.,0.,-1.));
#791=AXIS2_PLACEMENT_3D('',#788,#789,#790);
#792=PLANE('',#791);
#793=ORIENTED_EDGE('',*,*,#68,.T.);
#794=ORIENTED_EDGE('',*,*,#609,.F.);
#795=CARTESIAN_POINT('',(178.5125,3.,-8.7625));
#796=DIRECTION('',(0.,1.,0.));
#797=VECTOR('',#796,10.);
#798=LINE('',#795,#797);
#799=EDGE_CURVE('',#246,#598,#798,.T.);
#800=ORIENTED_EDGE('',*,*,#799,.F.);
#801=ORIENTED_EDGE('',*,*,#251,.T.);
#802=EDGE_LOOP('',(#793,#794,#800,#801));
#803=FACE_BOUND('',#802,.T.);
#804=ADVANCED_FACE('',(#803),#792,.F.);
#805=CARTESIAN_POINT('',(-0.,0.,-8.7625));
#806=DIRECTION('',(-0.,0.,-1.));
#807=DIRECTION('',(-1.,0.,0.));
#808=AXIS2_PLACEMENT_3D('',#805,#806,#807);
#809=PLANE('',#808);
#810=ORIENTED_EDGE('',*,*,#514,.T.);
#811=ORIENTED_EDGE('',*,*,#259,.T.);
#812=ORIENTED_EDGE('',*,*,#799,.T.);
#813=ORIENTED_EDGE('',*,*,#603,.T.);
#814=EDGE_LOOP('',(#810,#811,#812,#813));
#815=FACE_BOUND('',#814,.T.);
#816=ADVANCED_FACE('',(#815),#809,.T.);
#817=CARTESIAN_POINT('',(180.275,7.,-3.));
#818=DIRECTION('',(0.,-1.,0.));
#819=DIRECTION('',(0.,0.,-1.));
#820=AXIS2_PLACEMENT_3D('',#817,#818,#819);
#821=CYLINDRICAL_SURFACE('',#820,3.);
#822=ORIENTED_EDGE('',*,*,#594,.F.);
#823=ORIENTED_EDGE('',*,*,#438,.F.);
#824=ORIENTED_EDGE('',*,*,#276,.F.);
#825=ORIENTED_EDGE('',*,*,#507,.F.);
#826=EDGE_LOOP('',(#822,#823,#824,#825));
#827=FACE_BOUND('',#826,.T.);
#828=ADVANCED_FACE('',(#827),#821,.T.);
#829=CARTESIAN_POINT('',(3.,7.,-3.));
#830=DIRECTION('',(0.,-1.,0.));
#831=DIRECTION('',(0.,0.,-1.));
#832=AXIS2_PLACEMENT_3D('',#829,#830,#831);
#833=CYLINDRICAL_SURFACE('',#832,3.);
#834=ORIENTED_EDGE('',*,*,#570,.F.);
#835=ORIENTED_EDGE('',*,*,#469,.F.);
#836=ORIENTED_EDGE('',*,*,#177,.F.);
#837=ORIENTED_EDGE('',*,*,#383,.F.);
#838=EDGE_LOOP('',(#834,#835,#836,#837));
#839=FACE_BOUND('',#838,.T.);
#840=ADVANCED_FACE('',(#839),#833,.T.);
#841=CARTESIAN_POINT('',(141.2125,23.970562748,-0.5125));
#842=DIRECTION('',(0.,-1.,0.));
#843=DIRECTION('',(0.,0.,-1.));
#844=AXIS2_PLACEMENT_3D('',#841,#842,#843);
#845=CYLINDRICAL_SURFACE('',#844,6.);
#846=ORIENTED_EDGE('',*,*,#672,.F.);
#847=ORIENTED_EDGE('',*,*,#235,.T.);
#848=ORIENTED_EDGE('',*,*,#420,.T.);
#849=ORIENTED_EDGE('',*,*,#626,.F.);
#850=EDGE_LOOP('',(#846,#847,#848,#849));
#851=FACE_BOUND('',#850,.T.);
#852=ADVANCED_FACE('',(#851),#845,.T.);
#853=CARTESIAN_POINT('',(42.0625,23.970562748,-0.5125));
#854=DIRECTION('',(0.,-1.,0.));
#855=DIRECTION('',(0.,0.,-1.));
#856=AXIS2_PLACEMENT_3D('',#853,#854,#855);
#857=CYLINDRICAL_SURFACE('',#856,6.);
#858=ORIENTED_EDGE('',*,*,#701,.F.);
#859=ORIENTED_EDGE('',*,*,#209,.T.);
#860=ORIENTED_EDGE('',*,*,#124,.T.);
#861=ORIENTED_EDGE('',*,*,#643,.F.);
#862=EDGE_LOOP('',(#858,#859,#860,#861));
#863=FACE_BOUND('',#862,.T.);
#864=ADVANCED_FACE('',(#863),#857,.T.);
#865=CLOSED_SHELL('',(#94,#134,#332,#363,#394,#425,#456,#487,#518,#662,#679,#691,#708,#720,#739,#758,#775,#787,#804,#816,#828,#840,#852,#864));
#866=MANIFOLD_SOLID_BREP('Imported 01',#865);
#867=COLOUR_RGB('',0.792156875,0.819607854,0.933333337);
#868=FILL_AREA_STYLE_COLOUR('',#867);
#869=FILL_AREA_STYLE('',(#868));
#870=SURFACE_STYLE_FILL_AREA(#869);
#871=SURFACE_SIDE_STYLE('',(#870));
#872=SURFACE_STYLE_USAGE(.BOTH.,#871);
#873=PRESENTATION_STYLE_ASSIGNMENT((#872));
#54=STYLED_ITEM('',(#873),#866);
#35=SHAPE_REPRESENTATION('[WOJ-CUENC-015-RevAB] Cable Clamp Mid.SLDPRT',(#15),#33);
#36=ADVANCED_BREP_SHAPE_REPRESENTATION('[WOJ-CUENC-015-RevAB] Cable Clamp Mid.SLDPRT',(#866),#33);
#881=SHAPE_REPRESENTATION_RELATIONSHIP('','',#35,#36);
#882=CARTESIAN_POINT('',(0.,0.,0.));
#883=DIRECTION('',(0.,0.,1.));
#884=DIRECTION('',(1.,0.,0.));
#885=AXIS2_PLACEMENT_3D('',#882,#883,#884);
#887=MAPPED_ITEM('',#886,#885);
#886=REPRESENTATION_MAP(#885,#35);
#888=APPLICATION_CONTEXT('Managed model based 3d engineering');
#889=APPLICATION_PROTOCOL_DEFINITION('international standard','ap242_managed_model_based_3d_engineering',2014,#888);
#890=PRODUCT_CONTEXT('',#888,'mechanical');
#891=PRODUCT_DEFINITION_CONTEXT('part definition',#888,'design');
#43=PRODUCT('[WOJ-CUENC-015-RevAB] Cable Clamp Mid.SLDPRT','[WOJ-CUENC-015-RevAB] Cable Clamp Mid.SLDPRT','',(#890));
#892=PRODUCT_RELATED_PRODUCT_CATEGORY('part','',(#43));
#893=PRODUCT_DEFINITION_FORMATION_WITH_SPECIFIED_SOURCE('','',#43,.NOT_KNOWN.);
#44=PRODUCT_DEFINITION('design','',#893,#891);
#42=PRODUCT_DEFINITION_SHAPE('','',#44);
#894=SHAPE_DEFINITION_REPRESENTATION(#42,#35);
#34=DRAUGHTING_MODEL('',(#887),#33);
#16=SHAPE_REPRESENTATION('root',(#15,#48),#10);
#895=CARTESIAN_POINT('',(0.,0.,0.));
#896=DIRECTION('',(0.,0.,1.));
#897=DIRECTION('',(1.,0.,0.));
#898=AXIS2_PLACEMENT_3D('',#895,#896,#897);
#900=MAPPED_ITEM('',#899,#898);
#899=REPRESENTATION_MAP(#898,#16);
#24=PRODUCT('root','root','',(#890));
#901=PRODUCT_RELATED_PRODUCT_CATEGORY('part','',(#24));
#902=PRODUCT_DEFINITION_FORMATION_WITH_SPECIFIED_SOURCE('','',#24,.NOT_KNOWN.);
#25=PRODUCT_DEFINITION('design','',#902,#891);
#23=PRODUCT_DEFINITION_SHAPE('','',#25);
#903=SHAPE_DEFINITION_REPRESENTATION(#23,#16);
#11=DRAUGHTING_MODEL('',(#900),#10);
#904=DESCRIPTIVE_REPRESENTATION_ITEM('KEY','C:\\Users\\bilal\\AppData\\Local\\Packages\\Shapr3D.Shapr3D_j403pzjkqtqbj\\TempState\\d1dc9872-8bdd-4a72-bccf-5445e68ca681.tmp');
#905=PROPERTY_DEFINITION('KEY','',#25);
#906=REPRESENTATION('',(#904),#10);
#907=PROPERTY_DEFINITION_REPRESENTATION(#905,#906);
#908=GENERAL_PROPERTY('','KEY','');
#909=GENERAL_PROPERTY_ASSOCIATION('','',#908,#905);
#1=MECHANICAL_DESIGN_GEOMETRIC_PRESENTATION_REPRESENTATION('',(#54),#10);
ENDSEC;
END-ISO-10303-21;
