ISO-10303-21;
HEADER;

/* File generated by Shapr3D Version 5.791.8191.0 */

FILE_DESCRIPTION(('HOOPS Exchange Step'),'2;1');

FILE_NAME('C:\\Users\\bilal\\AppData\\Local\\Packages\\Shapr3D.Shapr3D_j403pzjkqtqbj\\TempState\\export\\temp_export',
'2025-02-19T18:33:19+01:00',
('bilal'),
('Shapr3D Limited'),
'HOOPS Exchange 2024.8',
'Shapr3D',
'Authorized');

FILE_SCHEMA( ('AP242_MANAGED_MODEL_BASED_3D_ENGINEERING_MIM_LF {1 0 10303 442 1 1 4}') );

ENDSEC;

DATA;
#3=(NAMED_UNIT(*)PLANE_ANGLE_UNIT()SI_UNIT($,.RADIAN.));
#4=PLANE_ANGLE_MEASURE_WITH_UNIT(PLANE_ANGLE_MEASURE(0.0174532925),#3);
#5=(CONVERSION_BASED_UNIT('DEGREE',#4)NAMED_UNIT(#6)PLANE_ANGLE_UNIT());
#6=DIMENSIONAL_EXPONENTS(0.,0.,0.,0.,0.,0.,0.);
#7=(NAMED_UNIT(*)SI_UNIT($,.STERADIAN.)SOLID_ANGLE_UNIT());
#8=(LENGTH_UNIT()NAMED_UNIT(*)SI_UNIT(.MILLI.,.METRE.));
#9=UNCERTAINTY_MEASURE_WITH_UNIT(LENGTH_MEASURE(1.000000E-03),#8,'DISTANCE_ACCURACY_VALUE','Maximum Tolerance applied to model');
#10=(GEOMETRIC_REPRESENTATION_CONTEXT(3)GLOBAL_UNCERTAINTY_ASSIGNED_CONTEXT((#9))GLOBAL_UNIT_ASSIGNED_CONTEXT((#8,#5,#7))REPRESENTATION_CONTEXT('','root'));
#12=CARTESIAN_POINT('',(0.,0.,0.));
#13=DIRECTION('',(0.,0.,1.));
#14=DIRECTION('',(1.,0.,0.));
#15=AXIS2_PLACEMENT_3D('',#12,#13,#14);
#26=(NAMED_UNIT(*)PLANE_ANGLE_UNIT()SI_UNIT($,.RADIAN.));
#27=PLANE_ANGLE_MEASURE_WITH_UNIT(PLANE_ANGLE_MEASURE(0.0174532925),#26);
#28=(CONVERSION_BASED_UNIT('DEGREE',#27)NAMED_UNIT(#29)PLANE_ANGLE_UNIT());
#29=DIMENSIONAL_EXPONENTS(0.,0.,0.,0.,0.,0.,0.);
#30=(NAMED_UNIT(*)SI_UNIT($,.STERADIAN.)SOLID_ANGLE_UNIT());
#31=(LENGTH_UNIT()NAMED_UNIT(*)SI_UNIT(.MILLI.,.METRE.));
#32=UNCERTAINTY_MEASURE_WITH_UNIT(LENGTH_MEASURE(1.000000E-05),#31,'DISTANCE_ACCURACY_VALUE','Maximum Tolerance applied to model');
#33=(GEOMETRIC_REPRESENTATION_CONTEXT(3)GLOBAL_UNCERTAINTY_ASSIGNED_CONTEXT((#32))GLOBAL_UNIT_ASSIGNED_CONTEXT((#31,#28,#30))REPRESENTATION_CONTEXT('','[WOJ-CUENC-014-RevAB] Cable Clamp Base.SLDPRT'));
#45=CARTESIAN_POINT('',(0.,0.,0.));
#46=DIRECTION('',(0.,0.,1.));
#47=DIRECTION('',(1.,0.,-0.));
#48=AXIS2_PLACEMENT_3D('',#45,#46,#47);
#49=ITEM_DEFINED_TRANSFORMATION('','',#48,#15);
#50=(REPRESENTATION_RELATIONSHIP('','',#35,#16)REPRESENTATION_RELATIONSHIP_WITH_TRANSFORMATION(#49)SHAPE_REPRESENTATION_RELATIONSHIP());
#51=NEXT_ASSEMBLY_USAGE_OCCURRENCE('[WOJ-CUENC-014-RevAB] Cable Clamp Base.SLDPRT_1','[WOJ-CUENC-014-RevAB] Cable Clamp Base.SLDPRT','[WOJ-CUENC-014-RevAB] Cable Clamp Base.SLDPRT',#25,#44,$);
#52=PRODUCT_DEFINITION_SHAPE('','',#51);
#53=CONTEXT_DEPENDENT_SHAPE_REPRESENTATION(#50,#52);
#55=CARTESIAN_POINT('',(6.35,19.,-4.7625));
#56=DIRECTION('',(0.,0.,1.));
#57=DIRECTION('',(1.,0.,-0.));
#58=AXIS2_PLACEMENT_3D('',#55,#56,#57);
#59=PLANE('',#58);
#60=CARTESIAN_POINT('',(4.7625,13.8,-4.7625));
#61=VERTEX_POINT('',#60);
#62=CARTESIAN_POINT('',(4.7625,4.8,-4.7625));
#63=VERTEX_POINT('',#62);
#64=CARTESIAN_POINT('',(4.7625,13.8,-4.7625));
#65=DIRECTION('',(-0.,-1.,0.));
#66=VECTOR('',#65,9.);
#67=LINE('',#64,#66);
#68=EDGE_CURVE('',#61,#63,#67,.T.);
#69=ORIENTED_EDGE('',*,*,#68,.F.);
#70=CARTESIAN_POINT('',(37.827231413,13.8,-4.7625));
#71=VERTEX_POINT('',#70);
#72=CARTESIAN_POINT('',(37.827231413,13.8,-4.7625));
#73=DIRECTION('',(-1.,0.,0.));
#74=VECTOR('',#73,33.064731413);
#75=LINE('',#72,#74);
#76=EDGE_CURVE('',#71,#61,#75,.T.);
#77=ORIENTED_EDGE('',*,*,#76,.F.);
#78=CARTESIAN_POINT('',(37.827231413,4.8,-4.7625));
#79=VERTEX_POINT('',#78);
#80=CARTESIAN_POINT('',(37.827231413,4.8,-4.7625));
#81=DIRECTION('',(-0.,1.,-0.));
#82=VECTOR('',#81,9.);
#83=LINE('',#80,#82);
#84=EDGE_CURVE('',#79,#71,#83,.T.);
#85=ORIENTED_EDGE('',*,*,#84,.F.);
#86=CARTESIAN_POINT('',(33.85,4.8,-4.7625));
#87=VERTEX_POINT('',#86);
#88=CARTESIAN_POINT('',(33.85,4.8,-4.7625));
#89=DIRECTION('',(1.,-0.,-0.));
#90=VECTOR('',#89,3.977231413);
#91=LINE('',#88,#90);
#92=EDGE_CURVE('',#87,#79,#91,.T.);
#93=ORIENTED_EDGE('',*,*,#92,.F.);
#94=CARTESIAN_POINT('',(33.85,12.3,-4.7625));
#95=VERTEX_POINT('',#94);
#96=CARTESIAN_POINT('',(33.85,12.3,-4.7625));
#97=DIRECTION('',(0.,-1.,0.));
#98=VECTOR('',#97,7.5);
#99=LINE('',#96,#98);
#100=EDGE_CURVE('',#95,#87,#99,.T.);
#101=ORIENTED_EDGE('',*,*,#100,.F.);
#102=CARTESIAN_POINT('',(9.35,12.3,-4.7625));
#103=VERTEX_POINT('',#102);
#104=CARTESIAN_POINT('',(33.85,12.3,-4.7625));
#105=DIRECTION('',(-1.,0.,0.));
#106=VECTOR('',#105,24.5);
#107=LINE('',#104,#106);
#108=EDGE_CURVE('',#95,#103,#107,.T.);
#109=ORIENTED_EDGE('',*,*,#108,.T.);
#110=CARTESIAN_POINT('',(9.35,4.8,-4.7625));
#111=VERTEX_POINT('',#110);
#112=CARTESIAN_POINT('',(9.35,12.3,-4.7625));
#113=DIRECTION('',(-0.,-1.,0.));
#114=VECTOR('',#113,7.5);
#115=LINE('',#112,#114);
#116=EDGE_CURVE('',#103,#111,#115,.T.);
#117=ORIENTED_EDGE('',*,*,#116,.T.);
#118=CARTESIAN_POINT('',(4.7625,4.8,-4.7625));
#119=DIRECTION('',(1.,-0.,-0.));
#120=VECTOR('',#119,4.5875);
#121=LINE('',#118,#120);
#122=EDGE_CURVE('',#63,#111,#121,.T.);
#123=ORIENTED_EDGE('',*,*,#122,.F.);
#124=EDGE_LOOP('',(#69,#77,#85,#93,#101,#109,#117,#123));
#125=FACE_BOUND('',#124,.T.);
#126=ADVANCED_FACE('',(#125),#59,.F.);
#127=CARTESIAN_POINT('',(6.35,19.,-4.7625));
#128=DIRECTION('',(0.,0.,1.));
#129=DIRECTION('',(1.,0.,-0.));
#130=AXIS2_PLACEMENT_3D('',#127,#128,#129);
#131=PLANE('',#130);
#132=CARTESIAN_POINT('',(46.297768587,4.8,-4.7625));
#133=VERTEX_POINT('',#132);
#134=CARTESIAN_POINT('',(136.977231413,4.8,-4.7625));
#135=VERTEX_POINT('',#134);
#136=CARTESIAN_POINT('',(46.297768587,4.8,-4.7625));
#137=DIRECTION('',(1.,-0.,-0.));
#138=VECTOR('',#137,90.679462827);
#139=LINE('',#136,#138);
#140=EDGE_CURVE('',#133,#135,#139,.T.);
#141=ORIENTED_EDGE('',*,*,#140,.F.);
#142=CARTESIAN_POINT('',(46.297768587,13.8,-4.7625));
#143=VERTEX_POINT('',#142);
#144=CARTESIAN_POINT('',(46.297768587,13.8,-4.7625));
#145=DIRECTION('',(0.,-1.,0.));
#146=VECTOR('',#145,9.);
#147=LINE('',#144,#146);
#148=EDGE_CURVE('',#143,#133,#147,.T.);
#149=ORIENTED_EDGE('',*,*,#148,.F.);
#150=CARTESIAN_POINT('',(136.977231413,13.8,-4.7625));
#151=VERTEX_POINT('',#150);
#152=CARTESIAN_POINT('',(136.977231413,13.8,-4.7625));
#153=DIRECTION('',(-1.,0.,0.));
#154=VECTOR('',#153,90.679462827);
#155=LINE('',#152,#154);
#156=EDGE_CURVE('',#151,#143,#155,.T.);
#157=ORIENTED_EDGE('',*,*,#156,.F.);
#158=CARTESIAN_POINT('',(136.977231413,4.8,-4.7625));
#159=DIRECTION('',(-0.,1.,-0.));
#160=VECTOR('',#159,9.);
#161=LINE('',#158,#160);
#162=EDGE_CURVE('',#135,#151,#161,.T.);
#163=ORIENTED_EDGE('',*,*,#162,.F.);
#164=EDGE_LOOP('',(#141,#149,#157,#163));
#165=FACE_BOUND('',#164,.T.);
#166=ADVANCED_FACE('',(#165),#131,.F.);
#167=CARTESIAN_POINT('',(6.35,19.,-4.7625));
#168=DIRECTION('',(0.,0.,1.));
#169=DIRECTION('',(1.,0.,-0.));
#170=AXIS2_PLACEMENT_3D('',#167,#168,#169);
#171=PLANE('',#170);
#172=CARTESIAN_POINT('',(145.447768587,4.8,-4.7625));
#173=VERTEX_POINT('',#172);
#174=CARTESIAN_POINT('',(149.425,4.8,-4.7625));
#175=VERTEX_POINT('',#174);
#176=CARTESIAN_POINT('',(145.447768587,4.8,-4.7625));
#177=DIRECTION('',(1.,-0.,-0.));
#178=VECTOR('',#177,3.977231413);
#179=LINE('',#176,#178);
#180=EDGE_CURVE('',#173,#175,#179,.T.);
#181=ORIENTED_EDGE('',*,*,#180,.F.);
#182=CARTESIAN_POINT('',(145.447768587,13.8,-4.7625));
#183=VERTEX_POINT('',#182);
#184=CARTESIAN_POINT('',(145.447768587,13.8,-4.7625));
#185=DIRECTION('',(0.,-1.,0.));
#186=VECTOR('',#185,9.);
#187=LINE('',#184,#186);
#188=EDGE_CURVE('',#183,#173,#187,.T.);
#189=ORIENTED_EDGE('',*,*,#188,.F.);
#190=CARTESIAN_POINT('',(178.5125,13.8,-4.7625));
#191=VERTEX_POINT('',#190);
#192=CARTESIAN_POINT('',(178.5125,13.8,-4.7625));
#193=DIRECTION('',(-1.,0.,0.));
#194=VECTOR('',#193,33.064731413);
#195=LINE('',#192,#194);
#196=EDGE_CURVE('',#191,#183,#195,.T.);
#197=ORIENTED_EDGE('',*,*,#196,.F.);
#198=CARTESIAN_POINT('',(178.5125,4.8,-4.7625));
#199=VERTEX_POINT('',#198);
#200=CARTESIAN_POINT('',(178.5125,4.8,-4.7625));
#201=DIRECTION('',(0.,1.,0.));
#202=VECTOR('',#201,9.);
#203=LINE('',#200,#202);
#204=EDGE_CURVE('',#199,#191,#203,.T.);
#205=ORIENTED_EDGE('',*,*,#204,.F.);
#206=CARTESIAN_POINT('',(173.925,4.8,-4.7625));
#207=VERTEX_POINT('',#206);
#208=CARTESIAN_POINT('',(173.925,4.8,-4.7625));
#209=DIRECTION('',(1.,-0.,-0.));
#210=VECTOR('',#209,4.5875);
#211=LINE('',#208,#210);
#212=EDGE_CURVE('',#207,#199,#211,.T.);
#213=ORIENTED_EDGE('',*,*,#212,.F.);
#214=CARTESIAN_POINT('',(173.925,12.3,-4.7625));
#215=VERTEX_POINT('',#214);
#216=CARTESIAN_POINT('',(173.925,4.8,-4.7625));
#217=DIRECTION('',(0.,1.,0.));
#218=VECTOR('',#217,7.5);
#219=LINE('',#216,#218);
#220=EDGE_CURVE('',#207,#215,#219,.T.);
#221=ORIENTED_EDGE('',*,*,#220,.T.);
#222=CARTESIAN_POINT('',(149.425,12.3,-4.7625));
#223=VERTEX_POINT('',#222);
#224=CARTESIAN_POINT('',(173.925,12.3,-4.7625));
#225=DIRECTION('',(-1.,0.,0.));
#226=VECTOR('',#225,24.5);
#227=LINE('',#224,#226);
#228=EDGE_CURVE('',#215,#223,#227,.T.);
#229=ORIENTED_EDGE('',*,*,#228,.T.);
#230=CARTESIAN_POINT('',(149.425,12.3,-4.7625));
#231=DIRECTION('',(0.,-1.,0.));
#232=VECTOR('',#231,7.5);
#233=LINE('',#230,#232);
#234=EDGE_CURVE('',#223,#175,#233,.T.);
#235=ORIENTED_EDGE('',*,*,#234,.T.);
#236=EDGE_LOOP('',(#181,#189,#197,#205,#213,#221,#229,#235));
#237=FACE_BOUND('',#236,.T.);
#238=ADVANCED_FACE('',(#237),#171,.F.);
#239=CARTESIAN_POINT('',(176.925,19.,-18.7625));
#240=DIRECTION('',(0.,0.,1.));
#241=DIRECTION('',(1.,0.,0.));
#242=AXIS2_PLACEMENT_3D('',#239,#240,#241);
#243=PLANE('',#242);
#244=CARTESIAN_POINT('',(149.425,7.3,-18.7625));
#245=VERTEX_POINT('',#244);
#246=CARTESIAN_POINT('',(149.425,4.8,-18.7625));
#247=VERTEX_POINT('',#246);
#248=CARTESIAN_POINT('',(149.425,7.3,-18.7625));
#249=DIRECTION('',(0.,-1.,0.));
#250=VECTOR('',#249,2.5);
#251=LINE('',#248,#250);
#252=EDGE_CURVE('',#245,#247,#251,.T.);
#253=ORIENTED_EDGE('',*,*,#252,.F.);
#254=CARTESIAN_POINT('',(173.925,7.3,-18.7625));
#255=VERTEX_POINT('',#254);
#256=CARTESIAN_POINT('',(149.425,7.3,-18.7625));
#257=DIRECTION('',(1.,0.,-0.));
#258=VECTOR('',#257,24.5);
#259=LINE('',#256,#258);
#260=EDGE_CURVE('',#245,#255,#259,.T.);
#261=ORIENTED_EDGE('',*,*,#260,.T.);
#262=CARTESIAN_POINT('',(173.925,4.8,-18.7625));
#263=VERTEX_POINT('',#262);
#264=CARTESIAN_POINT('',(173.925,4.8,-18.7625));
#265=DIRECTION('',(0.,1.,0.));
#266=VECTOR('',#265,2.5);
#267=LINE('',#264,#266);
#268=EDGE_CURVE('',#263,#255,#267,.T.);
#269=ORIENTED_EDGE('',*,*,#268,.F.);
#270=CARTESIAN_POINT('',(173.925,4.8,-18.7625));
#271=DIRECTION('',(-1.,0.,0.));
#272=VECTOR('',#271,24.5);
#273=LINE('',#270,#272);
#274=EDGE_CURVE('',#263,#247,#273,.T.);
#275=ORIENTED_EDGE('',*,*,#274,.T.);
#276=EDGE_LOOP('',(#253,#261,#269,#275));
#277=FACE_BOUND('',#276,.T.);
#278=ADVANCED_FACE('',(#277),#243,.F.);
#279=CARTESIAN_POINT('',(149.425,19.,-18.7625));
#280=DIRECTION('',(1.,0.,0.));
#281=DIRECTION('',(0.,0.,-1.));
#282=AXIS2_PLACEMENT_3D('',#279,#280,#281);
#283=PLANE('',#282);
#284=CARTESIAN_POINT('',(149.425,12.3,-13.7625));
#285=VERTEX_POINT('',#284);
#286=CARTESIAN_POINT('',(149.425,12.3,-4.7625));
#287=DIRECTION('',(0.,-0.,-1.));
#288=VECTOR('',#287,9.);
#289=LINE('',#286,#288);
#290=EDGE_CURVE('',#223,#285,#289,.T.);
#291=ORIENTED_EDGE('',*,*,#290,.T.);
#292=CARTESIAN_POINT('',(149.425,12.3,-13.7625));
#293=DIRECTION('',(0.,-0.707106781,-0.707106781));
#294=VECTOR('',#293,7.071067812);
#295=LINE('',#292,#294);
#296=EDGE_CURVE('',#285,#245,#295,.T.);
#297=ORIENTED_EDGE('',*,*,#296,.T.);
#298=ORIENTED_EDGE('',*,*,#252,.T.);
#299=CARTESIAN_POINT('',(149.425,4.8,-8.7625));
#300=VERTEX_POINT('',#299);
#301=CARTESIAN_POINT('',(149.425,4.8,-18.7625));
#302=DIRECTION('',(0.,0.,1.));
#303=VECTOR('',#302,10.);
#304=LINE('',#301,#303);
#305=EDGE_CURVE('',#247,#300,#304,.T.);
#306=ORIENTED_EDGE('',*,*,#305,.T.);
#307=CARTESIAN_POINT('',(149.425,4.8,-4.7625));
#308=DIRECTION('',(0.,-0.,-1.));
#309=VECTOR('',#308,4.);
#310=LINE('',#307,#309);
#311=EDGE_CURVE('',#175,#300,#310,.T.);
#312=ORIENTED_EDGE('',*,*,#311,.F.);
#313=ORIENTED_EDGE('',*,*,#234,.F.);
#314=EDGE_LOOP('',(#291,#297,#298,#306,#312,#313));
#315=FACE_BOUND('',#314,.T.);
#316=ADVANCED_FACE('',(#315),#283,.F.);
#317=CARTESIAN_POINT('',(33.85,19.,-4.7625));
#318=DIRECTION('',(-1.,0.,0.));
#319=DIRECTION('',(0.,0.,1.));
#320=AXIS2_PLACEMENT_3D('',#317,#318,#319);
#321=PLANE('',#320);
#322=CARTESIAN_POINT('',(33.85,7.3,-18.7625));
#323=VERTEX_POINT('',#322);
#324=CARTESIAN_POINT('',(33.85,4.8,-18.7625));
#325=VERTEX_POINT('',#324);
#326=CARTESIAN_POINT('',(33.85,7.3,-18.7625));
#327=DIRECTION('',(0.,-1.,0.));
#328=VECTOR('',#327,2.5);
#329=LINE('',#326,#328);
#330=EDGE_CURVE('',#323,#325,#329,.T.);
#331=ORIENTED_EDGE('',*,*,#330,.F.);
#332=CARTESIAN_POINT('',(33.85,12.3,-13.7625));
#333=VERTEX_POINT('',#332);
#334=CARTESIAN_POINT('',(33.85,7.3,-18.7625));
#335=DIRECTION('',(0.,0.707106781,0.707106781));
#336=VECTOR('',#335,7.071067812);
#337=LINE('',#334,#336);
#338=EDGE_CURVE('',#323,#333,#337,.T.);
#339=ORIENTED_EDGE('',*,*,#338,.T.);
#340=CARTESIAN_POINT('',(33.85,12.3,-13.7625));
#341=DIRECTION('',(0.,0.,1.));
#342=VECTOR('',#341,9.);
#343=LINE('',#340,#342);
#344=EDGE_CURVE('',#333,#95,#343,.T.);
#345=ORIENTED_EDGE('',*,*,#344,.T.);
#346=ORIENTED_EDGE('',*,*,#100,.T.);
#347=CARTESIAN_POINT('',(33.85,4.8,-8.7625));
#348=VERTEX_POINT('',#347);
#349=CARTESIAN_POINT('',(33.85,4.8,-4.7625));
#350=DIRECTION('',(0.,-0.,-1.));
#351=VECTOR('',#350,4.);
#352=LINE('',#349,#351);
#353=EDGE_CURVE('',#87,#348,#352,.T.);
#354=ORIENTED_EDGE('',*,*,#353,.T.);
#355=CARTESIAN_POINT('',(33.85,4.8,-8.7625));
#356=DIRECTION('',(0.,-0.,-1.));
#357=VECTOR('',#356,10.);
#358=LINE('',#355,#357);
#359=EDGE_CURVE('',#348,#325,#358,.T.);
#360=ORIENTED_EDGE('',*,*,#359,.T.);
#361=EDGE_LOOP('',(#331,#339,#345,#346,#354,#360));
#362=FACE_BOUND('',#361,.T.);
#363=ADVANCED_FACE('',(#362),#321,.F.);
#364=CARTESIAN_POINT('',(33.85,19.,-18.7625));
#365=DIRECTION('',(0.,0.,1.));
#366=DIRECTION('',(1.,0.,-0.));
#367=AXIS2_PLACEMENT_3D('',#364,#365,#366);
#368=PLANE('',#367);
#369=CARTESIAN_POINT('',(9.35,7.3,-18.7625));
#370=VERTEX_POINT('',#369);
#371=CARTESIAN_POINT('',(9.35,4.8,-18.7625));
#372=VERTEX_POINT('',#371);
#373=CARTESIAN_POINT('',(9.35,7.3,-18.7625));
#374=DIRECTION('',(-0.,-1.,0.));
#375=VECTOR('',#374,2.5);
#376=LINE('',#373,#375);
#377=EDGE_CURVE('',#370,#372,#376,.T.);
#378=ORIENTED_EDGE('',*,*,#377,.F.);
#379=CARTESIAN_POINT('',(9.35,7.3,-18.7625));
#380=DIRECTION('',(1.,-0.,-0.));
#381=VECTOR('',#380,24.5);
#382=LINE('',#379,#381);
#383=EDGE_CURVE('',#370,#323,#382,.T.);
#384=ORIENTED_EDGE('',*,*,#383,.T.);
#385=ORIENTED_EDGE('',*,*,#330,.T.);
#386=CARTESIAN_POINT('',(33.85,4.8,-18.7625));
#387=DIRECTION('',(-1.,0.,0.));
#388=VECTOR('',#387,24.5);
#389=LINE('',#386,#388);
#390=EDGE_CURVE('',#325,#372,#389,.T.);
#391=ORIENTED_EDGE('',*,*,#390,.T.);
#392=EDGE_LOOP('',(#378,#384,#385,#391));
#393=FACE_BOUND('',#392,.T.);
#394=ADVANCED_FACE('',(#393),#368,.F.);
#395=CARTESIAN_POINT('',(0.,19.,0.));
#396=DIRECTION('',(0.,0.,-1.));
#397=DIRECTION('',(-1.,0.,0.));
#398=AXIS2_PLACEMENT_3D('',#395,#396,#397);
#399=PLANE('',#398);
#400=CARTESIAN_POINT('',(48.040571909,4.8,0.));
#401=VERTEX_POINT('',#400);
#402=CARTESIAN_POINT('',(48.040571909,13.8,0.));
#403=VERTEX_POINT('',#402);
#404=CARTESIAN_POINT('',(48.040571909,4.8,0.));
#405=DIRECTION('',(-0.,1.,-0.));
#406=VECTOR('',#405,9.);
#407=LINE('',#404,#406);
#408=EDGE_CURVE('',#401,#403,#407,.T.);
#409=ORIENTED_EDGE('',*,*,#408,.F.);
#410=CARTESIAN_POINT('',(135.234428091,4.8,0.));
#411=VERTEX_POINT('',#410);
#412=CARTESIAN_POINT('',(48.040571909,4.8,0.));
#413=DIRECTION('',(1.,0.,-0.));
#414=VECTOR('',#413,87.193856182);
#415=LINE('',#412,#414);
#416=EDGE_CURVE('',#401,#411,#415,.T.);
#417=ORIENTED_EDGE('',*,*,#416,.T.);
#418=CARTESIAN_POINT('',(135.234428091,13.8,0.));
#419=VERTEX_POINT('',#418);
#420=CARTESIAN_POINT('',(135.234428091,13.8,0.));
#421=DIRECTION('',(0.,-1.,0.));
#422=VECTOR('',#421,9.);
#423=LINE('',#420,#422);
#424=EDGE_CURVE('',#419,#411,#423,.T.);
#425=ORIENTED_EDGE('',*,*,#424,.F.);
#426=CARTESIAN_POINT('',(48.040571909,13.8,0.));
#427=DIRECTION('',(1.,0.,-0.));
#428=VECTOR('',#427,87.193856182);
#429=LINE('',#426,#428);
#430=EDGE_CURVE('',#403,#419,#429,.T.);
#431=ORIENTED_EDGE('',*,*,#430,.F.);
#432=EDGE_LOOP('',(#409,#417,#425,#431));
#433=FACE_BOUND('',#432,.T.);
#434=ADVANCED_FACE('',(#433),#399,.F.);
#435=CARTESIAN_POINT('',(0.,19.,0.));
#436=DIRECTION('',(0.,0.,-1.));
#437=DIRECTION('',(-1.,0.,0.));
#438=AXIS2_PLACEMENT_3D('',#435,#436,#437);
#439=PLANE('',#438);
#440=CARTESIAN_POINT('',(3.,13.8,0.));
#441=VERTEX_POINT('',#440);
#442=CARTESIAN_POINT('',(3.,4.8,0.));
#443=VERTEX_POINT('',#442);
#444=CARTESIAN_POINT('',(3.,13.8,0.));
#445=DIRECTION('',(0.,-1.,0.));
#446=VECTOR('',#445,9.);
#447=LINE('',#444,#446);
#448=EDGE_CURVE('',#441,#443,#447,.T.);
#449=ORIENTED_EDGE('',*,*,#448,.T.);
#450=CARTESIAN_POINT('',(36.084428091,4.8,0.));
#451=VERTEX_POINT('',#450);
#452=CARTESIAN_POINT('',(3.,4.8,0.));
#453=DIRECTION('',(1.,0.,-0.));
#454=VECTOR('',#453,33.084428091);
#455=LINE('',#452,#454);
#456=EDGE_CURVE('',#443,#451,#455,.T.);
#457=ORIENTED_EDGE('',*,*,#456,.T.);
#458=CARTESIAN_POINT('',(36.084428091,13.8,0.));
#459=VERTEX_POINT('',#458);
#460=CARTESIAN_POINT('',(36.084428091,13.8,0.));
#461=DIRECTION('',(0.,-1.,0.));
#462=VECTOR('',#461,9.);
#463=LINE('',#460,#462);
#464=EDGE_CURVE('',#459,#451,#463,.T.);
#465=ORIENTED_EDGE('',*,*,#464,.F.);
#466=CARTESIAN_POINT('',(3.,13.8,0.));
#467=DIRECTION('',(1.,0.,-0.));
#468=VECTOR('',#467,33.084428091);
#469=LINE('',#466,#468);
#470=EDGE_CURVE('',#441,#459,#469,.T.);
#471=ORIENTED_EDGE('',*,*,#470,.F.);
#472=EDGE_LOOP('',(#449,#457,#465,#471));
#473=FACE_BOUND('',#472,.T.);
#474=ADVANCED_FACE('',(#473),#439,.F.);
#475=CARTESIAN_POINT('',(0.,19.,0.));
#476=DIRECTION('',(0.,0.,-1.));
#477=DIRECTION('',(-1.,0.,0.));
#478=AXIS2_PLACEMENT_3D('',#475,#476,#477);
#479=PLANE('',#478);
#480=CARTESIAN_POINT('',(147.190571909,4.8,0.));
#481=VERTEX_POINT('',#480);
#482=CARTESIAN_POINT('',(180.275,4.8,0.));
#483=VERTEX_POINT('',#482);
#484=CARTESIAN_POINT('',(147.190571909,4.8,0.));
#485=DIRECTION('',(1.,0.,-0.));
#486=VECTOR('',#485,33.084428091);
#487=LINE('',#484,#486);
#488=EDGE_CURVE('',#481,#483,#487,.T.);
#489=ORIENTED_EDGE('',*,*,#488,.T.);
#490=CARTESIAN_POINT('',(180.275,13.8,0.));
#491=VERTEX_POINT('',#490);
#492=CARTESIAN_POINT('',(180.275,4.8,0.));
#493=DIRECTION('',(-0.,1.,-0.));
#494=VECTOR('',#493,9.);
#495=LINE('',#492,#494);
#496=EDGE_CURVE('',#483,#491,#495,.T.);
#497=ORIENTED_EDGE('',*,*,#496,.T.);
#498=CARTESIAN_POINT('',(147.190571909,13.8,0.));
#499=VERTEX_POINT('',#498);
#500=CARTESIAN_POINT('',(147.190571909,13.8,0.));
#501=DIRECTION('',(1.,0.,-0.));
#502=VECTOR('',#501,33.084428091);
#503=LINE('',#500,#502);
#504=EDGE_CURVE('',#499,#491,#503,.T.);
#505=ORIENTED_EDGE('',*,*,#504,.F.);
#506=CARTESIAN_POINT('',(147.190571909,4.8,0.));
#507=DIRECTION('',(-0.,1.,-0.));
#508=VECTOR('',#507,9.);
#509=LINE('',#506,#508);
#510=EDGE_CURVE('',#481,#499,#509,.T.);
#511=ORIENTED_EDGE('',*,*,#510,.F.);
#512=EDGE_LOOP('',(#489,#497,#505,#511));
#513=FACE_BOUND('',#512,.T.);
#514=ADVANCED_FACE('',(#513),#479,.F.);
#515=CARTESIAN_POINT('',(0.,19.,-4.7625));
#516=DIRECTION('',(1.,0.,0.));
#517=DIRECTION('',(0.,0.,-1.));
#518=AXIS2_PLACEMENT_3D('',#515,#516,#517);
#519=PLANE('',#518);
#520=CARTESIAN_POINT('',(-0.,1.8,-8.7625));
#521=VERTEX_POINT('',#520);
#522=CARTESIAN_POINT('',(0.,1.8,-3.));
#523=VERTEX_POINT('',#522);
#524=CARTESIAN_POINT('',(0.,1.8,-8.7625));
#525=DIRECTION('',(0.,0.,1.));
#526=VECTOR('',#525,5.7625);
#527=LINE('',#524,#526);
#528=EDGE_CURVE('',#521,#523,#527,.T.);
#529=ORIENTED_EDGE('',*,*,#528,.T.);
#530=CARTESIAN_POINT('',(0.,13.8,-3.));
#531=VERTEX_POINT('',#530);
#532=CARTESIAN_POINT('',(0.,1.8,-3.));
#533=DIRECTION('',(-0.,1.,-0.));
#534=VECTOR('',#533,12.);
#535=LINE('',#532,#534);
#536=EDGE_CURVE('',#523,#531,#535,.T.);
#537=ORIENTED_EDGE('',*,*,#536,.T.);
#538=CARTESIAN_POINT('',(-0.,13.8,-8.7625));
#539=VERTEX_POINT('',#538);
#540=CARTESIAN_POINT('',(0.,13.8,-8.7625));
#541=DIRECTION('',(0.,0.,1.));
#542=VECTOR('',#541,5.7625);
#543=LINE('',#540,#542);
#544=EDGE_CURVE('',#539,#531,#543,.T.);
#545=ORIENTED_EDGE('',*,*,#544,.F.);
#546=CARTESIAN_POINT('',(-0.,1.8,-8.7625));
#547=DIRECTION('',(0.,1.,0.));
#548=VECTOR('',#547,12.);
#549=LINE('',#546,#548);
#550=EDGE_CURVE('',#521,#539,#549,.T.);
#551=ORIENTED_EDGE('',*,*,#550,.F.);
#552=EDGE_LOOP('',(#529,#537,#545,#551));
#553=FACE_BOUND('',#552,.T.);
#554=ADVANCED_FACE('',(#553),#519,.F.);
#555=CARTESIAN_POINT('',(183.275,19.,0.));
#556=DIRECTION('',(-1.,0.,0.));
#557=DIRECTION('',(0.,0.,1.));
#558=AXIS2_PLACEMENT_3D('',#555,#556,#557);
#559=PLANE('',#558);
#560=CARTESIAN_POINT('',(183.275,13.8,-3.));
#561=VERTEX_POINT('',#560);
#562=CARTESIAN_POINT('',(183.275,13.8,-8.7625));
#563=VERTEX_POINT('',#562);
#564=CARTESIAN_POINT('',(183.275,13.8,-3.));
#565=DIRECTION('',(0.,0.,-1.));
#566=VECTOR('',#565,5.7625);
#567=LINE('',#564,#566);
#568=EDGE_CURVE('',#561,#563,#567,.T.);
#569=ORIENTED_EDGE('',*,*,#568,.F.);
#570=CARTESIAN_POINT('',(183.275,1.8,-3.));
#571=VERTEX_POINT('',#570);
#572=CARTESIAN_POINT('',(183.275,13.8,-3.));
#573=DIRECTION('',(0.,-1.,0.));
#574=VECTOR('',#573,12.);
#575=LINE('',#572,#574);
#576=EDGE_CURVE('',#561,#571,#575,.T.);
#577=ORIENTED_EDGE('',*,*,#576,.T.);
#578=CARTESIAN_POINT('',(183.275,1.8,-8.7625));
#579=VERTEX_POINT('',#578);
#580=CARTESIAN_POINT('',(183.275,1.8,-3.));
#581=DIRECTION('',(0.,0.,-1.));
#582=VECTOR('',#581,5.7625);
#583=LINE('',#580,#582);
#584=EDGE_CURVE('',#571,#579,#583,.T.);
#585=ORIENTED_EDGE('',*,*,#584,.T.);
#586=CARTESIAN_POINT('',(183.275,13.8,-8.7625));
#587=DIRECTION('',(0.,-1.,0.));
#588=VECTOR('',#587,12.);
#589=LINE('',#586,#588);
#590=EDGE_CURVE('',#563,#579,#589,.T.);
#591=ORIENTED_EDGE('',*,*,#590,.F.);
#592=EDGE_LOOP('',(#569,#577,#585,#591));
#593=FACE_BOUND('',#592,.T.);
#594=ADVANCED_FACE('',(#593),#559,.F.);
#595=CARTESIAN_POINT('',(0.,1.8,0.));
#596=DIRECTION('',(0.,1.,0.));
#597=DIRECTION('',(0.,0.,1.));
#598=AXIS2_PLACEMENT_3D('',#595,#596,#597);
#599=PLANE('',#598);
#600=ORIENTED_EDGE('',*,*,#584,.F.);
#601=CARTESIAN_POINT('',(142.889504398,1.8,-3.));
#602=VERTEX_POINT('',#601);
#603=CARTESIAN_POINT('',(183.275,1.8,-3.));
#604=DIRECTION('',(-1.,-0.,0.));
#605=VECTOR('',#604,40.385495602);
#606=LINE('',#603,#605);
#607=EDGE_CURVE('',#571,#602,#606,.T.);
#608=ORIENTED_EDGE('',*,*,#607,.T.);
#609=CARTESIAN_POINT('',(141.2125,1.8,2.4875));
#610=VERTEX_POINT('',#609);
#611=CARTESIAN_POINT('',(141.2125,1.8,-0.5125));
#612=DIRECTION('',(-0.,-1.,-0.));
#613=DIRECTION('',(0.,-0.,1.));
#614=AXIS2_PLACEMENT_3D('',#611,#612,#613);
#615=CIRCLE('',#614,3.);
#616=EDGE_CURVE('',#602,#610,#615,.T.);
#617=ORIENTED_EDGE('',*,*,#616,.T.);
#618=CARTESIAN_POINT('',(139.535495602,1.8,-3.));
#619=VERTEX_POINT('',#618);
#620=CARTESIAN_POINT('',(141.2125,1.8,-0.5125));
#621=DIRECTION('',(-0.,-1.,-0.));
#622=DIRECTION('',(0.,-0.,1.));
#623=AXIS2_PLACEMENT_3D('',#620,#621,#622);
#624=CIRCLE('',#623,3.);
#625=EDGE_CURVE('',#610,#619,#624,.T.);
#626=ORIENTED_EDGE('',*,*,#625,.T.);
#627=CARTESIAN_POINT('',(43.739504398,1.8,-3.));
#628=VERTEX_POINT('',#627);
#629=CARTESIAN_POINT('',(139.535495602,1.8,-3.));
#630=DIRECTION('',(-1.,-0.,0.));
#631=VECTOR('',#630,95.795991205);
#632=LINE('',#629,#631);
#633=EDGE_CURVE('',#619,#628,#632,.T.);
#634=ORIENTED_EDGE('',*,*,#633,.T.);
#635=CARTESIAN_POINT('',(42.0625,1.8,2.4875));
#636=VERTEX_POINT('',#635);
#637=CARTESIAN_POINT('',(42.0625,1.8,-0.5125));
#638=DIRECTION('',(-0.,-1.,-0.));
#639=DIRECTION('',(0.,-0.,1.));
#640=AXIS2_PLACEMENT_3D('',#637,#638,#639);
#641=CIRCLE('',#640,3.);
#642=EDGE_CURVE('',#628,#636,#641,.T.);
#643=ORIENTED_EDGE('',*,*,#642,.T.);
#644=CARTESIAN_POINT('',(40.385495602,1.8,-3.));
#645=VERTEX_POINT('',#644);
#646=CARTESIAN_POINT('',(42.0625,1.8,-0.5125));
#647=DIRECTION('',(-0.,-1.,-0.));
#648=DIRECTION('',(0.,-0.,1.));
#649=AXIS2_PLACEMENT_3D('',#646,#647,#648);
#650=CIRCLE('',#649,3.);
#651=EDGE_CURVE('',#636,#645,#650,.T.);
#652=ORIENTED_EDGE('',*,*,#651,.T.);
#653=CARTESIAN_POINT('',(40.385495602,1.8,-3.));
#654=DIRECTION('',(-1.,-0.,0.));
#655=VECTOR('',#654,40.385495602);
#656=LINE('',#653,#655);
#657=EDGE_CURVE('',#645,#523,#656,.T.);
#658=ORIENTED_EDGE('',*,*,#657,.T.);
#659=ORIENTED_EDGE('',*,*,#528,.F.);
#660=CARTESIAN_POINT('',(183.275,1.8,-8.7625));
#661=DIRECTION('',(-1.,0.,0.));
#662=VECTOR('',#661,183.275);
#663=LINE('',#660,#662);
#664=EDGE_CURVE('',#579,#521,#663,.T.);
#665=ORIENTED_EDGE('',*,*,#664,.F.);
#666=EDGE_LOOP('',(#600,#608,#617,#626,#634,#643,#652,#658,#659,#665));
#667=FACE_BOUND('',#666,.T.);
#668=CARTESIAN_POINT('',(42.0625,1.8,-2.7625));
#669=VERTEX_POINT('',#668);
#670=CARTESIAN_POINT('',(42.0625,1.8,1.7375));
#671=VERTEX_POINT('',#670);
#672=CARTESIAN_POINT('',(42.0625,1.8,-0.5125));
#673=DIRECTION('',(-0.,-1.,-0.));
#674=DIRECTION('',(0.,-0.,1.));
#675=AXIS2_PLACEMENT_3D('',#672,#673,#674);
#676=CIRCLE('',#675,2.25);
#677=EDGE_CURVE('',#669,#671,#676,.T.);
#678=ORIENTED_EDGE('',*,*,#677,.F.);
#679=CARTESIAN_POINT('',(42.0625,1.8,-0.5125));
#680=DIRECTION('',(-0.,-1.,-0.));
#681=DIRECTION('',(0.,-0.,1.));
#682=AXIS2_PLACEMENT_3D('',#679,#680,#681);
#683=CIRCLE('',#682,2.25);
#684=EDGE_CURVE('',#671,#669,#683,.T.);
#685=ORIENTED_EDGE('',*,*,#684,.F.);
#686=EDGE_LOOP('',(#678,#685));
#687=FACE_BOUND('',#686,.T.);
#688=CARTESIAN_POINT('',(141.2125,1.8,-2.7625));
#689=VERTEX_POINT('',#688);
#690=CARTESIAN_POINT('',(141.2125,1.8,1.7375));
#691=VERTEX_POINT('',#690);
#692=CARTESIAN_POINT('',(141.2125,1.8,-0.5125));
#693=DIRECTION('',(-0.,-1.,-0.));
#694=DIRECTION('',(0.,-0.,1.));
#695=AXIS2_PLACEMENT_3D('',#692,#693,#694);
#696=CIRCLE('',#695,2.25);
#697=EDGE_CURVE('',#689,#691,#696,.T.);
#698=ORIENTED_EDGE('',*,*,#697,.F.);
#699=CARTESIAN_POINT('',(141.2125,1.8,-0.5125));
#700=DIRECTION('',(-0.,-1.,-0.));
#701=DIRECTION('',(0.,-0.,1.));
#702=AXIS2_PLACEMENT_3D('',#699,#700,#701);
#703=CIRCLE('',#702,2.25);
#704=EDGE_CURVE('',#691,#689,#703,.T.);
#705=ORIENTED_EDGE('',*,*,#704,.F.);
#706=EDGE_LOOP('',(#698,#705));
#707=FACE_BOUND('',#706,.T.);
#708=ADVANCED_FACE('',(#667,#687,#707),#599,.F.);
#709=CARTESIAN_POINT('',(141.2125,19.,-0.5125));
#710=DIRECTION('',(0.,-1.,0.));
#711=DIRECTION('',(0.,0.,-1.));
#712=AXIS2_PLACEMENT_3D('',#709,#710,#711);
#713=CYLINDRICAL_SURFACE('',#712,6.);
#714=CARTESIAN_POINT('',(141.2125,4.8,-6.5125));
#715=VERTEX_POINT('',#714);
#716=CARTESIAN_POINT('',(141.2125,13.8,-6.5125));
#717=VERTEX_POINT('',#716);
#718=CARTESIAN_POINT('',(141.2125,4.8,-6.5125));
#719=DIRECTION('',(-0.,1.,-0.));
#720=VECTOR('',#719,9.);
#721=LINE('',#718,#720);
#722=EDGE_CURVE('',#715,#717,#721,.T.);
#723=ORIENTED_EDGE('',*,*,#722,.T.);
#724=CARTESIAN_POINT('',(141.2125,13.8,-0.5125));
#725=DIRECTION('',(0.,1.,0.));
#726=DIRECTION('',(0.,-0.,1.));
#727=AXIS2_PLACEMENT_3D('',#724,#725,#726);
#728=CIRCLE('',#727,6.);
#729=EDGE_CURVE('',#183,#717,#728,.T.);
#730=ORIENTED_EDGE('',*,*,#729,.F.);
#731=ORIENTED_EDGE('',*,*,#188,.T.);
#732=CARTESIAN_POINT('',(141.2125,4.8,-0.5125));
#733=DIRECTION('',(0.,1.,-0.));
#734=DIRECTION('',(0.,0.,1.));
#735=AXIS2_PLACEMENT_3D('',#732,#733,#734);
#736=CIRCLE('',#735,6.);
#737=EDGE_CURVE('',#173,#715,#736,.T.);
#738=ORIENTED_EDGE('',*,*,#737,.T.);
#739=EDGE_LOOP('',(#723,#730,#731,#738));
#740=FACE_BOUND('',#739,.T.);
#741=ADVANCED_FACE('',(#740),#713,.T.);
#742=CARTESIAN_POINT('',(141.2125,19.,-0.5125));
#743=DIRECTION('',(0.,-1.,0.));
#744=DIRECTION('',(0.,0.,-1.));
#745=AXIS2_PLACEMENT_3D('',#742,#743,#744);
#746=CYLINDRICAL_SURFACE('',#745,6.);
#747=ORIENTED_EDGE('',*,*,#424,.T.);
#748=CARTESIAN_POINT('',(141.2125,4.8,5.4875));
#749=VERTEX_POINT('',#748);
#750=CARTESIAN_POINT('',(141.2125,4.8,-0.5125));
#751=DIRECTION('',(0.,1.,0.));
#752=DIRECTION('',(0.,-0.,1.));
#753=AXIS2_PLACEMENT_3D('',#750,#751,#752);
#754=CIRCLE('',#753,6.);
#755=EDGE_CURVE('',#411,#749,#754,.T.);
#756=ORIENTED_EDGE('',*,*,#755,.T.);
#757=CARTESIAN_POINT('',(141.2125,4.8,-0.5125));
#758=DIRECTION('',(0.,1.,0.));
#759=DIRECTION('',(0.,-0.,1.));
#760=AXIS2_PLACEMENT_3D('',#757,#758,#759);
#761=CIRCLE('',#760,6.);
#762=EDGE_CURVE('',#749,#481,#761,.T.);
#763=ORIENTED_EDGE('',*,*,#762,.T.);
#764=ORIENTED_EDGE('',*,*,#510,.T.);
#765=CARTESIAN_POINT('',(141.2125,13.8,-0.5125));
#766=DIRECTION('',(0.,1.,0.));
#767=DIRECTION('',(0.,-0.,1.));
#768=AXIS2_PLACEMENT_3D('',#765,#766,#767);
#769=CIRCLE('',#768,6.);
#770=EDGE_CURVE('',#419,#499,#769,.T.);
#771=ORIENTED_EDGE('',*,*,#770,.F.);
#772=EDGE_LOOP('',(#747,#756,#763,#764,#771));
#773=FACE_BOUND('',#772,.T.);
#774=ADVANCED_FACE('',(#773),#746,.T.);
#775=CARTESIAN_POINT('',(42.0625,19.,-0.5125));
#776=DIRECTION('',(0.,-1.,0.));
#777=DIRECTION('',(0.,0.,-1.));
#778=AXIS2_PLACEMENT_3D('',#775,#776,#777);
#779=CYLINDRICAL_SURFACE('',#778,6.);
#780=CARTESIAN_POINT('',(42.0625,4.8,-6.5125));
#781=VERTEX_POINT('',#780);
#782=CARTESIAN_POINT('',(42.0625,13.8,-6.5125));
#783=VERTEX_POINT('',#782);
#784=CARTESIAN_POINT('',(42.0625,4.8,-6.5125));
#785=DIRECTION('',(-0.,1.,-0.));
#786=VECTOR('',#785,9.);
#787=LINE('',#784,#786);
#788=EDGE_CURVE('',#781,#783,#787,.T.);
#789=ORIENTED_EDGE('',*,*,#788,.T.);
#790=CARTESIAN_POINT('',(42.0625,13.8,-0.5125));
#791=DIRECTION('',(0.,1.,0.));
#792=DIRECTION('',(0.,-0.,1.));
#793=AXIS2_PLACEMENT_3D('',#790,#791,#792);
#794=CIRCLE('',#793,6.);
#795=EDGE_CURVE('',#143,#783,#794,.T.);
#796=ORIENTED_EDGE('',*,*,#795,.F.);
#797=ORIENTED_EDGE('',*,*,#148,.T.);
#798=CARTESIAN_POINT('',(42.0625,4.8,-0.5125));
#799=DIRECTION('',(0.,1.,-0.));
#800=DIRECTION('',(0.,0.,1.));
#801=AXIS2_PLACEMENT_3D('',#798,#799,#800);
#802=CIRCLE('',#801,6.);
#803=EDGE_CURVE('',#133,#781,#802,.T.);
#804=ORIENTED_EDGE('',*,*,#803,.T.);
#805=EDGE_LOOP('',(#789,#796,#797,#804));
#806=FACE_BOUND('',#805,.T.);
#807=ADVANCED_FACE('',(#806),#779,.T.);
#808=CARTESIAN_POINT('',(42.0625,19.,-0.5125));
#809=DIRECTION('',(0.,-1.,0.));
#810=DIRECTION('',(0.,0.,-1.));
#811=AXIS2_PLACEMENT_3D('',#808,#809,#810);
#812=CYLINDRICAL_SURFACE('',#811,6.);
#813=ORIENTED_EDGE('',*,*,#464,.T.);
#814=CARTESIAN_POINT('',(42.0625,4.8,5.4875));
#815=VERTEX_POINT('',#814);
#816=CARTESIAN_POINT('',(42.0625,4.8,-0.5125));
#817=DIRECTION('',(0.,1.,0.));
#818=DIRECTION('',(0.,-0.,1.));
#819=AXIS2_PLACEMENT_3D('',#816,#817,#818);
#820=CIRCLE('',#819,6.);
#821=EDGE_CURVE('',#451,#815,#820,.T.);
#822=ORIENTED_EDGE('',*,*,#821,.T.);
#823=CARTESIAN_POINT('',(42.0625,4.8,-0.5125));
#824=DIRECTION('',(0.,1.,0.));
#825=DIRECTION('',(0.,-0.,1.));
#826=AXIS2_PLACEMENT_3D('',#823,#824,#825);
#827=CIRCLE('',#826,6.);
#828=EDGE_CURVE('',#815,#401,#827,.T.);
#829=ORIENTED_EDGE('',*,*,#828,.T.);
#830=ORIENTED_EDGE('',*,*,#408,.T.);
#831=CARTESIAN_POINT('',(42.0625,13.8,-0.5125));
#832=DIRECTION('',(0.,1.,0.));
#833=DIRECTION('',(0.,-0.,1.));
#834=AXIS2_PLACEMENT_3D('',#831,#832,#833);
#835=CIRCLE('',#834,6.);
#836=EDGE_CURVE('',#459,#403,#835,.T.);
#837=ORIENTED_EDGE('',*,*,#836,.F.);
#838=EDGE_LOOP('',(#813,#822,#829,#830,#837));
#839=FACE_BOUND('',#838,.T.);
#840=ADVANCED_FACE('',(#839),#812,.T.);
#841=CARTESIAN_POINT('',(183.275,4.8,-4.7625));
#842=DIRECTION('',(0.,1.,-0.));
#843=DIRECTION('',(0.,0.,1.));
#844=AXIS2_PLACEMENT_3D('',#841,#842,#843);
#845=PLANE('',#844);
#846=CARTESIAN_POINT('',(163.175,4.8,-11.5125));
#847=VERTEX_POINT('',#846);
#848=CARTESIAN_POINT('',(163.175,4.8,-13.7625));
#849=DIRECTION('',(0.,1.,-0.));
#850=DIRECTION('',(0.,0.,1.));
#851=AXIS2_PLACEMENT_3D('',#848,#849,#850);
#852=CIRCLE('',#851,2.25);
#853=EDGE_CURVE('',#847,#847,#852,.T.);
#854=ORIENTED_EDGE('',*,*,#853,.T.);
#855=EDGE_LOOP('',(#854));
#856=FACE_BOUND('',#855,.T.);
#857=CARTESIAN_POINT('',(173.925,4.8,-8.7625));
#858=VERTEX_POINT('',#857);
#859=CARTESIAN_POINT('',(173.925,4.8,-8.7625));
#860=DIRECTION('',(-0.,0.,-1.));
#861=VECTOR('',#860,10.);
#862=LINE('',#859,#861);
#863=EDGE_CURVE('',#858,#263,#862,.T.);
#864=ORIENTED_EDGE('',*,*,#863,.F.);
#865=CARTESIAN_POINT('',(149.425,4.8,-8.7625));
#866=DIRECTION('',(1.,-0.,-0.));
#867=VECTOR('',#866,24.5);
#868=LINE('',#865,#867);
#869=EDGE_CURVE('',#300,#858,#868,.T.);
#870=ORIENTED_EDGE('',*,*,#869,.F.);
#871=ORIENTED_EDGE('',*,*,#305,.F.);
#872=ORIENTED_EDGE('',*,*,#274,.F.);
#873=EDGE_LOOP('',(#864,#870,#871,#872));
#874=FACE_BOUND('',#873,.T.);
#875=ADVANCED_FACE('',(#856,#874),#845,.F.);
#876=CARTESIAN_POINT('',(183.275,4.8,-4.7625));
#877=DIRECTION('',(0.,1.,-0.));
#878=DIRECTION('',(0.,0.,1.));
#879=AXIS2_PLACEMENT_3D('',#876,#877,#878);
#880=PLANE('',#879);
#881=CARTESIAN_POINT('',(20.1,4.8,-11.5125));
#882=VERTEX_POINT('',#881);
#883=CARTESIAN_POINT('',(20.1,4.8,-13.7625));
#884=DIRECTION('',(0.,1.,-0.));
#885=DIRECTION('',(0.,0.,1.));
#886=AXIS2_PLACEMENT_3D('',#883,#884,#885);
#887=CIRCLE('',#886,2.25);
#888=EDGE_CURVE('',#882,#882,#887,.T.);
#889=ORIENTED_EDGE('',*,*,#888,.T.);
#890=EDGE_LOOP('',(#889));
#891=FACE_BOUND('',#890,.T.);
#892=ORIENTED_EDGE('',*,*,#359,.F.);
#893=CARTESIAN_POINT('',(9.35,4.8,-8.7625));
#894=VERTEX_POINT('',#893);
#895=CARTESIAN_POINT('',(9.35,4.8,-8.7625));
#896=DIRECTION('',(1.,-0.,-0.));
#897=VECTOR('',#896,24.5);
#898=LINE('',#895,#897);
#899=EDGE_CURVE('',#894,#348,#898,.T.);
#900=ORIENTED_EDGE('',*,*,#899,.F.);
#901=CARTESIAN_POINT('',(9.35,4.8,-8.7625));
#902=DIRECTION('',(-0.,0.,-1.));
#903=VECTOR('',#902,10.);
#904=LINE('',#901,#903);
#905=EDGE_CURVE('',#894,#372,#904,.T.);
#906=ORIENTED_EDGE('',*,*,#905,.T.);
#907=ORIENTED_EDGE('',*,*,#390,.F.);
#908=EDGE_LOOP('',(#892,#900,#906,#907));
#909=FACE_BOUND('',#908,.T.);
#910=ADVANCED_FACE('',(#891,#909),#880,.F.);
#911=CARTESIAN_POINT('',(183.275,12.3,-4.7625));
#912=DIRECTION('',(0.,1.,-0.));
#913=DIRECTION('',(0.,0.,1.));
#914=AXIS2_PLACEMENT_3D('',#911,#912,#913);
#915=PLANE('',#914);
#916=ORIENTED_EDGE('',*,*,#344,.F.);
#917=CARTESIAN_POINT('',(24.141451884,12.3,-13.7625));
#918=VERTEX_POINT('',#917);
#919=CARTESIAN_POINT('',(33.85,12.3,-13.7625));
#920=DIRECTION('',(-1.,0.,0.));
#921=VECTOR('',#920,9.708548116);
#922=LINE('',#919,#921);
#923=EDGE_CURVE('',#333,#918,#922,.T.);
#924=ORIENTED_EDGE('',*,*,#923,.T.);
#925=CARTESIAN_POINT('',(22.120725942,12.3,-10.2625));
#926=VERTEX_POINT('',#925);
#927=CARTESIAN_POINT('',(22.120725942,12.3,-10.2625));
#928=DIRECTION('',(0.5,0.,-0.866025404));
#929=VECTOR('',#928,4.041451884);
#930=LINE('',#927,#929);
#931=EDGE_CURVE('',#926,#918,#930,.T.);
#932=ORIENTED_EDGE('',*,*,#931,.F.);
#933=CARTESIAN_POINT('',(18.079274058,12.3,-10.2625));
#934=VERTEX_POINT('',#933);
#935=CARTESIAN_POINT('',(18.079274058,12.3,-10.2625));
#936=DIRECTION('',(1.,0.,-0.));
#937=VECTOR('',#936,4.041451884);
#938=LINE('',#935,#937);
#939=EDGE_CURVE('',#934,#926,#938,.T.);
#940=ORIENTED_EDGE('',*,*,#939,.F.);
#941=CARTESIAN_POINT('',(16.058548116,12.3,-13.7625));
#942=VERTEX_POINT('',#941);
#943=CARTESIAN_POINT('',(16.058548116,12.3,-13.7625));
#944=DIRECTION('',(0.5,0.,0.866025404));
#945=VECTOR('',#944,4.041451884);
#946=LINE('',#943,#945);
#947=EDGE_CURVE('',#942,#934,#946,.T.);
#948=ORIENTED_EDGE('',*,*,#947,.F.);
#949=CARTESIAN_POINT('',(9.35,12.3,-13.7625));
#950=VERTEX_POINT('',#949);
#951=CARTESIAN_POINT('',(16.058548116,12.3,-13.7625));
#952=DIRECTION('',(-1.,0.,0.));
#953=VECTOR('',#952,6.708548116);
#954=LINE('',#951,#953);
#955=EDGE_CURVE('',#942,#950,#954,.T.);
#956=ORIENTED_EDGE('',*,*,#955,.T.);
#957=CARTESIAN_POINT('',(9.35,12.3,-4.7625));
#958=DIRECTION('',(-0.,0.,-1.));
#959=VECTOR('',#958,9.);
#960=LINE('',#957,#959);
#961=EDGE_CURVE('',#103,#950,#960,.T.);
#962=ORIENTED_EDGE('',*,*,#961,.F.);
#963=ORIENTED_EDGE('',*,*,#108,.F.);
#964=EDGE_LOOP('',(#916,#924,#932,#940,#948,#956,#962,#963));
#965=FACE_BOUND('',#964,.T.);
#966=ADVANCED_FACE('',(#965),#915,.T.);
#967=CARTESIAN_POINT('',(183.275,12.3,-4.7625));
#968=DIRECTION('',(0.,1.,-0.));
#969=DIRECTION('',(0.,0.,1.));
#970=AXIS2_PLACEMENT_3D('',#967,#968,#969);
#971=PLANE('',#970);
#972=CARTESIAN_POINT('',(173.925,12.3,-13.7625));
#973=VERTEX_POINT('',#972);
#974=CARTESIAN_POINT('',(173.925,12.3,-4.7625));
#975=DIRECTION('',(-0.,0.,-1.));
#976=VECTOR('',#975,9.);
#977=LINE('',#974,#976);
#978=EDGE_CURVE('',#215,#973,#977,.T.);
#979=ORIENTED_EDGE('',*,*,#978,.T.);
#980=CARTESIAN_POINT('',(167.216451884,12.3,-13.7625));
#981=VERTEX_POINT('',#980);
#982=CARTESIAN_POINT('',(173.925,12.3,-13.7625));
#983=DIRECTION('',(-1.,0.,0.));
#984=VECTOR('',#983,6.708548116);
#985=LINE('',#982,#984);
#986=EDGE_CURVE('',#973,#981,#985,.T.);
#987=ORIENTED_EDGE('',*,*,#986,.T.);
#988=CARTESIAN_POINT('',(165.195725942,12.3,-10.2625));
#989=VERTEX_POINT('',#988);
#990=CARTESIAN_POINT('',(165.195725942,12.3,-10.2625));
#991=DIRECTION('',(0.5,0.,-0.866025404));
#992=VECTOR('',#991,4.041451884);
#993=LINE('',#990,#992);
#994=EDGE_CURVE('',#989,#981,#993,.T.);
#995=ORIENTED_EDGE('',*,*,#994,.F.);
#996=CARTESIAN_POINT('',(161.154274058,12.3,-10.2625));
#997=VERTEX_POINT('',#996);
#998=CARTESIAN_POINT('',(161.154274058,12.3,-10.2625));
#999=DIRECTION('',(1.,0.,-0.));
#1000=VECTOR('',#999,4.041451884);
#1001=LINE('',#998,#1000);
#1002=EDGE_CURVE('',#997,#989,#1001,.T.);
#1003=ORIENTED_EDGE('',*,*,#1002,.F.);
#1004=CARTESIAN_POINT('',(159.133548116,12.3,-13.7625));
#1005=VERTEX_POINT('',#1004);
#1006=CARTESIAN_POINT('',(159.133548116,12.3,-13.7625));
#1007=DIRECTION('',(0.5,0.,0.866025404));
#1008=VECTOR('',#1007,4.041451884);
#1009=LINE('',#1006,#1008);
#1010=EDGE_CURVE('',#1005,#997,#1009,.T.);
#1011=ORIENTED_EDGE('',*,*,#1010,.F.);
#1012=CARTESIAN_POINT('',(159.133548116,12.3,-13.7625));
#1013=DIRECTION('',(-1.,0.,0.));
#1014=VECTOR('',#1013,9.708548116);
#1015=LINE('',#1012,#1014);
#1016=EDGE_CURVE('',#1005,#285,#1015,.T.);
#1017=ORIENTED_EDGE('',*,*,#1016,.T.);
#1018=ORIENTED_EDGE('',*,*,#290,.F.);
#1019=ORIENTED_EDGE('',*,*,#228,.F.);
#1020=EDGE_LOOP('',(#979,#987,#995,#1003,#1011,#1017,#1018,#1019));
#1021=FACE_BOUND('',#1020,.T.);
#1022=ADVANCED_FACE('',(#1021),#971,.T.);
#1023=CARTESIAN_POINT('',(141.2125,0.,-0.5125));
#1024=DIRECTION('',(0.,-1.,0.));
#1025=DIRECTION('',(0.,0.,-1.));
#1026=AXIS2_PLACEMENT_3D('',#1023,#1024,#1025);
#1027=CYLINDRICAL_SURFACE('',#1026,2.25);
#1028=CARTESIAN_POINT('',(141.2125,13.8,-2.7625));
#1029=VERTEX_POINT('',#1028);
#1030=CARTESIAN_POINT('',(141.2125,1.8,-2.7625));
#1031=DIRECTION('',(-0.,1.,-0.));
#1032=VECTOR('',#1031,12.);
#1033=LINE('',#1030,#1032);
#1034=EDGE_CURVE('',#689,#1029,#1033,.T.);
#1035=ORIENTED_EDGE('',*,*,#1034,.F.);
#1036=ORIENTED_EDGE('',*,*,#697,.T.);
#1037=ORIENTED_EDGE('',*,*,#704,.T.);
#1038=ORIENTED_EDGE('',*,*,#1034,.T.);
#1039=CARTESIAN_POINT('',(141.2125,13.8,1.7375));
#1040=VERTEX_POINT('',#1039);
#1041=CARTESIAN_POINT('',(141.2125,13.8,-0.5125));
#1042=DIRECTION('',(0.,1.,0.));
#1043=DIRECTION('',(0.,-0.,1.));
#1044=AXIS2_PLACEMENT_3D('',#1041,#1042,#1043);
#1045=CIRCLE('',#1044,2.25);
#1046=EDGE_CURVE('',#1029,#1040,#1045,.T.);
#1047=ORIENTED_EDGE('',*,*,#1046,.T.);
#1048=CARTESIAN_POINT('',(141.2125,13.8,-0.5125));
#1049=DIRECTION('',(0.,1.,0.));
#1050=DIRECTION('',(0.,-0.,1.));
#1051=AXIS2_PLACEMENT_3D('',#1048,#1049,#1050);
#1052=CIRCLE('',#1051,2.25);
#1053=EDGE_CURVE('',#1040,#1029,#1052,.T.);
#1054=ORIENTED_EDGE('',*,*,#1053,.T.);
#1055=EDGE_LOOP('',(#1035,#1036,#1037,#1038,#1047,#1054));
#1056=FACE_BOUND('',#1055,.T.);
#1057=ADVANCED_FACE('',(#1056),#1027,.F.);
#1058=CARTESIAN_POINT('',(42.0625,0.,-0.5125));
#1059=DIRECTION('',(0.,-1.,0.));
#1060=DIRECTION('',(0.,0.,-1.));
#1061=AXIS2_PLACEMENT_3D('',#1058,#1059,#1060);
#1062=CYLINDRICAL_SURFACE('',#1061,2.25);
#1063=CARTESIAN_POINT('',(42.0625,13.8,-2.7625));
#1064=VERTEX_POINT('',#1063);
#1065=CARTESIAN_POINT('',(42.0625,1.8,-2.7625));
#1066=DIRECTION('',(-0.,1.,-0.));
#1067=VECTOR('',#1066,12.);
#1068=LINE('',#1065,#1067);
#1069=EDGE_CURVE('',#669,#1064,#1068,.T.);
#1070=ORIENTED_EDGE('',*,*,#1069,.F.);
#1071=ORIENTED_EDGE('',*,*,#677,.T.);
#1072=ORIENTED_EDGE('',*,*,#684,.T.);
#1073=ORIENTED_EDGE('',*,*,#1069,.T.);
#1074=CARTESIAN_POINT('',(42.0625,13.8,1.7375));
#1075=VERTEX_POINT('',#1074);
#1076=CARTESIAN_POINT('',(42.0625,13.8,-0.5125));
#1077=DIRECTION('',(0.,1.,0.));
#1078=DIRECTION('',(0.,-0.,1.));
#1079=AXIS2_PLACEMENT_3D('',#1076,#1077,#1078);
#1080=CIRCLE('',#1079,2.25);
#1081=EDGE_CURVE('',#1064,#1075,#1080,.T.);
#1082=ORIENTED_EDGE('',*,*,#1081,.T.);
#1083=CARTESIAN_POINT('',(42.0625,13.8,-0.5125));
#1084=DIRECTION('',(0.,1.,0.));
#1085=DIRECTION('',(0.,-0.,1.));
#1086=AXIS2_PLACEMENT_3D('',#1083,#1084,#1085);
#1087=CIRCLE('',#1086,2.25);
#1088=EDGE_CURVE('',#1075,#1064,#1087,.T.);
#1089=ORIENTED_EDGE('',*,*,#1088,.T.);
#1090=EDGE_LOOP('',(#1070,#1071,#1072,#1073,#1082,#1089));
#1091=FACE_BOUND('',#1090,.T.);
#1092=ADVANCED_FACE('',(#1091),#1062,.F.);
#1093=CARTESIAN_POINT('',(165.195725942,9.05,-10.2625));
#1094=DIRECTION('',(0.866025404,0.,0.5));
#1095=DIRECTION('',(0.5,0.,-0.866025404));
#1096=AXIS2_PLACEMENT_3D('',#1093,#1094,#1095);
#1097=PLANE('',#1096);
#1098=ORIENTED_EDGE('',*,*,#994,.T.);
#1099=CARTESIAN_POINT('',(167.216451884,9.05,-13.7625));
#1100=VERTEX_POINT('',#1099);
#1101=CARTESIAN_POINT('',(167.216451884,9.05,-13.7625));
#1102=DIRECTION('',(0.,1.,-0.));
#1103=VECTOR('',#1102,3.25);
#1104=LINE('',#1101,#1103);
#1105=EDGE_CURVE('',#1100,#981,#1104,.T.);
#1106=ORIENTED_EDGE('',*,*,#1105,.F.);
#1107=CARTESIAN_POINT('',(165.195725942,9.05,-10.2625));
#1108=VERTEX_POINT('',#1107);
#1109=CARTESIAN_POINT('',(165.195725942,9.05,-10.2625));
#1110=DIRECTION('',(0.5,0.,-0.866025404));
#1111=VECTOR('',#1110,4.041451884);
#1112=LINE('',#1109,#1111);
#1113=EDGE_CURVE('',#1108,#1100,#1112,.T.);
#1114=ORIENTED_EDGE('',*,*,#1113,.F.);
#1115=CARTESIAN_POINT('',(165.195725942,9.05,-10.2625));
#1116=DIRECTION('',(0.,1.,-0.));
#1117=VECTOR('',#1116,3.25);
#1118=LINE('',#1115,#1117);
#1119=EDGE_CURVE('',#1108,#989,#1118,.T.);
#1120=ORIENTED_EDGE('',*,*,#1119,.T.);
#1121=EDGE_LOOP('',(#1098,#1106,#1114,#1120));
#1122=FACE_BOUND('',#1121,.T.);
#1123=ADVANCED_FACE('',(#1122),#1097,.F.);
#1124=CARTESIAN_POINT('',(161.154274058,9.05,-10.2625));
#1125=DIRECTION('',(0.,0.,1.));
#1126=DIRECTION('',(0.,-1.,0.));
#1127=AXIS2_PLACEMENT_3D('',#1124,#1125,#1126);
#1128=PLANE('',#1127);
#1129=ORIENTED_EDGE('',*,*,#1002,.T.);
#1130=ORIENTED_EDGE('',*,*,#1119,.F.);
#1131=CARTESIAN_POINT('',(161.154274058,9.05,-10.2625));
#1132=VERTEX_POINT('',#1131);
#1133=CARTESIAN_POINT('',(161.154274058,9.05,-10.2625));
#1134=DIRECTION('',(1.,0.,-0.));
#1135=VECTOR('',#1134,4.041451884);
#1136=LINE('',#1133,#1135);
#1137=EDGE_CURVE('',#1132,#1108,#1136,.T.);
#1138=ORIENTED_EDGE('',*,*,#1137,.F.);
#1139=CARTESIAN_POINT('',(161.154274058,9.05,-10.2625));
#1140=DIRECTION('',(0.,1.,-0.));
#1141=VECTOR('',#1140,3.25);
#1142=LINE('',#1139,#1141);
#1143=EDGE_CURVE('',#1132,#997,#1142,.T.);
#1144=ORIENTED_EDGE('',*,*,#1143,.T.);
#1145=EDGE_LOOP('',(#1129,#1130,#1138,#1144));
#1146=FACE_BOUND('',#1145,.T.);
#1147=ADVANCED_FACE('',(#1146),#1128,.F.);
#1148=CARTESIAN_POINT('',(159.133548116,9.05,-13.7625));
#1149=DIRECTION('',(-0.866025404,0.,0.5));
#1150=DIRECTION('',(0.5,0.,0.866025404));
#1151=AXIS2_PLACEMENT_3D('',#1148,#1149,#1150);
#1152=PLANE('',#1151);
#1153=ORIENTED_EDGE('',*,*,#1010,.T.);
#1154=ORIENTED_EDGE('',*,*,#1143,.F.);
#1155=CARTESIAN_POINT('',(159.133548116,9.05,-13.7625));
#1156=VERTEX_POINT('',#1155);
#1157=CARTESIAN_POINT('',(159.133548116,9.05,-13.7625));
#1158=DIRECTION('',(0.5,0.,0.866025404));
#1159=VECTOR('',#1158,4.041451884);
#1160=LINE('',#1157,#1159);
#1161=EDGE_CURVE('',#1156,#1132,#1160,.T.);
#1162=ORIENTED_EDGE('',*,*,#1161,.F.);
#1163=CARTESIAN_POINT('',(159.133548116,9.05,-13.7625));
#1164=DIRECTION('',(0.,1.,-0.));
#1165=VECTOR('',#1164,3.25);
#1166=LINE('',#1163,#1165);
#1167=EDGE_CURVE('',#1156,#1005,#1166,.T.);
#1168=ORIENTED_EDGE('',*,*,#1167,.T.);
#1169=EDGE_LOOP('',(#1153,#1154,#1162,#1168));
#1170=FACE_BOUND('',#1169,.T.);
#1171=ADVANCED_FACE('',(#1170),#1152,.F.);
#1172=CARTESIAN_POINT('',(161.154274058,9.05,-17.2625));
#1173=DIRECTION('',(-0.866025404,-0.,-0.5));
#1174=DIRECTION('',(-0.5,0.,0.866025404));
#1175=AXIS2_PLACEMENT_3D('',#1172,#1173,#1174);
#1176=PLANE('',#1175);
#1177=CARTESIAN_POINT('',(161.009936491,9.05,-17.0125));
#1178=VERTEX_POINT('',#1177);
#1179=CARTESIAN_POINT('',(161.009936491,9.05,-17.0125));
#1180=DIRECTION('',(-0.5,0.,0.866025404));
#1181=VECTOR('',#1180,3.75277675);
#1182=LINE('',#1179,#1181);
#1183=EDGE_CURVE('',#1178,#1156,#1182,.T.);
#1184=ORIENTED_EDGE('',*,*,#1183,.F.);
#1185=CARTESIAN_POINT('',(161.009936491,9.05,-17.0125));
#1186=DIRECTION('',(-0.377964473,0.654653671,0.654653671));
#1187=VECTOR('',#1186,4.964457003);
#1188=LINE('',#1185,#1187);
#1189=EDGE_CURVE('',#1178,#1005,#1188,.T.);
#1190=ORIENTED_EDGE('',*,*,#1189,.T.);
#1191=ORIENTED_EDGE('',*,*,#1167,.F.);
#1192=EDGE_LOOP('',(#1184,#1190,#1191));
#1193=FACE_BOUND('',#1192,.T.);
#1194=ADVANCED_FACE('',(#1193),#1176,.F.);
#1195=CARTESIAN_POINT('',(167.216451884,9.05,-13.7625));
#1196=DIRECTION('',(0.866025404,-0.,-0.5));
#1197=DIRECTION('',(-0.5,-0.,-0.866025404));
#1198=AXIS2_PLACEMENT_3D('',#1195,#1196,#1197);
#1199=PLANE('',#1198);
#1200=ORIENTED_EDGE('',*,*,#1105,.T.);
#1201=CARTESIAN_POINT('',(165.340063509,9.05,-17.0125));
#1202=VERTEX_POINT('',#1201);
#1203=CARTESIAN_POINT('',(167.216451884,12.3,-13.7625));
#1204=DIRECTION('',(-0.377964473,-0.654653671,-0.654653671));
#1205=VECTOR('',#1204,4.964457003);
#1206=LINE('',#1203,#1205);
#1207=EDGE_CURVE('',#981,#1202,#1206,.T.);
#1208=ORIENTED_EDGE('',*,*,#1207,.T.);
#1209=CARTESIAN_POINT('',(167.216451884,9.05,-13.7625));
#1210=DIRECTION('',(-0.5,0.,-0.866025404));
#1211=VECTOR('',#1210,3.75277675);
#1212=LINE('',#1209,#1211);
#1213=EDGE_CURVE('',#1100,#1202,#1212,.T.);
#1214=ORIENTED_EDGE('',*,*,#1213,.F.);
#1215=EDGE_LOOP('',(#1200,#1208,#1214));
#1216=FACE_BOUND('',#1215,.T.);
#1217=ADVANCED_FACE('',(#1216),#1199,.F.);
#1218=CARTESIAN_POINT('',(0.,9.05,0.));
#1219=DIRECTION('',(0.,1.,0.));
#1220=DIRECTION('',(0.,0.,1.));
#1221=AXIS2_PLACEMENT_3D('',#1218,#1219,#1220);
#1222=PLANE('',#1221);
#1223=CARTESIAN_POINT('',(163.175,9.05,-11.5125));
#1224=VERTEX_POINT('',#1223);
#1225=CARTESIAN_POINT('',(163.175,9.05,-13.7625));
#1226=DIRECTION('',(0.,1.,0.));
#1227=DIRECTION('',(0.,-0.,1.));
#1228=AXIS2_PLACEMENT_3D('',#1225,#1226,#1227);
#1229=CIRCLE('',#1228,2.25);
#1230=EDGE_CURVE('',#1224,#1224,#1229,.T.);
#1231=ORIENTED_EDGE('',*,*,#1230,.F.);
#1232=EDGE_LOOP('',(#1231));
#1233=FACE_BOUND('',#1232,.T.);
#1234=ORIENTED_EDGE('',*,*,#1213,.T.);
#1235=CARTESIAN_POINT('',(165.340063509,9.05,-17.0125));
#1236=DIRECTION('',(-1.,0.,0.));
#1237=VECTOR('',#1236,4.330127019);
#1238=LINE('',#1235,#1237);
#1239=EDGE_CURVE('',#1202,#1178,#1238,.T.);
#1240=ORIENTED_EDGE('',*,*,#1239,.T.);
#1241=ORIENTED_EDGE('',*,*,#1183,.T.);
#1242=ORIENTED_EDGE('',*,*,#1161,.T.);
#1243=ORIENTED_EDGE('',*,*,#1137,.T.);
#1244=ORIENTED_EDGE('',*,*,#1113,.T.);
#1245=EDGE_LOOP('',(#1234,#1240,#1241,#1242,#1243,#1244));
#1246=FACE_BOUND('',#1245,.T.);
#1247=ADVANCED_FACE('',(#1233,#1246),#1222,.T.);
#1248=CARTESIAN_POINT('',(22.120725942,9.05,-10.2625));
#1249=DIRECTION('',(0.866025404,0.,0.5));
#1250=DIRECTION('',(0.5,0.,-0.866025404));
#1251=AXIS2_PLACEMENT_3D('',#1248,#1249,#1250);
#1252=PLANE('',#1251);
#1253=ORIENTED_EDGE('',*,*,#931,.T.);
#1254=CARTESIAN_POINT('',(24.141451884,9.05,-13.7625));
#1255=VERTEX_POINT('',#1254);
#1256=CARTESIAN_POINT('',(24.141451884,9.05,-13.7625));
#1257=DIRECTION('',(0.,1.,-0.));
#1258=VECTOR('',#1257,3.25);
#1259=LINE('',#1256,#1258);
#1260=EDGE_CURVE('',#1255,#918,#1259,.T.);
#1261=ORIENTED_EDGE('',*,*,#1260,.F.);
#1262=CARTESIAN_POINT('',(22.120725942,9.05,-10.2625));
#1263=VERTEX_POINT('',#1262);
#1264=CARTESIAN_POINT('',(22.120725942,9.05,-10.2625));
#1265=DIRECTION('',(0.5,0.,-0.866025404));
#1266=VECTOR('',#1265,4.041451884);
#1267=LINE('',#1264,#1266);
#1268=EDGE_CURVE('',#1263,#1255,#1267,.T.);
#1269=ORIENTED_EDGE('',*,*,#1268,.F.);
#1270=CARTESIAN_POINT('',(22.120725942,9.05,-10.2625));
#1271=DIRECTION('',(0.,1.,-0.));
#1272=VECTOR('',#1271,3.25);
#1273=LINE('',#1270,#1272);
#1274=EDGE_CURVE('',#1263,#926,#1273,.T.);
#1275=ORIENTED_EDGE('',*,*,#1274,.T.);
#1276=EDGE_LOOP('',(#1253,#1261,#1269,#1275));
#1277=FACE_BOUND('',#1276,.T.);
#1278=ADVANCED_FACE('',(#1277),#1252,.F.);
#1279=CARTESIAN_POINT('',(18.079274058,9.05,-10.2625));
#1280=DIRECTION('',(0.,0.,1.));
#1281=DIRECTION('',(0.,-1.,0.));
#1282=AXIS2_PLACEMENT_3D('',#1279,#1280,#1281);
#1283=PLANE('',#1282);
#1284=ORIENTED_EDGE('',*,*,#939,.T.);
#1285=ORIENTED_EDGE('',*,*,#1274,.F.);
#1286=CARTESIAN_POINT('',(18.079274058,9.05,-10.2625));
#1287=VERTEX_POINT('',#1286);
#1288=CARTESIAN_POINT('',(18.079274058,9.05,-10.2625));
#1289=DIRECTION('',(1.,0.,-0.));
#1290=VECTOR('',#1289,4.041451884);
#1291=LINE('',#1288,#1290);
#1292=EDGE_CURVE('',#1287,#1263,#1291,.T.);
#1293=ORIENTED_EDGE('',*,*,#1292,.F.);
#1294=CARTESIAN_POINT('',(18.079274058,9.05,-10.2625));
#1295=DIRECTION('',(0.,1.,-0.));
#1296=VECTOR('',#1295,3.25);
#1297=LINE('',#1294,#1296);
#1298=EDGE_CURVE('',#1287,#934,#1297,.T.);
#1299=ORIENTED_EDGE('',*,*,#1298,.T.);
#1300=EDGE_LOOP('',(#1284,#1285,#1293,#1299));
#1301=FACE_BOUND('',#1300,.T.);
#1302=ADVANCED_FACE('',(#1301),#1283,.F.);
#1303=CARTESIAN_POINT('',(16.058548116,9.05,-13.7625));
#1304=DIRECTION('',(-0.866025404,0.,0.5));
#1305=DIRECTION('',(0.5,-0.,0.866025404));
#1306=AXIS2_PLACEMENT_3D('',#1303,#1304,#1305);
#1307=PLANE('',#1306);
#1308=ORIENTED_EDGE('',*,*,#947,.T.);
#1309=ORIENTED_EDGE('',*,*,#1298,.F.);
#1310=CARTESIAN_POINT('',(16.058548116,9.05,-13.7625));
#1311=VERTEX_POINT('',#1310);
#1312=CARTESIAN_POINT('',(16.058548116,9.05,-13.7625));
#1313=DIRECTION('',(0.5,0.,0.866025404));
#1314=VECTOR('',#1313,4.041451884);
#1315=LINE('',#1312,#1314);
#1316=EDGE_CURVE('',#1311,#1287,#1315,.T.);
#1317=ORIENTED_EDGE('',*,*,#1316,.F.);
#1318=CARTESIAN_POINT('',(16.058548116,9.05,-13.7625));
#1319=DIRECTION('',(0.,1.,-0.));
#1320=VECTOR('',#1319,3.25);
#1321=LINE('',#1318,#1320);
#1322=EDGE_CURVE('',#1311,#942,#1321,.T.);
#1323=ORIENTED_EDGE('',*,*,#1322,.T.);
#1324=EDGE_LOOP('',(#1308,#1309,#1317,#1323));
#1325=FACE_BOUND('',#1324,.T.);
#1326=ADVANCED_FACE('',(#1325),#1307,.F.);
#1327=CARTESIAN_POINT('',(18.079274058,9.05,-17.2625));
#1328=DIRECTION('',(-0.866025404,-0.,-0.5));
#1329=DIRECTION('',(-0.5,-0.,0.866025404));
#1330=AXIS2_PLACEMENT_3D('',#1327,#1328,#1329);
#1331=PLANE('',#1330);
#1332=CARTESIAN_POINT('',(17.934936491,9.05,-17.0125));
#1333=VERTEX_POINT('',#1332);
#1334=CARTESIAN_POINT('',(17.934936491,9.05,-17.0125));
#1335=DIRECTION('',(-0.5,0.,0.866025404));
#1336=VECTOR('',#1335,3.75277675);
#1337=LINE('',#1334,#1336);
#1338=EDGE_CURVE('',#1333,#1311,#1337,.T.);
#1339=ORIENTED_EDGE('',*,*,#1338,.F.);
#1340=CARTESIAN_POINT('',(17.934936491,9.05,-17.0125));
#1341=DIRECTION('',(-0.377964473,0.654653671,0.654653671));
#1342=VECTOR('',#1341,4.964457003);
#1343=LINE('',#1340,#1342);
#1344=EDGE_CURVE('',#1333,#942,#1343,.T.);
#1345=ORIENTED_EDGE('',*,*,#1344,.T.);
#1346=ORIENTED_EDGE('',*,*,#1322,.F.);
#1347=EDGE_LOOP('',(#1339,#1345,#1346));
#1348=FACE_BOUND('',#1347,.T.);
#1349=ADVANCED_FACE('',(#1348),#1331,.F.);
#1350=CARTESIAN_POINT('',(24.141451884,9.05,-13.7625));
#1351=DIRECTION('',(0.866025404,-0.,-0.5));
#1352=DIRECTION('',(-0.5,0.,-0.866025404));
#1353=AXIS2_PLACEMENT_3D('',#1350,#1351,#1352);
#1354=PLANE('',#1353);
#1355=ORIENTED_EDGE('',*,*,#1260,.T.);
#1356=CARTESIAN_POINT('',(22.265063509,9.05,-17.0125));
#1357=VERTEX_POINT('',#1356);
#1358=CARTESIAN_POINT('',(24.141451884,12.3,-13.7625));
#1359=DIRECTION('',(-0.377964473,-0.654653671,-0.654653671));
#1360=VECTOR('',#1359,4.964457003);
#1361=LINE('',#1358,#1360);
#1362=EDGE_CURVE('',#918,#1357,#1361,.T.);
#1363=ORIENTED_EDGE('',*,*,#1362,.T.);
#1364=CARTESIAN_POINT('',(24.141451884,9.05,-13.7625));
#1365=DIRECTION('',(-0.5,0.,-0.866025404));
#1366=VECTOR('',#1365,3.75277675);
#1367=LINE('',#1364,#1366);
#1368=EDGE_CURVE('',#1255,#1357,#1367,.T.);
#1369=ORIENTED_EDGE('',*,*,#1368,.F.);
#1370=EDGE_LOOP('',(#1355,#1363,#1369));
#1371=FACE_BOUND('',#1370,.T.);
#1372=ADVANCED_FACE('',(#1371),#1354,.F.);
#1373=CARTESIAN_POINT('',(0.,9.05,0.));
#1374=DIRECTION('',(0.,1.,0.));
#1375=DIRECTION('',(0.,0.,1.));
#1376=AXIS2_PLACEMENT_3D('',#1373,#1374,#1375);
#1377=PLANE('',#1376);
#1378=CARTESIAN_POINT('',(20.1,9.05,-11.5125));
#1379=VERTEX_POINT('',#1378);
#1380=CARTESIAN_POINT('',(20.1,9.05,-13.7625));
#1381=DIRECTION('',(0.,1.,0.));
#1382=DIRECTION('',(0.,-0.,1.));
#1383=AXIS2_PLACEMENT_3D('',#1380,#1381,#1382);
#1384=CIRCLE('',#1383,2.25);
#1385=EDGE_CURVE('',#1379,#1379,#1384,.T.);
#1386=ORIENTED_EDGE('',*,*,#1385,.F.);
#1387=EDGE_LOOP('',(#1386));
#1388=FACE_BOUND('',#1387,.T.);
#1389=ORIENTED_EDGE('',*,*,#1368,.T.);
#1390=CARTESIAN_POINT('',(22.265063509,9.05,-17.0125));
#1391=DIRECTION('',(-1.,0.,0.));
#1392=VECTOR('',#1391,4.330127019);
#1393=LINE('',#1390,#1392);
#1394=EDGE_CURVE('',#1357,#1333,#1393,.T.);
#1395=ORIENTED_EDGE('',*,*,#1394,.T.);
#1396=ORIENTED_EDGE('',*,*,#1338,.T.);
#1397=ORIENTED_EDGE('',*,*,#1316,.T.);
#1398=ORIENTED_EDGE('',*,*,#1292,.T.);
#1399=ORIENTED_EDGE('',*,*,#1268,.T.);
#1400=EDGE_LOOP('',(#1389,#1395,#1396,#1397,#1398,#1399));
#1401=FACE_BOUND('',#1400,.T.);
#1402=ADVANCED_FACE('',(#1388,#1401),#1377,.T.);
#1403=CARTESIAN_POINT('',(163.175,9.05,-13.7625));
#1404=DIRECTION('',(0.,1.,0.));
#1405=DIRECTION('',(0.,-0.,1.));
#1406=AXIS2_PLACEMENT_3D('',#1403,#1404,#1405);
#1407=CYLINDRICAL_SURFACE('',#1406,2.25);
#1408=CARTESIAN_POINT('',(163.175,9.05,-11.5125));
#1409=DIRECTION('',(-0.,-1.,-0.));
#1410=VECTOR('',#1409,4.25);
#1411=LINE('',#1408,#1410);
#1412=EDGE_CURVE('',#1224,#847,#1411,.T.);
#1413=ORIENTED_EDGE('',*,*,#1412,.F.);
#1414=ORIENTED_EDGE('',*,*,#1230,.T.);
#1415=ORIENTED_EDGE('',*,*,#1412,.T.);
#1416=ORIENTED_EDGE('',*,*,#853,.F.);
#1417=EDGE_LOOP('',(#1413,#1414,#1415,#1416));
#1418=FACE_BOUND('',#1417,.T.);
#1419=ADVANCED_FACE('',(#1418),#1407,.F.);
#1420=CARTESIAN_POINT('',(20.1,9.05,-13.7625));
#1421=DIRECTION('',(0.,1.,0.));
#1422=DIRECTION('',(0.,-0.,1.));
#1423=AXIS2_PLACEMENT_3D('',#1420,#1421,#1422);
#1424=CYLINDRICAL_SURFACE('',#1423,2.25);
#1425=CARTESIAN_POINT('',(20.1,9.05,-11.5125));
#1426=DIRECTION('',(-0.,-1.,-0.));
#1427=VECTOR('',#1426,4.25);
#1428=LINE('',#1425,#1427);
#1429=EDGE_CURVE('',#1379,#882,#1428,.T.);
#1430=ORIENTED_EDGE('',*,*,#1429,.F.);
#1431=ORIENTED_EDGE('',*,*,#1385,.T.);
#1432=ORIENTED_EDGE('',*,*,#1429,.T.);
#1433=ORIENTED_EDGE('',*,*,#888,.F.);
#1434=EDGE_LOOP('',(#1430,#1431,#1432,#1433));
#1435=FACE_BOUND('',#1434,.T.);
#1436=ADVANCED_FACE('',(#1435),#1424,.F.);
#1437=CARTESIAN_POINT('',(173.925,12.3,3.315247211));
#1438=DIRECTION('',(-1.,0.,0.));
#1439=DIRECTION('',(0.,0.,1.));
#1440=AXIS2_PLACEMENT_3D('',#1437,#1438,#1439);
#1441=PLANE('',#1440);
#1442=ORIENTED_EDGE('',*,*,#268,.T.);
#1443=CARTESIAN_POINT('',(173.925,7.3,-18.7625));
#1444=DIRECTION('',(0.,0.707106781,0.707106781));
#1445=VECTOR('',#1444,7.071067812);
#1446=LINE('',#1443,#1445);
#1447=EDGE_CURVE('',#255,#973,#1446,.T.);
#1448=ORIENTED_EDGE('',*,*,#1447,.T.);
#1449=ORIENTED_EDGE('',*,*,#978,.F.);
#1450=ORIENTED_EDGE('',*,*,#220,.F.);
#1451=CARTESIAN_POINT('',(173.925,4.8,-4.7625));
#1452=DIRECTION('',(-0.,0.,-1.));
#1453=VECTOR('',#1452,4.);
#1454=LINE('',#1451,#1453);
#1455=EDGE_CURVE('',#207,#858,#1454,.T.);
#1456=ORIENTED_EDGE('',*,*,#1455,.T.);
#1457=ORIENTED_EDGE('',*,*,#863,.T.);
#1458=EDGE_LOOP('',(#1442,#1448,#1449,#1450,#1456,#1457));
#1459=FACE_BOUND('',#1458,.T.);
#1460=ADVANCED_FACE('',(#1459),#1441,.F.);
#1461=CARTESIAN_POINT('',(9.35,4.8,3.315247211));
#1462=DIRECTION('',(1.,-0.,-0.));
#1463=DIRECTION('',(0.,1.,0.));
#1464=AXIS2_PLACEMENT_3D('',#1461,#1462,#1463);
#1465=PLANE('',#1464);
#1466=ORIENTED_EDGE('',*,*,#961,.T.);
#1467=CARTESIAN_POINT('',(9.35,12.3,-13.7625));
#1468=DIRECTION('',(-0.,-0.707106781,-0.707106781));
#1469=VECTOR('',#1468,7.071067812);
#1470=LINE('',#1467,#1469);
#1471=EDGE_CURVE('',#950,#370,#1470,.T.);
#1472=ORIENTED_EDGE('',*,*,#1471,.T.);
#1473=ORIENTED_EDGE('',*,*,#377,.T.);
#1474=ORIENTED_EDGE('',*,*,#905,.F.);
#1475=CARTESIAN_POINT('',(9.35,4.8,-4.7625));
#1476=DIRECTION('',(-0.,0.,-1.));
#1477=VECTOR('',#1476,4.);
#1478=LINE('',#1475,#1477);
#1479=EDGE_CURVE('',#111,#894,#1478,.T.);
#1480=ORIENTED_EDGE('',*,*,#1479,.F.);
#1481=ORIENTED_EDGE('',*,*,#116,.F.);
#1482=EDGE_LOOP('',(#1466,#1472,#1473,#1474,#1480,#1481));
#1483=FACE_BOUND('',#1482,.T.);
#1484=ADVANCED_FACE('',(#1483),#1465,.F.);
#1485=CARTESIAN_POINT('',(4.7625,4.8,-8.7625));
#1486=DIRECTION('',(-0.,-1.,0.));
#1487=DIRECTION('',(1.,-0.,0.));
#1488=AXIS2_PLACEMENT_3D('',#1485,#1486,#1487);
#1489=PLANE('',#1488);
#1490=ORIENTED_EDGE('',*,*,#180,.T.);
#1491=ORIENTED_EDGE('',*,*,#311,.T.);
#1492=CARTESIAN_POINT('',(33.85,4.8,-8.7625));
#1493=DIRECTION('',(1.,-0.,-0.));
#1494=VECTOR('',#1493,115.575);
#1495=LINE('',#1492,#1494);
#1496=EDGE_CURVE('',#348,#300,#1495,.T.);
#1497=ORIENTED_EDGE('',*,*,#1496,.F.);
#1498=ORIENTED_EDGE('',*,*,#353,.F.);
#1499=ORIENTED_EDGE('',*,*,#92,.T.);
#1500=CARTESIAN_POINT('',(42.0625,4.8,-0.5125));
#1501=DIRECTION('',(0.,1.,-0.));
#1502=DIRECTION('',(0.,0.,1.));
#1503=AXIS2_PLACEMENT_3D('',#1500,#1501,#1502);
#1504=CIRCLE('',#1503,6.);
#1505=EDGE_CURVE('',#781,#79,#1504,.T.);
#1506=ORIENTED_EDGE('',*,*,#1505,.F.);
#1507=ORIENTED_EDGE('',*,*,#803,.F.);
#1508=ORIENTED_EDGE('',*,*,#140,.T.);
#1509=CARTESIAN_POINT('',(141.2125,4.8,-0.5125));
#1510=DIRECTION('',(0.,1.,-0.));
#1511=DIRECTION('',(0.,0.,1.));
#1512=AXIS2_PLACEMENT_3D('',#1509,#1510,#1511);
#1513=CIRCLE('',#1512,6.);
#1514=EDGE_CURVE('',#715,#135,#1513,.T.);
#1515=ORIENTED_EDGE('',*,*,#1514,.F.);
#1516=ORIENTED_EDGE('',*,*,#737,.F.);
#1517=EDGE_LOOP('',(#1490,#1491,#1497,#1498,#1499,#1506,#1507,#1508,#1515,#1516));
#1518=FACE_BOUND('',#1517,.T.);
#1519=ADVANCED_FACE('',(#1518),#1489,.F.);
#1520=CARTESIAN_POINT('',(4.7625,4.8,-8.7625));
#1521=DIRECTION('',(-0.,-1.,0.));
#1522=DIRECTION('',(1.,-0.,0.));
#1523=AXIS2_PLACEMENT_3D('',#1520,#1521,#1522);
#1524=PLANE('',#1523);
#1525=CARTESIAN_POINT('',(178.5125,4.8,-8.7625));
#1526=VERTEX_POINT('',#1525);
#1527=CARTESIAN_POINT('',(173.925,4.8,-8.7625));
#1528=DIRECTION('',(1.,-0.,-0.));
#1529=VECTOR('',#1528,4.5875);
#1530=LINE('',#1527,#1529);
#1531=EDGE_CURVE('',#858,#1526,#1530,.T.);
#1532=ORIENTED_EDGE('',*,*,#1531,.F.);
#1533=ORIENTED_EDGE('',*,*,#1455,.F.);
#1534=ORIENTED_EDGE('',*,*,#212,.T.);
#1535=CARTESIAN_POINT('',(178.5125,4.8,-8.7625));
#1536=DIRECTION('',(0.,0.,1.));
#1537=VECTOR('',#1536,4.);
#1538=LINE('',#1535,#1537);
#1539=EDGE_CURVE('',#1526,#199,#1538,.T.);
#1540=ORIENTED_EDGE('',*,*,#1539,.F.);
#1541=EDGE_LOOP('',(#1532,#1533,#1534,#1540));
#1542=FACE_BOUND('',#1541,.T.);
#1543=ADVANCED_FACE('',(#1542),#1524,.F.);
#1544=CARTESIAN_POINT('',(4.7625,4.8,-8.7625));
#1545=DIRECTION('',(-0.,-1.,0.));
#1546=DIRECTION('',(1.,-0.,0.));
#1547=AXIS2_PLACEMENT_3D('',#1544,#1545,#1546);
#1548=PLANE('',#1547);
#1549=ORIENTED_EDGE('',*,*,#122,.T.);
#1550=ORIENTED_EDGE('',*,*,#1479,.T.);
#1551=CARTESIAN_POINT('',(4.7625,4.8,-8.7625));
#1552=VERTEX_POINT('',#1551);
#1553=CARTESIAN_POINT('',(4.7625,4.8,-8.7625));
#1554=DIRECTION('',(1.,-0.,-0.));
#1555=VECTOR('',#1554,4.5875);
#1556=LINE('',#1553,#1555);
#1557=EDGE_CURVE('',#1552,#894,#1556,.T.);
#1558=ORIENTED_EDGE('',*,*,#1557,.F.);
#1559=CARTESIAN_POINT('',(4.7625,4.8,-8.7625));
#1560=DIRECTION('',(0.,0.,1.));
#1561=VECTOR('',#1560,4.);
#1562=LINE('',#1559,#1561);
#1563=EDGE_CURVE('',#1552,#63,#1562,.T.);
#1564=ORIENTED_EDGE('',*,*,#1563,.T.);
#1565=EDGE_LOOP('',(#1549,#1550,#1558,#1564));
#1566=FACE_BOUND('',#1565,.T.);
#1567=ADVANCED_FACE('',(#1566),#1548,.F.);
#1568=CARTESIAN_POINT('',(178.5125,4.8,-8.7625));
#1569=DIRECTION('',(1.,0.,-0.));
#1570=DIRECTION('',(-0.,0.,-1.));
#1571=AXIS2_PLACEMENT_3D('',#1568,#1569,#1570);
#1572=PLANE('',#1571);
#1573=ORIENTED_EDGE('',*,*,#204,.T.);
#1574=CARTESIAN_POINT('',(178.5125,13.8,-8.7625));
#1575=VERTEX_POINT('',#1574);
#1576=CARTESIAN_POINT('',(178.5125,13.8,-8.7625));
#1577=DIRECTION('',(0.,0.,1.));
#1578=VECTOR('',#1577,4.);
#1579=LINE('',#1576,#1578);
#1580=EDGE_CURVE('',#1575,#191,#1579,.T.);
#1581=ORIENTED_EDGE('',*,*,#1580,.F.);
#1582=CARTESIAN_POINT('',(178.5125,4.8,-8.7625));
#1583=DIRECTION('',(0.,1.,0.));
#1584=VECTOR('',#1583,9.);
#1585=LINE('',#1582,#1584);
#1586=EDGE_CURVE('',#1526,#1575,#1585,.T.);
#1587=ORIENTED_EDGE('',*,*,#1586,.F.);
#1588=ORIENTED_EDGE('',*,*,#1539,.T.);
#1589=EDGE_LOOP('',(#1573,#1581,#1587,#1588));
#1590=FACE_BOUND('',#1589,.T.);
#1591=ADVANCED_FACE('',(#1590),#1572,.F.);
#1592=CARTESIAN_POINT('',(4.7625,19.,-8.7625));
#1593=DIRECTION('',(-1.,0.,0.));
#1594=DIRECTION('',(0.,0.,1.));
#1595=AXIS2_PLACEMENT_3D('',#1592,#1593,#1594);
#1596=PLANE('',#1595);
#1597=ORIENTED_EDGE('',*,*,#68,.T.);
#1598=ORIENTED_EDGE('',*,*,#1563,.F.);
#1599=CARTESIAN_POINT('',(4.7625,13.8,-8.7625));
#1600=VERTEX_POINT('',#1599);
#1601=CARTESIAN_POINT('',(4.7625,13.8,-8.7625));
#1602=DIRECTION('',(-0.,-1.,0.));
#1603=VECTOR('',#1602,9.);
#1604=LINE('',#1601,#1603);
#1605=EDGE_CURVE('',#1600,#1552,#1604,.T.);
#1606=ORIENTED_EDGE('',*,*,#1605,.F.);
#1607=CARTESIAN_POINT('',(4.7625,13.8,-4.7625));
#1608=DIRECTION('',(-0.,0.,-1.));
#1609=VECTOR('',#1608,4.);
#1610=LINE('',#1607,#1609);
#1611=EDGE_CURVE('',#61,#1600,#1610,.T.);
#1612=ORIENTED_EDGE('',*,*,#1611,.F.);
#1613=EDGE_LOOP('',(#1597,#1598,#1606,#1612));
#1614=FACE_BOUND('',#1613,.T.);
#1615=ADVANCED_FACE('',(#1614),#1596,.F.);
#1616=CARTESIAN_POINT('',(-0.,0.,-8.7625));
#1617=DIRECTION('',(-0.,0.,-1.));
#1618=DIRECTION('',(-1.,0.,0.));
#1619=AXIS2_PLACEMENT_3D('',#1616,#1617,#1618);
#1620=PLANE('',#1619);
#1621=ORIENTED_EDGE('',*,*,#1586,.T.);
#1622=CARTESIAN_POINT('',(183.275,13.8,-8.7625));
#1623=DIRECTION('',(-1.,0.,0.));
#1624=VECTOR('',#1623,4.7625);
#1625=LINE('',#1622,#1624);
#1626=EDGE_CURVE('',#563,#1575,#1625,.T.);
#1627=ORIENTED_EDGE('',*,*,#1626,.F.);
#1628=ORIENTED_EDGE('',*,*,#590,.T.);
#1629=ORIENTED_EDGE('',*,*,#664,.T.);
#1630=ORIENTED_EDGE('',*,*,#550,.T.);
#1631=CARTESIAN_POINT('',(4.7625,13.8,-8.7625));
#1632=DIRECTION('',(-1.,0.,0.));
#1633=VECTOR('',#1632,4.7625);
#1634=LINE('',#1631,#1633);
#1635=EDGE_CURVE('',#1600,#539,#1634,.T.);
#1636=ORIENTED_EDGE('',*,*,#1635,.F.);
#1637=ORIENTED_EDGE('',*,*,#1605,.T.);
#1638=ORIENTED_EDGE('',*,*,#1557,.T.);
#1639=ORIENTED_EDGE('',*,*,#899,.T.);
#1640=ORIENTED_EDGE('',*,*,#1496,.T.);
#1641=ORIENTED_EDGE('',*,*,#869,.T.);
#1642=ORIENTED_EDGE('',*,*,#1531,.T.);
#1643=EDGE_LOOP('',(#1621,#1627,#1628,#1629,#1630,#1636,#1637,#1638,#1639,#1640,#1641,#1642));
#1644=FACE_BOUND('',#1643,.T.);
#1645=ADVANCED_FACE('',(#1644),#1620,.T.);
#1646=CARTESIAN_POINT('',(42.0625,13.8,-0.5125));
#1647=DIRECTION('',(0.,1.,0.));
#1648=DIRECTION('',(0.,0.,1.));
#1649=AXIS2_PLACEMENT_3D('',#1646,#1647,#1648);
#1650=PLANE('',#1649);
#1651=ORIENTED_EDGE('',*,*,#1046,.F.);
#1652=ORIENTED_EDGE('',*,*,#1053,.F.);
#1653=EDGE_LOOP('',(#1651,#1652));
#1654=FACE_BOUND('',#1653,.T.);
#1655=ORIENTED_EDGE('',*,*,#504,.T.);
#1656=CARTESIAN_POINT('',(180.275,13.8,-3.));
#1657=DIRECTION('',(0.,1.,0.));
#1658=DIRECTION('',(0.,-0.,1.));
#1659=AXIS2_PLACEMENT_3D('',#1656,#1657,#1658);
#1660=CIRCLE('',#1659,3.);
#1661=EDGE_CURVE('',#491,#561,#1660,.T.);
#1662=ORIENTED_EDGE('',*,*,#1661,.T.);
#1663=ORIENTED_EDGE('',*,*,#568,.T.);
#1664=ORIENTED_EDGE('',*,*,#1626,.T.);
#1665=ORIENTED_EDGE('',*,*,#1580,.T.);
#1666=ORIENTED_EDGE('',*,*,#196,.T.);
#1667=ORIENTED_EDGE('',*,*,#729,.T.);
#1668=CARTESIAN_POINT('',(141.2125,13.8,-0.5125));
#1669=DIRECTION('',(0.,1.,0.));
#1670=DIRECTION('',(0.,-0.,1.));
#1671=AXIS2_PLACEMENT_3D('',#1668,#1669,#1670);
#1672=CIRCLE('',#1671,6.);
#1673=EDGE_CURVE('',#717,#151,#1672,.T.);
#1674=ORIENTED_EDGE('',*,*,#1673,.T.);
#1675=ORIENTED_EDGE('',*,*,#156,.T.);
#1676=ORIENTED_EDGE('',*,*,#795,.T.);
#1677=CARTESIAN_POINT('',(42.0625,13.8,-0.5125));
#1678=DIRECTION('',(0.,1.,0.));
#1679=DIRECTION('',(0.,-0.,1.));
#1680=AXIS2_PLACEMENT_3D('',#1677,#1678,#1679);
#1681=CIRCLE('',#1680,6.);
#1682=EDGE_CURVE('',#783,#71,#1681,.T.);
#1683=ORIENTED_EDGE('',*,*,#1682,.T.);
#1684=ORIENTED_EDGE('',*,*,#76,.T.);
#1685=ORIENTED_EDGE('',*,*,#1611,.T.);
#1686=ORIENTED_EDGE('',*,*,#1635,.T.);
#1687=ORIENTED_EDGE('',*,*,#544,.T.);
#1688=CARTESIAN_POINT('',(3.,13.8,-3.));
#1689=DIRECTION('',(0.,1.,0.));
#1690=DIRECTION('',(0.,-0.,1.));
#1691=AXIS2_PLACEMENT_3D('',#1688,#1689,#1690);
#1692=CIRCLE('',#1691,3.);
#1693=EDGE_CURVE('',#531,#441,#1692,.T.);
#1694=ORIENTED_EDGE('',*,*,#1693,.T.);
#1695=ORIENTED_EDGE('',*,*,#470,.T.);
#1696=ORIENTED_EDGE('',*,*,#836,.T.);
#1697=ORIENTED_EDGE('',*,*,#430,.T.);
#1698=ORIENTED_EDGE('',*,*,#770,.T.);
#1699=EDGE_LOOP('',(#1655,#1662,#1663,#1664,#1665,#1666,#1667,#1674,#1675,#1676,#1683,#1684,#1685,#1686,#1687,#1694,#1695,#1696,#1697,#1698));
#1700=FACE_BOUND('',#1699,.T.);
#1701=ORIENTED_EDGE('',*,*,#1081,.F.);
#1702=ORIENTED_EDGE('',*,*,#1088,.F.);
#1703=EDGE_LOOP('',(#1701,#1702));
#1704=FACE_BOUND('',#1703,.T.);
#1705=ADVANCED_FACE('',(#1654,#1700,#1704),#1650,.T.);
#1706=CARTESIAN_POINT('',(3.,19.,-3.));
#1707=DIRECTION('',(0.,-1.,0.));
#1708=DIRECTION('',(0.,0.,-1.));
#1709=AXIS2_PLACEMENT_3D('',#1706,#1707,#1708);
#1710=CYLINDRICAL_SURFACE('',#1709,3.);
#1711=ORIENTED_EDGE('',*,*,#1693,.F.);
#1712=ORIENTED_EDGE('',*,*,#536,.F.);
#1713=CARTESIAN_POINT('',(3.,4.8,-3.));
#1714=DIRECTION('',(0.707106781,-0.707106781,0.));
#1715=DIRECTION('',(-0.707106781,-0.707106781,0.));
#1716=AXIS2_PLACEMENT_3D('',#1713,#1714,#1715);
#1717=ELLIPSE('',#1716,4.242640687,3.);
#1718=EDGE_CURVE('',#443,#523,#1717,.T.);
#1719=ORIENTED_EDGE('',*,*,#1718,.F.);
#1720=ORIENTED_EDGE('',*,*,#448,.F.);
#1721=EDGE_LOOP('',(#1711,#1712,#1719,#1720));
#1722=FACE_BOUND('',#1721,.T.);
#1723=ADVANCED_FACE('',(#1722),#1710,.T.);
#1724=CARTESIAN_POINT('',(0.,4.8,-3.));
#1725=DIRECTION('',(1.,0.,0.));
#1726=DIRECTION('',(0.,0.,-1.));
#1727=AXIS2_PLACEMENT_3D('',#1724,#1725,#1726);
#1728=CYLINDRICAL_SURFACE('',#1727,3.);
#1729=ORIENTED_EDGE('',*,*,#1718,.T.);
#1730=ORIENTED_EDGE('',*,*,#657,.F.);
#1731=CARTESIAN_POINT('',(36.084428091,4.8,0.));
#1732=CARTESIAN_POINT('',(36.084428091,4.65685209,0.));
#1733=CARTESIAN_POINT('',(36.093759449,4.516225839,-0.010187558));
#1734=CARTESIAN_POINT('',(36.11187795,4.377956317,-0.029835168));
#1735=CARTESIAN_POINT('',(36.129996451,4.239686795,-0.049482778));
#1736=CARTESIAN_POINT('',(36.157102815,4.10307622,-0.078806631));
#1737=CARTESIAN_POINT('',(36.192808906,3.970356411,-0.116999564));
#1738=CARTESIAN_POINT('',(36.228514997,3.837636602,-0.155192496));
#1739=CARTESIAN_POINT('',(36.272032914,3.711316326,-0.201404539));
#1740=CARTESIAN_POINT('',(36.322817751,3.590720547,-0.254523137));
#1741=CARTESIAN_POINT('',(36.373602588,3.470124769,-0.307641735));
#1742=CARTESIAN_POINT('',(36.432146662,3.354494966,-0.368168001));
#1743=CARTESIAN_POINT('',(36.496785684,3.246214471,-0.433728282));
#1744=CARTESIAN_POINT('',(36.626063726,3.02965348,-0.564848845));
#1745=CARTESIAN_POINT('',(36.777191554,2.844557451,-0.713638746));
#1746=CARTESIAN_POINT('',(36.948433923,2.684145853,-0.873227509));
#1747=CARTESIAN_POINT('',(37.034055108,2.603940054,-0.95302189));
#1748=CARTESIAN_POINT('',(37.12451271,2.530397786,-1.035290951));
#1749=CARTESIAN_POINT('',(37.217748558,2.464064792,-1.117606124));
#1750=CARTESIAN_POINT('',(37.310984406,2.397731797,-1.199921297));
#1751=CARTESIAN_POINT('',(37.407522361,2.338109091,-1.282777775));
#1752=CARTESIAN_POINT('',(37.507317909,2.284290127,-1.365618211));
#1753=CARTESIAN_POINT('',(37.607113456,2.230471163,-1.448458647));
#1754=CARTESIAN_POINT('',(37.710166912,2.182462332,-1.531286967));
#1755=CARTESIAN_POINT('',(37.816527433,2.139578098,-1.613581843));
#1756=CARTESIAN_POINT('',(37.922887955,2.096693864,-1.695876718));
#1757=CARTESIAN_POINT('',(38.032984529,2.058822554,-1.777941582));
#1758=CARTESIAN_POINT('',(38.144940932,2.025918357,-1.857865578));
#1759=CARTESIAN_POINT('',(38.368853739,1.960109962,-2.017713569));
#1760=CARTESIAN_POINT('',(38.600845417,1.913540703,-2.169680565));
#1761=CARTESIAN_POINT('',(38.841579565,1.880196467,-2.310980893));
#1762=CARTESIAN_POINT('',(39.082313712,1.846852231,-2.45228122));
#1763=CARTESIAN_POINT('',(39.332637238,1.82678148,-2.583311147));
#1764=CARTESIAN_POINT('',(39.590784455,1.815079238,-2.699586881));
#1765=CARTESIAN_POINT('',(39.848931673,1.803376995,-2.815862615));
#1766=CARTESIAN_POINT('',(40.114326589,1.8,-2.916783379));
#1767=CARTESIAN_POINT('',(40.385495602,1.8,-3.));
#1768=B_SPLINE_CURVE_WITH_KNOTS('',3,(#1731,#1732,#1733,#1734,#1735,#1736,#1737,#1738,#1739,#1740,#1741,#1742,#1743,#1744,#1745,#1746,#1747,#1748,#1749,#1750,#1751,#1752,#1753,#1754,#1755,#1756,
#1757,#1758,#1759,#1760,#1761,#1762,#1763,#1764,#1765,#1766,#1767),.UNSPECIFIED.,.F.,.F.,(4,3,3,3,3,3,3,3,3,3,3,3,4),(0.,0.000422464,0.000844927,0.001267391,0.001689855,0.002534782,0.002957246,0.00337971,0.003802174,0.004224637,0.005069565,0.005914492,0.00675942),.UNSPECIFIED.);
#1769=EDGE_CURVE('',#451,#645,#1768,.T.);
#1770=ORIENTED_EDGE('',*,*,#1769,.F.);
#1771=ORIENTED_EDGE('',*,*,#456,.F.);
#1772=EDGE_LOOP('',(#1729,#1730,#1770,#1771));
#1773=FACE_BOUND('',#1772,.T.);
#1774=ADVANCED_FACE('',(#1773),#1728,.T.);
#1775=CARTESIAN_POINT('',(42.0625,4.8,-0.5125));
#1776=DIRECTION('',(0.,1.,0.));
#1777=DIRECTION('',(0.,-0.,1.));
#1778=AXIS2_PLACEMENT_3D('',#1775,#1776,#1777);
#1779=TOROIDAL_SURFACE('',#1778,3.,3.);
#1780=CARTESIAN_POINT('',(42.0625,4.8,2.4875));
#1781=DIRECTION('',(1.,-0.,-0.));
#1782=DIRECTION('',(0.,0.,1.));
#1783=AXIS2_PLACEMENT_3D('',#1780,#1781,#1782);
#1784=CIRCLE('',#1783,3.);
#1785=EDGE_CURVE('',#815,#636,#1784,.T.);
#1786=ORIENTED_EDGE('',*,*,#1785,.T.);
#1787=ORIENTED_EDGE('',*,*,#642,.F.);
#1788=CARTESIAN_POINT('',(48.040571909,4.8,0.));
#1789=CARTESIAN_POINT('',(48.040571909,4.65685209,0.));
#1790=CARTESIAN_POINT('',(48.031240551,4.516225839,-0.010187558));
#1791=CARTESIAN_POINT('',(48.01312205,4.377956317,-0.029835168));
#1792=CARTESIAN_POINT('',(47.995003549,4.239686795,-0.049482778));
#1793=CARTESIAN_POINT('',(47.967897185,4.10307622,-0.078806631));
#1794=CARTESIAN_POINT('',(47.932191094,3.970356411,-0.116999564));
#1795=CARTESIAN_POINT('',(47.896485003,3.837636602,-0.155192496));
#1796=CARTESIAN_POINT('',(47.852967086,3.711316326,-0.201404539));
#1797=CARTESIAN_POINT('',(47.802182249,3.590720547,-0.254523137));
#1798=CARTESIAN_POINT('',(47.751397412,3.470124769,-0.307641735));
#1799=CARTESIAN_POINT('',(47.692853338,3.354494966,-0.368168001));
#1800=CARTESIAN_POINT('',(47.628214316,3.246214471,-0.433728282));
#1801=CARTESIAN_POINT('',(47.498936274,3.02965348,-0.564848845));
#1802=CARTESIAN_POINT('',(47.347808446,2.844557451,-0.713638746));
#1803=CARTESIAN_POINT('',(47.176566077,2.684145853,-0.873227509));
#1804=CARTESIAN_POINT('',(47.090944892,2.603940054,-0.95302189));
#1805=CARTESIAN_POINT('',(47.00048729,2.530397786,-1.035290951));
#1806=CARTESIAN_POINT('',(46.907251442,2.464064792,-1.117606124));
#1807=CARTESIAN_POINT('',(46.814015594,2.397731797,-1.199921297));
#1808=CARTESIAN_POINT('',(46.717477639,2.338109091,-1.282777775));
#1809=CARTESIAN_POINT('',(46.617682091,2.284290127,-1.365618211));
#1810=CARTESIAN_POINT('',(46.517886544,2.230471163,-1.448458647));
#1811=CARTESIAN_POINT('',(46.414833088,2.182462332,-1.531286967));
#1812=CARTESIAN_POINT('',(46.308472567,2.139578098,-1.613581843));
#1813=CARTESIAN_POINT('',(46.202112045,2.096693864,-1.695876718));
#1814=CARTESIAN_POINT('',(46.092015471,2.058822554,-1.777941582));
#1815=CARTESIAN_POINT('',(45.980059068,2.025918357,-1.857865578));
#1816=CARTESIAN_POINT('',(45.756146261,1.960109962,-2.017713569));
#1817=CARTESIAN_POINT('',(45.524154583,1.913540703,-2.169680565));
#1818=CARTESIAN_POINT('',(45.283420435,1.880196467,-2.310980893));
#1819=CARTESIAN_POINT('',(45.042686288,1.846852231,-2.45228122));
#1820=CARTESIAN_POINT('',(44.792362762,1.82678148,-2.583311147));
#1821=CARTESIAN_POINT('',(44.534215545,1.815079238,-2.699586881));
#1822=CARTESIAN_POINT('',(44.276068327,1.803376995,-2.815862615));
#1823=CARTESIAN_POINT('',(44.010673459,1.8,-2.916783535));
#1824=CARTESIAN_POINT('',(43.739504398,1.8,-3.));
#1825=B_SPLINE_CURVE_WITH_KNOTS('',3,(#1788,#1789,#1790,#1791,#1792,#1793,#1794,#1795,#1796,#1797,#1798,#1799,#1800,#1801,#1802,#1803,#1804,#1805,#1806,#1807,#1808,#1809,#1810,#1811,#1812,#1813,
#1814,#1815,#1816,#1817,#1818,#1819,#1820,#1821,#1822,#1823,#1824),.UNSPECIFIED.,.F.,.F.,(4,3,3,3,3,3,3,3,3,3,3,3,4),(0.,0.000422464,0.000844927,0.001267391,0.001689855,0.002534782,0.002957246,0.00337971,0.003802174,0.004224637,0.005069565,0.005914492,0.00675942),.UNSPECIFIED.);
#1826=EDGE_CURVE('',#401,#628,#1825,.T.);
#1827=ORIENTED_EDGE('',*,*,#1826,.F.);
#1828=ORIENTED_EDGE('',*,*,#828,.F.);
#1829=EDGE_LOOP('',(#1786,#1787,#1827,#1828));
#1830=FACE_BOUND('',#1829,.T.);
#1831=ADVANCED_FACE('',(#1830),#1779,.T.);
#1832=CARTESIAN_POINT('',(0.,4.8,-3.));
#1833=DIRECTION('',(1.,0.,0.));
#1834=DIRECTION('',(0.,0.,-1.));
#1835=AXIS2_PLACEMENT_3D('',#1832,#1833,#1834);
#1836=CYLINDRICAL_SURFACE('',#1835,3.);
#1837=ORIENTED_EDGE('',*,*,#1826,.T.);
#1838=ORIENTED_EDGE('',*,*,#633,.F.);
#1839=CARTESIAN_POINT('',(135.234428091,4.8,0.));
#1840=CARTESIAN_POINT('',(135.234428091,4.65685209,0.));
#1841=CARTESIAN_POINT('',(135.243759449,4.516225839,-0.010187558));
#1842=CARTESIAN_POINT('',(135.26187795,4.377956317,-0.029835168));
#1843=CARTESIAN_POINT('',(135.279996451,4.239686795,-0.049482778));
#1844=CARTESIAN_POINT('',(135.307102815,4.10307622,-0.078806631));
#1845=CARTESIAN_POINT('',(135.342808906,3.970356411,-0.116999564));
#1846=CARTESIAN_POINT('',(135.378514997,3.837636602,-0.155192496));
#1847=CARTESIAN_POINT('',(135.422032914,3.711316326,-0.201404539));
#1848=CARTESIAN_POINT('',(135.472817751,3.590720547,-0.254523137));
#1849=CARTESIAN_POINT('',(135.523602588,3.470124769,-0.307641735));
#1850=CARTESIAN_POINT('',(135.582146662,3.354494966,-0.368168001));
#1851=CARTESIAN_POINT('',(135.646785684,3.246214471,-0.433728282));
#1852=CARTESIAN_POINT('',(135.776063726,3.02965348,-0.564848845));
#1853=CARTESIAN_POINT('',(135.927191554,2.844557451,-0.713638746));
#1854=CARTESIAN_POINT('',(136.098433923,2.684145853,-0.873227509));
#1855=CARTESIAN_POINT('',(136.184055108,2.603940054,-0.95302189));
#1856=CARTESIAN_POINT('',(136.27451271,2.530397786,-1.035290951));
#1857=CARTESIAN_POINT('',(136.367748558,2.464064792,-1.117606124));
#1858=CARTESIAN_POINT('',(136.460984406,2.397731797,-1.199921297));
#1859=CARTESIAN_POINT('',(136.557522361,2.338109091,-1.282777775));
#1860=CARTESIAN_POINT('',(136.657317909,2.284290127,-1.365618211));
#1861=CARTESIAN_POINT('',(136.757113456,2.230471163,-1.448458647));
#1862=CARTESIAN_POINT('',(136.860166912,2.182462332,-1.531286967));
#1863=CARTESIAN_POINT('',(136.966527433,2.139578098,-1.613581843));
#1864=CARTESIAN_POINT('',(137.072887955,2.096693864,-1.695876718));
#1865=CARTESIAN_POINT('',(137.182984529,2.058822554,-1.777941582));
#1866=CARTESIAN_POINT('',(137.294940932,2.025918357,-1.857865578));
#1867=CARTESIAN_POINT('',(137.518853739,1.960109962,-2.017713569));
#1868=CARTESIAN_POINT('',(137.750845417,1.913540703,-2.169680565));
#1869=CARTESIAN_POINT('',(137.991579565,1.880196467,-2.310980893));
#1870=CARTESIAN_POINT('',(138.232313712,1.846852231,-2.45228122));
#1871=CARTESIAN_POINT('',(138.482637238,1.82678148,-2.583311147));
#1872=CARTESIAN_POINT('',(138.740784455,1.815079238,-2.699586881));
#1873=CARTESIAN_POINT('',(138.998931673,1.803376995,-2.815862615));
#1874=CARTESIAN_POINT('',(139.264326589,1.8,-2.916783379));
#1875=CARTESIAN_POINT('',(139.535495602,1.8,-3.));
#1876=B_SPLINE_CURVE_WITH_KNOTS('',3,(#1839,#1840,#1841,#1842,#1843,#1844,#1845,#1846,#1847,#1848,#1849,#1850,#1851,#1852,#1853,#1854,#1855,#1856,#1857,#1858,#1859,#1860,#1861,#1862,#1863,#1864,
#1865,#1866,#1867,#1868,#1869,#1870,#1871,#1872,#1873,#1874,#1875),.UNSPECIFIED.,.F.,.F.,(4,3,3,3,3,3,3,3,3,3,3,3,4),(0.,0.000422464,0.000844927,0.001267391,0.001689855,0.002534782,0.002957246,0.00337971,0.003802174,0.004224637,0.005069565,0.005914492,0.00675942),.UNSPECIFIED.);
#1877=EDGE_CURVE('',#411,#619,#1876,.T.);
#1878=ORIENTED_EDGE('',*,*,#1877,.F.);
#1879=ORIENTED_EDGE('',*,*,#416,.F.);
#1880=EDGE_LOOP('',(#1837,#1838,#1878,#1879));
#1881=FACE_BOUND('',#1880,.T.);
#1882=ADVANCED_FACE('',(#1881),#1836,.T.);
#1883=CARTESIAN_POINT('',(141.2125,4.8,-0.5125));
#1884=DIRECTION('',(0.,1.,0.));
#1885=DIRECTION('',(0.,-0.,1.));
#1886=AXIS2_PLACEMENT_3D('',#1883,#1884,#1885);
#1887=TOROIDAL_SURFACE('',#1886,3.,3.);
#1888=CARTESIAN_POINT('',(141.2125,4.8,2.4875));
#1889=DIRECTION('',(1.,-0.,-0.));
#1890=DIRECTION('',(0.,0.,1.));
#1891=AXIS2_PLACEMENT_3D('',#1888,#1889,#1890);
#1892=CIRCLE('',#1891,3.);
#1893=EDGE_CURVE('',#749,#610,#1892,.T.);
#1894=ORIENTED_EDGE('',*,*,#1893,.T.);
#1895=ORIENTED_EDGE('',*,*,#616,.F.);
#1896=CARTESIAN_POINT('',(147.190571909,4.8,0.));
#1897=CARTESIAN_POINT('',(147.190571909,4.65685209,0.));
#1898=CARTESIAN_POINT('',(147.181240551,4.516225839,-0.010187558));
#1899=CARTESIAN_POINT('',(147.16312205,4.377956317,-0.029835168));
#1900=CARTESIAN_POINT('',(147.145003549,4.239686795,-0.049482778));
#1901=CARTESIAN_POINT('',(147.117897185,4.10307622,-0.078806631));
#1902=CARTESIAN_POINT('',(147.082191094,3.970356411,-0.116999564));
#1903=CARTESIAN_POINT('',(147.046485003,3.837636602,-0.155192496));
#1904=CARTESIAN_POINT('',(147.002967086,3.711316326,-0.201404539));
#1905=CARTESIAN_POINT('',(146.952182249,3.590720547,-0.254523137));
#1906=CARTESIAN_POINT('',(146.901397412,3.470124769,-0.307641735));
#1907=CARTESIAN_POINT('',(146.842853338,3.354494966,-0.368168001));
#1908=CARTESIAN_POINT('',(146.778214316,3.246214471,-0.433728282));
#1909=CARTESIAN_POINT('',(146.648936274,3.02965348,-0.564848845));
#1910=CARTESIAN_POINT('',(146.497808446,2.844557451,-0.713638746));
#1911=CARTESIAN_POINT('',(146.326566077,2.684145853,-0.873227509));
#1912=CARTESIAN_POINT('',(146.240944892,2.603940054,-0.95302189));
#1913=CARTESIAN_POINT('',(146.15048729,2.530397786,-1.035290951));
#1914=CARTESIAN_POINT('',(146.057251442,2.464064792,-1.117606124));
#1915=CARTESIAN_POINT('',(145.964015594,2.397731797,-1.199921297));
#1916=CARTESIAN_POINT('',(145.867477639,2.338109091,-1.282777775));
#1917=CARTESIAN_POINT('',(145.767682091,2.284290127,-1.365618211));
#1918=CARTESIAN_POINT('',(145.667886544,2.230471163,-1.448458647));
#1919=CARTESIAN_POINT('',(145.564833088,2.182462332,-1.531286967));
#1920=CARTESIAN_POINT('',(145.458472567,2.139578098,-1.613581843));
#1921=CARTESIAN_POINT('',(145.352112045,2.096693864,-1.695876718));
#1922=CARTESIAN_POINT('',(145.242015471,2.058822554,-1.777941582));
#1923=CARTESIAN_POINT('',(145.130059068,2.025918357,-1.857865578));
#1924=CARTESIAN_POINT('',(144.906146261,1.960109962,-2.017713569));
#1925=CARTESIAN_POINT('',(144.674154583,1.913540703,-2.169680565));
#1926=CARTESIAN_POINT('',(144.433420435,1.880196467,-2.310980893));
#1927=CARTESIAN_POINT('',(144.192686288,1.846852231,-2.45228122));
#1928=CARTESIAN_POINT('',(143.942362762,1.82678148,-2.583311147));
#1929=CARTESIAN_POINT('',(143.684215545,1.815079238,-2.699586881));
#1930=CARTESIAN_POINT('',(143.426068327,1.803376995,-2.815862615));
#1931=CARTESIAN_POINT('',(143.160673459,1.8,-2.916783535));
#1932=CARTESIAN_POINT('',(142.889504398,1.8,-3.));
#1933=B_SPLINE_CURVE_WITH_KNOTS('',3,(#1896,#1897,#1898,#1899,#1900,#1901,#1902,#1903,#1904,#1905,#1906,#1907,#1908,#1909,#1910,#1911,#1912,#1913,#1914,#1915,#1916,#1917,#1918,#1919,#1920,#1921,
#1922,#1923,#1924,#1925,#1926,#1927,#1928,#1929,#1930,#1931,#1932),.UNSPECIFIED.,.F.,.F.,(4,3,3,3,3,3,3,3,3,3,3,3,4),(0.,0.000422464,0.000844927,0.001267391,0.001689855,0.002534782,0.002957246,0.00337971,0.003802174,0.004224637,0.005069565,0.005914492,0.00675942),.UNSPECIFIED.);
#1934=EDGE_CURVE('',#481,#602,#1933,.T.);
#1935=ORIENTED_EDGE('',*,*,#1934,.F.);
#1936=ORIENTED_EDGE('',*,*,#762,.F.);
#1937=EDGE_LOOP('',(#1894,#1895,#1935,#1936));
#1938=FACE_BOUND('',#1937,.T.);
#1939=ADVANCED_FACE('',(#1938),#1887,.T.);
#1940=CARTESIAN_POINT('',(0.,4.8,-3.));
#1941=DIRECTION('',(1.,0.,0.));
#1942=DIRECTION('',(0.,0.,-1.));
#1943=AXIS2_PLACEMENT_3D('',#1940,#1941,#1942);
#1944=CYLINDRICAL_SURFACE('',#1943,3.);
#1945=ORIENTED_EDGE('',*,*,#1934,.T.);
#1946=ORIENTED_EDGE('',*,*,#607,.F.);
#1947=CARTESIAN_POINT('',(180.275,4.8,-3.));
#1948=DIRECTION('',(0.707106781,0.707106781,0.));
#1949=DIRECTION('',(0.707106781,-0.707106781,0.));
#1950=AXIS2_PLACEMENT_3D('',#1947,#1948,#1949);
#1951=ELLIPSE('',#1950,4.242640687,3.);
#1952=EDGE_CURVE('',#483,#571,#1951,.T.);
#1953=ORIENTED_EDGE('',*,*,#1952,.F.);
#1954=ORIENTED_EDGE('',*,*,#488,.F.);
#1955=EDGE_LOOP('',(#1945,#1946,#1953,#1954));
#1956=FACE_BOUND('',#1955,.T.);
#1957=ADVANCED_FACE('',(#1956),#1944,.T.);
#1958=CARTESIAN_POINT('',(180.275,19.,-3.));
#1959=DIRECTION('',(0.,-1.,0.));
#1960=DIRECTION('',(0.,0.,-1.));
#1961=AXIS2_PLACEMENT_3D('',#1958,#1959,#1960);
#1962=CYLINDRICAL_SURFACE('',#1961,3.);
#1963=ORIENTED_EDGE('',*,*,#1661,.F.);
#1964=ORIENTED_EDGE('',*,*,#496,.F.);
#1965=ORIENTED_EDGE('',*,*,#1952,.T.);
#1966=ORIENTED_EDGE('',*,*,#576,.F.);
#1967=EDGE_LOOP('',(#1963,#1964,#1965,#1966));
#1968=FACE_BOUND('',#1967,.T.);
#1969=ADVANCED_FACE('',(#1968),#1962,.T.);
#1970=CARTESIAN_POINT('',(176.925,7.3,-18.7625));
#1971=DIRECTION('',(0.,0.707106781,-0.707106781));
#1972=DIRECTION('',(-1.,0.,0.));
#1973=AXIS2_PLACEMENT_3D('',#1970,#1971,#1972);
#1974=PLANE('',#1973);
#1975=ORIENTED_EDGE('',*,*,#1207,.F.);
#1976=ORIENTED_EDGE('',*,*,#986,.F.);
#1977=ORIENTED_EDGE('',*,*,#1447,.F.);
#1978=ORIENTED_EDGE('',*,*,#260,.F.);
#1979=ORIENTED_EDGE('',*,*,#296,.F.);
#1980=ORIENTED_EDGE('',*,*,#1016,.F.);
#1981=ORIENTED_EDGE('',*,*,#1189,.F.);
#1982=ORIENTED_EDGE('',*,*,#1239,.F.);
#1983=EDGE_LOOP('',(#1975,#1976,#1977,#1978,#1979,#1980,#1981,#1982));
#1984=FACE_BOUND('',#1983,.T.);
#1985=ADVANCED_FACE('',(#1984),#1974,.T.);
#1986=CARTESIAN_POINT('',(33.85,7.3,-18.7625));
#1987=DIRECTION('',(-0.,0.707106781,-0.707106781));
#1988=DIRECTION('',(-1.,0.,0.));
#1989=AXIS2_PLACEMENT_3D('',#1986,#1987,#1988);
#1990=PLANE('',#1989);
#1991=ORIENTED_EDGE('',*,*,#1362,.F.);
#1992=ORIENTED_EDGE('',*,*,#923,.F.);
#1993=ORIENTED_EDGE('',*,*,#338,.F.);
#1994=ORIENTED_EDGE('',*,*,#383,.F.);
#1995=ORIENTED_EDGE('',*,*,#1471,.F.);
#1996=ORIENTED_EDGE('',*,*,#955,.F.);
#1997=ORIENTED_EDGE('',*,*,#1344,.F.);
#1998=ORIENTED_EDGE('',*,*,#1394,.F.);
#1999=EDGE_LOOP('',(#1991,#1992,#1993,#1994,#1995,#1996,#1997,#1998));
#2000=FACE_BOUND('',#1999,.T.);
#2001=ADVANCED_FACE('',(#2000),#1990,.T.);
#2002=CARTESIAN_POINT('',(141.2125,19.,-0.5125));
#2003=DIRECTION('',(0.,-1.,0.));
#2004=DIRECTION('',(0.,0.,-1.));
#2005=AXIS2_PLACEMENT_3D('',#2002,#2003,#2004);
#2006=CYLINDRICAL_SURFACE('',#2005,6.);
#2007=ORIENTED_EDGE('',*,*,#722,.F.);
#2008=ORIENTED_EDGE('',*,*,#1514,.T.);
#2009=ORIENTED_EDGE('',*,*,#162,.T.);
#2010=ORIENTED_EDGE('',*,*,#1673,.F.);
#2011=EDGE_LOOP('',(#2007,#2008,#2009,#2010));
#2012=FACE_BOUND('',#2011,.T.);
#2013=ADVANCED_FACE('',(#2012),#2006,.T.);
#2014=CARTESIAN_POINT('',(42.0625,19.,-0.5125));
#2015=DIRECTION('',(0.,-1.,0.));
#2016=DIRECTION('',(0.,0.,-1.));
#2017=AXIS2_PLACEMENT_3D('',#2014,#2015,#2016);
#2018=CYLINDRICAL_SURFACE('',#2017,6.);
#2019=ORIENTED_EDGE('',*,*,#788,.F.);
#2020=ORIENTED_EDGE('',*,*,#1505,.T.);
#2021=ORIENTED_EDGE('',*,*,#84,.T.);
#2022=ORIENTED_EDGE('',*,*,#1682,.F.);
#2023=EDGE_LOOP('',(#2019,#2020,#2021,#2022));
#2024=FACE_BOUND('',#2023,.T.);
#2025=ADVANCED_FACE('',(#2024),#2018,.T.);
#2026=CARTESIAN_POINT('',(42.0625,4.8,-0.5125));
#2027=DIRECTION('',(0.,1.,0.));
#2028=DIRECTION('',(0.,-0.,1.));
#2029=AXIS2_PLACEMENT_3D('',#2026,#2027,#2028);
#2030=TOROIDAL_SURFACE('',#2029,3.,3.);
#2031=ORIENTED_EDGE('',*,*,#1785,.F.);
#2032=ORIENTED_EDGE('',*,*,#821,.F.);
#2033=ORIENTED_EDGE('',*,*,#1769,.T.);
#2034=ORIENTED_EDGE('',*,*,#651,.F.);
#2035=EDGE_LOOP('',(#2031,#2032,#2033,#2034));
#2036=FACE_BOUND('',#2035,.T.);
#2037=ADVANCED_FACE('',(#2036),#2030,.T.);
#2038=CARTESIAN_POINT('',(141.2125,4.8,-0.5125));
#2039=DIRECTION('',(0.,1.,0.));
#2040=DIRECTION('',(0.,-0.,1.));
#2041=AXIS2_PLACEMENT_3D('',#2038,#2039,#2040);
#2042=TOROIDAL_SURFACE('',#2041,3.,3.);
#2043=ORIENTED_EDGE('',*,*,#1893,.F.);
#2044=ORIENTED_EDGE('',*,*,#755,.F.);
#2045=ORIENTED_EDGE('',*,*,#1877,.T.);
#2046=ORIENTED_EDGE('',*,*,#625,.F.);
#2047=EDGE_LOOP('',(#2043,#2044,#2045,#2046));
#2048=FACE_BOUND('',#2047,.T.);
#2049=ADVANCED_FACE('',(#2048),#2042,.T.);
#2050=CLOSED_SHELL('',(#126,#166,#238,#278,#316,#363,#394,#434,#474,#514,#554,#594,#708,#741,#774,#807,#840,#875,#910,#966,#1022,#1057,#1092,#1123,#1147,#1171,
#1194,#1217,#1247,#1278,#1302,#1326,#1349,#1372,#1402,#1419,#1436,#1460,#1484,#1519,#1543,#1567,#1591,#1615,#1645,#1705,#1723,#1774,#1831,#1882,#1939,
#1957,#1969,#1985,#2001,#2013,#2025,#2037,#2049));
#2051=MANIFOLD_SOLID_BREP('Imported 01',#2050);
#2052=COLOUR_RGB('',0.792156875,0.819607854,0.933333337);
#2053=FILL_AREA_STYLE_COLOUR('',#2052);
#2054=FILL_AREA_STYLE('',(#2053));
#2055=SURFACE_STYLE_FILL_AREA(#2054);
#2056=SURFACE_SIDE_STYLE('',(#2055));
#2057=SURFACE_STYLE_USAGE(.BOTH.,#2056);
#2058=PRESENTATION_STYLE_ASSIGNMENT((#2057));
#54=STYLED_ITEM('',(#2058),#2051);
#35=SHAPE_REPRESENTATION('[WOJ-CUENC-014-RevAB] Cable Clamp Base.SLDPRT',(#15),#33);
#36=ADVANCED_BREP_SHAPE_REPRESENTATION('[WOJ-CUENC-014-RevAB] Cable Clamp Base.SLDPRT',(#2051),#33);
#2066=SHAPE_REPRESENTATION_RELATIONSHIP('','',#35,#36);
#2067=CARTESIAN_POINT('',(0.,0.,0.));
#2068=DIRECTION('',(0.,0.,1.));
#2069=DIRECTION('',(1.,0.,0.));
#2070=AXIS2_PLACEMENT_3D('',#2067,#2068,#2069);
#2072=MAPPED_ITEM('',#2071,#2070);
#2071=REPRESENTATION_MAP(#2070,#35);
#2073=APPLICATION_CONTEXT('Managed model based 3d engineering');
#2074=APPLICATION_PROTOCOL_DEFINITION('international standard','ap242_managed_model_based_3d_engineering',2014,#2073);
#2075=PRODUCT_CONTEXT('',#2073,'mechanical');
#2076=PRODUCT_DEFINITION_CONTEXT('part definition',#2073,'design');
#43=PRODUCT('[WOJ-CUENC-014-RevAB] Cable Clamp Base.SLDPRT','[WOJ-CUENC-014-RevAB] Cable Clamp Base.SLDPRT','',(#2075));
#2077=PRODUCT_RELATED_PRODUCT_CATEGORY('part','',(#43));
#2078=PRODUCT_DEFINITION_FORMATION_WITH_SPECIFIED_SOURCE('','',#43,.NOT_KNOWN.);
#44=PRODUCT_DEFINITION('design','',#2078,#2076);
#42=PRODUCT_DEFINITION_SHAPE('','',#44);
#2079=SHAPE_DEFINITION_REPRESENTATION(#42,#35);
#34=DRAUGHTING_MODEL('',(#2072),#33);
#16=SHAPE_REPRESENTATION('root',(#15,#48),#10);
#2080=CARTESIAN_POINT('',(0.,0.,0.));
#2081=DIRECTION('',(0.,0.,1.));
#2082=DIRECTION('',(1.,0.,0.));
#2083=AXIS2_PLACEMENT_3D('',#2080,#2081,#2082);
#2085=MAPPED_ITEM('',#2084,#2083);
#2084=REPRESENTATION_MAP(#2083,#16);
#24=PRODUCT('root','root','',(#2075));
#2086=PRODUCT_RELATED_PRODUCT_CATEGORY('part','',(#24));
#2087=PRODUCT_DEFINITION_FORMATION_WITH_SPECIFIED_SOURCE('','',#24,.NOT_KNOWN.);
#25=PRODUCT_DEFINITION('design','',#2087,#2076);
#23=PRODUCT_DEFINITION_SHAPE('','',#25);
#2088=SHAPE_DEFINITION_REPRESENTATION(#23,#16);
#11=DRAUGHTING_MODEL('',(#2085),#10);
#2089=DESCRIPTIVE_REPRESENTATION_ITEM('KEY','C:\\Users\\bilal\\AppData\\Local\\Packages\\Shapr3D.Shapr3D_j403pzjkqtqbj\\TempState\\0e24a891-f3eb-4a25-ae23-f0f385699971.tmp');
#2090=PROPERTY_DEFINITION('KEY','',#25);
#2091=REPRESENTATION('',(#2089),#10);
#2092=PROPERTY_DEFINITION_REPRESENTATION(#2090,#2091);
#2093=GENERAL_PROPERTY('','KEY','');
#2094=GENERAL_PROPERTY_ASSOCIATION('','',#2093,#2090);
#1=MECHANICAL_DESIGN_GEOMETRIC_PRESENTATION_REPRESENTATION('',(#54),#10);
ENDSEC;
END-ISO-10303-21;
