ISO-10303-21;
HEADER;

/* File generated by Shapr3D Version 5.791.8191.0 */

FILE_DESCRIPTION(('HOOPS Exchange Step'),'2;1');

FILE_NAME('C:\\Users\\bilal\\AppData\\Local\\Packages\\Shapr3D.Shapr3D_j403pzjkqtqbj\\TempState\\export\\temp_export',
'2025-02-19T18:32:39+01:00',
('bilal'),
('Shapr3D Limited'),
'HOOPS Exchange 2024.8',
'Shapr3D',
'Authorized');

FILE_SCHEMA( ('AP242_MANAGED_MODEL_BASED_3D_ENGINEERING_MIM_LF {1 0 10303 442 1 1 4}') );

ENDSEC;

DATA;
#3=(NAMED_UNIT(*)PLANE_ANGLE_UNIT()SI_UNIT($,.RADIAN.));
#4=PLANE_ANGLE_MEASURE_WITH_UNIT(PLANE_ANGLE_MEASURE(0.0174532925),#3);
#5=(CONVERSION_BASED_UNIT('DEGREE',#4)NAMED_UNIT(#6)PLANE_ANGLE_UNIT());
#6=DIMENSIONAL_EXPONENTS(0.,0.,0.,0.,0.,0.,0.);
#7=(NAMED_UNIT(*)SI_UNIT($,.STERADIAN.)SOLID_ANGLE_UNIT());
#8=(LENGTH_UNIT()NAMED_UNIT(*)SI_UNIT(.MILLI.,.METRE.));
#9=UNCERTAINTY_MEASURE_WITH_UNIT(LENGTH_MEASURE(1.000000E-03),#8,'DISTANCE_ACCURACY_VALUE','Maximum Tolerance applied to model');
#10=(GEOMETRIC_REPRESENTATION_CONTEXT(3)GLOBAL_UNCERTAINTY_ASSIGNED_CONTEXT((#9))GLOBAL_UNIT_ASSIGNED_CONTEXT((#8,#5,#7))REPRESENTATION_CONTEXT('','root'));
#12=CARTESIAN_POINT('',(0.,0.,0.));
#13=DIRECTION('',(0.,0.,1.));
#14=DIRECTION('',(1.,0.,0.));
#15=AXIS2_PLACEMENT_3D('',#12,#13,#14);
#26=(NAMED_UNIT(*)PLANE_ANGLE_UNIT()SI_UNIT($,.RADIAN.));
#27=PLANE_ANGLE_MEASURE_WITH_UNIT(PLANE_ANGLE_MEASURE(0.0174532925),#26);
#28=(CONVERSION_BASED_UNIT('DEGREE',#27)NAMED_UNIT(#29)PLANE_ANGLE_UNIT());
#29=DIMENSIONAL_EXPONENTS(0.,0.,0.,0.,0.,0.,0.);
#30=(NAMED_UNIT(*)SI_UNIT($,.STERADIAN.)SOLID_ANGLE_UNIT());
#31=(LENGTH_UNIT()NAMED_UNIT(*)SI_UNIT(.MILLI.,.METRE.));
#32=UNCERTAINTY_MEASURE_WITH_UNIT(LENGTH_MEASURE(1.000000E-05),#31,'DISTANCE_ACCURACY_VALUE','Maximum Tolerance applied to model');
#33=(GEOMETRIC_REPRESENTATION_CONTEXT(3)GLOBAL_UNCERTAINTY_ASSIGNED_CONTEXT((#32))GLOBAL_UNIT_ASSIGNED_CONTEXT((#31,#28,#30))REPRESENTATION_CONTEXT('','[WOJ-CUENC-015-RevAB] Cable Clamp Mid.SLDPRT'));
#45=CARTESIAN_POINT('',(0.,0.,0.));
#46=DIRECTION('',(0.,0.,1.));
#47=DIRECTION('',(1.,0.,-0.));
#48=AXIS2_PLACEMENT_3D('',#45,#46,#47);
#49=ITEM_DEFINED_TRANSFORMATION('','',#48,#15);
#50=(REPRESENTATION_RELATIONSHIP('','',#35,#16)REPRESENTATION_RELATIONSHIP_WITH_TRANSFORMATION(#49)SHAPE_REPRESENTATION_RELATIONSHIP());
#51=NEXT_ASSEMBLY_USAGE_OCCURRENCE('[WOJ-CUENC-015-RevAB] Cable Clamp Mid.SLDPRT_1','[WOJ-CUENC-015-RevAB] Cable Clamp Mid.SLDPRT','[WOJ-CUENC-015-RevAB] Cable Clamp Mid.SLDPRT',#25,#44,$);
#52=PRODUCT_DEFINITION_SHAPE('','',#51);
#53=CONTEXT_DEPENDENT_SHAPE_REPRESENTATION(#50,#52);
#55=CARTESIAN_POINT('',(48.040571909,-7.225,-2.38125));
#56=DIRECTION('',(1.,0.,0.));
#57=DIRECTION('',(0.,0.,-1.));
#58=AXIS2_PLACEMENT_3D('',#55,#56,#57);
#59=PLANE('',#58);
#60=CARTESIAN_POINT('',(48.040571909,-3.,-1.025));
#61=VERTEX_POINT('',#60);
#62=CARTESIAN_POINT('',(48.040571909,2.,-1.025));
#63=VERTEX_POINT('',#62);
#64=CARTESIAN_POINT('',(48.040571909,-3.,-1.025));
#65=DIRECTION('',(0.,1.,0.));
#66=VECTOR('',#65,5.);
#67=LINE('',#64,#66);
#68=EDGE_CURVE('',#61,#63,#67,.T.);
#69=ORIENTED_EDGE('',*,*,#68,.F.);
#70=CARTESIAN_POINT('',(48.040571909,-3.,0.));
#71=VERTEX_POINT('',#70);
#72=CARTESIAN_POINT('',(48.040571909,-3.,0.));
#73=DIRECTION('',(0.,0.,-1.));
#74=VECTOR('',#73,1.025);
#75=LINE('',#72,#74);
#76=EDGE_CURVE('',#71,#61,#75,.T.);
#77=ORIENTED_EDGE('',*,*,#76,.F.);
#78=CARTESIAN_POINT('',(48.040571909,2.,0.));
#79=VERTEX_POINT('',#78);
#80=CARTESIAN_POINT('',(48.040571909,-3.,0.));
#81=DIRECTION('',(0.,1.,0.));
#82=VECTOR('',#81,5.);
#83=LINE('',#80,#82);
#84=EDGE_CURVE('',#71,#79,#83,.T.);
#85=ORIENTED_EDGE('',*,*,#84,.T.);
#86=CARTESIAN_POINT('',(48.040571909,2.,0.));
#87=DIRECTION('',(0.,0.,-1.));
#88=VECTOR('',#87,1.025);
#89=LINE('',#86,#88);
#90=EDGE_CURVE('',#79,#63,#89,.T.);
#91=ORIENTED_EDGE('',*,*,#90,.T.);
#92=EDGE_LOOP('',(#69,#77,#85,#91));
#93=FACE_BOUND('',#92,.T.);
#94=ADVANCED_FACE('',(#93),#59,.F.);
#95=CARTESIAN_POINT('',(36.084428091,-7.225,-2.38125));
#96=DIRECTION('',(1.,0.,0.));
#97=DIRECTION('',(0.,0.,-1.));
#98=AXIS2_PLACEMENT_3D('',#95,#96,#97);
#99=PLANE('',#98);
#100=CARTESIAN_POINT('',(36.084428091,-3.,-0.));
#101=VERTEX_POINT('',#100);
#102=CARTESIAN_POINT('',(36.084428091,-3.,-1.025));
#103=VERTEX_POINT('',#102);
#104=CARTESIAN_POINT('',(36.084428091,-3.,-0.));
#105=DIRECTION('',(0.,0.,-1.));
#106=VECTOR('',#105,1.025);
#107=LINE('',#104,#106);
#108=EDGE_CURVE('',#101,#103,#107,.T.);
#109=ORIENTED_EDGE('',*,*,#108,.T.);
#110=CARTESIAN_POINT('',(36.084428091,2.,-1.025));
#111=VERTEX_POINT('',#110);
#112=CARTESIAN_POINT('',(36.084428091,-3.,-1.025));
#113=DIRECTION('',(0.,1.,0.));
#114=VECTOR('',#113,5.);
#115=LINE('',#112,#114);
#116=EDGE_CURVE('',#103,#111,#115,.T.);
#117=ORIENTED_EDGE('',*,*,#116,.T.);
#118=CARTESIAN_POINT('',(36.084428091,2.,-0.));
#119=VERTEX_POINT('',#118);
#120=CARTESIAN_POINT('',(36.084428091,2.,-0.));
#121=DIRECTION('',(0.,0.,-1.));
#122=VECTOR('',#121,1.025);
#123=LINE('',#120,#122);
#124=EDGE_CURVE('',#119,#111,#123,.T.);
#125=ORIENTED_EDGE('',*,*,#124,.F.);
#126=CARTESIAN_POINT('',(36.084428091,-3.,-0.));
#127=DIRECTION('',(0.,1.,0.));
#128=VECTOR('',#127,5.);
#129=LINE('',#126,#128);
#130=EDGE_CURVE('',#101,#119,#129,.T.);
#131=ORIENTED_EDGE('',*,*,#130,.F.);
#132=EDGE_LOOP('',(#109,#117,#125,#131));
#133=FACE_BOUND('',#132,.T.);
#134=ADVANCED_FACE('',(#133),#99,.T.);
#135=CARTESIAN_POINT('',(0.,2.,0.));
#136=DIRECTION('',(0.,1.,0.));
#137=DIRECTION('',(0.,0.,1.));
#138=AXIS2_PLACEMENT_3D('',#135,#136,#137);
#139=PLANE('',#138);
#140=CARTESIAN_POINT('',(42.0625,2.,-2.7625));
#141=VERTEX_POINT('',#140);
#142=CARTESIAN_POINT('',(42.0625,2.,1.7375));
#143=VERTEX_POINT('',#142);
#144=CARTESIAN_POINT('',(42.0625,2.,-0.5125));
#145=DIRECTION('',(-0.,-1.,-0.));
#146=DIRECTION('',(0.,-0.,1.));
#147=AXIS2_PLACEMENT_3D('',#144,#145,#146);
#148=CIRCLE('',#147,2.25);
#149=EDGE_CURVE('',#141,#143,#148,.T.);
#150=ORIENTED_EDGE('',*,*,#149,.F.);
#151=CARTESIAN_POINT('',(42.0625,2.,-0.5125));
#152=DIRECTION('',(-0.,-1.,-0.));
#153=DIRECTION('',(0.,-0.,1.));
#154=AXIS2_PLACEMENT_3D('',#151,#152,#153);
#155=CIRCLE('',#154,2.25);
#156=EDGE_CURVE('',#143,#141,#155,.T.);
#157=ORIENTED_EDGE('',*,*,#156,.F.);
#158=EDGE_LOOP('',(#150,#157));
#159=FACE_BOUND('',#158,.T.);
#160=CARTESIAN_POINT('',(42.0625,2.,-6.5125));
#161=VERTEX_POINT('',#160);
#162=CARTESIAN_POINT('',(37.827231413,2.,-4.7625));
#163=VERTEX_POINT('',#162);
#164=CARTESIAN_POINT('',(42.0625,2.,-0.5125));
#165=DIRECTION('',(0.,1.,0.));
#166=DIRECTION('',(0.,-0.,1.));
#167=AXIS2_PLACEMENT_3D('',#164,#165,#166);
#168=CIRCLE('',#167,6.);
#169=EDGE_CURVE('',#161,#163,#168,.T.);
#170=ORIENTED_EDGE('',*,*,#169,.F.);
#171=CARTESIAN_POINT('',(46.297768587,2.,-4.7625));
#172=VERTEX_POINT('',#171);
#173=CARTESIAN_POINT('',(42.0625,2.,-0.5125));
#174=DIRECTION('',(0.,1.,0.));
#175=DIRECTION('',(0.,-0.,1.));
#176=AXIS2_PLACEMENT_3D('',#173,#174,#175);
#177=CIRCLE('',#176,6.);
#178=EDGE_CURVE('',#172,#161,#177,.T.);
#179=ORIENTED_EDGE('',*,*,#178,.F.);
#180=CARTESIAN_POINT('',(42.0625,2.,-0.5125));
#181=DIRECTION('',(0.,-1.,0.));
#182=DIRECTION('',(0.,0.,-1.));
#183=AXIS2_PLACEMENT_3D('',#180,#181,#182);
#184=CIRCLE('',#183,6.);
#185=EDGE_CURVE('',#172,#63,#184,.T.);
#186=ORIENTED_EDGE('',*,*,#185,.T.);
#187=ORIENTED_EDGE('',*,*,#90,.F.);
#188=CARTESIAN_POINT('',(42.0625,2.,-0.5125));
#189=DIRECTION('',(0.,1.,0.));
#190=DIRECTION('',(0.,-0.,1.));
#191=AXIS2_PLACEMENT_3D('',#188,#189,#190);
#192=CIRCLE('',#191,6.);
#193=EDGE_CURVE('',#119,#79,#192,.T.);
#194=ORIENTED_EDGE('',*,*,#193,.F.);
#195=ORIENTED_EDGE('',*,*,#124,.T.);
#196=CARTESIAN_POINT('',(42.0625,2.,-0.5125));
#197=DIRECTION('',(0.,-1.,0.));
#198=DIRECTION('',(0.,0.,-1.));
#199=AXIS2_PLACEMENT_3D('',#196,#197,#198);
#200=CIRCLE('',#199,6.);
#201=EDGE_CURVE('',#111,#163,#200,.T.);
#202=ORIENTED_EDGE('',*,*,#201,.T.);
#203=EDGE_LOOP('',(#170,#179,#186,#187,#194,#195,#202));
#204=FACE_BOUND('',#203,.T.);
#205=ADVANCED_FACE('',(#159,#204),#139,.F.);
#206=CARTESIAN_POINT('',(135.234428091,-7.225,-2.38125));
#207=DIRECTION('',(1.,0.,0.));
#208=DIRECTION('',(0.,0.,-1.));
#209=AXIS2_PLACEMENT_3D('',#206,#207,#208);
#210=PLANE('',#209);
#211=CARTESIAN_POINT('',(135.234428091,-3.,0.));
#212=VERTEX_POINT('',#211);
#213=CARTESIAN_POINT('',(135.234428091,-3.,-1.025));
#214=VERTEX_POINT('',#213);
#215=CARTESIAN_POINT('',(135.234428091,-3.,0.));
#216=DIRECTION('',(0.,0.,-1.));
#217=VECTOR('',#216,1.025);
#218=LINE('',#215,#217);
#219=EDGE_CURVE('',#212,#214,#218,.T.);
#220=ORIENTED_EDGE('',*,*,#219,.T.);
#221=CARTESIAN_POINT('',(135.234428091,2.,-1.025));
#222=VERTEX_POINT('',#221);
#223=CARTESIAN_POINT('',(135.234428091,-3.,-1.025));
#224=DIRECTION('',(0.,1.,0.));
#225=VECTOR('',#224,5.);
#226=LINE('',#223,#225);
#227=EDGE_CURVE('',#214,#222,#226,.T.);
#228=ORIENTED_EDGE('',*,*,#227,.T.);
#229=CARTESIAN_POINT('',(135.234428091,2.,0.));
#230=VERTEX_POINT('',#229);
#231=CARTESIAN_POINT('',(135.234428091,2.,0.));
#232=DIRECTION('',(0.,0.,-1.));
#233=VECTOR('',#232,1.025);
#234=LINE('',#231,#233);
#235=EDGE_CURVE('',#230,#222,#234,.T.);
#236=ORIENTED_EDGE('',*,*,#235,.F.);
#237=CARTESIAN_POINT('',(135.234428091,-3.,0.));
#238=DIRECTION('',(0.,1.,0.));
#239=VECTOR('',#238,5.);
#240=LINE('',#237,#239);
#241=EDGE_CURVE('',#212,#230,#240,.T.);
#242=ORIENTED_EDGE('',*,*,#241,.F.);
#243=EDGE_LOOP('',(#220,#228,#236,#242));
#244=FACE_BOUND('',#243,.T.);
#245=ADVANCED_FACE('',(#244),#210,.T.);
#246=CARTESIAN_POINT('',(147.190571909,-7.225,-2.38125));
#247=DIRECTION('',(1.,0.,0.));
#248=DIRECTION('',(0.,0.,-1.));
#249=AXIS2_PLACEMENT_3D('',#246,#247,#248);
#250=PLANE('',#249);
#251=CARTESIAN_POINT('',(147.190571909,-3.,-1.025));
#252=VERTEX_POINT('',#251);
#253=CARTESIAN_POINT('',(147.190571909,2.,-1.025));
#254=VERTEX_POINT('',#253);
#255=CARTESIAN_POINT('',(147.190571909,-3.,-1.025));
#256=DIRECTION('',(0.,1.,0.));
#257=VECTOR('',#256,5.);
#258=LINE('',#255,#257);
#259=EDGE_CURVE('',#252,#254,#258,.T.);
#260=ORIENTED_EDGE('',*,*,#259,.F.);
#261=CARTESIAN_POINT('',(147.190571909,-3.,-0.));
#262=VERTEX_POINT('',#261);
#263=CARTESIAN_POINT('',(147.190571909,-3.,-0.));
#264=DIRECTION('',(0.,0.,-1.));
#265=VECTOR('',#264,1.025);
#266=LINE('',#263,#265);
#267=EDGE_CURVE('',#262,#252,#266,.T.);
#268=ORIENTED_EDGE('',*,*,#267,.F.);
#269=CARTESIAN_POINT('',(147.190571909,2.,-0.));
#270=VERTEX_POINT('',#269);
#271=CARTESIAN_POINT('',(147.190571909,-3.,-0.));
#272=DIRECTION('',(0.,1.,0.));
#273=VECTOR('',#272,5.);
#274=LINE('',#271,#273);
#275=EDGE_CURVE('',#262,#270,#274,.T.);
#276=ORIENTED_EDGE('',*,*,#275,.T.);
#277=CARTESIAN_POINT('',(147.190571909,2.,-0.));
#278=DIRECTION('',(0.,0.,-1.));
#279=VECTOR('',#278,1.025);
#280=LINE('',#277,#279);
#281=EDGE_CURVE('',#270,#254,#280,.T.);
#282=ORIENTED_EDGE('',*,*,#281,.T.);
#283=EDGE_LOOP('',(#260,#268,#276,#282));
#284=FACE_BOUND('',#283,.T.);
#285=ADVANCED_FACE('',(#284),#250,.F.);
#286=CARTESIAN_POINT('',(0.,2.,0.));
#287=DIRECTION('',(0.,1.,0.));
#288=DIRECTION('',(0.,0.,1.));
#289=AXIS2_PLACEMENT_3D('',#286,#287,#288);
#290=PLANE('',#289);
#291=CARTESIAN_POINT('',(141.2125,2.,-2.7625));
#292=VERTEX_POINT('',#291);
#293=CARTESIAN_POINT('',(141.2125,2.,1.7375));
#294=VERTEX_POINT('',#293);
#295=CARTESIAN_POINT('',(141.2125,2.,-0.5125));
#296=DIRECTION('',(-0.,-1.,-0.));
#297=DIRECTION('',(0.,-0.,1.));
#298=AXIS2_PLACEMENT_3D('',#295,#296,#297);
#299=CIRCLE('',#298,2.25);
#300=EDGE_CURVE('',#292,#294,#299,.T.);
#301=ORIENTED_EDGE('',*,*,#300,.F.);
#302=CARTESIAN_POINT('',(141.2125,2.,-0.5125));
#303=DIRECTION('',(-0.,-1.,-0.));
#304=DIRECTION('',(0.,-0.,1.));
#305=AXIS2_PLACEMENT_3D('',#302,#303,#304);
#306=CIRCLE('',#305,2.25);
#307=EDGE_CURVE('',#294,#292,#306,.T.);
#308=ORIENTED_EDGE('',*,*,#307,.F.);
#309=EDGE_LOOP('',(#301,#308));
#310=FACE_BOUND('',#309,.T.);
#311=ORIENTED_EDGE('',*,*,#235,.T.);
#312=CARTESIAN_POINT('',(136.977231413,2.,-4.7625));
#313=VERTEX_POINT('',#312);
#314=CARTESIAN_POINT('',(141.2125,2.,-0.5125));
#315=DIRECTION('',(0.,-1.,0.));
#316=DIRECTION('',(0.,0.,-1.));
#317=AXIS2_PLACEMENT_3D('',#314,#315,#316);
#318=CIRCLE('',#317,6.);
#319=EDGE_CURVE('',#222,#313,#318,.T.);
#320=ORIENTED_EDGE('',*,*,#319,.T.);
#321=CARTESIAN_POINT('',(141.2125,2.,-6.5125));
#322=VERTEX_POINT('',#321);
#323=CARTESIAN_POINT('',(141.2125,2.,-0.5125));
#324=DIRECTION('',(0.,1.,0.));
#325=DIRECTION('',(0.,-0.,1.));
#326=AXIS2_PLACEMENT_3D('',#323,#324,#325);
#327=CIRCLE('',#326,6.);
#328=EDGE_CURVE('',#322,#313,#327,.T.);
#329=ORIENTED_EDGE('',*,*,#328,.F.);
#330=CARTESIAN_POINT('',(145.447768587,2.,-4.7625));
#331=VERTEX_POINT('',#330);
#332=CARTESIAN_POINT('',(141.2125,2.,-0.5125));
#333=DIRECTION('',(0.,1.,0.));
#334=DIRECTION('',(0.,-0.,1.));
#335=AXIS2_PLACEMENT_3D('',#332,#333,#334);
#336=CIRCLE('',#335,6.);
#337=EDGE_CURVE('',#331,#322,#336,.T.);
#338=ORIENTED_EDGE('',*,*,#337,.F.);
#339=CARTESIAN_POINT('',(141.2125,2.,-0.5125));
#340=DIRECTION('',(0.,-1.,0.));
#341=DIRECTION('',(0.,0.,-1.));
#342=AXIS2_PLACEMENT_3D('',#339,#340,#341);
#343=CIRCLE('',#342,6.);
#344=EDGE_CURVE('',#331,#254,#343,.T.);
#345=ORIENTED_EDGE('',*,*,#344,.T.);
#346=ORIENTED_EDGE('',*,*,#281,.F.);
#347=CARTESIAN_POINT('',(141.2125,2.,-0.5125));
#348=DIRECTION('',(0.,1.,0.));
#349=DIRECTION('',(0.,-0.,1.));
#350=AXIS2_PLACEMENT_3D('',#347,#348,#349);
#351=CIRCLE('',#350,6.);
#352=EDGE_CURVE('',#230,#270,#351,.T.);
#353=ORIENTED_EDGE('',*,*,#352,.F.);
#354=EDGE_LOOP('',(#311,#320,#329,#338,#345,#346,#353));
#355=FACE_BOUND('',#354,.T.);
#356=ADVANCED_FACE('',(#310,#355),#290,.F.);
#357=CARTESIAN_POINT('',(6.35,7.,-4.7625));
#358=DIRECTION('',(0.,0.,1.));
#359=DIRECTION('',(1.,0.,-0.));
#360=AXIS2_PLACEMENT_3D('',#357,#358,#359);
#361=PLANE('',#360);
#362=CARTESIAN_POINT('',(145.447768587,-3.,-4.7625));
#363=VERTEX_POINT('',#362);
#364=CARTESIAN_POINT('',(145.447768587,-3.,-4.7625));
#365=DIRECTION('',(0.,1.,0.));
#366=VECTOR('',#365,5.);
#367=LINE('',#364,#366);
#368=EDGE_CURVE('',#363,#331,#367,.T.);
#369=ORIENTED_EDGE('',*,*,#368,.T.);
#370=CARTESIAN_POINT('',(145.447768587,5.,-4.7625));
#371=VERTEX_POINT('',#370);
#372=CARTESIAN_POINT('',(145.447768587,5.,-4.7625));
#373=DIRECTION('',(0.,-1.,0.));
#374=VECTOR('',#373,3.);
#375=LINE('',#372,#374);
#376=EDGE_CURVE('',#371,#331,#375,.T.);
#377=ORIENTED_EDGE('',*,*,#376,.F.);
#378=CARTESIAN_POINT('',(178.5125,5.,-4.7625));
#379=VERTEX_POINT('',#378);
#380=CARTESIAN_POINT('',(178.5125,5.,-4.7625));
#381=DIRECTION('',(-1.,0.,0.));
#382=VECTOR('',#381,33.064731413);
#383=LINE('',#380,#382);
#384=EDGE_CURVE('',#379,#371,#383,.T.);
#385=ORIENTED_EDGE('',*,*,#384,.F.);
#386=CARTESIAN_POINT('',(178.5125,-3.,-4.7625));
#387=VERTEX_POINT('',#386);
#388=CARTESIAN_POINT('',(178.5125,-3.,-4.7625));
#389=DIRECTION('',(0.,1.,0.));
#390=VECTOR('',#389,8.);
#391=LINE('',#388,#390);
#392=EDGE_CURVE('',#387,#379,#391,.T.);
#393=ORIENTED_EDGE('',*,*,#392,.F.);
#394=CARTESIAN_POINT('',(178.5125,-3.,-4.7625));
#395=DIRECTION('',(-1.,0.,0.));
#396=VECTOR('',#395,33.064731413);
#397=LINE('',#394,#396);
#398=EDGE_CURVE('',#387,#363,#397,.T.);
#399=ORIENTED_EDGE('',*,*,#398,.T.);
#400=EDGE_LOOP('',(#369,#377,#385,#393,#399));
#401=FACE_BOUND('',#400,.T.);
#402=ADVANCED_FACE('',(#401),#361,.F.);
#403=CARTESIAN_POINT('',(6.35,7.,-4.7625));
#404=DIRECTION('',(0.,0.,1.));
#405=DIRECTION('',(1.,0.,-0.));
#406=AXIS2_PLACEMENT_3D('',#403,#404,#405);
#407=PLANE('',#406);
#408=CARTESIAN_POINT('',(4.7625,5.,-4.7625));
#409=VERTEX_POINT('',#408);
#410=CARTESIAN_POINT('',(4.7625,-3.,-4.7625));
#411=VERTEX_POINT('',#410);
#412=CARTESIAN_POINT('',(4.7625,5.,-4.7625));
#413=DIRECTION('',(-0.,-1.,0.));
#414=VECTOR('',#413,8.);
#415=LINE('',#412,#414);
#416=EDGE_CURVE('',#409,#411,#415,.T.);
#417=ORIENTED_EDGE('',*,*,#416,.F.);
#418=CARTESIAN_POINT('',(37.827231413,5.,-4.7625));
#419=VERTEX_POINT('',#418);
#420=CARTESIAN_POINT('',(37.827231413,5.,-4.7625));
#421=DIRECTION('',(-1.,0.,0.));
#422=VECTOR('',#421,33.064731413);
#423=LINE('',#420,#422);
#424=EDGE_CURVE('',#419,#409,#423,.T.);
#425=ORIENTED_EDGE('',*,*,#424,.F.);
#426=CARTESIAN_POINT('',(37.827231413,2.,-4.7625));
#427=DIRECTION('',(-0.,1.,-0.));
#428=VECTOR('',#427,3.);
#429=LINE('',#426,#428);
#430=EDGE_CURVE('',#163,#419,#429,.T.);
#431=ORIENTED_EDGE('',*,*,#430,.F.);
#432=CARTESIAN_POINT('',(37.827231413,-3.,-4.7625));
#433=VERTEX_POINT('',#432);
#434=CARTESIAN_POINT('',(37.827231413,-3.,-4.7625));
#435=DIRECTION('',(0.,1.,0.));
#436=VECTOR('',#435,5.);
#437=LINE('',#434,#436);
#438=EDGE_CURVE('',#433,#163,#437,.T.);
#439=ORIENTED_EDGE('',*,*,#438,.F.);
#440=CARTESIAN_POINT('',(37.827231413,-3.,-4.7625));
#441=DIRECTION('',(-1.,0.,0.));
#442=VECTOR('',#441,33.064731413);
#443=LINE('',#440,#442);
#444=EDGE_CURVE('',#433,#411,#443,.T.);
#445=ORIENTED_EDGE('',*,*,#444,.T.);
#446=EDGE_LOOP('',(#417,#425,#431,#439,#445));
#447=FACE_BOUND('',#446,.T.);
#448=ADVANCED_FACE('',(#447),#407,.F.);
#449=CARTESIAN_POINT('',(0.,7.,0.));
#450=DIRECTION('',(0.,0.,-1.));
#451=DIRECTION('',(-1.,0.,0.));
#452=AXIS2_PLACEMENT_3D('',#449,#450,#451);
#453=PLANE('',#452);
#454=CARTESIAN_POINT('',(48.040571909,5.,-0.));
#455=VERTEX_POINT('',#454);
#456=CARTESIAN_POINT('',(48.040571909,2.,-0.));
#457=DIRECTION('',(-0.,1.,-0.));
#458=VECTOR('',#457,3.);
#459=LINE('',#456,#458);
#460=EDGE_CURVE('',#79,#455,#459,.T.);
#461=ORIENTED_EDGE('',*,*,#460,.F.);
#462=ORIENTED_EDGE('',*,*,#84,.F.);
#463=CARTESIAN_POINT('',(48.040571909,-3.,0.));
#464=DIRECTION('',(1.,0.,-0.));
#465=VECTOR('',#464,87.193856182);
#466=LINE('',#463,#465);
#467=EDGE_CURVE('',#71,#212,#466,.T.);
#468=ORIENTED_EDGE('',*,*,#467,.T.);
#469=ORIENTED_EDGE('',*,*,#241,.T.);
#470=CARTESIAN_POINT('',(135.234428091,5.,-0.));
#471=VERTEX_POINT('',#470);
#472=CARTESIAN_POINT('',(135.234428091,5.,-0.));
#473=DIRECTION('',(0.,-1.,0.));
#474=VECTOR('',#473,3.);
#475=LINE('',#472,#474);
#476=EDGE_CURVE('',#471,#230,#475,.T.);
#477=ORIENTED_EDGE('',*,*,#476,.F.);
#478=CARTESIAN_POINT('',(48.040571909,5.,0.));
#479=DIRECTION('',(1.,0.,-0.));
#480=VECTOR('',#479,87.193856182);
#481=LINE('',#478,#480);
#482=EDGE_CURVE('',#455,#471,#481,.T.);
#483=ORIENTED_EDGE('',*,*,#482,.F.);
#484=EDGE_LOOP('',(#461,#462,#468,#469,#477,#483));
#485=FACE_BOUND('',#484,.T.);
#486=ADVANCED_FACE('',(#485),#453,.F.);
#487=CARTESIAN_POINT('',(0.,7.,0.));
#488=DIRECTION('',(0.,0.,-1.));
#489=DIRECTION('',(-1.,0.,0.));
#490=AXIS2_PLACEMENT_3D('',#487,#488,#489);
#491=PLANE('',#490);
#492=CARTESIAN_POINT('',(3.,5.,0.));
#493=VERTEX_POINT('',#492);
#494=CARTESIAN_POINT('',(36.084428091,5.,-0.));
#495=VERTEX_POINT('',#494);
#496=CARTESIAN_POINT('',(3.,5.,0.));
#497=DIRECTION('',(1.,0.,-0.));
#498=VECTOR('',#497,33.084428091);
#499=LINE('',#496,#498);
#500=EDGE_CURVE('',#493,#495,#499,.T.);
#501=ORIENTED_EDGE('',*,*,#500,.F.);
#502=CARTESIAN_POINT('',(3.,-3.,0.));
#503=VERTEX_POINT('',#502);
#504=CARTESIAN_POINT('',(3.,5.,0.));
#505=DIRECTION('',(0.,-1.,0.));
#506=VECTOR('',#505,8.);
#507=LINE('',#504,#506);
#508=EDGE_CURVE('',#493,#503,#507,.T.);
#509=ORIENTED_EDGE('',*,*,#508,.T.);
#510=CARTESIAN_POINT('',(3.,-3.,0.));
#511=DIRECTION('',(1.,0.,-0.));
#512=VECTOR('',#511,33.084428091);
#513=LINE('',#510,#512);
#514=EDGE_CURVE('',#503,#101,#513,.T.);
#515=ORIENTED_EDGE('',*,*,#514,.T.);
#516=ORIENTED_EDGE('',*,*,#130,.T.);
#517=CARTESIAN_POINT('',(36.084428091,5.,-0.));
#518=DIRECTION('',(0.,-1.,0.));
#519=VECTOR('',#518,3.);
#520=LINE('',#517,#519);
#521=EDGE_CURVE('',#495,#119,#520,.T.);
#522=ORIENTED_EDGE('',*,*,#521,.F.);
#523=EDGE_LOOP('',(#501,#509,#515,#516,#522));
#524=FACE_BOUND('',#523,.T.);
#525=ADVANCED_FACE('',(#524),#491,.F.);
#526=CARTESIAN_POINT('',(6.35,7.,-4.7625));
#527=DIRECTION('',(0.,0.,1.));
#528=DIRECTION('',(1.,0.,-0.));
#529=AXIS2_PLACEMENT_3D('',#526,#527,#528);
#530=PLANE('',#529);
#531=CARTESIAN_POINT('',(46.297768587,-3.,-4.7625));
#532=VERTEX_POINT('',#531);
#533=CARTESIAN_POINT('',(46.297768587,-3.,-4.7625));
#534=DIRECTION('',(0.,1.,0.));
#535=VECTOR('',#534,5.);
#536=LINE('',#533,#535);
#537=EDGE_CURVE('',#532,#172,#536,.T.);
#538=ORIENTED_EDGE('',*,*,#537,.T.);
#539=CARTESIAN_POINT('',(46.297768587,5.,-4.7625));
#540=VERTEX_POINT('',#539);
#541=CARTESIAN_POINT('',(46.297768587,5.,-4.7625));
#542=DIRECTION('',(0.,-1.,0.));
#543=VECTOR('',#542,3.);
#544=LINE('',#541,#543);
#545=EDGE_CURVE('',#540,#172,#544,.T.);
#546=ORIENTED_EDGE('',*,*,#545,.F.);
#547=CARTESIAN_POINT('',(136.977231413,5.,-4.7625));
#548=VERTEX_POINT('',#547);
#549=CARTESIAN_POINT('',(136.977231413,5.,-4.7625));
#550=DIRECTION('',(-1.,0.,0.));
#551=VECTOR('',#550,90.679462827);
#552=LINE('',#549,#551);
#553=EDGE_CURVE('',#548,#540,#552,.T.);
#554=ORIENTED_EDGE('',*,*,#553,.F.);
#555=CARTESIAN_POINT('',(136.977231413,2.,-4.7625));
#556=DIRECTION('',(-0.,1.,-0.));
#557=VECTOR('',#556,3.);
#558=LINE('',#555,#557);
#559=EDGE_CURVE('',#313,#548,#558,.T.);
#560=ORIENTED_EDGE('',*,*,#559,.F.);
#561=CARTESIAN_POINT('',(136.977231413,-3.,-4.7625));
#562=VERTEX_POINT('',#561);
#563=CARTESIAN_POINT('',(136.977231413,-3.,-4.7625));
#564=DIRECTION('',(0.,1.,0.));
#565=VECTOR('',#564,5.);
#566=LINE('',#563,#565);
#567=EDGE_CURVE('',#562,#313,#566,.T.);
#568=ORIENTED_EDGE('',*,*,#567,.F.);
#569=CARTESIAN_POINT('',(136.977231413,-3.,-4.7625));
#570=DIRECTION('',(-1.,0.,0.));
#571=VECTOR('',#570,90.679462827);
#572=LINE('',#569,#571);
#573=EDGE_CURVE('',#562,#532,#572,.T.);
#574=ORIENTED_EDGE('',*,*,#573,.T.);
#575=EDGE_LOOP('',(#538,#546,#554,#560,#568,#574));
#576=FACE_BOUND('',#575,.T.);
#577=ADVANCED_FACE('',(#576),#530,.F.);
#578=CARTESIAN_POINT('',(0.,7.,0.));
#579=DIRECTION('',(0.,0.,-1.));
#580=DIRECTION('',(-1.,0.,0.));
#581=AXIS2_PLACEMENT_3D('',#578,#579,#580);
#582=PLANE('',#581);
#583=CARTESIAN_POINT('',(180.275,-3.,0.));
#584=VERTEX_POINT('',#583);
#585=CARTESIAN_POINT('',(147.190571909,-3.,0.));
#586=DIRECTION('',(1.,0.,-0.));
#587=VECTOR('',#586,33.084428091);
#588=LINE('',#585,#587);
#589=EDGE_CURVE('',#262,#584,#588,.T.);
#590=ORIENTED_EDGE('',*,*,#589,.T.);
#591=CARTESIAN_POINT('',(180.275,5.,0.));
#592=VERTEX_POINT('',#591);
#593=CARTESIAN_POINT('',(180.275,-3.,0.));
#594=DIRECTION('',(-0.,1.,-0.));
#595=VECTOR('',#594,8.);
#596=LINE('',#593,#595);
#597=EDGE_CURVE('',#584,#592,#596,.T.);
#598=ORIENTED_EDGE('',*,*,#597,.T.);
#599=CARTESIAN_POINT('',(147.190571909,5.,-0.));
#600=VERTEX_POINT('',#599);
#601=CARTESIAN_POINT('',(147.190571909,5.,0.));
#602=DIRECTION('',(1.,0.,-0.));
#603=VECTOR('',#602,33.084428091);
#604=LINE('',#601,#603);
#605=EDGE_CURVE('',#600,#592,#604,.T.);
#606=ORIENTED_EDGE('',*,*,#605,.F.);
#607=CARTESIAN_POINT('',(147.190571909,2.,-0.));
#608=DIRECTION('',(-0.,1.,-0.));
#609=VECTOR('',#608,3.);
#610=LINE('',#607,#609);
#611=EDGE_CURVE('',#270,#600,#610,.T.);
#612=ORIENTED_EDGE('',*,*,#611,.F.);
#613=ORIENTED_EDGE('',*,*,#275,.F.);
#614=EDGE_LOOP('',(#590,#598,#606,#612,#613));
#615=FACE_BOUND('',#614,.T.);
#616=ADVANCED_FACE('',(#615),#582,.F.);
#617=CARTESIAN_POINT('',(0.,7.,-4.7625));
#618=DIRECTION('',(1.,0.,0.));
#619=DIRECTION('',(0.,0.,-1.));
#620=AXIS2_PLACEMENT_3D('',#617,#618,#619);
#621=PLANE('',#620);
#622=CARTESIAN_POINT('',(-0.,-3.,-8.7625));
#623=VERTEX_POINT('',#622);
#624=CARTESIAN_POINT('',(0.,-3.,-3.));
#625=VERTEX_POINT('',#624);
#626=CARTESIAN_POINT('',(0.,-3.,-8.7625));
#627=DIRECTION('',(0.,0.,1.));
#628=VECTOR('',#627,5.7625);
#629=LINE('',#626,#628);
#630=EDGE_CURVE('',#623,#625,#629,.T.);
#631=ORIENTED_EDGE('',*,*,#630,.T.);
#632=CARTESIAN_POINT('',(0.,5.,-3.));
#633=VERTEX_POINT('',#632);
#634=CARTESIAN_POINT('',(0.,-3.,-3.));
#635=DIRECTION('',(-0.,1.,-0.));
#636=VECTOR('',#635,8.);
#637=LINE('',#634,#636);
#638=EDGE_CURVE('',#625,#633,#637,.T.);
#639=ORIENTED_EDGE('',*,*,#638,.T.);
#640=CARTESIAN_POINT('',(-0.,5.,-8.7625));
#641=VERTEX_POINT('',#640);
#642=CARTESIAN_POINT('',(0.,5.,-8.7625));
#643=DIRECTION('',(0.,0.,1.));
#644=VECTOR('',#643,5.7625);
#645=LINE('',#642,#644);
#646=EDGE_CURVE('',#641,#633,#645,.T.);
#647=ORIENTED_EDGE('',*,*,#646,.F.);
#648=CARTESIAN_POINT('',(-0.,-3.,-8.7625));
#649=DIRECTION('',(0.,1.,0.));
#650=VECTOR('',#649,8.);
#651=LINE('',#648,#650);
#652=EDGE_CURVE('',#623,#641,#651,.T.);
#653=ORIENTED_EDGE('',*,*,#652,.F.);
#654=EDGE_LOOP('',(#631,#639,#647,#653));
#655=FACE_BOUND('',#654,.T.);
#656=ADVANCED_FACE('',(#655),#621,.F.);
#657=CARTESIAN_POINT('',(183.275,7.,0.));
#658=DIRECTION('',(-1.,0.,0.));
#659=DIRECTION('',(0.,0.,1.));
#660=AXIS2_PLACEMENT_3D('',#657,#658,#659);
#661=PLANE('',#660);
#662=CARTESIAN_POINT('',(183.275,5.,-3.));
#663=VERTEX_POINT('',#662);
#664=CARTESIAN_POINT('',(183.275,5.,-8.7625));
#665=VERTEX_POINT('',#664);
#666=CARTESIAN_POINT('',(183.275,5.,-3.));
#667=DIRECTION('',(0.,0.,-1.));
#668=VECTOR('',#667,5.7625);
#669=LINE('',#666,#668);
#670=EDGE_CURVE('',#663,#665,#669,.T.);
#671=ORIENTED_EDGE('',*,*,#670,.F.);
#672=CARTESIAN_POINT('',(183.275,-3.,-3.));
#673=VERTEX_POINT('',#672);
#674=CARTESIAN_POINT('',(183.275,5.,-3.));
#675=DIRECTION('',(0.,-1.,0.));
#676=VECTOR('',#675,8.);
#677=LINE('',#674,#676);
#678=EDGE_CURVE('',#663,#673,#677,.T.);
#679=ORIENTED_EDGE('',*,*,#678,.T.);
#680=CARTESIAN_POINT('',(183.275,-3.,-8.7625));
#681=VERTEX_POINT('',#680);
#682=CARTESIAN_POINT('',(183.275,-3.,-3.));
#683=DIRECTION('',(0.,0.,-1.));
#684=VECTOR('',#683,5.7625);
#685=LINE('',#682,#684);
#686=EDGE_CURVE('',#673,#681,#685,.T.);
#687=ORIENTED_EDGE('',*,*,#686,.T.);
#688=CARTESIAN_POINT('',(183.275,5.,-8.7625));
#689=DIRECTION('',(0.,-1.,0.));
#690=VECTOR('',#689,8.);
#691=LINE('',#688,#690);
#692=EDGE_CURVE('',#665,#681,#691,.T.);
#693=ORIENTED_EDGE('',*,*,#692,.F.);
#694=EDGE_LOOP('',(#671,#679,#687,#693));
#695=FACE_BOUND('',#694,.T.);
#696=ADVANCED_FACE('',(#695),#661,.F.);
#697=CARTESIAN_POINT('',(0.,5.,0.));
#698=DIRECTION('',(0.,1.,0.));
#699=DIRECTION('',(0.,0.,1.));
#700=AXIS2_PLACEMENT_3D('',#697,#698,#699);
#701=PLANE('',#700);
#702=CARTESIAN_POINT('',(42.0625,5.,1.7375));
#703=VERTEX_POINT('',#702);
#704=CARTESIAN_POINT('',(42.0625,5.,-2.7625));
#705=VERTEX_POINT('',#704);
#706=CARTESIAN_POINT('',(42.0625,5.,-0.5125));
#707=DIRECTION('',(-0.,-1.,-0.));
#708=DIRECTION('',(0.,-0.,1.));
#709=AXIS2_PLACEMENT_3D('',#706,#707,#708);
#710=CIRCLE('',#709,2.25);
#711=EDGE_CURVE('',#703,#705,#710,.T.);
#712=ORIENTED_EDGE('',*,*,#711,.T.);
#713=CARTESIAN_POINT('',(42.0625,5.,-0.5125));
#714=DIRECTION('',(-0.,-1.,-0.));
#715=DIRECTION('',(0.,-0.,1.));
#716=AXIS2_PLACEMENT_3D('',#713,#714,#715);
#717=CIRCLE('',#716,2.25);
#718=EDGE_CURVE('',#705,#703,#717,.T.);
#719=ORIENTED_EDGE('',*,*,#718,.T.);
#720=EDGE_LOOP('',(#712,#719));
#721=FACE_BOUND('',#720,.T.);
#722=CARTESIAN_POINT('',(141.2125,5.,1.7375));
#723=VERTEX_POINT('',#722);
#724=CARTESIAN_POINT('',(141.2125,5.,-2.7625));
#725=VERTEX_POINT('',#724);
#726=CARTESIAN_POINT('',(141.2125,5.,-0.5125));
#727=DIRECTION('',(-0.,-1.,-0.));
#728=DIRECTION('',(0.,-0.,1.));
#729=AXIS2_PLACEMENT_3D('',#726,#727,#728);
#730=CIRCLE('',#729,2.25);
#731=EDGE_CURVE('',#723,#725,#730,.T.);
#732=ORIENTED_EDGE('',*,*,#731,.T.);
#733=CARTESIAN_POINT('',(141.2125,5.,-0.5125));
#734=DIRECTION('',(-0.,-1.,-0.));
#735=DIRECTION('',(0.,-0.,1.));
#736=AXIS2_PLACEMENT_3D('',#733,#734,#735);
#737=CIRCLE('',#736,2.25);
#738=EDGE_CURVE('',#725,#723,#737,.T.);
#739=ORIENTED_EDGE('',*,*,#738,.T.);
#740=EDGE_LOOP('',(#732,#739));
#741=FACE_BOUND('',#740,.T.);
#742=ORIENTED_EDGE('',*,*,#646,.T.);
#743=CARTESIAN_POINT('',(3.,5.,-3.));
#744=DIRECTION('',(0.,1.,0.));
#745=DIRECTION('',(0.,-0.,1.));
#746=AXIS2_PLACEMENT_3D('',#743,#744,#745);
#747=CIRCLE('',#746,3.);
#748=EDGE_CURVE('',#633,#493,#747,.T.);
#749=ORIENTED_EDGE('',*,*,#748,.T.);
#750=ORIENTED_EDGE('',*,*,#500,.T.);
#751=CARTESIAN_POINT('',(42.0625,5.,-0.5125));
#752=DIRECTION('',(0.,1.,0.));
#753=DIRECTION('',(0.,-0.,1.));
#754=AXIS2_PLACEMENT_3D('',#751,#752,#753);
#755=CIRCLE('',#754,6.);
#756=EDGE_CURVE('',#495,#455,#755,.T.);
#757=ORIENTED_EDGE('',*,*,#756,.T.);
#758=ORIENTED_EDGE('',*,*,#482,.T.);
#759=CARTESIAN_POINT('',(141.2125,5.,-0.5125));
#760=DIRECTION('',(0.,1.,0.));
#761=DIRECTION('',(0.,-0.,1.));
#762=AXIS2_PLACEMENT_3D('',#759,#760,#761);
#763=CIRCLE('',#762,6.);
#764=EDGE_CURVE('',#471,#600,#763,.T.);
#765=ORIENTED_EDGE('',*,*,#764,.T.);
#766=ORIENTED_EDGE('',*,*,#605,.T.);
#767=CARTESIAN_POINT('',(180.275,5.,-3.));
#768=DIRECTION('',(0.,1.,0.));
#769=DIRECTION('',(0.,-0.,1.));
#770=AXIS2_PLACEMENT_3D('',#767,#768,#769);
#771=CIRCLE('',#770,3.);
#772=EDGE_CURVE('',#592,#663,#771,.T.);
#773=ORIENTED_EDGE('',*,*,#772,.T.);
#774=ORIENTED_EDGE('',*,*,#670,.T.);
#775=CARTESIAN_POINT('',(178.5125,5.,-8.7625));
#776=VERTEX_POINT('',#775);
#777=CARTESIAN_POINT('',(178.5125,5.,-8.7625));
#778=DIRECTION('',(1.,0.,-0.));
#779=VECTOR('',#778,4.7625);
#780=LINE('',#777,#779);
#781=EDGE_CURVE('',#776,#665,#780,.T.);
#782=ORIENTED_EDGE('',*,*,#781,.F.);
#783=CARTESIAN_POINT('',(178.5125,5.,-8.7625));
#784=DIRECTION('',(0.,0.,1.));
#785=VECTOR('',#784,4.);
#786=LINE('',#783,#785);
#787=EDGE_CURVE('',#776,#379,#786,.T.);
#788=ORIENTED_EDGE('',*,*,#787,.T.);
#789=ORIENTED_EDGE('',*,*,#384,.T.);
#790=CARTESIAN_POINT('',(141.2125,5.,-6.5125));
#791=VERTEX_POINT('',#790);
#792=CARTESIAN_POINT('',(141.2125,5.,-0.5125));
#793=DIRECTION('',(0.,1.,0.));
#794=DIRECTION('',(0.,-0.,1.));
#795=AXIS2_PLACEMENT_3D('',#792,#793,#794);
#796=CIRCLE('',#795,6.);
#797=EDGE_CURVE('',#371,#791,#796,.T.);
#798=ORIENTED_EDGE('',*,*,#797,.T.);
#799=CARTESIAN_POINT('',(141.2125,5.,-0.5125));
#800=DIRECTION('',(0.,1.,0.));
#801=DIRECTION('',(0.,-0.,1.));
#802=AXIS2_PLACEMENT_3D('',#799,#800,#801);
#803=CIRCLE('',#802,6.);
#804=EDGE_CURVE('',#791,#548,#803,.T.);
#805=ORIENTED_EDGE('',*,*,#804,.T.);
#806=ORIENTED_EDGE('',*,*,#553,.T.);
#807=CARTESIAN_POINT('',(42.0625,5.,-6.5125));
#808=VERTEX_POINT('',#807);
#809=CARTESIAN_POINT('',(42.0625,5.,-0.5125));
#810=DIRECTION('',(0.,1.,0.));
#811=DIRECTION('',(0.,-0.,1.));
#812=AXIS2_PLACEMENT_3D('',#809,#810,#811);
#813=CIRCLE('',#812,6.);
#814=EDGE_CURVE('',#540,#808,#813,.T.);
#815=ORIENTED_EDGE('',*,*,#814,.T.);
#816=CARTESIAN_POINT('',(42.0625,5.,-0.5125));
#817=DIRECTION('',(0.,1.,0.));
#818=DIRECTION('',(0.,-0.,1.));
#819=AXIS2_PLACEMENT_3D('',#816,#817,#818);
#820=CIRCLE('',#819,6.);
#821=EDGE_CURVE('',#808,#419,#820,.T.);
#822=ORIENTED_EDGE('',*,*,#821,.T.);
#823=ORIENTED_EDGE('',*,*,#424,.T.);
#824=CARTESIAN_POINT('',(4.7625,5.,-8.7625));
#825=VERTEX_POINT('',#824);
#826=CARTESIAN_POINT('',(4.7625,5.,-8.7625));
#827=DIRECTION('',(0.,0.,1.));
#828=VECTOR('',#827,4.);
#829=LINE('',#826,#828);
#830=EDGE_CURVE('',#825,#409,#829,.T.);
#831=ORIENTED_EDGE('',*,*,#830,.F.);
#832=CARTESIAN_POINT('',(-0.,5.,-8.7625));
#833=DIRECTION('',(1.,0.,-0.));
#834=VECTOR('',#833,4.7625);
#835=LINE('',#832,#834);
#836=EDGE_CURVE('',#641,#825,#835,.T.);
#837=ORIENTED_EDGE('',*,*,#836,.F.);
#838=EDGE_LOOP('',(#742,#749,#750,#757,#758,#765,#766,#773,#774,#782,#788,#789,#798,#805,#806,#815,#822,#823,#831,#837));
#839=FACE_BOUND('',#838,.T.);
#840=ADVANCED_FACE('',(#721,#741,#839),#701,.T.);
#841=CARTESIAN_POINT('',(141.2125,23.970562748,-0.5125));
#842=DIRECTION('',(0.,-1.,0.));
#843=DIRECTION('',(0.,0.,-1.));
#844=AXIS2_PLACEMENT_3D('',#841,#842,#843);
#845=CYLINDRICAL_SURFACE('',#844,6.);
#846=CARTESIAN_POINT('',(141.2125,2.,-6.5125));
#847=DIRECTION('',(-0.,1.,-0.));
#848=VECTOR('',#847,3.);
#849=LINE('',#846,#848);
#850=EDGE_CURVE('',#322,#791,#849,.T.);
#851=ORIENTED_EDGE('',*,*,#850,.T.);
#852=ORIENTED_EDGE('',*,*,#797,.F.);
#853=ORIENTED_EDGE('',*,*,#376,.T.);
#854=ORIENTED_EDGE('',*,*,#337,.T.);
#855=EDGE_LOOP('',(#851,#852,#853,#854));
#856=FACE_BOUND('',#855,.T.);
#857=ADVANCED_FACE('',(#856),#845,.T.);
#858=CARTESIAN_POINT('',(141.2125,23.970562748,-0.5125));
#859=DIRECTION('',(0.,-1.,0.));
#860=DIRECTION('',(0.,0.,-1.));
#861=AXIS2_PLACEMENT_3D('',#858,#859,#860);
#862=CYLINDRICAL_SURFACE('',#861,6.);
#863=ORIENTED_EDGE('',*,*,#352,.T.);
#864=ORIENTED_EDGE('',*,*,#611,.T.);
#865=ORIENTED_EDGE('',*,*,#764,.F.);
#866=ORIENTED_EDGE('',*,*,#476,.T.);
#867=EDGE_LOOP('',(#863,#864,#865,#866));
#868=FACE_BOUND('',#867,.T.);
#869=ADVANCED_FACE('',(#868),#862,.T.);
#870=CARTESIAN_POINT('',(42.0625,23.970562748,-0.5125));
#871=DIRECTION('',(0.,-1.,0.));
#872=DIRECTION('',(0.,0.,-1.));
#873=AXIS2_PLACEMENT_3D('',#870,#871,#872);
#874=CYLINDRICAL_SURFACE('',#873,6.);
#875=CARTESIAN_POINT('',(42.0625,2.,-6.5125));
#876=DIRECTION('',(-0.,1.,-0.));
#877=VECTOR('',#876,3.);
#878=LINE('',#875,#877);
#879=EDGE_CURVE('',#161,#808,#878,.T.);
#880=ORIENTED_EDGE('',*,*,#879,.T.);
#881=ORIENTED_EDGE('',*,*,#814,.F.);
#882=ORIENTED_EDGE('',*,*,#545,.T.);
#883=ORIENTED_EDGE('',*,*,#178,.T.);
#884=EDGE_LOOP('',(#880,#881,#882,#883));
#885=FACE_BOUND('',#884,.T.);
#886=ADVANCED_FACE('',(#885),#874,.T.);
#887=CARTESIAN_POINT('',(42.0625,23.970562748,-0.5125));
#888=DIRECTION('',(0.,-1.,0.));
#889=DIRECTION('',(0.,0.,-1.));
#890=AXIS2_PLACEMENT_3D('',#887,#888,#889);
#891=CYLINDRICAL_SURFACE('',#890,6.);
#892=ORIENTED_EDGE('',*,*,#193,.T.);
#893=ORIENTED_EDGE('',*,*,#460,.T.);
#894=ORIENTED_EDGE('',*,*,#756,.F.);
#895=ORIENTED_EDGE('',*,*,#521,.T.);
#896=EDGE_LOOP('',(#892,#893,#894,#895));
#897=FACE_BOUND('',#896,.T.);
#898=ADVANCED_FACE('',(#897),#891,.T.);
#899=CARTESIAN_POINT('',(141.2125,0.,-0.5125));
#900=DIRECTION('',(0.,-1.,0.));
#901=DIRECTION('',(0.,0.,-1.));
#902=AXIS2_PLACEMENT_3D('',#899,#900,#901);
#903=CYLINDRICAL_SURFACE('',#902,2.25);
#904=CARTESIAN_POINT('',(141.2125,2.,-2.7625));
#905=DIRECTION('',(-0.,1.,-0.));
#906=VECTOR('',#905,3.);
#907=LINE('',#904,#906);
#908=EDGE_CURVE('',#292,#725,#907,.T.);
#909=ORIENTED_EDGE('',*,*,#908,.F.);
#910=ORIENTED_EDGE('',*,*,#300,.T.);
#911=ORIENTED_EDGE('',*,*,#307,.T.);
#912=ORIENTED_EDGE('',*,*,#908,.T.);
#913=ORIENTED_EDGE('',*,*,#731,.F.);
#914=ORIENTED_EDGE('',*,*,#738,.F.);
#915=EDGE_LOOP('',(#909,#910,#911,#912,#913,#914));
#916=FACE_BOUND('',#915,.T.);
#917=ADVANCED_FACE('',(#916),#903,.F.);
#918=CARTESIAN_POINT('',(42.0625,0.,-0.5125));
#919=DIRECTION('',(0.,-1.,0.));
#920=DIRECTION('',(0.,0.,-1.));
#921=AXIS2_PLACEMENT_3D('',#918,#919,#920);
#922=CYLINDRICAL_SURFACE('',#921,2.25);
#923=CARTESIAN_POINT('',(42.0625,2.,-2.7625));
#924=DIRECTION('',(-0.,1.,-0.));
#925=VECTOR('',#924,3.);
#926=LINE('',#923,#925);
#927=EDGE_CURVE('',#141,#705,#926,.T.);
#928=ORIENTED_EDGE('',*,*,#927,.F.);
#929=ORIENTED_EDGE('',*,*,#149,.T.);
#930=ORIENTED_EDGE('',*,*,#156,.T.);
#931=ORIENTED_EDGE('',*,*,#927,.T.);
#932=ORIENTED_EDGE('',*,*,#711,.F.);
#933=ORIENTED_EDGE('',*,*,#718,.F.);
#934=EDGE_LOOP('',(#928,#929,#930,#931,#932,#933));
#935=FACE_BOUND('',#934,.T.);
#936=ADVANCED_FACE('',(#935),#922,.F.);
#937=CARTESIAN_POINT('',(4.7625,7.,-8.7625));
#938=DIRECTION('',(-1.,0.,0.));
#939=DIRECTION('',(0.,0.,1.));
#940=AXIS2_PLACEMENT_3D('',#937,#938,#939);
#941=PLANE('',#940);
#942=ORIENTED_EDGE('',*,*,#416,.T.);
#943=CARTESIAN_POINT('',(4.7625,-3.,-8.7625));
#944=VERTEX_POINT('',#943);
#945=CARTESIAN_POINT('',(4.7625,-3.,-8.7625));
#946=DIRECTION('',(0.,0.,1.));
#947=VECTOR('',#946,4.);
#948=LINE('',#945,#947);
#949=EDGE_CURVE('',#944,#411,#948,.T.);
#950=ORIENTED_EDGE('',*,*,#949,.F.);
#951=CARTESIAN_POINT('',(4.7625,5.,-8.7625));
#952=DIRECTION('',(-0.,-1.,0.));
#953=VECTOR('',#952,8.);
#954=LINE('',#951,#953);
#955=EDGE_CURVE('',#825,#944,#954,.T.);
#956=ORIENTED_EDGE('',*,*,#955,.F.);
#957=ORIENTED_EDGE('',*,*,#830,.T.);
#958=EDGE_LOOP('',(#942,#950,#956,#957));
#959=FACE_BOUND('',#958,.T.);
#960=ADVANCED_FACE('',(#959),#941,.F.);
#961=CARTESIAN_POINT('',(-0.,0.,-8.7625));
#962=DIRECTION('',(0.,0.,1.));
#963=DIRECTION('',(1.,0.,-0.));
#964=AXIS2_PLACEMENT_3D('',#961,#962,#963);
#965=PLANE('',#964);
#966=ORIENTED_EDGE('',*,*,#652,.T.);
#967=ORIENTED_EDGE('',*,*,#836,.T.);
#968=ORIENTED_EDGE('',*,*,#955,.T.);
#969=CARTESIAN_POINT('',(4.7625,-3.,-8.7625));
#970=DIRECTION('',(-1.,0.,0.));
#971=VECTOR('',#970,4.7625);
#972=LINE('',#969,#971);
#973=EDGE_CURVE('',#944,#623,#972,.T.);
#974=ORIENTED_EDGE('',*,*,#973,.T.);
#975=EDGE_LOOP('',(#966,#967,#968,#974));
#976=FACE_BOUND('',#975,.T.);
#977=ADVANCED_FACE('',(#976),#965,.F.);
#978=CARTESIAN_POINT('',(178.5125,7.,-8.7625));
#979=DIRECTION('',(1.,0.,-0.));
#980=DIRECTION('',(-0.,0.,-1.));
#981=AXIS2_PLACEMENT_3D('',#978,#979,#980);
#982=PLANE('',#981);
#983=ORIENTED_EDGE('',*,*,#392,.T.);
#984=ORIENTED_EDGE('',*,*,#787,.F.);
#985=CARTESIAN_POINT('',(178.5125,-3.,-8.7625));
#986=VERTEX_POINT('',#985);
#987=CARTESIAN_POINT('',(178.5125,-3.,-8.7625));
#988=DIRECTION('',(0.,1.,0.));
#989=VECTOR('',#988,8.);
#990=LINE('',#987,#989);
#991=EDGE_CURVE('',#986,#776,#990,.T.);
#992=ORIENTED_EDGE('',*,*,#991,.F.);
#993=CARTESIAN_POINT('',(178.5125,-3.,-8.7625));
#994=DIRECTION('',(0.,0.,1.));
#995=VECTOR('',#994,4.);
#996=LINE('',#993,#995);
#997=EDGE_CURVE('',#986,#387,#996,.T.);
#998=ORIENTED_EDGE('',*,*,#997,.T.);
#999=EDGE_LOOP('',(#983,#984,#992,#998));
#1000=FACE_BOUND('',#999,.T.);
#1001=ADVANCED_FACE('',(#1000),#982,.F.);
#1002=CARTESIAN_POINT('',(-0.,0.,-8.7625));
#1003=DIRECTION('',(-0.,0.,-1.));
#1004=DIRECTION('',(-1.,0.,0.));
#1005=AXIS2_PLACEMENT_3D('',#1002,#1003,#1004);
#1006=PLANE('',#1005);
#1007=ORIENTED_EDGE('',*,*,#692,.T.);
#1008=CARTESIAN_POINT('',(183.275,-3.,-8.7625));
#1009=DIRECTION('',(-1.,0.,0.));
#1010=VECTOR('',#1009,4.7625);
#1011=LINE('',#1008,#1010);
#1012=EDGE_CURVE('',#681,#986,#1011,.T.);
#1013=ORIENTED_EDGE('',*,*,#1012,.T.);
#1014=ORIENTED_EDGE('',*,*,#991,.T.);
#1015=ORIENTED_EDGE('',*,*,#781,.T.);
#1016=EDGE_LOOP('',(#1007,#1013,#1014,#1015));
#1017=FACE_BOUND('',#1016,.T.);
#1018=ADVANCED_FACE('',(#1017),#1006,.T.);
#1019=CARTESIAN_POINT('',(0.,-3.,0.));
#1020=DIRECTION('',(0.,-1.,0.));
#1021=DIRECTION('',(0.,0.,-1.));
#1022=AXIS2_PLACEMENT_3D('',#1019,#1020,#1021);
#1023=PLANE('',#1022);
#1024=ORIENTED_EDGE('',*,*,#573,.F.);
#1025=CARTESIAN_POINT('',(141.2125,-3.,-0.5125));
#1026=DIRECTION('',(0.,-1.,0.));
#1027=DIRECTION('',(0.,0.,-1.));
#1028=AXIS2_PLACEMENT_3D('',#1025,#1026,#1027);
#1029=CIRCLE('',#1028,6.);
#1030=EDGE_CURVE('',#214,#562,#1029,.T.);
#1031=ORIENTED_EDGE('',*,*,#1030,.F.);
#1032=ORIENTED_EDGE('',*,*,#219,.F.);
#1033=ORIENTED_EDGE('',*,*,#467,.F.);
#1034=ORIENTED_EDGE('',*,*,#76,.T.);
#1035=CARTESIAN_POINT('',(42.0625,-3.,-0.5125));
#1036=DIRECTION('',(0.,-1.,0.));
#1037=DIRECTION('',(0.,0.,-1.));
#1038=AXIS2_PLACEMENT_3D('',#1035,#1036,#1037);
#1039=CIRCLE('',#1038,6.);
#1040=EDGE_CURVE('',#532,#61,#1039,.T.);
#1041=ORIENTED_EDGE('',*,*,#1040,.F.);
#1042=EDGE_LOOP('',(#1024,#1031,#1032,#1033,#1034,#1041));
#1043=FACE_BOUND('',#1042,.T.);
#1044=ADVANCED_FACE('',(#1043),#1023,.T.);
#1045=CARTESIAN_POINT('',(0.,-3.,0.));
#1046=DIRECTION('',(0.,-1.,0.));
#1047=DIRECTION('',(0.,0.,-1.));
#1048=AXIS2_PLACEMENT_3D('',#1045,#1046,#1047);
#1049=PLANE('',#1048);
#1050=ORIENTED_EDGE('',*,*,#686,.F.);
#1051=CARTESIAN_POINT('',(180.275,-3.,-3.));
#1052=DIRECTION('',(0.,-1.,0.));
#1053=DIRECTION('',(0.,0.,-1.));
#1054=AXIS2_PLACEMENT_3D('',#1051,#1052,#1053);
#1055=CIRCLE('',#1054,3.);
#1056=EDGE_CURVE('',#673,#584,#1055,.T.);
#1057=ORIENTED_EDGE('',*,*,#1056,.T.);
#1058=ORIENTED_EDGE('',*,*,#589,.F.);
#1059=ORIENTED_EDGE('',*,*,#267,.T.);
#1060=CARTESIAN_POINT('',(141.2125,-3.,-0.5125));
#1061=DIRECTION('',(0.,-1.,0.));
#1062=DIRECTION('',(0.,0.,-1.));
#1063=AXIS2_PLACEMENT_3D('',#1060,#1061,#1062);
#1064=CIRCLE('',#1063,6.);
#1065=EDGE_CURVE('',#363,#252,#1064,.T.);
#1066=ORIENTED_EDGE('',*,*,#1065,.F.);
#1067=ORIENTED_EDGE('',*,*,#398,.F.);
#1068=ORIENTED_EDGE('',*,*,#997,.F.);
#1069=ORIENTED_EDGE('',*,*,#1012,.F.);
#1070=EDGE_LOOP('',(#1050,#1057,#1058,#1059,#1066,#1067,#1068,#1069));
#1071=FACE_BOUND('',#1070,.T.);
#1072=ADVANCED_FACE('',(#1071),#1049,.T.);
#1073=CARTESIAN_POINT('',(0.,-3.,0.));
#1074=DIRECTION('',(0.,-1.,0.));
#1075=DIRECTION('',(0.,0.,-1.));
#1076=AXIS2_PLACEMENT_3D('',#1073,#1074,#1075);
#1077=PLANE('',#1076);
#1078=ORIENTED_EDGE('',*,*,#514,.F.);
#1079=CARTESIAN_POINT('',(3.,-3.,-3.));
#1080=DIRECTION('',(0.,-1.,0.));
#1081=DIRECTION('',(0.,0.,-1.));
#1082=AXIS2_PLACEMENT_3D('',#1079,#1080,#1081);
#1083=CIRCLE('',#1082,3.);
#1084=EDGE_CURVE('',#503,#625,#1083,.T.);
#1085=ORIENTED_EDGE('',*,*,#1084,.T.);
#1086=ORIENTED_EDGE('',*,*,#630,.F.);
#1087=ORIENTED_EDGE('',*,*,#973,.F.);
#1088=ORIENTED_EDGE('',*,*,#949,.T.);
#1089=ORIENTED_EDGE('',*,*,#444,.F.);
#1090=CARTESIAN_POINT('',(42.0625,-3.,-0.5125));
#1091=DIRECTION('',(0.,-1.,0.));
#1092=DIRECTION('',(0.,0.,-1.));
#1093=AXIS2_PLACEMENT_3D('',#1090,#1091,#1092);
#1094=CIRCLE('',#1093,6.);
#1095=EDGE_CURVE('',#103,#433,#1094,.T.);
#1096=ORIENTED_EDGE('',*,*,#1095,.F.);
#1097=ORIENTED_EDGE('',*,*,#108,.F.);
#1098=EDGE_LOOP('',(#1078,#1085,#1086,#1087,#1088,#1089,#1096,#1097));
#1099=FACE_BOUND('',#1098,.T.);
#1100=ADVANCED_FACE('',(#1099),#1077,.T.);
#1101=CARTESIAN_POINT('',(141.2125,-3.,-0.5125));
#1102=DIRECTION('',(0.,1.,0.));
#1103=DIRECTION('',(0.,-0.,1.));
#1104=AXIS2_PLACEMENT_3D('',#1101,#1102,#1103);
#1105=CYLINDRICAL_SURFACE('',#1104,6.);
#1106=ORIENTED_EDGE('',*,*,#344,.F.);
#1107=ORIENTED_EDGE('',*,*,#368,.F.);
#1108=ORIENTED_EDGE('',*,*,#1065,.T.);
#1109=ORIENTED_EDGE('',*,*,#259,.T.);
#1110=EDGE_LOOP('',(#1106,#1107,#1108,#1109));
#1111=FACE_BOUND('',#1110,.T.);
#1112=ADVANCED_FACE('',(#1111),#1105,.F.);
#1113=CARTESIAN_POINT('',(141.2125,-3.,-0.5125));
#1114=DIRECTION('',(0.,1.,0.));
#1115=DIRECTION('',(0.,-0.,1.));
#1116=AXIS2_PLACEMENT_3D('',#1113,#1114,#1115);
#1117=CYLINDRICAL_SURFACE('',#1116,6.);
#1118=ORIENTED_EDGE('',*,*,#319,.F.);
#1119=ORIENTED_EDGE('',*,*,#227,.F.);
#1120=ORIENTED_EDGE('',*,*,#1030,.T.);
#1121=ORIENTED_EDGE('',*,*,#567,.T.);
#1122=EDGE_LOOP('',(#1118,#1119,#1120,#1121));
#1123=FACE_BOUND('',#1122,.T.);
#1124=ADVANCED_FACE('',(#1123),#1117,.F.);
#1125=CARTESIAN_POINT('',(42.0625,-3.,-0.5125));
#1126=DIRECTION('',(0.,1.,0.));
#1127=DIRECTION('',(0.,-0.,1.));
#1128=AXIS2_PLACEMENT_3D('',#1125,#1126,#1127);
#1129=CYLINDRICAL_SURFACE('',#1128,6.);
#1130=ORIENTED_EDGE('',*,*,#201,.F.);
#1131=ORIENTED_EDGE('',*,*,#116,.F.);
#1132=ORIENTED_EDGE('',*,*,#1095,.T.);
#1133=ORIENTED_EDGE('',*,*,#438,.T.);
#1134=EDGE_LOOP('',(#1130,#1131,#1132,#1133));
#1135=FACE_BOUND('',#1134,.T.);
#1136=ADVANCED_FACE('',(#1135),#1129,.F.);
#1137=CARTESIAN_POINT('',(42.0625,-3.,-0.5125));
#1138=DIRECTION('',(0.,1.,0.));
#1139=DIRECTION('',(0.,-0.,1.));
#1140=AXIS2_PLACEMENT_3D('',#1137,#1138,#1139);
#1141=CYLINDRICAL_SURFACE('',#1140,6.);
#1142=ORIENTED_EDGE('',*,*,#185,.F.);
#1143=ORIENTED_EDGE('',*,*,#537,.F.);
#1144=ORIENTED_EDGE('',*,*,#1040,.T.);
#1145=ORIENTED_EDGE('',*,*,#68,.T.);
#1146=EDGE_LOOP('',(#1142,#1143,#1144,#1145));
#1147=FACE_BOUND('',#1146,.T.);
#1148=ADVANCED_FACE('',(#1147),#1141,.F.);
#1149=CARTESIAN_POINT('',(180.275,7.,-3.));
#1150=DIRECTION('',(0.,-1.,0.));
#1151=DIRECTION('',(0.,0.,-1.));
#1152=AXIS2_PLACEMENT_3D('',#1149,#1150,#1151);
#1153=CYLINDRICAL_SURFACE('',#1152,3.);
#1154=ORIENTED_EDGE('',*,*,#772,.F.);
#1155=ORIENTED_EDGE('',*,*,#597,.F.);
#1156=ORIENTED_EDGE('',*,*,#1056,.F.);
#1157=ORIENTED_EDGE('',*,*,#678,.F.);
#1158=EDGE_LOOP('',(#1154,#1155,#1156,#1157));
#1159=FACE_BOUND('',#1158,.T.);
#1160=ADVANCED_FACE('',(#1159),#1153,.T.);
#1161=CARTESIAN_POINT('',(3.,7.,-3.));
#1162=DIRECTION('',(0.,-1.,0.));
#1163=DIRECTION('',(0.,0.,-1.));
#1164=AXIS2_PLACEMENT_3D('',#1161,#1162,#1163);
#1165=CYLINDRICAL_SURFACE('',#1164,3.);
#1166=ORIENTED_EDGE('',*,*,#748,.F.);
#1167=ORIENTED_EDGE('',*,*,#638,.F.);
#1168=ORIENTED_EDGE('',*,*,#1084,.F.);
#1169=ORIENTED_EDGE('',*,*,#508,.F.);
#1170=EDGE_LOOP('',(#1166,#1167,#1168,#1169));
#1171=FACE_BOUND('',#1170,.T.);
#1172=ADVANCED_FACE('',(#1171),#1165,.T.);
#1173=CARTESIAN_POINT('',(141.2125,23.970562748,-0.5125));
#1174=DIRECTION('',(0.,-1.,0.));
#1175=DIRECTION('',(0.,0.,-1.));
#1176=AXIS2_PLACEMENT_3D('',#1173,#1174,#1175);
#1177=CYLINDRICAL_SURFACE('',#1176,6.);
#1178=ORIENTED_EDGE('',*,*,#850,.F.);
#1179=ORIENTED_EDGE('',*,*,#328,.T.);
#1180=ORIENTED_EDGE('',*,*,#559,.T.);
#1181=ORIENTED_EDGE('',*,*,#804,.F.);
#1182=EDGE_LOOP('',(#1178,#1179,#1180,#1181));
#1183=FACE_BOUND('',#1182,.T.);
#1184=ADVANCED_FACE('',(#1183),#1177,.T.);
#1185=CARTESIAN_POINT('',(42.0625,23.970562748,-0.5125));
#1186=DIRECTION('',(0.,-1.,0.));
#1187=DIRECTION('',(0.,0.,-1.));
#1188=AXIS2_PLACEMENT_3D('',#1185,#1186,#1187);
#1189=CYLINDRICAL_SURFACE('',#1188,6.);
#1190=ORIENTED_EDGE('',*,*,#879,.F.);
#1191=ORIENTED_EDGE('',*,*,#169,.T.);
#1192=ORIENTED_EDGE('',*,*,#430,.T.);
#1193=ORIENTED_EDGE('',*,*,#821,.F.);
#1194=EDGE_LOOP('',(#1190,#1191,#1192,#1193));
#1195=FACE_BOUND('',#1194,.T.);
#1196=ADVANCED_FACE('',(#1195),#1189,.T.);
#1197=CLOSED_SHELL('',(#94,#134,#205,#245,#285,#356,#402,#448,#486,#525,#577,#616,#656,#696,#840,#857,#869,#886,#898,#917,#936,#960,#977,#1001,#1018,#1044,
#1072,#1100,#1112,#1124,#1136,#1148,#1160,#1172,#1184,#1196));
#1198=MANIFOLD_SOLID_BREP('Imported 01',#1197);
#1199=COLOUR_RGB('',0.792156875,0.819607854,0.933333337);
#1200=FILL_AREA_STYLE_COLOUR('',#1199);
#1201=FILL_AREA_STYLE('',(#1200));
#1202=SURFACE_STYLE_FILL_AREA(#1201);
#1203=SURFACE_SIDE_STYLE('',(#1202));
#1204=SURFACE_STYLE_USAGE(.BOTH.,#1203);
#1205=PRESENTATION_STYLE_ASSIGNMENT((#1204));
#54=STYLED_ITEM('',(#1205),#1198);
#35=SHAPE_REPRESENTATION('[WOJ-CUENC-015-RevAB] Cable Clamp Mid.SLDPRT',(#15),#33);
#36=ADVANCED_BREP_SHAPE_REPRESENTATION('[WOJ-CUENC-015-RevAB] Cable Clamp Mid.SLDPRT',(#1198),#33);
#1213=SHAPE_REPRESENTATION_RELATIONSHIP('','',#35,#36);
#1214=CARTESIAN_POINT('',(0.,0.,0.));
#1215=DIRECTION('',(0.,0.,1.));
#1216=DIRECTION('',(1.,0.,0.));
#1217=AXIS2_PLACEMENT_3D('',#1214,#1215,#1216);
#1219=MAPPED_ITEM('',#1218,#1217);
#1218=REPRESENTATION_MAP(#1217,#35);
#1220=APPLICATION_CONTEXT('Managed model based 3d engineering');
#1221=APPLICATION_PROTOCOL_DEFINITION('international standard','ap242_managed_model_based_3d_engineering',2014,#1220);
#1222=PRODUCT_CONTEXT('',#1220,'mechanical');
#1223=PRODUCT_DEFINITION_CONTEXT('part definition',#1220,'design');
#43=PRODUCT('[WOJ-CUENC-015-RevAB] Cable Clamp Mid.SLDPRT','[WOJ-CUENC-015-RevAB] Cable Clamp Mid.SLDPRT','',(#1222));
#1224=PRODUCT_RELATED_PRODUCT_CATEGORY('part','',(#43));
#1225=PRODUCT_DEFINITION_FORMATION_WITH_SPECIFIED_SOURCE('','',#43,.NOT_KNOWN.);
#44=PRODUCT_DEFINITION('design','',#1225,#1223);
#42=PRODUCT_DEFINITION_SHAPE('','',#44);
#1226=SHAPE_DEFINITION_REPRESENTATION(#42,#35);
#34=DRAUGHTING_MODEL('',(#1219),#33);
#16=SHAPE_REPRESENTATION('root',(#15,#48),#10);
#1227=CARTESIAN_POINT('',(0.,0.,0.));
#1228=DIRECTION('',(0.,0.,1.));
#1229=DIRECTION('',(1.,0.,0.));
#1230=AXIS2_PLACEMENT_3D('',#1227,#1228,#1229);
#1232=MAPPED_ITEM('',#1231,#1230);
#1231=REPRESENTATION_MAP(#1230,#16);
#24=PRODUCT('root','root','',(#1222));
#1233=PRODUCT_RELATED_PRODUCT_CATEGORY('part','',(#24));
#1234=PRODUCT_DEFINITION_FORMATION_WITH_SPECIFIED_SOURCE('','',#24,.NOT_KNOWN.);
#25=PRODUCT_DEFINITION('design','',#1234,#1223);
#23=PRODUCT_DEFINITION_SHAPE('','',#25);
#1235=SHAPE_DEFINITION_REPRESENTATION(#23,#16);
#11=DRAUGHTING_MODEL('',(#1232),#10);
#1236=DESCRIPTIVE_REPRESENTATION_ITEM('KEY','C:\\Users\\bilal\\AppData\\Local\\Packages\\Shapr3D.Shapr3D_j403pzjkqtqbj\\TempState\\a529415a-7acd-4c42-aa6b-611fdbfb2be7.tmp');
#1237=PROPERTY_DEFINITION('KEY','',#25);
#1238=REPRESENTATION('',(#1236),#10);
#1239=PROPERTY_DEFINITION_REPRESENTATION(#1237,#1238);
#1240=GENERAL_PROPERTY('','KEY','');
#1241=GENERAL_PROPERTY_ASSOCIATION('','',#1240,#1237);
#1=MECHANICAL_DESIGN_GEOMETRIC_PRESENTATION_REPRESENTATION('',(#54),#10);
ENDSEC;
END-ISO-10303-21;
