ISO-10303-21;
HEADER;

/* File generated by Shapr3D Version 5.791.8191.0 */

FILE_DESCRIPTION(('HOOPS Exchange Step'),'2;1');

FILE_NAME('C:\\Users\\bilal\\AppData\\Local\\Packages\\Shapr3D.Shapr3D_j403pzjkqtqbj\\TempState\\export\\temp_export',
'2025-02-19T18:25:16+01:00',
('bilal'),
('Shapr3D Limited'),
'HOOPS Exchange 2024.8',
'Shapr3D',
'Authorized');

FILE_SCHEMA( ('AP242_MANAGED_MODEL_BASED_3D_ENGINEERING_MIM_LF {1 0 10303 442 1 1 4}') );

ENDSEC;

DATA;
#3=(NAMED_UNIT(*)PLANE_ANGLE_UNIT()SI_UNIT($,.RADIAN.));
#4=PLANE_ANGLE_MEASURE_WITH_UNIT(PLANE_ANGLE_MEASURE(0.0174532925),#3);
#5=(CONVERSION_BASED_UNIT('DEGREE',#4)NAMED_UNIT(#6)PLANE_ANGLE_UNIT());
#6=DIMENSIONAL_EXPONENTS(0.,0.,0.,0.,0.,0.,0.);
#7=(NAMED_UNIT(*)SI_UNIT($,.STERADIAN.)SOLID_ANGLE_UNIT());
#8=(LENGTH_UNIT()NAMED_UNIT(*)SI_UNIT(.MILLI.,.METRE.));
#9=UNCERTAINTY_MEASURE_WITH_UNIT(LENGTH_MEASURE(1.000000E-03),#8,'DISTANCE_ACCURACY_VALUE','Maximum Tolerance applied to model');
#10=(GEOMETRIC_REPRESENTATION_CONTEXT(3)GLOBAL_UNCERTAINTY_ASSIGNED_CONTEXT((#9))GLOBAL_UNIT_ASSIGNED_CONTEXT((#8,#5,#7))REPRESENTATION_CONTEXT('','root'));
#12=CARTESIAN_POINT('',(0.,0.,0.));
#13=DIRECTION('',(0.,0.,1.));
#14=DIRECTION('',(1.,0.,0.));
#15=AXIS2_PLACEMENT_3D('',#12,#13,#14);
#26=(NAMED_UNIT(*)PLANE_ANGLE_UNIT()SI_UNIT($,.RADIAN.));
#27=PLANE_ANGLE_MEASURE_WITH_UNIT(PLANE_ANGLE_MEASURE(0.0174532925),#26);
#28=(CONVERSION_BASED_UNIT('DEGREE',#27)NAMED_UNIT(#29)PLANE_ANGLE_UNIT());
#29=DIMENSIONAL_EXPONENTS(0.,0.,0.,0.,0.,0.,0.);
#30=(NAMED_UNIT(*)SI_UNIT($,.STERADIAN.)SOLID_ANGLE_UNIT());
#31=(LENGTH_UNIT()NAMED_UNIT(*)SI_UNIT(.MILLI.,.METRE.));
#32=UNCERTAINTY_MEASURE_WITH_UNIT(LENGTH_MEASURE(1.000000E-05),#31,'DISTANCE_ACCURACY_VALUE','Maximum Tolerance applied to model');
#33=(GEOMETRIC_REPRESENTATION_CONTEXT(3)GLOBAL_UNCERTAINTY_ASSIGNED_CONTEXT((#32))GLOBAL_UNIT_ASSIGNED_CONTEXT((#31,#28,#30))REPRESENTATION_CONTEXT('','CB_Top.step'));
#45=CARTESIAN_POINT('',(0.,0.,0.));
#46=DIRECTION('',(0.,0.,1.));
#47=DIRECTION('',(1.,0.,-0.));
#48=AXIS2_PLACEMENT_3D('',#45,#46,#47);
#49=ITEM_DEFINED_TRANSFORMATION('','',#48,#15);
#50=(REPRESENTATION_RELATIONSHIP('','',#35,#16)REPRESENTATION_RELATIONSHIP_WITH_TRANSFORMATION(#49)SHAPE_REPRESENTATION_RELATIONSHIP());
#51=NEXT_ASSEMBLY_USAGE_OCCURRENCE('CB_Top.step_1','CB_Top.step','CB_Top.step',#25,#44,$);
#52=PRODUCT_DEFINITION_SHAPE('','',#51);
#53=CONTEXT_DEPENDENT_SHAPE_REPRESENTATION(#50,#52);
#55=CARTESIAN_POINT('',(0.,90.544,-3.));
#56=DIRECTION('',(-0.,0.,1.));
#57=DIRECTION('',(-1.,-0.,-0.));
#58=AXIS2_PLACEMENT_3D('',#55,#56,#57);
#59=PLANE('',#58);
#60=CARTESIAN_POINT('',(134.5,95.543988057,-3.));
#61=VERTEX_POINT('',#60);
#62=CARTESIAN_POINT('',(91.36,95.543988056,-3.));
#63=VERTEX_POINT('',#62);
#64=CARTESIAN_POINT('',(134.5,95.543976113,-3.));
#65=DIRECTION('',(-1.,-0.,-0.));
#66=VECTOR('',#65,43.14);
#67=LINE('',#64,#66);
#68=EDGE_CURVE('',#61,#63,#67,.T.);
#69=ORIENTED_EDGE('',*,*,#68,.T.);
#70=CARTESIAN_POINT('',(91.36,92.543976113,-3.));
#71=VERTEX_POINT('',#70);
#72=CARTESIAN_POINT('',(91.36,95.543976113,-3.));
#73=DIRECTION('',(0.,-1.,0.));
#74=VECTOR('',#73,3.);
#75=LINE('',#72,#74);
#76=EDGE_CURVE('',#63,#71,#75,.T.);
#77=ORIENTED_EDGE('',*,*,#76,.T.);
#78=CARTESIAN_POINT('',(58.5,92.543976113,-3.));
#79=VERTEX_POINT('',#78);
#80=CARTESIAN_POINT('',(58.5,92.543976113,-3.));
#81=DIRECTION('',(1.,0.,0.));
#82=VECTOR('',#81,32.86);
#83=LINE('',#80,#82);
#84=EDGE_CURVE('',#79,#71,#83,.T.);
#85=ORIENTED_EDGE('',*,*,#84,.F.);
#86=CARTESIAN_POINT('',(58.5,95.543988056,-3.));
#87=VERTEX_POINT('',#86);
#88=CARTESIAN_POINT('',(58.5,92.543976113,-3.));
#89=DIRECTION('',(-0.,1.,0.));
#90=VECTOR('',#89,3.000011943);
#91=LINE('',#88,#90);
#92=EDGE_CURVE('',#79,#87,#91,.T.);
#93=ORIENTED_EDGE('',*,*,#92,.T.);
#94=CARTESIAN_POINT('',(6.2225,95.543988056,-3.));
#95=VERTEX_POINT('',#94);
#96=CARTESIAN_POINT('',(58.5,95.543976113,-3.));
#97=DIRECTION('',(-1.,-0.,-0.));
#98=VECTOR('',#97,52.2775);
#99=LINE('',#96,#98);
#100=EDGE_CURVE('',#87,#95,#99,.T.);
#101=ORIENTED_EDGE('',*,*,#100,.T.);
#102=CARTESIAN_POINT('',(6.2225,92.464676113,-3.));
#103=VERTEX_POINT('',#102);
#104=CARTESIAN_POINT('',(6.2225,95.543988056,-3.));
#105=DIRECTION('',(0.,-1.,-0.));
#106=VECTOR('',#105,3.079311944);
#107=LINE('',#104,#106);
#108=EDGE_CURVE('',#95,#103,#107,.T.);
#109=ORIENTED_EDGE('',*,*,#108,.T.);
#110=CARTESIAN_POINT('',(4.7225,92.464676113,-3.));
#111=VERTEX_POINT('',#110);
#112=CARTESIAN_POINT('',(6.2225,92.464676113,-3.));
#113=DIRECTION('',(-1.,-0.,-0.));
#114=VECTOR('',#113,1.5);
#115=LINE('',#112,#114);
#116=EDGE_CURVE('',#103,#111,#115,.T.);
#117=ORIENTED_EDGE('',*,*,#116,.T.);
#118=CARTESIAN_POINT('',(-2.2775,92.464676113,-3.));
#119=VERTEX_POINT('',#118);
#120=CARTESIAN_POINT('',(4.7225,92.464676113,-3.));
#121=DIRECTION('',(-1.,-0.,-0.));
#122=VECTOR('',#121,7.);
#123=LINE('',#120,#122);
#124=EDGE_CURVE('',#111,#119,#123,.T.);
#125=ORIENTED_EDGE('',*,*,#124,.T.);
#126=CARTESIAN_POINT('',(-2.2775,-28.7425,-3.));
#127=VERTEX_POINT('',#126);
#128=CARTESIAN_POINT('',(-2.2775,-28.7425,-3.));
#129=DIRECTION('',(-0.,1.,-0.));
#130=VECTOR('',#129,121.207176113);
#131=LINE('',#128,#130);
#132=EDGE_CURVE('',#127,#119,#131,.T.);
#133=ORIENTED_EDGE('',*,*,#132,.F.);
#134=CARTESIAN_POINT('',(174.9975,-28.7425,-3.));
#135=VERTEX_POINT('',#134);
#136=CARTESIAN_POINT('',(-2.2775,-28.7425,-3.));
#137=DIRECTION('',(1.,0.,0.));
#138=VECTOR('',#137,177.275);
#139=LINE('',#136,#138);
#140=EDGE_CURVE('',#127,#135,#139,.T.);
#141=ORIENTED_EDGE('',*,*,#140,.T.);
#142=CARTESIAN_POINT('',(174.9975,92.543976113,-3.));
#143=VERTEX_POINT('',#142);
#144=CARTESIAN_POINT('',(174.9975,-28.7425,-3.));
#145=DIRECTION('',(-0.,1.,-0.));
#146=VECTOR('',#145,121.286476113);
#147=LINE('',#144,#146);
#148=EDGE_CURVE('',#135,#143,#147,.T.);
#149=ORIENTED_EDGE('',*,*,#148,.T.);
#150=CARTESIAN_POINT('',(163.,92.543976113,-3.));
#151=VERTEX_POINT('',#150);
#152=CARTESIAN_POINT('',(163.,92.543976113,-3.));
#153=DIRECTION('',(1.,0.,0.));
#154=VECTOR('',#153,11.9975);
#155=LINE('',#152,#154);
#156=EDGE_CURVE('',#151,#143,#155,.T.);
#157=ORIENTED_EDGE('',*,*,#156,.F.);
#158=CARTESIAN_POINT('',(163.,95.543988057,-3.));
#159=VERTEX_POINT('',#158);
#160=CARTESIAN_POINT('',(163.,92.543976113,-3.));
#161=DIRECTION('',(-0.,1.,-0.));
#162=VECTOR('',#161,3.000011944);
#163=LINE('',#160,#162);
#164=EDGE_CURVE('',#151,#159,#163,.T.);
#165=ORIENTED_EDGE('',*,*,#164,.T.);
#166=CARTESIAN_POINT('',(152.,95.543976113,-3.));
#167=VERTEX_POINT('',#166);
#168=CARTESIAN_POINT('',(163.,95.543976113,-3.));
#169=DIRECTION('',(-1.,-0.,-0.));
#170=VECTOR('',#169,11.);
#171=LINE('',#168,#170);
#172=EDGE_CURVE('',#159,#167,#171,.T.);
#173=ORIENTED_EDGE('',*,*,#172,.T.);
#174=CARTESIAN_POINT('',(152.,92.543976113,-3.));
#175=VERTEX_POINT('',#174);
#176=CARTESIAN_POINT('',(152.,92.543976113,-3.));
#177=DIRECTION('',(-0.,1.,-0.));
#178=VECTOR('',#177,3.);
#179=LINE('',#176,#178);
#180=EDGE_CURVE('',#175,#167,#179,.T.);
#181=ORIENTED_EDGE('',*,*,#180,.F.);
#182=CARTESIAN_POINT('',(134.5,92.543976113,-3.));
#183=VERTEX_POINT('',#182);
#184=CARTESIAN_POINT('',(152.,92.543976113,-3.));
#185=DIRECTION('',(-1.,-0.,-0.));
#186=VECTOR('',#185,17.5);
#187=LINE('',#184,#186);
#188=EDGE_CURVE('',#175,#183,#187,.T.);
#189=ORIENTED_EDGE('',*,*,#188,.T.);
#190=CARTESIAN_POINT('',(134.5,92.543976113,-3.));
#191=DIRECTION('',(-0.,1.,-0.));
#192=VECTOR('',#191,3.);
#193=LINE('',#190,#192);
#194=EDGE_CURVE('',#183,#61,#193,.T.);
#195=ORIENTED_EDGE('',*,*,#194,.T.);
#196=EDGE_LOOP('',(#69,#77,#85,#93,#101,#109,#117,#125,#133,#141,#149,#157,#165,#173,#181,#189,#195));
#197=FACE_BOUND('',#196,.T.);
#198=CARTESIAN_POINT('',(4.648,14.598,-3.));
#199=VERTEX_POINT('',#198);
#200=CARTESIAN_POINT('',(1.448,14.598,-3.));
#201=VERTEX_POINT('',#200);
#202=CARTESIAN_POINT('',(3.048,14.598,-3.));
#203=DIRECTION('',(0.,-0.,-1.));
#204=DIRECTION('',(1.,0.,0.));
#205=AXIS2_PLACEMENT_3D('',#202,#203,#204);
#206=CIRCLE('',#205,1.6);
#207=EDGE_CURVE('',#199,#201,#206,.T.);
#208=ORIENTED_EDGE('',*,*,#207,.T.);
#209=CARTESIAN_POINT('',(3.048,14.598,-3.));
#210=DIRECTION('',(0.,-0.,-1.));
#211=DIRECTION('',(1.,0.,0.));
#212=AXIS2_PLACEMENT_3D('',#209,#210,#211);
#213=CIRCLE('',#212,1.6);
#214=EDGE_CURVE('',#201,#199,#213,.T.);
#215=ORIENTED_EDGE('',*,*,#214,.T.);
#216=EDGE_LOOP('',(#208,#215));
#217=FACE_BOUND('',#216,.T.);
#218=CARTESIAN_POINT('',(4.648,87.496,-3.));
#219=VERTEX_POINT('',#218);
#220=CARTESIAN_POINT('',(1.448,87.496,-3.));
#221=VERTEX_POINT('',#220);
#222=CARTESIAN_POINT('',(3.048,87.496,-3.));
#223=DIRECTION('',(0.,-0.,-1.));
#224=DIRECTION('',(1.,0.,0.));
#225=AXIS2_PLACEMENT_3D('',#222,#223,#224);
#226=CIRCLE('',#225,1.6);
#227=EDGE_CURVE('',#219,#221,#226,.T.);
#228=ORIENTED_EDGE('',*,*,#227,.T.);
#229=CARTESIAN_POINT('',(3.048,87.496,-3.));
#230=DIRECTION('',(0.,-0.,-1.));
#231=DIRECTION('',(1.,0.,0.));
#232=AXIS2_PLACEMENT_3D('',#229,#230,#231);
#233=CIRCLE('',#232,1.6);
#234=EDGE_CURVE('',#221,#219,#233,.T.);
#235=ORIENTED_EDGE('',*,*,#234,.T.);
#236=EDGE_LOOP('',(#228,#235));
#237=FACE_BOUND('',#236,.T.);
#238=CARTESIAN_POINT('',(168.072,87.496,-3.));
#239=VERTEX_POINT('',#238);
#240=CARTESIAN_POINT('',(171.272,87.496,-3.));
#241=VERTEX_POINT('',#240);
#242=CARTESIAN_POINT('',(169.672,87.496,-3.));
#243=DIRECTION('',(-0.,0.,1.));
#244=DIRECTION('',(1.,0.,0.));
#245=AXIS2_PLACEMENT_3D('',#242,#243,#244);
#246=CIRCLE('',#245,1.6);
#247=EDGE_CURVE('',#239,#241,#246,.T.);
#248=ORIENTED_EDGE('',*,*,#247,.F.);
#249=CARTESIAN_POINT('',(169.672,87.496,-3.));
#250=DIRECTION('',(-0.,0.,1.));
#251=DIRECTION('',(1.,0.,0.));
#252=AXIS2_PLACEMENT_3D('',#249,#250,#251);
#253=CIRCLE('',#252,1.6);
#254=EDGE_CURVE('',#241,#239,#253,.T.);
#255=ORIENTED_EDGE('',*,*,#254,.F.);
#256=EDGE_LOOP('',(#248,#255));
#257=FACE_BOUND('',#256,.T.);
#258=CARTESIAN_POINT('',(171.272,14.598,-3.));
#259=VERTEX_POINT('',#258);
#260=CARTESIAN_POINT('',(168.072,14.598,-3.));
#261=VERTEX_POINT('',#260);
#262=CARTESIAN_POINT('',(169.672,14.598,-3.));
#263=DIRECTION('',(0.,-0.,-1.));
#264=DIRECTION('',(1.,0.,0.));
#265=AXIS2_PLACEMENT_3D('',#262,#263,#264);
#266=CIRCLE('',#265,1.6);
#267=EDGE_CURVE('',#259,#261,#266,.T.);
#268=ORIENTED_EDGE('',*,*,#267,.T.);
#269=CARTESIAN_POINT('',(169.672,14.598,-3.));
#270=DIRECTION('',(0.,-0.,-1.));
#271=DIRECTION('',(1.,0.,0.));
#272=AXIS2_PLACEMENT_3D('',#269,#270,#271);
#273=CIRCLE('',#272,1.6);
#274=EDGE_CURVE('',#261,#259,#273,.T.);
#275=ORIENTED_EDGE('',*,*,#274,.T.);
#276=EDGE_LOOP('',(#268,#275));
#277=FACE_BOUND('',#276,.T.);
#278=ADVANCED_FACE('',(#197,#217,#237,#257,#277),#59,.T.);
#279=CARTESIAN_POINT('',(-5.2775,-15.04925,-3.));
#280=DIRECTION('',(1.,0.,0.));
#281=DIRECTION('',(0.,-1.,0.));
#282=AXIS2_PLACEMENT_3D('',#279,#280,#281);
#283=PLANE('',#282);
#284=CARTESIAN_POINT('',(-5.2775,-31.7425,-3.));
#285=VERTEX_POINT('',#284);
#286=CARTESIAN_POINT('',(-5.2775,95.543988056,-3.));
#287=VERTEX_POINT('',#286);
#288=CARTESIAN_POINT('',(-5.2775,-31.7425,-3.));
#289=DIRECTION('',(-0.,1.,0.));
#290=VECTOR('',#289,127.286476113);
#291=LINE('',#288,#290);
#292=EDGE_CURVE('',#285,#287,#291,.T.);
#293=ORIENTED_EDGE('',*,*,#292,.F.);
#294=CARTESIAN_POINT('',(-5.2775,-31.7425,16.5));
#295=VERTEX_POINT('',#294);
#296=CARTESIAN_POINT('',(-5.2775,-31.7425,16.5));
#297=DIRECTION('',(0.,-0.,-1.));
#298=VECTOR('',#297,19.5);
#299=LINE('',#296,#298);
#300=EDGE_CURVE('',#295,#285,#299,.T.);
#301=ORIENTED_EDGE('',*,*,#300,.F.);
#302=CARTESIAN_POINT('',(-5.2775,95.543976113,16.5));
#303=VERTEX_POINT('',#302);
#304=CARTESIAN_POINT('',(-5.2775,95.543976113,16.5));
#305=DIRECTION('',(0.,-1.,0.));
#306=VECTOR('',#305,127.286476113);
#307=LINE('',#304,#306);
#308=EDGE_CURVE('',#303,#295,#307,.T.);
#309=ORIENTED_EDGE('',*,*,#308,.F.);
#310=CARTESIAN_POINT('',(-5.2775,95.543976113,16.5));
#311=DIRECTION('',(0.,0.,-1.));
#312=VECTOR('',#311,19.5);
#313=LINE('',#310,#312);
#314=EDGE_CURVE('',#303,#287,#313,.T.);
#315=ORIENTED_EDGE('',*,*,#314,.T.);
#316=EDGE_LOOP('',(#293,#301,#309,#315));
#317=FACE_BOUND('',#316,.T.);
#318=CARTESIAN_POINT('',(-5.2775,57.868,-1.494287));
#319=VERTEX_POINT('',#318);
#320=CARTESIAN_POINT('',(-5.2775,18.3525,-1.494287));
#321=VERTEX_POINT('',#320);
#322=CARTESIAN_POINT('',(-5.2775,57.868,-1.494287));
#323=DIRECTION('',(0.,-1.,0.));
#324=VECTOR('',#323,39.5155);
#325=LINE('',#322,#324);
#326=EDGE_CURVE('',#319,#321,#325,.T.);
#327=ORIENTED_EDGE('',*,*,#326,.F.);
#328=CARTESIAN_POINT('',(-5.2775,59.368,0.005713));
#329=VERTEX_POINT('',#328);
#330=CARTESIAN_POINT('',(-5.2775,57.868,0.005713));
#331=DIRECTION('',(1.,0.,0.));
#332=DIRECTION('',(0.,0.,-1.));
#333=AXIS2_PLACEMENT_3D('',#330,#331,#332);
#334=CIRCLE('',#333,1.5);
#335=EDGE_CURVE('',#319,#329,#334,.T.);
#336=ORIENTED_EDGE('',*,*,#335,.T.);
#337=CARTESIAN_POINT('',(-5.2775,59.368,3.815713));
#338=VERTEX_POINT('',#337);
#339=CARTESIAN_POINT('',(-5.2775,59.368,0.005713));
#340=DIRECTION('',(-0.,0.,1.));
#341=VECTOR('',#340,3.81);
#342=LINE('',#339,#341);
#343=EDGE_CURVE('',#329,#338,#342,.T.);
#344=ORIENTED_EDGE('',*,*,#343,.T.);
#345=CARTESIAN_POINT('',(-5.2775,57.868,5.315713));
#346=VERTEX_POINT('',#345);
#347=CARTESIAN_POINT('',(-5.2775,57.868,3.815713));
#348=DIRECTION('',(1.,0.,0.));
#349=DIRECTION('',(0.,0.,-1.));
#350=AXIS2_PLACEMENT_3D('',#347,#348,#349);
#351=CIRCLE('',#350,1.5);
#352=EDGE_CURVE('',#338,#346,#351,.T.);
#353=ORIENTED_EDGE('',*,*,#352,.T.);
#354=CARTESIAN_POINT('',(-5.2775,18.3525,5.315713));
#355=VERTEX_POINT('',#354);
#356=CARTESIAN_POINT('',(-5.2775,57.868,5.315713));
#357=DIRECTION('',(0.,-1.,0.));
#358=VECTOR('',#357,39.5155);
#359=LINE('',#356,#358);
#360=EDGE_CURVE('',#346,#355,#359,.T.);
#361=ORIENTED_EDGE('',*,*,#360,.T.);
#362=CARTESIAN_POINT('',(-5.2775,16.8525,3.815713));
#363=VERTEX_POINT('',#362);
#364=CARTESIAN_POINT('',(-5.2775,18.3525,3.815713));
#365=DIRECTION('',(1.,0.,0.));
#366=DIRECTION('',(0.,0.,-1.));
#367=AXIS2_PLACEMENT_3D('',#364,#365,#366);
#368=CIRCLE('',#367,1.5);
#369=EDGE_CURVE('',#355,#363,#368,.T.);
#370=ORIENTED_EDGE('',*,*,#369,.T.);
#371=CARTESIAN_POINT('',(-5.2775,16.8525,0.005713));
#372=VERTEX_POINT('',#371);
#373=CARTESIAN_POINT('',(-5.2775,16.8525,3.815713));
#374=DIRECTION('',(0.,-0.,-1.));
#375=VECTOR('',#374,3.81);
#376=LINE('',#373,#375);
#377=EDGE_CURVE('',#363,#372,#376,.T.);
#378=ORIENTED_EDGE('',*,*,#377,.T.);
#379=CARTESIAN_POINT('',(-5.2775,18.3525,0.005713));
#380=DIRECTION('',(1.,0.,0.));
#381=DIRECTION('',(0.,0.,-1.));
#382=AXIS2_PLACEMENT_3D('',#379,#380,#381);
#383=CIRCLE('',#382,1.5);
#384=EDGE_CURVE('',#372,#321,#383,.T.);
#385=ORIENTED_EDGE('',*,*,#384,.T.);
#386=EDGE_LOOP('',(#327,#336,#344,#353,#361,#370,#378,#385));
#387=FACE_BOUND('',#386,.T.);
#388=CARTESIAN_POINT('',(-5.2775,67.145126864,14.112973136));
#389=VERTEX_POINT('',#388);
#390=CARTESIAN_POINT('',(-5.2775,80.100026864,14.112973136));
#391=VERTEX_POINT('',#390);
#392=CARTESIAN_POINT('',(-5.2775,67.145126864,14.112973136));
#393=DIRECTION('',(0.,1.,0.));
#394=VECTOR('',#393,12.9549);
#395=LINE('',#392,#394);
#396=EDGE_CURVE('',#389,#391,#395,.T.);
#397=ORIENTED_EDGE('',*,*,#396,.F.);
#398=CARTESIAN_POINT('',(-5.2775,65.645126864,12.612973136));
#399=VERTEX_POINT('',#398);
#400=CARTESIAN_POINT('',(-5.2775,67.145126864,12.612973136));
#401=DIRECTION('',(1.,0.,0.));
#402=DIRECTION('',(0.,0.,-1.));
#403=AXIS2_PLACEMENT_3D('',#400,#401,#402);
#404=CIRCLE('',#403,1.5);
#405=EDGE_CURVE('',#389,#399,#404,.T.);
#406=ORIENTED_EDGE('',*,*,#405,.T.);
#407=CARTESIAN_POINT('',(-5.2775,65.645126864,1.606074193));
#408=VERTEX_POINT('',#407);
#409=CARTESIAN_POINT('',(-5.2775,65.645126864,12.612973136));
#410=DIRECTION('',(0.,0.,-1.));
#411=VECTOR('',#410,11.006898943);
#412=LINE('',#409,#411);
#413=EDGE_CURVE('',#399,#408,#412,.T.);
#414=ORIENTED_EDGE('',*,*,#413,.T.);
#415=CARTESIAN_POINT('',(-5.2775,81.600026864,1.606074193));
#416=VERTEX_POINT('',#415);
#417=CARTESIAN_POINT('',(-5.2775,73.622576864,14.640423136));
#418=DIRECTION('',(1.,0.,0.));
#419=DIRECTION('',(-0.,0.,1.));
#420=AXIS2_PLACEMENT_3D('',#417,#418,#419);
#421=CIRCLE('',#420,15.281817983);
#422=EDGE_CURVE('',#408,#416,#421,.T.);
#423=ORIENTED_EDGE('',*,*,#422,.T.);
#424=CARTESIAN_POINT('',(-5.2775,81.600026864,12.612973136));
#425=VERTEX_POINT('',#424);
#426=CARTESIAN_POINT('',(-5.2775,81.600026864,1.606074193));
#427=DIRECTION('',(-0.,-0.,1.));
#428=VECTOR('',#427,11.006898943);
#429=LINE('',#426,#428);
#430=EDGE_CURVE('',#416,#425,#429,.T.);
#431=ORIENTED_EDGE('',*,*,#430,.T.);
#432=CARTESIAN_POINT('',(-5.2775,80.100026864,12.612973136));
#433=DIRECTION('',(1.,0.,0.));
#434=DIRECTION('',(0.,0.,-1.));
#435=AXIS2_PLACEMENT_3D('',#432,#433,#434);
#436=CIRCLE('',#435,1.5);
#437=EDGE_CURVE('',#425,#391,#436,.T.);
#438=ORIENTED_EDGE('',*,*,#437,.T.);
#439=EDGE_LOOP('',(#397,#406,#414,#423,#431,#438));
#440=FACE_BOUND('',#439,.T.);
#441=ADVANCED_FACE('',(#317,#387,#440),#283,.F.);
#442=CARTESIAN_POINT('',(67.,93.000851488,11.7));
#443=DIRECTION('',(1.,-0.,0.));
#444=DIRECTION('',(0.,1.,0.));
#445=AXIS2_PLACEMENT_3D('',#442,#443,#444);
#446=PLANE('',#445);
#447=CARTESIAN_POINT('',(67.,92.464676113,13.));
#448=VERTEX_POINT('',#447);
#449=CARTESIAN_POINT('',(67.,92.543976113,13.));
#450=VERTEX_POINT('',#449);
#451=CARTESIAN_POINT('',(67.,92.464676113,13.));
#452=DIRECTION('',(0.,1.,0.));
#453=VECTOR('',#452,0.0793);
#454=LINE('',#451,#453);
#455=EDGE_CURVE('',#448,#450,#454,.T.);
#456=ORIENTED_EDGE('',*,*,#455,.T.);
#457=CARTESIAN_POINT('',(67.,92.543976113,14.));
#458=VERTEX_POINT('',#457);
#459=CARTESIAN_POINT('',(67.,92.543976113,13.));
#460=DIRECTION('',(-0.,0.,1.));
#461=VECTOR('',#460,1.);
#462=LINE('',#459,#461);
#463=EDGE_CURVE('',#450,#458,#462,.T.);
#464=ORIENTED_EDGE('',*,*,#463,.T.);
#465=CARTESIAN_POINT('',(67.,92.464676113,14.));
#466=VERTEX_POINT('',#465);
#467=CARTESIAN_POINT('',(67.,92.464676113,14.));
#468=DIRECTION('',(0.,1.,0.));
#469=VECTOR('',#468,0.0793);
#470=LINE('',#467,#469);
#471=EDGE_CURVE('',#466,#458,#470,.T.);
#472=ORIENTED_EDGE('',*,*,#471,.F.);
#473=CARTESIAN_POINT('',(67.,92.464676113,13.));
#474=DIRECTION('',(-0.,-0.,1.));
#475=VECTOR('',#474,1.);
#476=LINE('',#473,#475);
#477=EDGE_CURVE('',#448,#466,#476,.T.);
#478=ORIENTED_EDGE('',*,*,#477,.F.);
#479=EDGE_LOOP('',(#456,#464,#472,#478));
#480=FACE_BOUND('',#479,.T.);
#481=ADVANCED_FACE('',(#480),#446,.T.);
#482=CARTESIAN_POINT('',(4.7225,0.,0.));
#483=DIRECTION('',(1.,0.,0.));
#484=DIRECTION('',(-0.,1.,-0.));
#485=AXIS2_PLACEMENT_3D('',#482,#483,#484);
#486=PLANE('',#485);
#487=CARTESIAN_POINT('',(4.7225,95.543976113,-1.5));
#488=VERTEX_POINT('',#487);
#489=CARTESIAN_POINT('',(4.7225,95.543976113,11.5));
#490=VERTEX_POINT('',#489);
#491=CARTESIAN_POINT('',(4.7225,95.543976113,-1.5));
#492=DIRECTION('',(-0.,-0.,1.));
#493=VECTOR('',#492,13.);
#494=LINE('',#491,#493);
#495=EDGE_CURVE('',#488,#490,#494,.T.);
#496=ORIENTED_EDGE('',*,*,#495,.T.);
#497=CARTESIAN_POINT('',(4.7225,92.464676113,11.5));
#498=VERTEX_POINT('',#497);
#499=CARTESIAN_POINT('',(4.7225,95.543976113,11.5));
#500=DIRECTION('',(0.,-1.,-0.));
#501=VECTOR('',#500,3.0793);
#502=LINE('',#499,#501);
#503=EDGE_CURVE('',#490,#498,#502,.T.);
#504=ORIENTED_EDGE('',*,*,#503,.T.);
#505=CARTESIAN_POINT('',(4.7225,92.464676113,-1.5));
#506=VERTEX_POINT('',#505);
#507=CARTESIAN_POINT('',(4.7225,92.464676113,11.5));
#508=DIRECTION('',(0.,0.,-1.));
#509=VECTOR('',#508,13.);
#510=LINE('',#507,#509);
#511=EDGE_CURVE('',#498,#506,#510,.T.);
#512=ORIENTED_EDGE('',*,*,#511,.T.);
#513=CARTESIAN_POINT('',(4.7225,92.464676113,-1.5));
#514=DIRECTION('',(-0.,1.,0.));
#515=VECTOR('',#514,3.0793);
#516=LINE('',#513,#515);
#517=EDGE_CURVE('',#506,#488,#516,.T.);
#518=ORIENTED_EDGE('',*,*,#517,.T.);
#519=EDGE_LOOP('',(#496,#504,#512,#518));
#520=FACE_BOUND('',#519,.T.);
#521=ADVANCED_FACE('',(#520),#486,.T.);
#522=CARTESIAN_POINT('',(177.9975,-15.04925,-3.));
#523=DIRECTION('',(-1.,-0.,-0.));
#524=DIRECTION('',(0.,0.,-1.));
#525=AXIS2_PLACEMENT_3D('',#522,#523,#524);
#526=PLANE('',#525);
#527=CARTESIAN_POINT('',(177.9975,-31.7425,16.5));
#528=VERTEX_POINT('',#527);
#529=CARTESIAN_POINT('',(177.9975,-31.7425,-3.));
#530=VERTEX_POINT('',#529);
#531=CARTESIAN_POINT('',(177.9975,-31.7425,16.5));
#532=DIRECTION('',(0.,0.,-1.));
#533=VECTOR('',#532,19.5);
#534=LINE('',#531,#533);
#535=EDGE_CURVE('',#528,#530,#534,.T.);
#536=ORIENTED_EDGE('',*,*,#535,.T.);
#537=CARTESIAN_POINT('',(177.9975,95.543988057,-3.));
#538=VERTEX_POINT('',#537);
#539=CARTESIAN_POINT('',(177.9975,-31.7425,-3.));
#540=DIRECTION('',(-0.,1.,-0.));
#541=VECTOR('',#540,127.286476113);
#542=LINE('',#539,#541);
#543=EDGE_CURVE('',#530,#538,#542,.T.);
#544=ORIENTED_EDGE('',*,*,#543,.T.);
#545=CARTESIAN_POINT('',(177.9975,95.543976113,16.5));
#546=VERTEX_POINT('',#545);
#547=CARTESIAN_POINT('',(177.9975,95.543976113,16.5));
#548=DIRECTION('',(0.,0.,-1.));
#549=VECTOR('',#548,19.5);
#550=LINE('',#547,#549);
#551=EDGE_CURVE('',#546,#538,#550,.T.);
#552=ORIENTED_EDGE('',*,*,#551,.F.);
#553=CARTESIAN_POINT('',(177.9975,-31.7425,16.5));
#554=DIRECTION('',(-0.,1.,-0.));
#555=VECTOR('',#554,127.286476113);
#556=LINE('',#553,#555);
#557=EDGE_CURVE('',#528,#546,#556,.T.);
#558=ORIENTED_EDGE('',*,*,#557,.F.);
#559=EDGE_LOOP('',(#536,#544,#552,#558));
#560=FACE_BOUND('',#559,.T.);
#561=ADVANCED_FACE('',(#560),#526,.F.);
#562=CARTESIAN_POINT('',(174.9975,-30.2425,14.));
#563=DIRECTION('',(-1.,-0.,-0.));
#564=DIRECTION('',(0.,0.,-1.));
#565=AXIS2_PLACEMENT_3D('',#562,#563,#564);
#566=PLANE('',#565);
#567=CARTESIAN_POINT('',(174.9975,92.543976113,14.));
#568=VERTEX_POINT('',#567);
#569=CARTESIAN_POINT('',(174.9975,92.543976113,-3.));
#570=DIRECTION('',(-0.,0.,1.));
#571=VECTOR('',#570,17.);
#572=LINE('',#569,#571);
#573=EDGE_CURVE('',#143,#568,#572,.T.);
#574=ORIENTED_EDGE('',*,*,#573,.F.);
#575=ORIENTED_EDGE('',*,*,#148,.F.);
#576=CARTESIAN_POINT('',(174.9975,-28.7425,16.5));
#577=VERTEX_POINT('',#576);
#578=CARTESIAN_POINT('',(174.9975,-28.7425,16.5));
#579=DIRECTION('',(0.,-0.,-1.));
#580=VECTOR('',#579,19.5);
#581=LINE('',#578,#580);
#582=EDGE_CURVE('',#577,#135,#581,.T.);
#583=ORIENTED_EDGE('',*,*,#582,.F.);
#584=CARTESIAN_POINT('',(174.9975,92.464676113,16.5));
#585=VERTEX_POINT('',#584);
#586=CARTESIAN_POINT('',(174.9975,-28.7425,16.5));
#587=DIRECTION('',(-0.,1.,-0.));
#588=VECTOR('',#587,121.207176113);
#589=LINE('',#586,#588);
#590=EDGE_CURVE('',#577,#585,#589,.T.);
#591=ORIENTED_EDGE('',*,*,#590,.T.);
#592=CARTESIAN_POINT('',(174.9975,92.464676113,14.));
#593=VERTEX_POINT('',#592);
#594=CARTESIAN_POINT('',(174.9975,92.464676113,16.5));
#595=DIRECTION('',(0.,-0.,-1.));
#596=VECTOR('',#595,2.5);
#597=LINE('',#594,#596);
#598=EDGE_CURVE('',#585,#593,#597,.T.);
#599=ORIENTED_EDGE('',*,*,#598,.T.);
#600=CARTESIAN_POINT('',(174.9975,92.464676113,14.));
#601=DIRECTION('',(-0.,1.,0.));
#602=VECTOR('',#601,0.0793);
#603=LINE('',#600,#602);
#604=EDGE_CURVE('',#593,#568,#603,.T.);
#605=ORIENTED_EDGE('',*,*,#604,.T.);
#606=EDGE_LOOP('',(#574,#575,#583,#591,#599,#605));
#607=FACE_BOUND('',#606,.T.);
#608=ADVANCED_FACE('',(#607),#566,.T.);
#609=CARTESIAN_POINT('',(-2.2775,-30.2425,14.));
#610=DIRECTION('',(-1.,-0.,-0.));
#611=DIRECTION('',(0.,0.,-1.));
#612=AXIS2_PLACEMENT_3D('',#609,#610,#611);
#613=PLANE('',#612);
#614=CARTESIAN_POINT('',(-2.2775,80.100026864,14.112973136));
#615=VERTEX_POINT('',#614);
#616=CARTESIAN_POINT('',(-2.2775,67.145126864,14.112973136));
#617=VERTEX_POINT('',#616);
#618=CARTESIAN_POINT('',(-2.2775,80.100026864,14.112973136));
#619=DIRECTION('',(0.,-1.,-0.));
#620=VECTOR('',#619,12.9549);
#621=LINE('',#618,#620);
#622=EDGE_CURVE('',#615,#617,#621,.T.);
#623=ORIENTED_EDGE('',*,*,#622,.F.);
#624=CARTESIAN_POINT('',(-2.2775,81.600026864,12.612973136));
#625=VERTEX_POINT('',#624);
#626=CARTESIAN_POINT('',(-2.2775,80.100026864,12.612973136));
#627=DIRECTION('',(-1.,-0.,-0.));
#628=DIRECTION('',(-0.,0.,1.));
#629=AXIS2_PLACEMENT_3D('',#626,#627,#628);
#630=CIRCLE('',#629,1.5);
#631=EDGE_CURVE('',#615,#625,#630,.T.);
#632=ORIENTED_EDGE('',*,*,#631,.T.);
#633=CARTESIAN_POINT('',(-2.2775,81.600026864,3.702427855));
#634=VERTEX_POINT('',#633);
#635=CARTESIAN_POINT('',(-2.2775,81.600026864,3.702427855));
#636=DIRECTION('',(-0.,-0.,1.));
#637=VECTOR('',#636,8.910545282);
#638=LINE('',#635,#637);
#639=EDGE_CURVE('',#634,#625,#638,.T.);
#640=ORIENTED_EDGE('',*,*,#639,.F.);
#641=CARTESIAN_POINT('',(-2.2775,65.645126864,3.702427855));
#642=VERTEX_POINT('',#641);
#643=CARTESIAN_POINT('',(-2.2775,73.622576864,14.640423136));
#644=DIRECTION('',(-1.,-0.,-0.));
#645=DIRECTION('',(-0.,0.,1.));
#646=AXIS2_PLACEMENT_3D('',#643,#644,#645);
#647=CIRCLE('',#646,13.538074061);
#648=EDGE_CURVE('',#634,#642,#647,.T.);
#649=ORIENTED_EDGE('',*,*,#648,.T.);
#650=CARTESIAN_POINT('',(-2.2775,65.645126864,12.612973136));
#651=VERTEX_POINT('',#650);
#652=CARTESIAN_POINT('',(-2.2775,65.645126864,12.612973136));
#653=DIRECTION('',(0.,0.,-1.));
#654=VECTOR('',#653,8.910545282);
#655=LINE('',#652,#654);
#656=EDGE_CURVE('',#651,#642,#655,.T.);
#657=ORIENTED_EDGE('',*,*,#656,.F.);
#658=CARTESIAN_POINT('',(-2.2775,67.145126864,12.612973136));
#659=DIRECTION('',(-1.,-0.,-0.));
#660=DIRECTION('',(-0.,0.,1.));
#661=AXIS2_PLACEMENT_3D('',#658,#659,#660);
#662=CIRCLE('',#661,1.5);
#663=EDGE_CURVE('',#651,#617,#662,.T.);
#664=ORIENTED_EDGE('',*,*,#663,.T.);
#665=EDGE_LOOP('',(#623,#632,#640,#649,#657,#664));
#666=FACE_BOUND('',#665,.T.);
#667=CARTESIAN_POINT('',(-2.2775,18.3525,-1.494287));
#668=VERTEX_POINT('',#667);
#669=CARTESIAN_POINT('',(-2.2775,57.868,-1.494287));
#670=VERTEX_POINT('',#669);
#671=CARTESIAN_POINT('',(-2.2775,18.3525,-1.494287));
#672=DIRECTION('',(-0.,1.,0.));
#673=VECTOR('',#672,39.5155);
#674=LINE('',#671,#673);
#675=EDGE_CURVE('',#668,#670,#674,.T.);
#676=ORIENTED_EDGE('',*,*,#675,.F.);
#677=CARTESIAN_POINT('',(-2.2775,16.8525,0.005713));
#678=VERTEX_POINT('',#677);
#679=CARTESIAN_POINT('',(-2.2775,18.3525,0.005713));
#680=DIRECTION('',(-1.,-0.,-0.));
#681=DIRECTION('',(-0.,0.,1.));
#682=AXIS2_PLACEMENT_3D('',#679,#680,#681);
#683=CIRCLE('',#682,1.5);
#684=EDGE_CURVE('',#668,#678,#683,.T.);
#685=ORIENTED_EDGE('',*,*,#684,.T.);
#686=CARTESIAN_POINT('',(-2.2775,16.8525,3.815713));
#687=VERTEX_POINT('',#686);
#688=CARTESIAN_POINT('',(-2.2775,16.8525,3.815713));
#689=DIRECTION('',(0.,-0.,-1.));
#690=VECTOR('',#689,3.81);
#691=LINE('',#688,#690);
#692=EDGE_CURVE('',#687,#678,#691,.T.);
#693=ORIENTED_EDGE('',*,*,#692,.F.);
#694=CARTESIAN_POINT('',(-2.2775,18.3525,5.315713));
#695=VERTEX_POINT('',#694);
#696=CARTESIAN_POINT('',(-2.2775,18.3525,3.815713));
#697=DIRECTION('',(-1.,-0.,-0.));
#698=DIRECTION('',(-0.,0.,1.));
#699=AXIS2_PLACEMENT_3D('',#696,#697,#698);
#700=CIRCLE('',#699,1.5);
#701=EDGE_CURVE('',#687,#695,#700,.T.);
#702=ORIENTED_EDGE('',*,*,#701,.T.);
#703=CARTESIAN_POINT('',(-2.2775,57.868,5.315713));
#704=VERTEX_POINT('',#703);
#705=CARTESIAN_POINT('',(-2.2775,57.868,5.315713));
#706=DIRECTION('',(0.,-1.,0.));
#707=VECTOR('',#706,39.5155);
#708=LINE('',#705,#707);
#709=EDGE_CURVE('',#704,#695,#708,.T.);
#710=ORIENTED_EDGE('',*,*,#709,.F.);
#711=CARTESIAN_POINT('',(-2.2775,59.368,3.815713));
#712=VERTEX_POINT('',#711);
#713=CARTESIAN_POINT('',(-2.2775,57.868,3.815713));
#714=DIRECTION('',(-1.,-0.,-0.));
#715=DIRECTION('',(-0.,0.,1.));
#716=AXIS2_PLACEMENT_3D('',#713,#714,#715);
#717=CIRCLE('',#716,1.5);
#718=EDGE_CURVE('',#704,#712,#717,.T.);
#719=ORIENTED_EDGE('',*,*,#718,.T.);
#720=CARTESIAN_POINT('',(-2.2775,59.368,0.005713));
#721=VERTEX_POINT('',#720);
#722=CARTESIAN_POINT('',(-2.2775,59.368,0.005713));
#723=DIRECTION('',(-0.,0.,1.));
#724=VECTOR('',#723,3.81);
#725=LINE('',#722,#724);
#726=EDGE_CURVE('',#721,#712,#725,.T.);
#727=ORIENTED_EDGE('',*,*,#726,.F.);
#728=CARTESIAN_POINT('',(-2.2775,57.868,0.005713));
#729=DIRECTION('',(-1.,-0.,-0.));
#730=DIRECTION('',(-0.,0.,1.));
#731=AXIS2_PLACEMENT_3D('',#728,#729,#730);
#732=CIRCLE('',#731,1.5);
#733=EDGE_CURVE('',#721,#670,#732,.T.);
#734=ORIENTED_EDGE('',*,*,#733,.T.);
#735=EDGE_LOOP('',(#676,#685,#693,#702,#710,#719,#727,#734));
#736=FACE_BOUND('',#735,.T.);
#737=ORIENTED_EDGE('',*,*,#132,.T.);
#738=CARTESIAN_POINT('',(-2.2775,92.464676113,16.5));
#739=VERTEX_POINT('',#738);
#740=CARTESIAN_POINT('',(-2.2775,92.464676113,16.5));
#741=DIRECTION('',(0.,-0.,-1.));
#742=VECTOR('',#741,19.5);
#743=LINE('',#740,#742);
#744=EDGE_CURVE('',#739,#119,#743,.T.);
#745=ORIENTED_EDGE('',*,*,#744,.F.);
#746=CARTESIAN_POINT('',(-2.2775,-28.7425,16.5));
#747=VERTEX_POINT('',#746);
#748=CARTESIAN_POINT('',(-2.2775,-28.7425,16.5));
#749=DIRECTION('',(-0.,1.,-0.));
#750=VECTOR('',#749,121.207176113);
#751=LINE('',#748,#750);
#752=EDGE_CURVE('',#747,#739,#751,.T.);
#753=ORIENTED_EDGE('',*,*,#752,.F.);
#754=CARTESIAN_POINT('',(-2.2775,-28.7425,16.5));
#755=DIRECTION('',(0.,0.,-1.));
#756=VECTOR('',#755,19.5);
#757=LINE('',#754,#756);
#758=EDGE_CURVE('',#747,#127,#757,.T.);
#759=ORIENTED_EDGE('',*,*,#758,.T.);
#760=EDGE_LOOP('',(#737,#745,#753,#759));
#761=FACE_BOUND('',#760,.T.);
#762=ADVANCED_FACE('',(#666,#736,#761),#613,.F.);
#763=CARTESIAN_POINT('',(86.36,-31.7425,-3.));
#764=DIRECTION('',(-0.,1.,-0.));
#765=DIRECTION('',(-0.,0.,1.));
#766=AXIS2_PLACEMENT_3D('',#763,#764,#765);
#767=PLANE('',#766);
#768=ORIENTED_EDGE('',*,*,#300,.T.);
#769=CARTESIAN_POINT('',(-5.2775,-31.7425,-3.));
#770=DIRECTION('',(1.,0.,0.));
#771=VECTOR('',#770,183.275);
#772=LINE('',#769,#771);
#773=EDGE_CURVE('',#285,#530,#772,.T.);
#774=ORIENTED_EDGE('',*,*,#773,.T.);
#775=ORIENTED_EDGE('',*,*,#535,.F.);
#776=CARTESIAN_POINT('',(-5.2775,-31.7425,16.5));
#777=DIRECTION('',(1.,0.,0.));
#778=VECTOR('',#777,183.275);
#779=LINE('',#776,#778);
#780=EDGE_CURVE('',#295,#528,#779,.T.);
#781=ORIENTED_EDGE('',*,*,#780,.F.);
#782=EDGE_LOOP('',(#768,#774,#775,#781));
#783=FACE_BOUND('',#782,.T.);
#784=ADVANCED_FACE('',(#783),#767,.F.);
#785=CARTESIAN_POINT('',(42.04125,-28.7425,14.));
#786=DIRECTION('',(-0.,1.,-0.));
#787=DIRECTION('',(-0.,0.,1.));
#788=AXIS2_PLACEMENT_3D('',#785,#786,#787);
#789=PLANE('',#788);
#790=ORIENTED_EDGE('',*,*,#140,.F.);
#791=ORIENTED_EDGE('',*,*,#758,.F.);
#792=CARTESIAN_POINT('',(-2.2775,-28.7425,16.5));
#793=DIRECTION('',(1.,0.,0.));
#794=VECTOR('',#793,177.275);
#795=LINE('',#792,#794);
#796=EDGE_CURVE('',#747,#577,#795,.T.);
#797=ORIENTED_EDGE('',*,*,#796,.T.);
#798=ORIENTED_EDGE('',*,*,#582,.T.);
#799=EDGE_LOOP('',(#790,#791,#797,#798));
#800=FACE_BOUND('',#799,.T.);
#801=ADVANCED_FACE('',(#800),#789,.T.);
#802=CARTESIAN_POINT('',(-0.,90.544,16.5));
#803=DIRECTION('',(-0.,0.,1.));
#804=DIRECTION('',(-1.,-0.,-0.));
#805=AXIS2_PLACEMENT_3D('',#802,#803,#804);
#806=PLANE('',#805);
#807=CARTESIAN_POINT('',(174.9975,92.464676113,16.5));
#808=DIRECTION('',(-1.,-0.,-0.));
#809=VECTOR('',#808,177.275);
#810=LINE('',#807,#809);
#811=EDGE_CURVE('',#585,#739,#810,.T.);
#812=ORIENTED_EDGE('',*,*,#811,.F.);
#813=ORIENTED_EDGE('',*,*,#590,.F.);
#814=ORIENTED_EDGE('',*,*,#796,.F.);
#815=ORIENTED_EDGE('',*,*,#752,.T.);
#816=EDGE_LOOP('',(#812,#813,#814,#815));
#817=FACE_BOUND('',#816,.T.);
#818=ORIENTED_EDGE('',*,*,#308,.T.);
#819=ORIENTED_EDGE('',*,*,#780,.T.);
#820=ORIENTED_EDGE('',*,*,#557,.T.);
#821=CARTESIAN_POINT('',(177.9975,95.543976113,16.5));
#822=DIRECTION('',(-1.,-0.,-0.));
#823=VECTOR('',#822,183.275);
#824=LINE('',#821,#823);
#825=EDGE_CURVE('',#546,#303,#824,.T.);
#826=ORIENTED_EDGE('',*,*,#825,.T.);
#827=EDGE_LOOP('',(#818,#819,#820,#826));
#828=FACE_BOUND('',#827,.T.);
#829=ADVANCED_FACE('',(#817,#828),#806,.T.);
#830=CARTESIAN_POINT('',(-2.2775,38.11025,5.315713));
#831=DIRECTION('',(0.,0.,-1.));
#832=DIRECTION('',(-1.,0.,-0.));
#833=AXIS2_PLACEMENT_3D('',#830,#831,#832);
#834=PLANE('',#833);
#835=ORIENTED_EDGE('',*,*,#709,.T.);
#836=CARTESIAN_POINT('',(-2.2775,18.3525,5.315713));
#837=DIRECTION('',(-1.,-0.,-0.));
#838=VECTOR('',#837,3.);
#839=LINE('',#836,#838);
#840=EDGE_CURVE('',#695,#355,#839,.T.);
#841=ORIENTED_EDGE('',*,*,#840,.T.);
#842=ORIENTED_EDGE('',*,*,#360,.F.);
#843=CARTESIAN_POINT('',(-5.2775,57.868,5.315713));
#844=DIRECTION('',(1.,0.,0.));
#845=VECTOR('',#844,3.);
#846=LINE('',#843,#845);
#847=EDGE_CURVE('',#346,#704,#846,.T.);
#848=ORIENTED_EDGE('',*,*,#847,.T.);
#849=EDGE_LOOP('',(#835,#841,#842,#848));
#850=FACE_BOUND('',#849,.T.);
#851=ADVANCED_FACE('',(#850),#834,.T.);
#852=CARTESIAN_POINT('',(-2.2775,16.8525,4.410713));
#853=DIRECTION('',(-0.,1.,-0.));
#854=DIRECTION('',(-1.,-0.,0.));
#855=AXIS2_PLACEMENT_3D('',#852,#853,#854);
#856=PLANE('',#855);
#857=ORIENTED_EDGE('',*,*,#377,.F.);
#858=CARTESIAN_POINT('',(-5.2775,16.8525,3.815713));
#859=DIRECTION('',(1.,0.,0.));
#860=VECTOR('',#859,3.);
#861=LINE('',#858,#860);
#862=EDGE_CURVE('',#363,#687,#861,.T.);
#863=ORIENTED_EDGE('',*,*,#862,.T.);
#864=ORIENTED_EDGE('',*,*,#692,.T.);
#865=CARTESIAN_POINT('',(-2.2775,16.8525,0.005713));
#866=DIRECTION('',(-1.,-0.,-0.));
#867=VECTOR('',#866,3.);
#868=LINE('',#865,#867);
#869=EDGE_CURVE('',#678,#372,#868,.T.);
#870=ORIENTED_EDGE('',*,*,#869,.T.);
#871=EDGE_LOOP('',(#857,#863,#864,#870));
#872=FACE_BOUND('',#871,.T.);
#873=ADVANCED_FACE('',(#872),#856,.T.);
#874=CARTESIAN_POINT('',(-2.2775,81.600026864,8.387973136));
#875=DIRECTION('',(0.,-1.,0.));
#876=DIRECTION('',(1.,0.,0.));
#877=AXIS2_PLACEMENT_3D('',#874,#875,#876);
#878=PLANE('',#877);
#879=ORIENTED_EDGE('',*,*,#639,.T.);
#880=CARTESIAN_POINT('',(-2.2775,81.600026864,12.612973136));
#881=DIRECTION('',(-1.,-0.,-0.));
#882=VECTOR('',#881,3.);
#883=LINE('',#880,#882);
#884=EDGE_CURVE('',#625,#425,#883,.T.);
#885=ORIENTED_EDGE('',*,*,#884,.T.);
#886=ORIENTED_EDGE('',*,*,#430,.F.);
#887=CARTESIAN_POINT('',(-5.270467172,81.600026864,1.620416303));
#888=VERTEX_POINT('',#887);
#889=CARTESIAN_POINT('',(-5.2775,81.600026864,1.606074193));
#890=CARTESIAN_POINT('',(-5.275155436,81.600026864,1.610854766));
#891=CARTESIAN_POINT('',(-5.27281116,81.600026864,1.615635469));
#892=CARTESIAN_POINT('',(-5.270467172,81.600026864,1.620416303));
#893=B_SPLINE_CURVE_WITH_KNOTS('',3,(#889,#890,#891,#892),.UNSPECIFIED.,.F.,.F.,(4,4),(0.,0.000015967),.UNSPECIFIED.);
#894=EDGE_CURVE('',#416,#888,#893,.T.);
#895=ORIENTED_EDGE('',*,*,#894,.T.);
#896=CARTESIAN_POINT('',(-5.270467172,81.600026864,1.620416303));
#897=CARTESIAN_POINT('',(-4.264725508,81.600026864,2.302796321));
#898=CARTESIAN_POINT('',(-3.265698542,81.600026864,2.994828962));
#899=CARTESIAN_POINT('',(-2.2775,81.600026864,3.702427855));
#900=B_SPLINE_CURVE_WITH_KNOTS('',3,(#896,#897,#898,#899),.UNSPECIFIED.,.F.,.F.,(4,4),(0.,0.003645905),.UNSPECIFIED.);
#901=EDGE_CURVE('',#888,#634,#900,.T.);
#902=ORIENTED_EDGE('',*,*,#901,.T.);
#903=EDGE_LOOP('',(#879,#885,#886,#895,#902));
#904=FACE_BOUND('',#903,.T.);
#905=ADVANCED_FACE('',(#904),#878,.T.);
#906=CARTESIAN_POINT('',(-2.2775,95.543976113,6.5));
#907=DIRECTION('',(-0.,1.,-0.));
#908=DIRECTION('',(-1.,-0.,0.));
#909=AXIS2_PLACEMENT_3D('',#906,#907,#908);
#910=PLANE('',#909);
#911=CARTESIAN_POINT('',(89.86,95.543988056,-3.));
#912=VERTEX_POINT('',#911);
#913=CARTESIAN_POINT('',(89.86,95.543976113,-3.));
#914=DIRECTION('',(-1.,-0.,0.));
#915=VECTOR('',#914,31.36);
#916=LINE('',#913,#915);
#917=EDGE_CURVE('',#912,#87,#916,.T.);
#918=ORIENTED_EDGE('',*,*,#917,.T.);
#919=CARTESIAN_POINT('',(60.,95.543976113,-1.5));
#920=VERTEX_POINT('',#919);
#921=CARTESIAN_POINT('',(58.5,95.543976113,-1.5));
#922=DIRECTION('',(0.,-1.,0.));
#923=DIRECTION('',(-1.,-0.,0.));
#924=AXIS2_PLACEMENT_3D('',#921,#922,#923);
#925=CIRCLE('',#924,1.5);
#926=EDGE_CURVE('',#87,#920,#925,.T.);
#927=ORIENTED_EDGE('',*,*,#926,.T.);
#928=CARTESIAN_POINT('',(60.,95.543976113,11.5));
#929=VERTEX_POINT('',#928);
#930=CARTESIAN_POINT('',(60.,95.543976113,-1.5));
#931=DIRECTION('',(-0.,0.,1.));
#932=VECTOR('',#931,13.);
#933=LINE('',#930,#932);
#934=EDGE_CURVE('',#920,#929,#933,.T.);
#935=ORIENTED_EDGE('',*,*,#934,.T.);
#936=CARTESIAN_POINT('',(58.5,95.543976113,13.));
#937=VERTEX_POINT('',#936);
#938=CARTESIAN_POINT('',(58.5,95.543976113,11.5));
#939=DIRECTION('',(0.,-1.,0.));
#940=DIRECTION('',(-1.,-0.,0.));
#941=AXIS2_PLACEMENT_3D('',#938,#939,#940);
#942=CIRCLE('',#941,1.5);
#943=EDGE_CURVE('',#929,#937,#942,.T.);
#944=ORIENTED_EDGE('',*,*,#943,.T.);
#945=CARTESIAN_POINT('',(6.2225,95.543976113,13.));
#946=VERTEX_POINT('',#945);
#947=CARTESIAN_POINT('',(58.5,95.543976113,13.));
#948=DIRECTION('',(-1.,-0.,-0.));
#949=VECTOR('',#948,52.2775);
#950=LINE('',#947,#949);
#951=EDGE_CURVE('',#937,#946,#950,.T.);
#952=ORIENTED_EDGE('',*,*,#951,.T.);
#953=CARTESIAN_POINT('',(6.2225,95.543976113,11.5));
#954=DIRECTION('',(0.,-1.,0.));
#955=DIRECTION('',(-1.,-0.,0.));
#956=AXIS2_PLACEMENT_3D('',#953,#954,#955);
#957=CIRCLE('',#956,1.5);
#958=EDGE_CURVE('',#946,#490,#957,.T.);
#959=ORIENTED_EDGE('',*,*,#958,.T.);
#960=ORIENTED_EDGE('',*,*,#495,.F.);
#961=CARTESIAN_POINT('',(6.2225,95.543976113,-1.5));
#962=DIRECTION('',(0.,-1.,0.));
#963=DIRECTION('',(-1.,-0.,0.));
#964=AXIS2_PLACEMENT_3D('',#961,#962,#963);
#965=CIRCLE('',#964,1.5);
#966=EDGE_CURVE('',#488,#95,#965,.T.);
#967=ORIENTED_EDGE('',*,*,#966,.T.);
#968=CARTESIAN_POINT('',(4.7225,95.543982085,-3.));
#969=VERTEX_POINT('',#968);
#970=CARTESIAN_POINT('',(6.2225,95.543976113,-3.));
#971=DIRECTION('',(-1.,-0.,0.));
#972=VECTOR('',#971,1.5);
#973=LINE('',#970,#972);
#974=EDGE_CURVE('',#95,#969,#973,.T.);
#975=ORIENTED_EDGE('',*,*,#974,.T.);
#976=CARTESIAN_POINT('',(0.,95.543988056,-3.));
#977=VERTEX_POINT('',#976);
#978=CARTESIAN_POINT('',(4.7225,95.543976113,-3.));
#979=DIRECTION('',(-1.,-0.,0.));
#980=VECTOR('',#979,4.7225);
#981=LINE('',#978,#980);
#982=EDGE_CURVE('',#969,#977,#981,.T.);
#983=ORIENTED_EDGE('',*,*,#982,.T.);
#984=CARTESIAN_POINT('',(0.,95.543976113,-3.));
#985=DIRECTION('',(-1.,-0.,0.));
#986=VECTOR('',#985,5.2775);
#987=LINE('',#984,#986);
#988=EDGE_CURVE('',#977,#287,#987,.T.);
#989=ORIENTED_EDGE('',*,*,#988,.T.);
#990=ORIENTED_EDGE('',*,*,#314,.F.);
#991=ORIENTED_EDGE('',*,*,#825,.F.);
#992=ORIENTED_EDGE('',*,*,#551,.T.);
#993=CARTESIAN_POINT('',(176.9225,95.543990557,-3.));
#994=VERTEX_POINT('',#993);
#995=CARTESIAN_POINT('',(177.9975,95.543976113,-3.));
#996=DIRECTION('',(-1.,-0.,0.));
#997=VECTOR('',#996,1.075);
#998=LINE('',#995,#997);
#999=EDGE_CURVE('',#538,#994,#998,.T.);
#1000=ORIENTED_EDGE('',*,*,#999,.T.);
#1001=CARTESIAN_POINT('',(174.9975,95.543988057,-3.));
#1002=VERTEX_POINT('',#1001);
#1003=CARTESIAN_POINT('',(174.9975,95.543976113,-3.));
#1004=DIRECTION('',(1.,0.,-0.));
#1005=VECTOR('',#1004,1.925);
#1006=LINE('',#1003,#1005);
#1007=EDGE_CURVE('',#1002,#994,#1006,.T.);
#1008=ORIENTED_EDGE('',*,*,#1007,.F.);
#1009=CARTESIAN_POINT('',(172.72,95.543988057,-3.));
#1010=VERTEX_POINT('',#1009);
#1011=CARTESIAN_POINT('',(174.9975,95.543976113,-3.));
#1012=DIRECTION('',(-1.,-0.,0.));
#1013=VECTOR('',#1012,2.2775);
#1014=LINE('',#1011,#1013);
#1015=EDGE_CURVE('',#1002,#1010,#1014,.T.);
#1016=ORIENTED_EDGE('',*,*,#1015,.T.);
#1017=CARTESIAN_POINT('',(166.,95.543988057,-3.));
#1018=VERTEX_POINT('',#1017);
#1019=CARTESIAN_POINT('',(166.,95.543976113,-3.));
#1020=DIRECTION('',(1.,0.,-0.));
#1021=VECTOR('',#1020,6.72);
#1022=LINE('',#1019,#1021);
#1023=EDGE_CURVE('',#1018,#1010,#1022,.T.);
#1024=ORIENTED_EDGE('',*,*,#1023,.F.);
#1025=CARTESIAN_POINT('',(164.672,95.543988057,-3.));
#1026=VERTEX_POINT('',#1025);
#1027=CARTESIAN_POINT('',(166.,95.543976113,-3.));
#1028=DIRECTION('',(-1.,-0.,0.));
#1029=VECTOR('',#1028,1.328);
#1030=LINE('',#1027,#1029);
#1031=EDGE_CURVE('',#1018,#1026,#1030,.T.);
#1032=ORIENTED_EDGE('',*,*,#1031,.T.);
#1033=CARTESIAN_POINT('',(164.672,95.543976113,-3.));
#1034=DIRECTION('',(-1.,-0.,0.));
#1035=VECTOR('',#1034,1.672);
#1036=LINE('',#1033,#1035);
#1037=EDGE_CURVE('',#1026,#159,#1036,.T.);
#1038=ORIENTED_EDGE('',*,*,#1037,.T.);
#1039=CARTESIAN_POINT('',(163.,95.543976113,8.));
#1040=VERTEX_POINT('',#1039);
#1041=CARTESIAN_POINT('',(163.,95.543976113,8.));
#1042=DIRECTION('',(0.,-0.,-1.));
#1043=VECTOR('',#1042,11.);
#1044=LINE('',#1041,#1043);
#1045=EDGE_CURVE('',#1040,#159,#1044,.T.);
#1046=ORIENTED_EDGE('',*,*,#1045,.F.);
#1047=CARTESIAN_POINT('',(152.,95.543976113,8.));
#1048=VERTEX_POINT('',#1047);
#1049=CARTESIAN_POINT('',(163.,95.543976113,8.));
#1050=DIRECTION('',(-1.,-0.,-0.));
#1051=VECTOR('',#1050,11.);
#1052=LINE('',#1049,#1051);
#1053=EDGE_CURVE('',#1040,#1048,#1052,.T.);
#1054=ORIENTED_EDGE('',*,*,#1053,.T.);
#1055=CARTESIAN_POINT('',(152.,95.543976113,-3.));
#1056=DIRECTION('',(-0.,0.,1.));
#1057=VECTOR('',#1056,11.);
#1058=LINE('',#1055,#1057);
#1059=EDGE_CURVE('',#167,#1048,#1058,.T.);
#1060=ORIENTED_EDGE('',*,*,#1059,.F.);
#1061=CARTESIAN_POINT('',(136.,95.543988057,-3.));
#1062=VERTEX_POINT('',#1061);
#1063=CARTESIAN_POINT('',(152.,95.543976113,-3.));
#1064=DIRECTION('',(-1.,-0.,0.));
#1065=VECTOR('',#1064,16.);
#1066=LINE('',#1063,#1065);
#1067=EDGE_CURVE('',#167,#1062,#1066,.T.);
#1068=ORIENTED_EDGE('',*,*,#1067,.T.);
#1069=CARTESIAN_POINT('',(136.,95.543976113,-3.));
#1070=DIRECTION('',(-1.,-0.,0.));
#1071=VECTOR('',#1070,1.5);
#1072=LINE('',#1069,#1071);
#1073=EDGE_CURVE('',#1062,#61,#1072,.T.);
#1074=ORIENTED_EDGE('',*,*,#1073,.T.);
#1075=CARTESIAN_POINT('',(136.,95.543976113,-1.5));
#1076=VERTEX_POINT('',#1075);
#1077=CARTESIAN_POINT('',(134.5,95.543976113,-1.5));
#1078=DIRECTION('',(0.,-1.,0.));
#1079=DIRECTION('',(-1.,-0.,0.));
#1080=AXIS2_PLACEMENT_3D('',#1077,#1078,#1079);
#1081=CIRCLE('',#1080,1.5);
#1082=EDGE_CURVE('',#61,#1076,#1081,.T.);
#1083=ORIENTED_EDGE('',*,*,#1082,.T.);
#1084=CARTESIAN_POINT('',(136.,95.543976113,5.5));
#1085=VERTEX_POINT('',#1084);
#1086=CARTESIAN_POINT('',(136.,95.543976113,5.5));
#1087=DIRECTION('',(0.,-0.,-1.));
#1088=VECTOR('',#1087,7.);
#1089=LINE('',#1086,#1088);
#1090=EDGE_CURVE('',#1085,#1076,#1089,.T.);
#1091=ORIENTED_EDGE('',*,*,#1090,.F.);
#1092=CARTESIAN_POINT('',(134.5,95.543976113,7.));
#1093=VERTEX_POINT('',#1092);
#1094=CARTESIAN_POINT('',(134.5,95.543976113,5.5));
#1095=DIRECTION('',(0.,-1.,0.));
#1096=DIRECTION('',(-1.,-0.,0.));
#1097=AXIS2_PLACEMENT_3D('',#1094,#1095,#1096);
#1098=CIRCLE('',#1097,1.5);
#1099=EDGE_CURVE('',#1085,#1093,#1098,.T.);
#1100=ORIENTED_EDGE('',*,*,#1099,.T.);
#1101=CARTESIAN_POINT('',(91.36,95.543976113,7.));
#1102=VERTEX_POINT('',#1101);
#1103=CARTESIAN_POINT('',(134.5,95.543976113,7.));
#1104=DIRECTION('',(-1.,-0.,0.));
#1105=VECTOR('',#1104,43.14);
#1106=LINE('',#1103,#1105);
#1107=EDGE_CURVE('',#1093,#1102,#1106,.T.);
#1108=ORIENTED_EDGE('',*,*,#1107,.T.);
#1109=CARTESIAN_POINT('',(89.86,95.543976113,5.5));
#1110=VERTEX_POINT('',#1109);
#1111=CARTESIAN_POINT('',(91.36,95.543976113,5.5));
#1112=DIRECTION('',(0.,-1.,0.));
#1113=DIRECTION('',(-1.,-0.,0.));
#1114=AXIS2_PLACEMENT_3D('',#1111,#1112,#1113);
#1115=CIRCLE('',#1114,1.5);
#1116=EDGE_CURVE('',#1102,#1110,#1115,.T.);
#1117=ORIENTED_EDGE('',*,*,#1116,.T.);
#1118=CARTESIAN_POINT('',(89.86,95.543976113,-1.5));
#1119=VERTEX_POINT('',#1118);
#1120=CARTESIAN_POINT('',(89.86,95.543976113,-1.5));
#1121=DIRECTION('',(-0.,0.,1.));
#1122=VECTOR('',#1121,7.);
#1123=LINE('',#1120,#1122);
#1124=EDGE_CURVE('',#1119,#1110,#1123,.T.);
#1125=ORIENTED_EDGE('',*,*,#1124,.F.);
#1126=CARTESIAN_POINT('',(91.36,95.543976113,-1.5));
#1127=DIRECTION('',(0.,-1.,0.));
#1128=DIRECTION('',(-1.,-0.,0.));
#1129=AXIS2_PLACEMENT_3D('',#1126,#1127,#1128);
#1130=CIRCLE('',#1129,1.5);
#1131=EDGE_CURVE('',#1119,#63,#1130,.T.);
#1132=ORIENTED_EDGE('',*,*,#1131,.T.);
#1133=CARTESIAN_POINT('',(89.86,95.543976113,-3.));
#1134=DIRECTION('',(1.,0.,-0.));
#1135=VECTOR('',#1134,1.5);
#1136=LINE('',#1133,#1135);
#1137=EDGE_CURVE('',#912,#63,#1136,.T.);
#1138=ORIENTED_EDGE('',*,*,#1137,.F.);
#1139=EDGE_LOOP('',(#918,#927,#935,#944,#952,#959,#960,#967,#975,#983,#989,#990,#991,#992,#1000,#1008,#1016,#1024,#1032,#1038,#1046,#1054,#1060,#1068,#1074,#1083,
#1091,#1100,#1108,#1117,#1125,#1132,#1138));
#1140=FACE_BOUND('',#1139,.T.);
#1141=ADVANCED_FACE('',(#1140),#910,.T.);
#1142=CARTESIAN_POINT('',(-2.2775,65.645126864,8.387973136));
#1143=DIRECTION('',(-0.,1.,0.));
#1144=DIRECTION('',(-1.,-0.,0.));
#1145=AXIS2_PLACEMENT_3D('',#1142,#1143,#1144);
#1146=PLANE('',#1145);
#1147=ORIENTED_EDGE('',*,*,#413,.F.);
#1148=CARTESIAN_POINT('',(-5.2775,65.645126864,12.612973136));
#1149=DIRECTION('',(1.,0.,0.));
#1150=VECTOR('',#1149,3.);
#1151=LINE('',#1148,#1150);
#1152=EDGE_CURVE('',#399,#651,#1151,.T.);
#1153=ORIENTED_EDGE('',*,*,#1152,.T.);
#1154=ORIENTED_EDGE('',*,*,#656,.T.);
#1155=CARTESIAN_POINT('',(-5.270467172,65.645126864,1.620416303));
#1156=VERTEX_POINT('',#1155);
#1157=CARTESIAN_POINT('',(-2.2775,65.645126864,3.702427855));
#1158=CARTESIAN_POINT('',(-3.265698542,65.645126864,2.994828962));
#1159=CARTESIAN_POINT('',(-4.264725508,65.645126864,2.302796321));
#1160=CARTESIAN_POINT('',(-5.270467172,65.645126864,1.620416303));
#1161=B_SPLINE_CURVE_WITH_KNOTS('',3,(#1157,#1158,#1159,#1160),.UNSPECIFIED.,.F.,.F.,(4,4),(0.,0.003645905),.UNSPECIFIED.);
#1162=EDGE_CURVE('',#642,#1156,#1161,.T.);
#1163=ORIENTED_EDGE('',*,*,#1162,.T.);
#1164=CARTESIAN_POINT('',(-5.270467172,65.645126864,1.620416303));
#1165=CARTESIAN_POINT('',(-5.27281116,65.645126864,1.615635469));
#1166=CARTESIAN_POINT('',(-5.275155436,65.645126864,1.610854766));
#1167=CARTESIAN_POINT('',(-5.2775,65.645126864,1.606074193));
#1168=B_SPLINE_CURVE_WITH_KNOTS('',3,(#1164,#1165,#1166,#1167),.UNSPECIFIED.,.F.,.F.,(4,4),(0.005539411,0.005555378),.UNSPECIFIED.);
#1169=EDGE_CURVE('',#1156,#408,#1168,.T.);
#1170=ORIENTED_EDGE('',*,*,#1169,.T.);
#1171=EDGE_LOOP('',(#1147,#1153,#1154,#1163,#1170));
#1172=FACE_BOUND('',#1171,.T.);
#1173=ADVANCED_FACE('',(#1172),#1146,.T.);
#1174=CARTESIAN_POINT('',(-2.2775,59.368,3.410713));
#1175=DIRECTION('',(0.,-1.,0.));
#1176=DIRECTION('',(1.,0.,0.));
#1177=AXIS2_PLACEMENT_3D('',#1174,#1175,#1176);
#1178=PLANE('',#1177);
#1179=ORIENTED_EDGE('',*,*,#343,.F.);
#1180=CARTESIAN_POINT('',(-5.2775,59.368,0.005713));
#1181=DIRECTION('',(1.,0.,-0.));
#1182=VECTOR('',#1181,3.);
#1183=LINE('',#1180,#1182);
#1184=EDGE_CURVE('',#329,#721,#1183,.T.);
#1185=ORIENTED_EDGE('',*,*,#1184,.T.);
#1186=ORIENTED_EDGE('',*,*,#726,.T.);
#1187=CARTESIAN_POINT('',(-2.2775,59.368,3.815713));
#1188=DIRECTION('',(-1.,-0.,-0.));
#1189=VECTOR('',#1188,3.);
#1190=LINE('',#1187,#1189);
#1191=EDGE_CURVE('',#712,#338,#1190,.T.);
#1192=ORIENTED_EDGE('',*,*,#1191,.T.);
#1193=EDGE_LOOP('',(#1179,#1185,#1186,#1192));
#1194=FACE_BOUND('',#1193,.T.);
#1195=ADVANCED_FACE('',(#1194),#1178,.T.);
#1196=CARTESIAN_POINT('',(-2.9775,73.622576864,14.640423136));
#1197=DIRECTION('',(-1.,0.,0.));
#1198=DIRECTION('',(0.,0.,1.));
#1199=AXIS2_PLACEMENT_3D('',#1196,#1197,#1198);
#1200=CONICAL_SURFACE('',#1199,11.281817983,60.101098161);
#1201=ORIENTED_EDGE('',*,*,#1169,.F.);
#1202=CARTESIAN_POINT('',(-5.270467172,73.622576864,14.640423136));
#1203=DIRECTION('',(1.,-0.,-0.));
#1204=DIRECTION('',(0.,0.,1.));
#1205=AXIS2_PLACEMENT_3D('',#1202,#1203,#1204);
#1206=CIRCLE('',#1205,15.269586977);
#1207=EDGE_CURVE('',#1156,#888,#1206,.T.);
#1208=ORIENTED_EDGE('',*,*,#1207,.T.);
#1209=ORIENTED_EDGE('',*,*,#894,.F.);
#1210=ORIENTED_EDGE('',*,*,#422,.F.);
#1211=EDGE_LOOP('',(#1201,#1208,#1209,#1210));
#1212=FACE_BOUND('',#1211,.T.);
#1213=ADVANCED_FACE('',(#1212),#1200,.F.);
#1214=CARTESIAN_POINT('',(1.6225,73.622576864,14.640423136));
#1215=DIRECTION('',(-1.,0.,0.));
#1216=DIRECTION('',(0.,0.,1.));
#1217=AXIS2_PLACEMENT_3D('',#1214,#1215,#1216);
#1218=CONICAL_SURFACE('',#1217,11.281817983,30.050549081);
#1219=ORIENTED_EDGE('',*,*,#901,.F.);
#1220=ORIENTED_EDGE('',*,*,#1207,.F.);
#1221=ORIENTED_EDGE('',*,*,#1162,.F.);
#1222=ORIENTED_EDGE('',*,*,#648,.F.);
#1223=EDGE_LOOP('',(#1219,#1220,#1221,#1222));
#1224=FACE_BOUND('',#1223,.T.);
#1225=ADVANCED_FACE('',(#1224),#1218,.F.);
#1226=CARTESIAN_POINT('',(176.7225,93.964676113,14.));
#1227=DIRECTION('',(-0.,-0.,1.));
#1228=DIRECTION('',(1.,0.,0.));
#1229=AXIS2_PLACEMENT_3D('',#1226,#1227,#1228);
#1230=PLANE('',#1229);
#1231=ORIENTED_EDGE('',*,*,#471,.T.);
#1232=CARTESIAN_POINT('',(67.,92.543976113,14.));
#1233=DIRECTION('',(1.,0.,-0.));
#1234=VECTOR('',#1233,107.9975);
#1235=LINE('',#1232,#1234);
#1236=EDGE_CURVE('',#458,#568,#1235,.T.);
#1237=ORIENTED_EDGE('',*,*,#1236,.T.);
#1238=ORIENTED_EDGE('',*,*,#604,.F.);
#1239=CARTESIAN_POINT('',(174.9975,92.464676113,14.));
#1240=DIRECTION('',(-1.,-0.,-0.));
#1241=VECTOR('',#1240,107.9975);
#1242=LINE('',#1239,#1241);
#1243=EDGE_CURVE('',#593,#466,#1242,.T.);
#1244=ORIENTED_EDGE('',*,*,#1243,.T.);
#1245=EDGE_LOOP('',(#1231,#1237,#1238,#1244));
#1246=FACE_BOUND('',#1245,.T.);
#1247=ADVANCED_FACE('',(#1246),#1230,.F.);
#1248=CARTESIAN_POINT('',(176.7225,92.464676113,15.));
#1249=DIRECTION('',(-0.,1.,-0.));
#1250=DIRECTION('',(-1.,-0.,0.));
#1251=AXIS2_PLACEMENT_3D('',#1248,#1249,#1250);
#1252=PLANE('',#1251);
#1253=ORIENTED_EDGE('',*,*,#598,.F.);
#1254=ORIENTED_EDGE('',*,*,#811,.T.);
#1255=ORIENTED_EDGE('',*,*,#744,.T.);
#1256=ORIENTED_EDGE('',*,*,#124,.F.);
#1257=ORIENTED_EDGE('',*,*,#116,.F.);
#1258=CARTESIAN_POINT('',(6.2225,92.464676113,-1.5));
#1259=DIRECTION('',(-0.,1.,-0.));
#1260=DIRECTION('',(-1.,-0.,0.));
#1261=AXIS2_PLACEMENT_3D('',#1258,#1259,#1260);
#1262=CIRCLE('',#1261,1.5);
#1263=EDGE_CURVE('',#103,#506,#1262,.T.);
#1264=ORIENTED_EDGE('',*,*,#1263,.T.);
#1265=ORIENTED_EDGE('',*,*,#511,.F.);
#1266=CARTESIAN_POINT('',(6.2225,92.464676113,13.));
#1267=VERTEX_POINT('',#1266);
#1268=CARTESIAN_POINT('',(6.2225,92.464676113,11.5));
#1269=DIRECTION('',(-0.,1.,-0.));
#1270=DIRECTION('',(-1.,-0.,0.));
#1271=AXIS2_PLACEMENT_3D('',#1268,#1269,#1270);
#1272=CIRCLE('',#1271,1.5);
#1273=EDGE_CURVE('',#498,#1267,#1272,.T.);
#1274=ORIENTED_EDGE('',*,*,#1273,.T.);
#1275=CARTESIAN_POINT('',(67.,92.464676113,13.));
#1276=DIRECTION('',(-1.,-0.,-0.));
#1277=VECTOR('',#1276,60.7775);
#1278=LINE('',#1275,#1277);
#1279=EDGE_CURVE('',#448,#1267,#1278,.T.);
#1280=ORIENTED_EDGE('',*,*,#1279,.F.);
#1281=ORIENTED_EDGE('',*,*,#477,.T.);
#1282=ORIENTED_EDGE('',*,*,#1243,.F.);
#1283=EDGE_LOOP('',(#1253,#1254,#1255,#1256,#1257,#1264,#1265,#1274,#1280,#1281,#1282));
#1284=FACE_BOUND('',#1283,.T.);
#1285=ADVANCED_FACE('',(#1284),#1252,.F.);
#1286=CARTESIAN_POINT('',(-0.,0.,13.));
#1287=DIRECTION('',(0.,0.,-1.));
#1288=DIRECTION('',(-1.,0.,-0.));
#1289=AXIS2_PLACEMENT_3D('',#1286,#1287,#1288);
#1290=PLANE('',#1289);
#1291=ORIENTED_EDGE('',*,*,#1279,.T.);
#1292=CARTESIAN_POINT('',(6.2225,92.464676113,13.));
#1293=DIRECTION('',(-0.,1.,0.));
#1294=VECTOR('',#1293,3.0793);
#1295=LINE('',#1292,#1294);
#1296=EDGE_CURVE('',#1267,#946,#1295,.T.);
#1297=ORIENTED_EDGE('',*,*,#1296,.T.);
#1298=ORIENTED_EDGE('',*,*,#951,.F.);
#1299=CARTESIAN_POINT('',(58.5,92.543976113,13.));
#1300=VERTEX_POINT('',#1299);
#1301=CARTESIAN_POINT('',(58.5,95.543976113,13.));
#1302=DIRECTION('',(0.,-1.,-0.));
#1303=VECTOR('',#1302,3.);
#1304=LINE('',#1301,#1303);
#1305=EDGE_CURVE('',#937,#1300,#1304,.T.);
#1306=ORIENTED_EDGE('',*,*,#1305,.T.);
#1307=CARTESIAN_POINT('',(58.5,92.543976113,13.));
#1308=DIRECTION('',(1.,0.,0.));
#1309=VECTOR('',#1308,8.5);
#1310=LINE('',#1307,#1309);
#1311=EDGE_CURVE('',#1300,#450,#1310,.T.);
#1312=ORIENTED_EDGE('',*,*,#1311,.T.);
#1313=ORIENTED_EDGE('',*,*,#455,.F.);
#1314=EDGE_LOOP('',(#1291,#1297,#1298,#1306,#1312,#1313));
#1315=FACE_BOUND('',#1314,.T.);
#1316=ADVANCED_FACE('',(#1315),#1290,.T.);
#1317=CARTESIAN_POINT('',(175.35875,95.544,-3.));
#1318=DIRECTION('',(0.,-1.,0.));
#1319=DIRECTION('',(-1.,-0.,-0.));
#1320=AXIS2_PLACEMENT_3D('',#1317,#1318,#1319);
#1321=PLANE('',#1320);
#1322=ORIENTED_EDGE('',*,*,#999,.F.);
#1323=CARTESIAN_POINT('',(174.9975,95.544,-6.));
#1324=VERTEX_POINT('',#1323);
#1325=CARTESIAN_POINT('',(174.9975,95.544,-3.));
#1326=DIRECTION('',(-0.,1.,-0.));
#1327=DIRECTION('',(1.,0.,0.));
#1328=AXIS2_PLACEMENT_3D('',#1325,#1326,#1327);
#1329=CIRCLE('',#1328,3.);
#1330=EDGE_CURVE('',#538,#1324,#1329,.T.);
#1331=ORIENTED_EDGE('',*,*,#1330,.T.);
#1332=CARTESIAN_POINT('',(-2.2775,95.544,-6.));
#1333=VERTEX_POINT('',#1332);
#1334=CARTESIAN_POINT('',(174.9975,95.544,-6.));
#1335=DIRECTION('',(-1.,-0.,-0.));
#1336=VECTOR('',#1335,177.275);
#1337=LINE('',#1334,#1336);
#1338=EDGE_CURVE('',#1324,#1333,#1337,.T.);
#1339=ORIENTED_EDGE('',*,*,#1338,.T.);
#1340=CARTESIAN_POINT('',(-2.2775,95.544,-3.));
#1341=DIRECTION('',(-0.,1.,-0.));
#1342=DIRECTION('',(-1.,-0.,0.));
#1343=AXIS2_PLACEMENT_3D('',#1340,#1341,#1342);
#1344=CIRCLE('',#1343,3.);
#1345=EDGE_CURVE('',#1333,#287,#1344,.T.);
#1346=ORIENTED_EDGE('',*,*,#1345,.T.);
#1347=ORIENTED_EDGE('',*,*,#988,.F.);
#1348=ORIENTED_EDGE('',*,*,#982,.F.);
#1349=ORIENTED_EDGE('',*,*,#974,.F.);
#1350=ORIENTED_EDGE('',*,*,#100,.F.);
#1351=ORIENTED_EDGE('',*,*,#917,.F.);
#1352=ORIENTED_EDGE('',*,*,#1137,.T.);
#1353=ORIENTED_EDGE('',*,*,#68,.F.);
#1354=ORIENTED_EDGE('',*,*,#1073,.F.);
#1355=ORIENTED_EDGE('',*,*,#1067,.F.);
#1356=ORIENTED_EDGE('',*,*,#172,.F.);
#1357=ORIENTED_EDGE('',*,*,#1037,.F.);
#1358=ORIENTED_EDGE('',*,*,#1031,.F.);
#1359=ORIENTED_EDGE('',*,*,#1023,.T.);
#1360=ORIENTED_EDGE('',*,*,#1015,.F.);
#1361=ORIENTED_EDGE('',*,*,#1007,.T.);
#1362=EDGE_LOOP('',(#1322,#1331,#1339,#1346,#1347,#1348,#1349,#1350,#1351,#1352,#1353,#1354,#1355,#1356,#1357,#1358,#1359,#1360,#1361));
#1363=FACE_BOUND('',#1362,.T.);
#1364=ADVANCED_FACE('',(#1363),#1321,.F.);
#1365=CARTESIAN_POINT('',(-2.2775,-15.04925,-3.));
#1366=DIRECTION('',(0.,-1.,0.));
#1367=DIRECTION('',(1.,0.,0.));
#1368=AXIS2_PLACEMENT_3D('',#1365,#1366,#1367);
#1369=CYLINDRICAL_SURFACE('',#1368,3.);
#1370=CARTESIAN_POINT('',(-2.2775,-28.7425,-6.));
#1371=VERTEX_POINT('',#1370);
#1372=CARTESIAN_POINT('',(-2.2775,-28.7425,-3.));
#1373=DIRECTION('',(0.707106781,-0.707106781,0.));
#1374=DIRECTION('',(-0.707106781,-0.707106781,-0.));
#1375=AXIS2_PLACEMENT_3D('',#1372,#1373,#1374);
#1376=ELLIPSE('',#1375,4.242640687,3.);
#1377=EDGE_CURVE('',#285,#1371,#1376,.T.);
#1378=ORIENTED_EDGE('',*,*,#1377,.F.);
#1379=ORIENTED_EDGE('',*,*,#292,.T.);
#1380=ORIENTED_EDGE('',*,*,#1345,.F.);
#1381=CARTESIAN_POINT('',(-2.2775,-28.7425,-6.));
#1382=DIRECTION('',(-0.,1.,-0.));
#1383=VECTOR('',#1382,124.2865);
#1384=LINE('',#1381,#1383);
#1385=EDGE_CURVE('',#1371,#1333,#1384,.T.);
#1386=ORIENTED_EDGE('',*,*,#1385,.F.);
#1387=EDGE_LOOP('',(#1378,#1379,#1380,#1386));
#1388=FACE_BOUND('',#1387,.T.);
#1389=ADVANCED_FACE('',(#1388),#1369,.T.);
#1390=CARTESIAN_POINT('',(86.36,-28.7425,-3.));
#1391=DIRECTION('',(1.,0.,0.));
#1392=DIRECTION('',(0.,0.,-1.));
#1393=AXIS2_PLACEMENT_3D('',#1390,#1391,#1392);
#1394=CYLINDRICAL_SURFACE('',#1393,3.);
#1395=ORIENTED_EDGE('',*,*,#1377,.T.);
#1396=CARTESIAN_POINT('',(174.9975,-28.7425,-6.));
#1397=VERTEX_POINT('',#1396);
#1398=CARTESIAN_POINT('',(174.9975,-28.7425,-6.));
#1399=DIRECTION('',(-1.,-0.,-0.));
#1400=VECTOR('',#1399,177.275);
#1401=LINE('',#1398,#1400);
#1402=EDGE_CURVE('',#1397,#1371,#1401,.T.);
#1403=ORIENTED_EDGE('',*,*,#1402,.F.);
#1404=CARTESIAN_POINT('',(174.9975,-28.7425,-3.));
#1405=DIRECTION('',(0.707106781,0.707106781,0.));
#1406=DIRECTION('',(0.707106781,-0.707106781,0.));
#1407=AXIS2_PLACEMENT_3D('',#1404,#1405,#1406);
#1408=ELLIPSE('',#1407,4.242640687,3.);
#1409=EDGE_CURVE('',#530,#1397,#1408,.T.);
#1410=ORIENTED_EDGE('',*,*,#1409,.F.);
#1411=ORIENTED_EDGE('',*,*,#773,.F.);
#1412=EDGE_LOOP('',(#1395,#1403,#1410,#1411));
#1413=FACE_BOUND('',#1412,.T.);
#1414=ADVANCED_FACE('',(#1413),#1394,.T.);
#1415=CARTESIAN_POINT('',(174.9975,-15.04925,-3.));
#1416=DIRECTION('',(-0.,1.,-0.));
#1417=DIRECTION('',(-1.,-0.,0.));
#1418=AXIS2_PLACEMENT_3D('',#1415,#1416,#1417);
#1419=CYLINDRICAL_SURFACE('',#1418,3.);
#1420=ORIENTED_EDGE('',*,*,#1409,.T.);
#1421=CARTESIAN_POINT('',(174.9975,95.544,-6.));
#1422=DIRECTION('',(0.,-1.,0.));
#1423=VECTOR('',#1422,124.2865);
#1424=LINE('',#1421,#1423);
#1425=EDGE_CURVE('',#1324,#1397,#1424,.T.);
#1426=ORIENTED_EDGE('',*,*,#1425,.F.);
#1427=ORIENTED_EDGE('',*,*,#1330,.F.);
#1428=ORIENTED_EDGE('',*,*,#543,.F.);
#1429=EDGE_LOOP('',(#1420,#1426,#1427,#1428));
#1430=FACE_BOUND('',#1429,.T.);
#1431=ADVANCED_FACE('',(#1430),#1419,.T.);
#1432=CARTESIAN_POINT('',(3.048,87.496,-6.));
#1433=DIRECTION('',(-0.,0.,1.));
#1434=DIRECTION('',(-1.,-0.,-0.));
#1435=AXIS2_PLACEMENT_3D('',#1432,#1433,#1434);
#1436=CYLINDRICAL_SURFACE('',#1435,1.6);
#1437=CARTESIAN_POINT('',(1.448,87.496,-6.));
#1438=VERTEX_POINT('',#1437);
#1439=CARTESIAN_POINT('',(1.448,87.496,-3.));
#1440=DIRECTION('',(0.,-0.,-1.));
#1441=VECTOR('',#1440,3.);
#1442=LINE('',#1439,#1441);
#1443=EDGE_CURVE('',#221,#1438,#1442,.T.);
#1444=ORIENTED_EDGE('',*,*,#1443,.F.);
#1445=ORIENTED_EDGE('',*,*,#227,.F.);
#1446=ORIENTED_EDGE('',*,*,#234,.F.);
#1447=ORIENTED_EDGE('',*,*,#1443,.T.);
#1448=CARTESIAN_POINT('',(3.048,87.496,-6.));
#1449=DIRECTION('',(0.,-0.,-1.));
#1450=DIRECTION('',(-1.,-0.,-0.));
#1451=AXIS2_PLACEMENT_3D('',#1448,#1449,#1450);
#1452=CIRCLE('',#1451,1.6);
#1453=EDGE_CURVE('',#1438,#1438,#1452,.T.);
#1454=ORIENTED_EDGE('',*,*,#1453,.T.);
#1455=EDGE_LOOP('',(#1444,#1445,#1446,#1447,#1454));
#1456=FACE_BOUND('',#1455,.T.);
#1457=ADVANCED_FACE('',(#1456),#1436,.F.);
#1458=CARTESIAN_POINT('',(3.048,14.598,-6.));
#1459=DIRECTION('',(-0.,0.,1.));
#1460=DIRECTION('',(-1.,-0.,-0.));
#1461=AXIS2_PLACEMENT_3D('',#1458,#1459,#1460);
#1462=CYLINDRICAL_SURFACE('',#1461,1.6);
#1463=CARTESIAN_POINT('',(1.448,14.598,-6.));
#1464=VERTEX_POINT('',#1463);
#1465=CARTESIAN_POINT('',(1.448,14.598,-3.));
#1466=DIRECTION('',(0.,-0.,-1.));
#1467=VECTOR('',#1466,3.);
#1468=LINE('',#1465,#1467);
#1469=EDGE_CURVE('',#201,#1464,#1468,.T.);
#1470=ORIENTED_EDGE('',*,*,#1469,.F.);
#1471=ORIENTED_EDGE('',*,*,#207,.F.);
#1472=ORIENTED_EDGE('',*,*,#214,.F.);
#1473=ORIENTED_EDGE('',*,*,#1469,.T.);
#1474=CARTESIAN_POINT('',(3.048,14.598,-6.));
#1475=DIRECTION('',(0.,-0.,-1.));
#1476=DIRECTION('',(-1.,-0.,-0.));
#1477=AXIS2_PLACEMENT_3D('',#1474,#1475,#1476);
#1478=CIRCLE('',#1477,1.6);
#1479=EDGE_CURVE('',#1464,#1464,#1478,.T.);
#1480=ORIENTED_EDGE('',*,*,#1479,.T.);
#1481=EDGE_LOOP('',(#1470,#1471,#1472,#1473,#1480));
#1482=FACE_BOUND('',#1481,.T.);
#1483=ADVANCED_FACE('',(#1482),#1462,.F.);
#1484=CARTESIAN_POINT('',(169.672,87.496,-6.));
#1485=DIRECTION('',(-0.,0.,1.));
#1486=DIRECTION('',(-1.,-0.,-0.));
#1487=AXIS2_PLACEMENT_3D('',#1484,#1485,#1486);
#1488=CYLINDRICAL_SURFACE('',#1487,1.6);
#1489=CARTESIAN_POINT('',(168.072,87.496,-6.));
#1490=VERTEX_POINT('',#1489);
#1491=CARTESIAN_POINT('',(168.072,87.496,-3.));
#1492=DIRECTION('',(0.,-0.,-1.));
#1493=VECTOR('',#1492,3.);
#1494=LINE('',#1491,#1493);
#1495=EDGE_CURVE('',#239,#1490,#1494,.T.);
#1496=ORIENTED_EDGE('',*,*,#1495,.F.);
#1497=ORIENTED_EDGE('',*,*,#247,.T.);
#1498=ORIENTED_EDGE('',*,*,#254,.T.);
#1499=ORIENTED_EDGE('',*,*,#1495,.T.);
#1500=CARTESIAN_POINT('',(169.672,87.496,-6.));
#1501=DIRECTION('',(0.,-0.,-1.));
#1502=DIRECTION('',(-1.,-0.,-0.));
#1503=AXIS2_PLACEMENT_3D('',#1500,#1501,#1502);
#1504=CIRCLE('',#1503,1.6);
#1505=EDGE_CURVE('',#1490,#1490,#1504,.T.);
#1506=ORIENTED_EDGE('',*,*,#1505,.T.);
#1507=EDGE_LOOP('',(#1496,#1497,#1498,#1499,#1506));
#1508=FACE_BOUND('',#1507,.T.);
#1509=ADVANCED_FACE('',(#1508),#1488,.F.);
#1510=CARTESIAN_POINT('',(169.672,14.598,-6.));
#1511=DIRECTION('',(-0.,0.,1.));
#1512=DIRECTION('',(-1.,-0.,-0.));
#1513=AXIS2_PLACEMENT_3D('',#1510,#1511,#1512);
#1514=CYLINDRICAL_SURFACE('',#1513,1.6);
#1515=CARTESIAN_POINT('',(168.072,14.598,-6.));
#1516=VERTEX_POINT('',#1515);
#1517=CARTESIAN_POINT('',(168.072,14.598,-3.));
#1518=DIRECTION('',(0.,-0.,-1.));
#1519=VECTOR('',#1518,3.);
#1520=LINE('',#1517,#1519);
#1521=EDGE_CURVE('',#261,#1516,#1520,.T.);
#1522=ORIENTED_EDGE('',*,*,#1521,.F.);
#1523=ORIENTED_EDGE('',*,*,#267,.F.);
#1524=ORIENTED_EDGE('',*,*,#274,.F.);
#1525=ORIENTED_EDGE('',*,*,#1521,.T.);
#1526=CARTESIAN_POINT('',(169.672,14.598,-6.));
#1527=DIRECTION('',(0.,-0.,-1.));
#1528=DIRECTION('',(-1.,-0.,-0.));
#1529=AXIS2_PLACEMENT_3D('',#1526,#1527,#1528);
#1530=CIRCLE('',#1529,1.6);
#1531=EDGE_CURVE('',#1516,#1516,#1530,.T.);
#1532=ORIENTED_EDGE('',*,*,#1531,.T.);
#1533=EDGE_LOOP('',(#1522,#1523,#1524,#1525,#1532));
#1534=FACE_BOUND('',#1533,.T.);
#1535=ADVANCED_FACE('',(#1534),#1514,.F.);
#1536=CARTESIAN_POINT('',(163.,92.543976113,5.));
#1537=DIRECTION('',(1.,0.,-0.));
#1538=DIRECTION('',(-0.,1.,0.));
#1539=AXIS2_PLACEMENT_3D('',#1536,#1537,#1538);
#1540=PLANE('',#1539);
#1541=ORIENTED_EDGE('',*,*,#1045,.T.);
#1542=ORIENTED_EDGE('',*,*,#164,.F.);
#1543=CARTESIAN_POINT('',(163.,92.543976113,8.));
#1544=VERTEX_POINT('',#1543);
#1545=CARTESIAN_POINT('',(163.,92.543976113,8.));
#1546=DIRECTION('',(0.,-0.,-1.));
#1547=VECTOR('',#1546,11.);
#1548=LINE('',#1545,#1547);
#1549=EDGE_CURVE('',#1544,#151,#1548,.T.);
#1550=ORIENTED_EDGE('',*,*,#1549,.F.);
#1551=CARTESIAN_POINT('',(163.,92.543976113,8.));
#1552=DIRECTION('',(-0.,1.,-0.));
#1553=VECTOR('',#1552,3.);
#1554=LINE('',#1551,#1553);
#1555=EDGE_CURVE('',#1544,#1040,#1554,.T.);
#1556=ORIENTED_EDGE('',*,*,#1555,.T.);
#1557=EDGE_LOOP('',(#1541,#1542,#1550,#1556));
#1558=FACE_BOUND('',#1557,.T.);
#1559=ADVANCED_FACE('',(#1558),#1540,.F.);
#1560=CARTESIAN_POINT('',(158.,92.543976113,8.));
#1561=DIRECTION('',(0.,0.,-1.));
#1562=DIRECTION('',(-1.,0.,-0.));
#1563=AXIS2_PLACEMENT_3D('',#1560,#1561,#1562);
#1564=PLANE('',#1563);
#1565=ORIENTED_EDGE('',*,*,#1053,.F.);
#1566=ORIENTED_EDGE('',*,*,#1555,.F.);
#1567=CARTESIAN_POINT('',(152.,92.543976113,8.));
#1568=VERTEX_POINT('',#1567);
#1569=CARTESIAN_POINT('',(163.,92.543976113,8.));
#1570=DIRECTION('',(-1.,-0.,-0.));
#1571=VECTOR('',#1570,11.);
#1572=LINE('',#1569,#1571);
#1573=EDGE_CURVE('',#1544,#1568,#1572,.T.);
#1574=ORIENTED_EDGE('',*,*,#1573,.T.);
#1575=CARTESIAN_POINT('',(152.,92.543976113,8.));
#1576=DIRECTION('',(-0.,1.,-0.));
#1577=VECTOR('',#1576,3.);
#1578=LINE('',#1575,#1577);
#1579=EDGE_CURVE('',#1568,#1048,#1578,.T.);
#1580=ORIENTED_EDGE('',*,*,#1579,.T.);
#1581=EDGE_LOOP('',(#1565,#1566,#1574,#1580));
#1582=FACE_BOUND('',#1581,.T.);
#1583=ADVANCED_FACE('',(#1582),#1564,.T.);
#1584=CARTESIAN_POINT('',(152.,92.543976113,12.));
#1585=DIRECTION('',(-1.,-0.,0.));
#1586=DIRECTION('',(0.,-1.,0.));
#1587=AXIS2_PLACEMENT_3D('',#1584,#1585,#1586);
#1588=PLANE('',#1587);
#1589=ORIENTED_EDGE('',*,*,#1059,.T.);
#1590=ORIENTED_EDGE('',*,*,#1579,.F.);
#1591=CARTESIAN_POINT('',(152.,92.543976113,-3.));
#1592=DIRECTION('',(-0.,0.,1.));
#1593=VECTOR('',#1592,11.);
#1594=LINE('',#1591,#1593);
#1595=EDGE_CURVE('',#175,#1568,#1594,.T.);
#1596=ORIENTED_EDGE('',*,*,#1595,.F.);
#1597=ORIENTED_EDGE('',*,*,#180,.T.);
#1598=EDGE_LOOP('',(#1589,#1590,#1596,#1597));
#1599=FACE_BOUND('',#1598,.T.);
#1600=ADVANCED_FACE('',(#1599),#1588,.F.);
#1601=CARTESIAN_POINT('',(136.,92.543976113,10.5));
#1602=DIRECTION('',(1.,0.,-0.));
#1603=DIRECTION('',(-0.,1.,0.));
#1604=AXIS2_PLACEMENT_3D('',#1601,#1602,#1603);
#1605=PLANE('',#1604);
#1606=CARTESIAN_POINT('',(136.,92.543976113,5.5));
#1607=VERTEX_POINT('',#1606);
#1608=CARTESIAN_POINT('',(136.,92.543976113,-1.5));
#1609=VERTEX_POINT('',#1608);
#1610=CARTESIAN_POINT('',(136.,92.543976113,5.5));
#1611=DIRECTION('',(0.,-0.,-1.));
#1612=VECTOR('',#1611,7.);
#1613=LINE('',#1610,#1612);
#1614=EDGE_CURVE('',#1607,#1609,#1613,.T.);
#1615=ORIENTED_EDGE('',*,*,#1614,.F.);
#1616=CARTESIAN_POINT('',(136.,92.543976113,5.5));
#1617=DIRECTION('',(-0.,1.,-0.));
#1618=VECTOR('',#1617,3.);
#1619=LINE('',#1616,#1618);
#1620=EDGE_CURVE('',#1607,#1085,#1619,.T.);
#1621=ORIENTED_EDGE('',*,*,#1620,.T.);
#1622=ORIENTED_EDGE('',*,*,#1090,.T.);
#1623=CARTESIAN_POINT('',(136.,95.543976113,-1.5));
#1624=DIRECTION('',(0.,-1.,0.));
#1625=VECTOR('',#1624,3.);
#1626=LINE('',#1623,#1625);
#1627=EDGE_CURVE('',#1076,#1609,#1626,.T.);
#1628=ORIENTED_EDGE('',*,*,#1627,.T.);
#1629=EDGE_LOOP('',(#1615,#1621,#1622,#1628));
#1630=FACE_BOUND('',#1629,.T.);
#1631=ADVANCED_FACE('',(#1630),#1605,.F.);
#1632=CARTESIAN_POINT('',(78.43,92.543976113,7.));
#1633=DIRECTION('',(0.,-0.,-1.));
#1634=DIRECTION('',(0.,1.,-0.));
#1635=AXIS2_PLACEMENT_3D('',#1632,#1633,#1634);
#1636=PLANE('',#1635);
#1637=CARTESIAN_POINT('',(134.5,92.543976113,7.));
#1638=VERTEX_POINT('',#1637);
#1639=CARTESIAN_POINT('',(91.36,92.543976113,7.));
#1640=VERTEX_POINT('',#1639);
#1641=CARTESIAN_POINT('',(134.5,92.543976113,7.));
#1642=DIRECTION('',(-1.,-0.,0.));
#1643=VECTOR('',#1642,43.14);
#1644=LINE('',#1641,#1643);
#1645=EDGE_CURVE('',#1638,#1640,#1644,.T.);
#1646=ORIENTED_EDGE('',*,*,#1645,.T.);
#1647=CARTESIAN_POINT('',(91.36,92.543976113,7.));
#1648=DIRECTION('',(-0.,1.,-0.));
#1649=VECTOR('',#1648,3.);
#1650=LINE('',#1647,#1649);
#1651=EDGE_CURVE('',#1640,#1102,#1650,.T.);
#1652=ORIENTED_EDGE('',*,*,#1651,.T.);
#1653=ORIENTED_EDGE('',*,*,#1107,.F.);
#1654=CARTESIAN_POINT('',(134.5,95.543976113,7.));
#1655=DIRECTION('',(0.,-1.,0.));
#1656=VECTOR('',#1655,3.);
#1657=LINE('',#1654,#1656);
#1658=EDGE_CURVE('',#1093,#1638,#1657,.T.);
#1659=ORIENTED_EDGE('',*,*,#1658,.T.);
#1660=EDGE_LOOP('',(#1646,#1652,#1653,#1659));
#1661=FACE_BOUND('',#1660,.T.);
#1662=ADVANCED_FACE('',(#1661),#1636,.T.);
#1663=CARTESIAN_POINT('',(89.86,92.543976113,3.5));
#1664=DIRECTION('',(-1.,-0.,0.));
#1665=DIRECTION('',(0.,-1.,0.));
#1666=AXIS2_PLACEMENT_3D('',#1663,#1664,#1665);
#1667=PLANE('',#1666);
#1668=ORIENTED_EDGE('',*,*,#1124,.T.);
#1669=CARTESIAN_POINT('',(89.86,92.543976113,5.5));
#1670=VERTEX_POINT('',#1669);
#1671=CARTESIAN_POINT('',(89.86,95.543976113,5.5));
#1672=DIRECTION('',(0.,-1.,0.));
#1673=VECTOR('',#1672,3.);
#1674=LINE('',#1671,#1673);
#1675=EDGE_CURVE('',#1110,#1670,#1674,.T.);
#1676=ORIENTED_EDGE('',*,*,#1675,.T.);
#1677=CARTESIAN_POINT('',(89.86,92.543976113,-1.5));
#1678=VERTEX_POINT('',#1677);
#1679=CARTESIAN_POINT('',(89.86,92.543976113,-1.5));
#1680=DIRECTION('',(-0.,0.,1.));
#1681=VECTOR('',#1680,7.);
#1682=LINE('',#1679,#1681);
#1683=EDGE_CURVE('',#1678,#1670,#1682,.T.);
#1684=ORIENTED_EDGE('',*,*,#1683,.F.);
#1685=CARTESIAN_POINT('',(89.86,92.543976113,-1.5));
#1686=DIRECTION('',(-0.,1.,-0.));
#1687=VECTOR('',#1686,3.);
#1688=LINE('',#1685,#1687);
#1689=EDGE_CURVE('',#1678,#1119,#1688,.T.);
#1690=ORIENTED_EDGE('',*,*,#1689,.T.);
#1691=EDGE_LOOP('',(#1668,#1676,#1684,#1690));
#1692=FACE_BOUND('',#1691,.T.);
#1693=ADVANCED_FACE('',(#1692),#1667,.F.);
#1694=CARTESIAN_POINT('',(60.,92.543976113,6.));
#1695=DIRECTION('',(-1.,-0.,0.));
#1696=DIRECTION('',(0.,-1.,0.));
#1697=AXIS2_PLACEMENT_3D('',#1694,#1695,#1696);
#1698=PLANE('',#1697);
#1699=ORIENTED_EDGE('',*,*,#934,.F.);
#1700=CARTESIAN_POINT('',(60.,92.543976113,-1.5));
#1701=VERTEX_POINT('',#1700);
#1702=CARTESIAN_POINT('',(60.,95.543976113,-1.5));
#1703=DIRECTION('',(0.,-1.,-0.));
#1704=VECTOR('',#1703,3.);
#1705=LINE('',#1702,#1704);
#1706=EDGE_CURVE('',#920,#1701,#1705,.T.);
#1707=ORIENTED_EDGE('',*,*,#1706,.T.);
#1708=CARTESIAN_POINT('',(60.,92.543976113,11.5));
#1709=VERTEX_POINT('',#1708);
#1710=CARTESIAN_POINT('',(60.,92.543976113,-1.5));
#1711=DIRECTION('',(-0.,0.,1.));
#1712=VECTOR('',#1711,13.);
#1713=LINE('',#1710,#1712);
#1714=EDGE_CURVE('',#1701,#1709,#1713,.T.);
#1715=ORIENTED_EDGE('',*,*,#1714,.T.);
#1716=CARTESIAN_POINT('',(60.,92.543976113,11.5));
#1717=DIRECTION('',(-0.,1.,0.));
#1718=VECTOR('',#1717,3.);
#1719=LINE('',#1716,#1718);
#1720=EDGE_CURVE('',#1709,#929,#1719,.T.);
#1721=ORIENTED_EDGE('',*,*,#1720,.T.);
#1722=EDGE_LOOP('',(#1699,#1707,#1715,#1721));
#1723=FACE_BOUND('',#1722,.T.);
#1724=ADVANCED_FACE('',(#1723),#1698,.T.);
#1725=CARTESIAN_POINT('',(-0.,92.543976113,-0.));
#1726=DIRECTION('',(-0.,1.,-0.));
#1727=DIRECTION('',(-0.,0.,1.));
#1728=AXIS2_PLACEMENT_3D('',#1725,#1726,#1727);
#1729=PLANE('',#1728);
#1730=ORIENTED_EDGE('',*,*,#1311,.F.);
#1731=CARTESIAN_POINT('',(58.5,92.543976113,11.5));
#1732=DIRECTION('',(-0.,1.,-0.));
#1733=DIRECTION('',(-1.,-0.,0.));
#1734=AXIS2_PLACEMENT_3D('',#1731,#1732,#1733);
#1735=CIRCLE('',#1734,1.5);
#1736=EDGE_CURVE('',#1300,#1709,#1735,.T.);
#1737=ORIENTED_EDGE('',*,*,#1736,.T.);
#1738=ORIENTED_EDGE('',*,*,#1714,.F.);
#1739=CARTESIAN_POINT('',(58.5,92.543976113,-1.5));
#1740=DIRECTION('',(-0.,1.,-0.));
#1741=DIRECTION('',(-1.,-0.,0.));
#1742=AXIS2_PLACEMENT_3D('',#1739,#1740,#1741);
#1743=CIRCLE('',#1742,1.5);
#1744=EDGE_CURVE('',#1701,#79,#1743,.T.);
#1745=ORIENTED_EDGE('',*,*,#1744,.T.);
#1746=ORIENTED_EDGE('',*,*,#84,.T.);
#1747=CARTESIAN_POINT('',(91.36,92.543976113,-1.5));
#1748=DIRECTION('',(-0.,1.,-0.));
#1749=DIRECTION('',(-1.,-0.,0.));
#1750=AXIS2_PLACEMENT_3D('',#1747,#1748,#1749);
#1751=CIRCLE('',#1750,1.5);
#1752=EDGE_CURVE('',#71,#1678,#1751,.T.);
#1753=ORIENTED_EDGE('',*,*,#1752,.T.);
#1754=ORIENTED_EDGE('',*,*,#1683,.T.);
#1755=CARTESIAN_POINT('',(91.36,92.543976113,5.5));
#1756=DIRECTION('',(-0.,1.,-0.));
#1757=DIRECTION('',(-1.,-0.,0.));
#1758=AXIS2_PLACEMENT_3D('',#1755,#1756,#1757);
#1759=CIRCLE('',#1758,1.5);
#1760=EDGE_CURVE('',#1670,#1640,#1759,.T.);
#1761=ORIENTED_EDGE('',*,*,#1760,.T.);
#1762=ORIENTED_EDGE('',*,*,#1645,.F.);
#1763=CARTESIAN_POINT('',(134.5,92.543976113,5.5));
#1764=DIRECTION('',(-0.,1.,-0.));
#1765=DIRECTION('',(-1.,-0.,0.));
#1766=AXIS2_PLACEMENT_3D('',#1763,#1764,#1765);
#1767=CIRCLE('',#1766,1.5);
#1768=EDGE_CURVE('',#1638,#1607,#1767,.T.);
#1769=ORIENTED_EDGE('',*,*,#1768,.T.);
#1770=ORIENTED_EDGE('',*,*,#1614,.T.);
#1771=CARTESIAN_POINT('',(134.5,92.543976113,-1.5));
#1772=DIRECTION('',(-0.,1.,-0.));
#1773=DIRECTION('',(-1.,-0.,0.));
#1774=AXIS2_PLACEMENT_3D('',#1771,#1772,#1773);
#1775=CIRCLE('',#1774,1.5);
#1776=EDGE_CURVE('',#1609,#183,#1775,.T.);
#1777=ORIENTED_EDGE('',*,*,#1776,.T.);
#1778=ORIENTED_EDGE('',*,*,#188,.F.);
#1779=ORIENTED_EDGE('',*,*,#1595,.T.);
#1780=ORIENTED_EDGE('',*,*,#1573,.F.);
#1781=ORIENTED_EDGE('',*,*,#1549,.T.);
#1782=ORIENTED_EDGE('',*,*,#156,.T.);
#1783=ORIENTED_EDGE('',*,*,#573,.T.);
#1784=ORIENTED_EDGE('',*,*,#1236,.F.);
#1785=ORIENTED_EDGE('',*,*,#463,.F.);
#1786=EDGE_LOOP('',(#1730,#1737,#1738,#1745,#1746,#1753,#1754,#1761,#1762,#1769,#1770,#1777,#1778,#1779,#1780,#1781,#1782,#1783,#1784,#1785));
#1787=FACE_BOUND('',#1786,.T.);
#1788=ADVANCED_FACE('',(#1787),#1729,.F.);
#1789=CARTESIAN_POINT('',(0.,90.544,-6.));
#1790=DIRECTION('',(-0.,0.,1.));
#1791=DIRECTION('',(-1.,-0.,-0.));
#1792=AXIS2_PLACEMENT_3D('',#1789,#1790,#1791);
#1793=PLANE('',#1792);
#1794=ORIENTED_EDGE('',*,*,#1385,.T.);
#1795=ORIENTED_EDGE('',*,*,#1338,.F.);
#1796=ORIENTED_EDGE('',*,*,#1425,.T.);
#1797=ORIENTED_EDGE('',*,*,#1402,.T.);
#1798=EDGE_LOOP('',(#1794,#1795,#1796,#1797));
#1799=FACE_BOUND('',#1798,.T.);
#1800=ORIENTED_EDGE('',*,*,#1531,.F.);
#1801=EDGE_LOOP('',(#1800));
#1802=FACE_BOUND('',#1801,.T.);
#1803=ORIENTED_EDGE('',*,*,#1505,.F.);
#1804=EDGE_LOOP('',(#1803));
#1805=FACE_BOUND('',#1804,.T.);
#1806=ORIENTED_EDGE('',*,*,#1479,.F.);
#1807=EDGE_LOOP('',(#1806));
#1808=FACE_BOUND('',#1807,.T.);
#1809=ORIENTED_EDGE('',*,*,#1453,.F.);
#1810=EDGE_LOOP('',(#1809));
#1811=FACE_BOUND('',#1810,.T.);
#1812=ADVANCED_FACE('',(#1799,#1802,#1805,#1808,#1811),#1793,.F.);
#1813=CARTESIAN_POINT('',(0.,0.,-1.494287));
#1814=DIRECTION('',(0.,0.,1.));
#1815=DIRECTION('',(1.,0.,0.));
#1816=AXIS2_PLACEMENT_3D('',#1813,#1814,#1815);
#1817=PLANE('',#1816);
#1818=ORIENTED_EDGE('',*,*,#675,.T.);
#1819=CARTESIAN_POINT('',(-2.2775,57.868,-1.494287));
#1820=DIRECTION('',(-1.,-0.,0.));
#1821=VECTOR('',#1820,3.);
#1822=LINE('',#1819,#1821);
#1823=EDGE_CURVE('',#670,#319,#1822,.T.);
#1824=ORIENTED_EDGE('',*,*,#1823,.T.);
#1825=ORIENTED_EDGE('',*,*,#326,.T.);
#1826=CARTESIAN_POINT('',(-5.2775,18.3525,-1.494287));
#1827=DIRECTION('',(1.,0.,0.));
#1828=VECTOR('',#1827,3.);
#1829=LINE('',#1826,#1828);
#1830=EDGE_CURVE('',#321,#668,#1829,.T.);
#1831=ORIENTED_EDGE('',*,*,#1830,.T.);
#1832=EDGE_LOOP('',(#1818,#1824,#1825,#1831));
#1833=FACE_BOUND('',#1832,.T.);
#1834=ADVANCED_FACE('',(#1833),#1817,.T.);
#1835=CARTESIAN_POINT('',(-0.,57.868,0.005713));
#1836=DIRECTION('',(1.,0.,0.));
#1837=DIRECTION('',(-0.,1.,0.));
#1838=AXIS2_PLACEMENT_3D('',#1835,#1836,#1837);
#1839=CYLINDRICAL_SURFACE('',#1838,1.5);
#1840=ORIENTED_EDGE('',*,*,#733,.F.);
#1841=ORIENTED_EDGE('',*,*,#1184,.F.);
#1842=ORIENTED_EDGE('',*,*,#335,.F.);
#1843=ORIENTED_EDGE('',*,*,#1823,.F.);
#1844=EDGE_LOOP('',(#1840,#1841,#1842,#1843));
#1845=FACE_BOUND('',#1844,.T.);
#1846=ADVANCED_FACE('',(#1845),#1839,.F.);
#1847=CARTESIAN_POINT('',(-2.2775,18.3525,3.815713));
#1848=DIRECTION('',(1.,0.,0.));
#1849=DIRECTION('',(0.,0.,-1.));
#1850=AXIS2_PLACEMENT_3D('',#1847,#1848,#1849);
#1851=CYLINDRICAL_SURFACE('',#1850,1.5);
#1852=ORIENTED_EDGE('',*,*,#701,.F.);
#1853=ORIENTED_EDGE('',*,*,#862,.F.);
#1854=ORIENTED_EDGE('',*,*,#369,.F.);
#1855=ORIENTED_EDGE('',*,*,#840,.F.);
#1856=EDGE_LOOP('',(#1852,#1853,#1854,#1855));
#1857=FACE_BOUND('',#1856,.T.);
#1858=ADVANCED_FACE('',(#1857),#1851,.F.);
#1859=CARTESIAN_POINT('',(-0.,18.3525,0.005713));
#1860=DIRECTION('',(-1.,-0.,0.));
#1861=DIRECTION('',(0.,-1.,0.));
#1862=AXIS2_PLACEMENT_3D('',#1859,#1860,#1861);
#1863=CYLINDRICAL_SURFACE('',#1862,1.5);
#1864=ORIENTED_EDGE('',*,*,#384,.F.);
#1865=ORIENTED_EDGE('',*,*,#869,.F.);
#1866=ORIENTED_EDGE('',*,*,#684,.F.);
#1867=ORIENTED_EDGE('',*,*,#1830,.F.);
#1868=EDGE_LOOP('',(#1864,#1865,#1866,#1867));
#1869=FACE_BOUND('',#1868,.T.);
#1870=ADVANCED_FACE('',(#1869),#1863,.F.);
#1871=CARTESIAN_POINT('',(-2.2775,57.868,3.815713));
#1872=DIRECTION('',(1.,0.,0.));
#1873=DIRECTION('',(0.,0.,-1.));
#1874=AXIS2_PLACEMENT_3D('',#1871,#1872,#1873);
#1875=CYLINDRICAL_SURFACE('',#1874,1.5);
#1876=ORIENTED_EDGE('',*,*,#718,.F.);
#1877=ORIENTED_EDGE('',*,*,#847,.F.);
#1878=ORIENTED_EDGE('',*,*,#352,.F.);
#1879=ORIENTED_EDGE('',*,*,#1191,.F.);
#1880=EDGE_LOOP('',(#1876,#1877,#1878,#1879));
#1881=FACE_BOUND('',#1880,.T.);
#1882=ADVANCED_FACE('',(#1881),#1875,.F.);
#1883=CARTESIAN_POINT('',(0.,-0.,14.112973136));
#1884=DIRECTION('',(0.,0.,-1.));
#1885=DIRECTION('',(-1.,0.,0.));
#1886=AXIS2_PLACEMENT_3D('',#1883,#1884,#1885);
#1887=PLANE('',#1886);
#1888=ORIENTED_EDGE('',*,*,#622,.T.);
#1889=CARTESIAN_POINT('',(-2.2775,67.145126864,14.112973136));
#1890=DIRECTION('',(-1.,-0.,-0.));
#1891=VECTOR('',#1890,3.);
#1892=LINE('',#1889,#1891);
#1893=EDGE_CURVE('',#617,#389,#1892,.T.);
#1894=ORIENTED_EDGE('',*,*,#1893,.T.);
#1895=ORIENTED_EDGE('',*,*,#396,.T.);
#1896=CARTESIAN_POINT('',(-5.2775,80.100026864,14.112973136));
#1897=DIRECTION('',(1.,0.,0.));
#1898=VECTOR('',#1897,3.);
#1899=LINE('',#1896,#1898);
#1900=EDGE_CURVE('',#391,#615,#1899,.T.);
#1901=ORIENTED_EDGE('',*,*,#1900,.T.);
#1902=EDGE_LOOP('',(#1888,#1894,#1895,#1901));
#1903=FACE_BOUND('',#1902,.T.);
#1904=ADVANCED_FACE('',(#1903),#1887,.T.);
#1905=CARTESIAN_POINT('',(-0.,67.145126864,12.612973136));
#1906=DIRECTION('',(1.,0.,0.));
#1907=DIRECTION('',(-0.,1.,0.));
#1908=AXIS2_PLACEMENT_3D('',#1905,#1906,#1907);
#1909=CYLINDRICAL_SURFACE('',#1908,1.5);
#1910=ORIENTED_EDGE('',*,*,#663,.F.);
#1911=ORIENTED_EDGE('',*,*,#1152,.F.);
#1912=ORIENTED_EDGE('',*,*,#405,.F.);
#1913=ORIENTED_EDGE('',*,*,#1893,.F.);
#1914=EDGE_LOOP('',(#1910,#1911,#1912,#1913));
#1915=FACE_BOUND('',#1914,.T.);
#1916=ADVANCED_FACE('',(#1915),#1909,.F.);
#1917=CARTESIAN_POINT('',(-2.2775,80.100026864,12.612973136));
#1918=DIRECTION('',(1.,0.,0.));
#1919=DIRECTION('',(-0.,1.,0.));
#1920=AXIS2_PLACEMENT_3D('',#1917,#1918,#1919);
#1921=CYLINDRICAL_SURFACE('',#1920,1.5);
#1922=ORIENTED_EDGE('',*,*,#631,.F.);
#1923=ORIENTED_EDGE('',*,*,#1900,.F.);
#1924=ORIENTED_EDGE('',*,*,#437,.F.);
#1925=ORIENTED_EDGE('',*,*,#884,.F.);
#1926=EDGE_LOOP('',(#1922,#1923,#1924,#1925));
#1927=FACE_BOUND('',#1926,.T.);
#1928=ADVANCED_FACE('',(#1927),#1921,.F.);
#1929=CARTESIAN_POINT('',(6.2225,0.,11.5));
#1930=DIRECTION('',(-0.,1.,0.));
#1931=DIRECTION('',(-1.,-0.,0.));
#1932=AXIS2_PLACEMENT_3D('',#1929,#1930,#1931);
#1933=CYLINDRICAL_SURFACE('',#1932,1.5);
#1934=ORIENTED_EDGE('',*,*,#958,.F.);
#1935=ORIENTED_EDGE('',*,*,#1296,.F.);
#1936=ORIENTED_EDGE('',*,*,#1273,.F.);
#1937=ORIENTED_EDGE('',*,*,#503,.F.);
#1938=EDGE_LOOP('',(#1934,#1935,#1936,#1937));
#1939=FACE_BOUND('',#1938,.T.);
#1940=ADVANCED_FACE('',(#1939),#1933,.F.);
#1941=CARTESIAN_POINT('',(58.5,94.004326113,-1.5));
#1942=DIRECTION('',(0.,-1.,-0.));
#1943=DIRECTION('',(1.,0.,0.));
#1944=AXIS2_PLACEMENT_3D('',#1941,#1942,#1943);
#1945=CYLINDRICAL_SURFACE('',#1944,1.5);
#1946=ORIENTED_EDGE('',*,*,#1744,.F.);
#1947=ORIENTED_EDGE('',*,*,#1706,.F.);
#1948=ORIENTED_EDGE('',*,*,#926,.F.);
#1949=ORIENTED_EDGE('',*,*,#92,.F.);
#1950=EDGE_LOOP('',(#1946,#1947,#1948,#1949));
#1951=FACE_BOUND('',#1950,.T.);
#1952=ADVANCED_FACE('',(#1951),#1945,.F.);
#1953=CARTESIAN_POINT('',(6.2225,0.,-1.5));
#1954=DIRECTION('',(0.,-1.,-0.));
#1955=DIRECTION('',(1.,0.,0.));
#1956=AXIS2_PLACEMENT_3D('',#1953,#1954,#1955);
#1957=CYLINDRICAL_SURFACE('',#1956,1.5);
#1958=ORIENTED_EDGE('',*,*,#1263,.F.);
#1959=ORIENTED_EDGE('',*,*,#108,.F.);
#1960=ORIENTED_EDGE('',*,*,#966,.F.);
#1961=ORIENTED_EDGE('',*,*,#517,.F.);
#1962=EDGE_LOOP('',(#1958,#1959,#1960,#1961));
#1963=FACE_BOUND('',#1962,.T.);
#1964=ADVANCED_FACE('',(#1963),#1957,.F.);
#1965=CARTESIAN_POINT('',(58.5,92.543976113,11.5));
#1966=DIRECTION('',(0.,-1.,-0.));
#1967=DIRECTION('',(1.,0.,0.));
#1968=AXIS2_PLACEMENT_3D('',#1965,#1966,#1967);
#1969=CYLINDRICAL_SURFACE('',#1968,1.5);
#1970=ORIENTED_EDGE('',*,*,#1736,.F.);
#1971=ORIENTED_EDGE('',*,*,#1305,.F.);
#1972=ORIENTED_EDGE('',*,*,#943,.F.);
#1973=ORIENTED_EDGE('',*,*,#1720,.F.);
#1974=EDGE_LOOP('',(#1970,#1971,#1972,#1973));
#1975=FACE_BOUND('',#1974,.T.);
#1976=ADVANCED_FACE('',(#1975),#1969,.F.);
#1977=CARTESIAN_POINT('',(91.36,92.543976113,5.5));
#1978=DIRECTION('',(-0.,1.,-0.));
#1979=DIRECTION('',(-1.,-0.,0.));
#1980=AXIS2_PLACEMENT_3D('',#1977,#1978,#1979);
#1981=CYLINDRICAL_SURFACE('',#1980,1.5);
#1982=ORIENTED_EDGE('',*,*,#1760,.F.);
#1983=ORIENTED_EDGE('',*,*,#1675,.F.);
#1984=ORIENTED_EDGE('',*,*,#1116,.F.);
#1985=ORIENTED_EDGE('',*,*,#1651,.F.);
#1986=EDGE_LOOP('',(#1982,#1983,#1984,#1985));
#1987=FACE_BOUND('',#1986,.T.);
#1988=ADVANCED_FACE('',(#1987),#1981,.F.);
#1989=CARTESIAN_POINT('',(134.5,92.543976113,5.5));
#1990=DIRECTION('',(-0.,1.,-0.));
#1991=DIRECTION('',(-1.,-0.,0.));
#1992=AXIS2_PLACEMENT_3D('',#1989,#1990,#1991);
#1993=CYLINDRICAL_SURFACE('',#1992,1.5);
#1994=ORIENTED_EDGE('',*,*,#1768,.F.);
#1995=ORIENTED_EDGE('',*,*,#1658,.F.);
#1996=ORIENTED_EDGE('',*,*,#1099,.F.);
#1997=ORIENTED_EDGE('',*,*,#1620,.F.);
#1998=EDGE_LOOP('',(#1994,#1995,#1996,#1997));
#1999=FACE_BOUND('',#1998,.T.);
#2000=ADVANCED_FACE('',(#1999),#1993,.F.);
#2001=CARTESIAN_POINT('',(91.36,92.543976113,-1.5));
#2002=DIRECTION('',(-0.,1.,-0.));
#2003=DIRECTION('',(-1.,-0.,0.));
#2004=AXIS2_PLACEMENT_3D('',#2001,#2002,#2003);
#2005=CYLINDRICAL_SURFACE('',#2004,1.5);
#2006=ORIENTED_EDGE('',*,*,#1752,.F.);
#2007=ORIENTED_EDGE('',*,*,#76,.F.);
#2008=ORIENTED_EDGE('',*,*,#1131,.F.);
#2009=ORIENTED_EDGE('',*,*,#1689,.F.);
#2010=EDGE_LOOP('',(#2006,#2007,#2008,#2009));
#2011=FACE_BOUND('',#2010,.T.);
#2012=ADVANCED_FACE('',(#2011),#2005,.F.);
#2013=CARTESIAN_POINT('',(134.5,90.544,-1.5));
#2014=DIRECTION('',(-0.,1.,-0.));
#2015=DIRECTION('',(-1.,-0.,0.));
#2016=AXIS2_PLACEMENT_3D('',#2013,#2014,#2015);
#2017=CYLINDRICAL_SURFACE('',#2016,1.5);
#2018=ORIENTED_EDGE('',*,*,#1776,.F.);
#2019=ORIENTED_EDGE('',*,*,#1627,.F.);
#2020=ORIENTED_EDGE('',*,*,#1082,.F.);
#2021=ORIENTED_EDGE('',*,*,#194,.F.);
#2022=EDGE_LOOP('',(#2018,#2019,#2020,#2021));
#2023=FACE_BOUND('',#2022,.T.);
#2024=ADVANCED_FACE('',(#2023),#2017,.F.);
#2025=CLOSED_SHELL('',(#278,#441,#481,#521,#561,#608,#762,#784,#801,#829,#851,#873,#905,#1141,#1173,#1195,#1213,#1225,#1247,#1285,#1316,#1364,#1389,#1414,#1431,#1457,
#1483,#1509,#1535,#1559,#1583,#1600,#1631,#1662,#1693,#1724,#1788,#1812,#1834,#1846,#1858,#1870,#1882,#1904,#1916,#1928,#1940,#1952,#1964,#1976,#1988,
#2000,#2012,#2024));
#2026=MANIFOLD_SOLID_BREP('Body 02',#2025);
#2027=DRAUGHTING_PRE_DEFINED_COLOUR('white');
#2028=FILL_AREA_STYLE_COLOUR('',#2027);
#2029=FILL_AREA_STYLE('',(#2028));
#2030=SURFACE_STYLE_FILL_AREA(#2029);
#2031=SURFACE_SIDE_STYLE('',(#2030));
#2032=SURFACE_STYLE_USAGE(.BOTH.,#2031);
#2033=PRESENTATION_STYLE_ASSIGNMENT((#2032));
#54=STYLED_ITEM('',(#2033),#2026);
#35=SHAPE_REPRESENTATION('CB_Top.step',(#15),#33);
#36=ADVANCED_BREP_SHAPE_REPRESENTATION('CB_Top.step',(#2026),#33);
#2041=SHAPE_REPRESENTATION_RELATIONSHIP('','',#35,#36);
#2042=CARTESIAN_POINT('',(0.,0.,0.));
#2043=DIRECTION('',(0.,0.,1.));
#2044=DIRECTION('',(1.,0.,0.));
#2045=AXIS2_PLACEMENT_3D('',#2042,#2043,#2044);
#2047=MAPPED_ITEM('',#2046,#2045);
#2046=REPRESENTATION_MAP(#2045,#35);
#2048=APPLICATION_CONTEXT('Managed model based 3d engineering');
#2049=APPLICATION_PROTOCOL_DEFINITION('international standard','ap242_managed_model_based_3d_engineering',2014,#2048);
#2050=PRODUCT_CONTEXT('',#2048,'mechanical');
#2051=PRODUCT_DEFINITION_CONTEXT('part definition',#2048,'design');
#43=PRODUCT('CB_Top.step','CB_Top.step','',(#2050));
#2052=PRODUCT_RELATED_PRODUCT_CATEGORY('part','',(#43));
#2053=PRODUCT_DEFINITION_FORMATION_WITH_SPECIFIED_SOURCE('','',#43,.NOT_KNOWN.);
#44=PRODUCT_DEFINITION('design','',#2053,#2051);
#42=PRODUCT_DEFINITION_SHAPE('','',#44);
#2054=SHAPE_DEFINITION_REPRESENTATION(#42,#35);
#34=DRAUGHTING_MODEL('',(#2047),#33);
#16=SHAPE_REPRESENTATION('root',(#15,#48),#10);
#2055=CARTESIAN_POINT('',(0.,0.,0.));
#2056=DIRECTION('',(0.,0.,1.));
#2057=DIRECTION('',(1.,0.,0.));
#2058=AXIS2_PLACEMENT_3D('',#2055,#2056,#2057);
#2060=MAPPED_ITEM('',#2059,#2058);
#2059=REPRESENTATION_MAP(#2058,#16);
#24=PRODUCT('root','root','',(#2050));
#2061=PRODUCT_RELATED_PRODUCT_CATEGORY('part','',(#24));
#2062=PRODUCT_DEFINITION_FORMATION_WITH_SPECIFIED_SOURCE('','',#24,.NOT_KNOWN.);
#25=PRODUCT_DEFINITION('design','',#2062,#2051);
#23=PRODUCT_DEFINITION_SHAPE('','',#25);
#2063=SHAPE_DEFINITION_REPRESENTATION(#23,#16);
#11=DRAUGHTING_MODEL('',(#2060),#10);
#2064=DESCRIPTIVE_REPRESENTATION_ITEM('KEY','C:\\Users\\bilal\\AppData\\Local\\Packages\\Shapr3D.Shapr3D_j403pzjkqtqbj\\TempState\\0a6ee27c-6c5c-4c6d-8ab6-24506bf29494.tmp');
#2065=PROPERTY_DEFINITION('KEY','',#25);
#2066=REPRESENTATION('',(#2064),#10);
#2067=PROPERTY_DEFINITION_REPRESENTATION(#2065,#2066);
#2068=GENERAL_PROPERTY('','KEY','');
#2069=GENERAL_PROPERTY_ASSOCIATION('','',#2068,#2065);
#1=MECHANICAL_DESIGN_GEOMETRIC_PRESENTATION_REPRESENTATION('',(#54),#10);
ENDSEC;
END-ISO-10303-21;
