ISO-10303-21;
HEADER;

/* File generated by Shapr3D Version 5.791.8191.0 */

FILE_DESCRIPTION(('HOOPS Exchange Step'),'2;1');

FILE_NAME('C:\\Users\\bilal\\AppData\\Local\\Packages\\Shapr3D.Shapr3D_j403pzjkqtqbj\\TempState\\export\\temp_export',
'2025-02-19T18:28:50+01:00',
('bilal'),
('Shapr3D Limited'),
'HOOPS Exchange 2024.8',
'Shapr3D',
'Authorized');

FILE_SCHEMA( ('AP242_MANAGED_MODEL_BASED_3D_ENGINEERING_MIM_LF {1 0 10303 442 1 1 4}') );

ENDSEC;

DATA;
#3=(NAMED_UNIT(*)PLANE_ANGLE_UNIT()SI_UNIT($,.RADIAN.));
#4=PLANE_ANGLE_MEASURE_WITH_UNIT(PLANE_ANGLE_MEASURE(0.0174532925),#3);
#5=(CONVERSION_BASED_UNIT('DEGREE',#4)NAMED_UNIT(#6)PLANE_ANGLE_UNIT());
#6=DIMENSIONAL_EXPONENTS(0.,0.,0.,0.,0.,0.,0.);
#7=(NAMED_UNIT(*)SI_UNIT($,.STERADIAN.)SOLID_ANGLE_UNIT());
#8=(LENGTH_UNIT()NAMED_UNIT(*)SI_UNIT(.MILLI.,.METRE.));
#9=UNCERTAINTY_MEASURE_WITH_UNIT(LENGTH_MEASURE(1.000000E-05),#8,'DISTANCE_ACCURACY_VALUE','Maximum Tolerance applied to model');
#10=(GEOMETRIC_REPRESENTATION_CONTEXT(3)GLOBAL_UNCERTAINTY_ASSIGNED_CONTEXT((#9))GLOBAL_UNIT_ASSIGNED_CONTEXT((#8,#5,#7))REPRESENTATION_CONTEXT('','root'));
#12=CARTESIAN_POINT('',(0.,0.,0.));
#13=DIRECTION('',(0.,0.,1.));
#14=DIRECTION('',(1.,0.,0.));
#15=AXIS2_PLACEMENT_3D('',#12,#13,#14);
#27=CARTESIAN_POINT('',(97.,3.2,-92.1396875));
#28=DIRECTION('',(-1.,0.,0.));
#29=DIRECTION('',(0.,0.,1.));
#30=AXIS2_PLACEMENT_3D('',#27,#28,#29);
#31=PLANE('',#30);
#32=CARTESIAN_POINT('',(97.,0.,-91.1396875));
#33=VERTEX_POINT('',#32);
#34=CARTESIAN_POINT('',(97.,0.,-93.1396875));
#35=VERTEX_POINT('',#34);
#36=CARTESIAN_POINT('',(97.,0.,-91.1396875));
#37=DIRECTION('',(0.,0.,-1.));
#38=VECTOR('',#37,2.);
#39=LINE('',#36,#38);
#40=EDGE_CURVE('',#33,#35,#39,.T.);
#41=ORIENTED_EDGE('',*,*,#40,.F.);
#42=CARTESIAN_POINT('',(97.,3.175,-91.1396875));
#43=VERTEX_POINT('',#42);
#44=CARTESIAN_POINT('',(97.,3.175,-91.1396875));
#45=DIRECTION('',(0.,-1.,0.));
#46=VECTOR('',#45,3.175);
#47=LINE('',#44,#46);
#48=EDGE_CURVE('',#43,#33,#47,.T.);
#49=ORIENTED_EDGE('',*,*,#48,.F.);
#50=CARTESIAN_POINT('',(97.,3.175,-93.1396875));
#51=VERTEX_POINT('',#50);
#52=CARTESIAN_POINT('',(97.,3.175,-91.1396875));
#53=DIRECTION('',(0.,0.,-1.));
#54=VECTOR('',#53,2.);
#55=LINE('',#52,#54);
#56=EDGE_CURVE('',#43,#51,#55,.T.);
#57=ORIENTED_EDGE('',*,*,#56,.T.);
#58=CARTESIAN_POINT('',(97.,3.175,-93.1396875));
#59=DIRECTION('',(0.,-1.,0.));
#60=VECTOR('',#59,3.175);
#61=LINE('',#58,#60);
#62=EDGE_CURVE('',#51,#35,#61,.T.);
#63=ORIENTED_EDGE('',*,*,#62,.T.);
#64=EDGE_LOOP('',(#41,#49,#57,#63));
#65=FACE_BOUND('',#64,.T.);
#66=ADVANCED_FACE('',(#65),#31,.T.);
#67=CARTESIAN_POINT('',(0.,3.175,0.));
#68=DIRECTION('',(0.,-1.,0.));
#69=DIRECTION('',(0.,0.,-1.));
#70=AXIS2_PLACEMENT_3D('',#67,#68,#69);
#71=PLANE('',#70);
#72=CARTESIAN_POINT('',(102.,3.175,-96.6475));
#73=VERTEX_POINT('',#72);
#74=CARTESIAN_POINT('',(102.,3.175,-89.131875));
#75=VERTEX_POINT('',#74);
#76=CARTESIAN_POINT('',(102.,3.175,-96.6475));
#77=DIRECTION('',(0.,0.,1.));
#78=VECTOR('',#77,7.515625);
#79=LINE('',#76,#78);
#80=EDGE_CURVE('',#73,#75,#79,.T.);
#81=ORIENTED_EDGE('',*,*,#80,.F.);
#82=CARTESIAN_POINT('',(82.,3.175,-96.6475));
#83=VERTEX_POINT('',#82);
#84=CARTESIAN_POINT('',(82.,3.175,-96.6475));
#85=DIRECTION('',(1.,0.,-0.));
#86=VECTOR('',#85,20.);
#87=LINE('',#84,#86);
#88=EDGE_CURVE('',#83,#73,#87,.T.);
#89=ORIENTED_EDGE('',*,*,#88,.F.);
#90=CARTESIAN_POINT('',(82.,3.175,-99.6475));
#91=VERTEX_POINT('',#90);
#92=CARTESIAN_POINT('',(82.,3.175,-99.6475));
#93=DIRECTION('',(0.,0.,1.));
#94=VECTOR('',#93,3.);
#95=LINE('',#92,#94);
#96=EDGE_CURVE('',#91,#83,#95,.T.);
#97=ORIENTED_EDGE('',*,*,#96,.F.);
#98=CARTESIAN_POINT('',(68.5,3.175,-99.6475));
#99=VERTEX_POINT('',#98);
#100=CARTESIAN_POINT('',(82.,3.175,-99.6475));
#101=DIRECTION('',(-1.,0.,0.));
#102=VECTOR('',#101,13.5);
#103=LINE('',#100,#102);
#104=EDGE_CURVE('',#91,#99,#103,.T.);
#105=ORIENTED_EDGE('',*,*,#104,.T.);
#106=CARTESIAN_POINT('',(68.5,3.175,-96.6475));
#107=VERTEX_POINT('',#106);
#108=CARTESIAN_POINT('',(68.5,3.175,-99.6475));
#109=DIRECTION('',(0.,0.,1.));
#110=VECTOR('',#109,3.);
#111=LINE('',#108,#110);
#112=EDGE_CURVE('',#99,#107,#111,.T.);
#113=ORIENTED_EDGE('',*,*,#112,.T.);
#114=CARTESIAN_POINT('',(64.,3.175,-96.6475));
#115=VERTEX_POINT('',#114);
#116=CARTESIAN_POINT('',(64.,3.175,-96.6475));
#117=DIRECTION('',(1.,0.,-0.));
#118=VECTOR('',#117,4.5);
#119=LINE('',#116,#118);
#120=EDGE_CURVE('',#115,#107,#119,.T.);
#121=ORIENTED_EDGE('',*,*,#120,.F.);
#122=CARTESIAN_POINT('',(64.,3.175,-89.131875));
#123=VERTEX_POINT('',#122);
#124=CARTESIAN_POINT('',(64.,3.175,-96.6475));
#125=DIRECTION('',(0.,0.,1.));
#126=VECTOR('',#125,7.515625);
#127=LINE('',#124,#126);
#128=EDGE_CURVE('',#115,#123,#127,.T.);
#129=ORIENTED_EDGE('',*,*,#128,.T.);
#130=CARTESIAN_POINT('',(64.,3.175,-89.131875));
#131=DIRECTION('',(1.,0.,-0.));
#132=VECTOR('',#131,38.);
#133=LINE('',#130,#132);
#134=EDGE_CURVE('',#123,#75,#133,.T.);
#135=ORIENTED_EDGE('',*,*,#134,.T.);
#136=EDGE_LOOP('',(#81,#89,#97,#105,#113,#121,#129,#135));
#137=FACE_BOUND('',#136,.T.);
#138=ORIENTED_EDGE('',*,*,#56,.F.);
#139=CARTESIAN_POINT('',(67.5025,3.175,-91.1396875));
#140=VERTEX_POINT('',#139);
#141=CARTESIAN_POINT('',(67.5025,3.175,-91.1396875));
#142=DIRECTION('',(1.,0.,-0.));
#143=VECTOR('',#142,29.4975);
#144=LINE('',#141,#143);
#145=EDGE_CURVE('',#140,#43,#144,.T.);
#146=ORIENTED_EDGE('',*,*,#145,.F.);
#147=CARTESIAN_POINT('',(67.5025,3.175,-93.1396875));
#148=VERTEX_POINT('',#147);
#149=CARTESIAN_POINT('',(67.5025,3.175,-91.1396875));
#150=DIRECTION('',(0.,0.,-1.));
#151=VECTOR('',#150,2.);
#152=LINE('',#149,#151);
#153=EDGE_CURVE('',#140,#148,#152,.T.);
#154=ORIENTED_EDGE('',*,*,#153,.T.);
#155=CARTESIAN_POINT('',(67.5025,3.175,-93.1396875));
#156=DIRECTION('',(1.,0.,-0.));
#157=VECTOR('',#156,29.4975);
#158=LINE('',#155,#157);
#159=EDGE_CURVE('',#148,#51,#158,.T.);
#160=ORIENTED_EDGE('',*,*,#159,.T.);
#161=EDGE_LOOP('',(#138,#146,#154,#160));
#162=FACE_BOUND('',#161,.T.);
#163=ADVANCED_FACE('',(#137,#162),#71,.F.);
#164=CARTESIAN_POINT('',(0.,0.,0.));
#165=DIRECTION('',(0.,-1.,0.));
#166=DIRECTION('',(0.,0.,-1.));
#167=AXIS2_PLACEMENT_3D('',#164,#165,#166);
#168=PLANE('',#167);
#169=CARTESIAN_POINT('',(82.,0.,-96.6475));
#170=VERTEX_POINT('',#169);
#171=CARTESIAN_POINT('',(102.,0.,-96.6475));
#172=VERTEX_POINT('',#171);
#173=CARTESIAN_POINT('',(82.,0.,-96.6475));
#174=DIRECTION('',(1.,0.,-0.));
#175=VECTOR('',#174,20.);
#176=LINE('',#173,#175);
#177=EDGE_CURVE('',#170,#172,#176,.T.);
#178=ORIENTED_EDGE('',*,*,#177,.T.);
#179=CARTESIAN_POINT('',(102.,0.,-83.5846875));
#180=VERTEX_POINT('',#179);
#181=CARTESIAN_POINT('',(102.,0.,-96.6475));
#182=DIRECTION('',(0.,0.,1.));
#183=VECTOR('',#182,13.0628125);
#184=LINE('',#181,#183);
#185=EDGE_CURVE('',#172,#180,#184,.T.);
#186=ORIENTED_EDGE('',*,*,#185,.T.);
#187=CARTESIAN_POINT('',(64.,0.,-83.5846875));
#188=VERTEX_POINT('',#187);
#189=CARTESIAN_POINT('',(64.,0.,-83.5846875));
#190=DIRECTION('',(1.,0.,-0.));
#191=VECTOR('',#190,38.);
#192=LINE('',#189,#191);
#193=EDGE_CURVE('',#188,#180,#192,.T.);
#194=ORIENTED_EDGE('',*,*,#193,.F.);
#195=CARTESIAN_POINT('',(64.,0.,-96.6475));
#196=VERTEX_POINT('',#195);
#197=CARTESIAN_POINT('',(64.,0.,-83.5846875));
#198=DIRECTION('',(-0.,0.,-1.));
#199=VECTOR('',#198,13.0628125);
#200=LINE('',#197,#199);
#201=EDGE_CURVE('',#188,#196,#200,.T.);
#202=ORIENTED_EDGE('',*,*,#201,.T.);
#203=CARTESIAN_POINT('',(68.5,0.,-96.6475));
#204=VERTEX_POINT('',#203);
#205=CARTESIAN_POINT('',(64.,0.,-96.6475));
#206=DIRECTION('',(1.,0.,-0.));
#207=VECTOR('',#206,4.5);
#208=LINE('',#205,#207);
#209=EDGE_CURVE('',#196,#204,#208,.T.);
#210=ORIENTED_EDGE('',*,*,#209,.T.);
#211=CARTESIAN_POINT('',(68.5,0.,-99.6475));
#212=VERTEX_POINT('',#211);
#213=CARTESIAN_POINT('',(68.5,0.,-99.6475));
#214=DIRECTION('',(0.,0.,1.));
#215=VECTOR('',#214,3.);
#216=LINE('',#213,#215);
#217=EDGE_CURVE('',#212,#204,#216,.T.);
#218=ORIENTED_EDGE('',*,*,#217,.F.);
#219=CARTESIAN_POINT('',(82.,0.,-99.6475));
#220=VERTEX_POINT('',#219);
#221=CARTESIAN_POINT('',(68.5,0.,-99.6475));
#222=DIRECTION('',(1.,0.,-0.));
#223=VECTOR('',#222,13.5);
#224=LINE('',#221,#223);
#225=EDGE_CURVE('',#212,#220,#224,.T.);
#226=ORIENTED_EDGE('',*,*,#225,.T.);
#227=CARTESIAN_POINT('',(82.,0.,-99.6475));
#228=DIRECTION('',(0.,0.,1.));
#229=VECTOR('',#228,3.);
#230=LINE('',#227,#229);
#231=EDGE_CURVE('',#220,#170,#230,.T.);
#232=ORIENTED_EDGE('',*,*,#231,.T.);
#233=EDGE_LOOP('',(#178,#186,#194,#202,#210,#218,#226,#232));
#234=FACE_BOUND('',#233,.T.);
#235=ORIENTED_EDGE('',*,*,#40,.T.);
#236=CARTESIAN_POINT('',(67.5025,-0.,-93.1396875));
#237=VERTEX_POINT('',#236);
#238=CARTESIAN_POINT('',(67.5025,-0.,-93.1396875));
#239=DIRECTION('',(1.,0.,-0.));
#240=VECTOR('',#239,29.4975);
#241=LINE('',#238,#240);
#242=EDGE_CURVE('',#237,#35,#241,.T.);
#243=ORIENTED_EDGE('',*,*,#242,.F.);
#244=CARTESIAN_POINT('',(67.5025,0.,-91.1396875));
#245=VERTEX_POINT('',#244);
#246=CARTESIAN_POINT('',(67.5025,0.,-91.1396875));
#247=DIRECTION('',(0.,0.,-1.));
#248=VECTOR('',#247,2.);
#249=LINE('',#246,#248);
#250=EDGE_CURVE('',#245,#237,#249,.T.);
#251=ORIENTED_EDGE('',*,*,#250,.F.);
#252=CARTESIAN_POINT('',(67.5025,0.,-91.1396875));
#253=DIRECTION('',(1.,0.,-0.));
#254=VECTOR('',#253,29.4975);
#255=LINE('',#252,#254);
#256=EDGE_CURVE('',#245,#33,#255,.T.);
#257=ORIENTED_EDGE('',*,*,#256,.T.);
#258=EDGE_LOOP('',(#235,#243,#251,#257));
#259=FACE_BOUND('',#258,.T.);
#260=ADVANCED_FACE('',(#234,#259),#168,.T.);
#261=CARTESIAN_POINT('',(62.5025,1.5875,-93.1396875));
#262=DIRECTION('',(0.,0.,1.));
#263=DIRECTION('',(1.,0.,-0.));
#264=AXIS2_PLACEMENT_3D('',#261,#262,#263);
#265=PLANE('',#264);
#266=ORIENTED_EDGE('',*,*,#62,.F.);
#267=ORIENTED_EDGE('',*,*,#159,.F.);
#268=CARTESIAN_POINT('',(67.5025,-0.,-93.1396875));
#269=DIRECTION('',(0.,1.,0.));
#270=VECTOR('',#269,3.175);
#271=LINE('',#268,#270);
#272=EDGE_CURVE('',#237,#148,#271,.T.);
#273=ORIENTED_EDGE('',*,*,#272,.F.);
#274=ORIENTED_EDGE('',*,*,#242,.T.);
#275=EDGE_LOOP('',(#266,#267,#273,#274));
#276=FACE_BOUND('',#275,.T.);
#277=ADVANCED_FACE('',(#276),#265,.T.);
#278=CARTESIAN_POINT('',(62.5025,1.,-86.631875));
#279=DIRECTION('',(0.,1.,0.));
#280=DIRECTION('',(0.,0.,1.));
#281=AXIS2_PLACEMENT_3D('',#278,#279,#280);
#282=PLANE('',#281);
#283=CARTESIAN_POINT('',(102.,1.,-89.131875));
#284=VERTEX_POINT('',#283);
#285=CARTESIAN_POINT('',(102.,1.,-84.1475));
#286=VERTEX_POINT('',#285);
#287=CARTESIAN_POINT('',(102.,1.,-89.131875));
#288=DIRECTION('',(0.,0.,1.));
#289=VECTOR('',#288,4.984375);
#290=LINE('',#287,#289);
#291=EDGE_CURVE('',#284,#286,#290,.T.);
#292=ORIENTED_EDGE('',*,*,#291,.F.);
#293=CARTESIAN_POINT('',(64.,1.,-89.131875));
#294=VERTEX_POINT('',#293);
#295=CARTESIAN_POINT('',(64.,1.,-89.131875));
#296=DIRECTION('',(1.,0.,-0.));
#297=VECTOR('',#296,38.);
#298=LINE('',#295,#297);
#299=EDGE_CURVE('',#294,#284,#298,.T.);
#300=ORIENTED_EDGE('',*,*,#299,.F.);
#301=CARTESIAN_POINT('',(64.,1.,-84.1475));
#302=VERTEX_POINT('',#301);
#303=CARTESIAN_POINT('',(64.,1.,-89.131875));
#304=DIRECTION('',(0.,0.,1.));
#305=VECTOR('',#304,4.984375);
#306=LINE('',#303,#305);
#307=EDGE_CURVE('',#294,#302,#306,.T.);
#308=ORIENTED_EDGE('',*,*,#307,.T.);
#309=CARTESIAN_POINT('',(64.,1.,-84.1475));
#310=DIRECTION('',(1.,0.,-0.));
#311=VECTOR('',#310,38.);
#312=LINE('',#309,#311);
#313=EDGE_CURVE('',#302,#286,#312,.T.);
#314=ORIENTED_EDGE('',*,*,#313,.T.);
#315=EDGE_LOOP('',(#292,#300,#308,#314));
#316=FACE_BOUND('',#315,.T.);
#317=ADVANCED_FACE('',(#316),#282,.T.);
#318=CARTESIAN_POINT('',(62.5025,3.175,-81.0846875));
#319=DIRECTION('',(0.,-1.,0.));
#320=DIRECTION('',(0.,0.,-1.));
#321=AXIS2_PLACEMENT_3D('',#318,#319,#320);
#322=PLANE('',#321);
#323=CARTESIAN_POINT('',(102.,3.175,-78.021875));
#324=VERTEX_POINT('',#323);
#325=CARTESIAN_POINT('',(102.,3.175,-84.1475));
#326=VERTEX_POINT('',#325);
#327=CARTESIAN_POINT('',(102.,3.175,-78.021875));
#328=DIRECTION('',(-0.,0.,-1.));
#329=VECTOR('',#328,6.125625);
#330=LINE('',#327,#329);
#331=EDGE_CURVE('',#324,#326,#330,.T.);
#332=ORIENTED_EDGE('',*,*,#331,.T.);
#333=CARTESIAN_POINT('',(64.,3.175,-84.1475));
#334=VERTEX_POINT('',#333);
#335=CARTESIAN_POINT('',(64.,3.175,-84.1475));
#336=DIRECTION('',(1.,0.,-0.));
#337=VECTOR('',#336,38.);
#338=LINE('',#335,#337);
#339=EDGE_CURVE('',#334,#326,#338,.T.);
#340=ORIENTED_EDGE('',*,*,#339,.F.);
#341=CARTESIAN_POINT('',(64.,3.175,-78.021875));
#342=VERTEX_POINT('',#341);
#343=CARTESIAN_POINT('',(64.,3.175,-78.021875));
#344=DIRECTION('',(-0.,0.,-1.));
#345=VECTOR('',#344,6.125625);
#346=LINE('',#343,#345);
#347=EDGE_CURVE('',#342,#334,#346,.T.);
#348=ORIENTED_EDGE('',*,*,#347,.F.);
#349=CARTESIAN_POINT('',(64.,3.175,-78.021875));
#350=DIRECTION('',(1.,0.,-0.));
#351=VECTOR('',#350,38.);
#352=LINE('',#349,#351);
#353=EDGE_CURVE('',#342,#324,#352,.T.);
#354=ORIENTED_EDGE('',*,*,#353,.T.);
#355=EDGE_LOOP('',(#332,#340,#348,#354));
#356=FACE_BOUND('',#355,.T.);
#357=ADVANCED_FACE('',(#356),#322,.F.);
#358=CARTESIAN_POINT('',(62.5025,2.175,-81.0846875));
#359=DIRECTION('',(0.,1.,0.));
#360=DIRECTION('',(0.,0.,1.));
#361=AXIS2_PLACEMENT_3D('',#358,#359,#360);
#362=PLANE('',#361);
#363=CARTESIAN_POINT('',(102.,2.175,-83.5846875));
#364=VERTEX_POINT('',#363);
#365=CARTESIAN_POINT('',(102.,2.175,-78.5846875));
#366=VERTEX_POINT('',#365);
#367=CARTESIAN_POINT('',(102.,2.175,-83.5846875));
#368=DIRECTION('',(0.,0.,1.));
#369=VECTOR('',#368,5.);
#370=LINE('',#367,#369);
#371=EDGE_CURVE('',#364,#366,#370,.T.);
#372=ORIENTED_EDGE('',*,*,#371,.T.);
#373=CARTESIAN_POINT('',(64.,2.175,-78.5846875));
#374=VERTEX_POINT('',#373);
#375=CARTESIAN_POINT('',(64.,2.175,-78.5846875));
#376=DIRECTION('',(1.,0.,-0.));
#377=VECTOR('',#376,38.);
#378=LINE('',#375,#377);
#379=EDGE_CURVE('',#374,#366,#378,.T.);
#380=ORIENTED_EDGE('',*,*,#379,.F.);
#381=CARTESIAN_POINT('',(64.,2.175,-83.5846875));
#382=VERTEX_POINT('',#381);
#383=CARTESIAN_POINT('',(64.,2.175,-83.5846875));
#384=DIRECTION('',(0.,0.,1.));
#385=VECTOR('',#384,5.);
#386=LINE('',#383,#385);
#387=EDGE_CURVE('',#382,#374,#386,.T.);
#388=ORIENTED_EDGE('',*,*,#387,.F.);
#389=CARTESIAN_POINT('',(64.,2.175,-83.5846875));
#390=DIRECTION('',(1.,0.,-0.));
#391=VECTOR('',#390,38.);
#392=LINE('',#389,#391);
#393=EDGE_CURVE('',#382,#364,#392,.T.);
#394=ORIENTED_EDGE('',*,*,#393,.T.);
#395=EDGE_LOOP('',(#372,#380,#388,#394));
#396=FACE_BOUND('',#395,.T.);
#397=ADVANCED_FACE('',(#396),#362,.F.);
#398=CARTESIAN_POINT('',(62.5025,1.,-42.191875));
#399=DIRECTION('',(0.,1.,0.));
#400=DIRECTION('',(0.,0.,1.));
#401=AXIS2_PLACEMENT_3D('',#398,#399,#400);
#402=PLANE('',#401);
#403=CARTESIAN_POINT('',(102.,1.,-44.691875));
#404=VERTEX_POINT('',#403);
#405=CARTESIAN_POINT('',(102.,1.,-39.7075));
#406=VERTEX_POINT('',#405);
#407=CARTESIAN_POINT('',(102.,1.,-44.691875));
#408=DIRECTION('',(0.,0.,1.));
#409=VECTOR('',#408,4.984375);
#410=LINE('',#407,#409);
#411=EDGE_CURVE('',#404,#406,#410,.T.);
#412=ORIENTED_EDGE('',*,*,#411,.F.);
#413=CARTESIAN_POINT('',(64.,1.,-44.691875));
#414=VERTEX_POINT('',#413);
#415=CARTESIAN_POINT('',(64.,1.,-44.691875));
#416=DIRECTION('',(1.,0.,-0.));
#417=VECTOR('',#416,38.);
#418=LINE('',#415,#417);
#419=EDGE_CURVE('',#414,#404,#418,.T.);
#420=ORIENTED_EDGE('',*,*,#419,.F.);
#421=CARTESIAN_POINT('',(64.,1.,-39.7075));
#422=VERTEX_POINT('',#421);
#423=CARTESIAN_POINT('',(64.,1.,-44.691875));
#424=DIRECTION('',(0.,0.,1.));
#425=VECTOR('',#424,4.984375);
#426=LINE('',#423,#425);
#427=EDGE_CURVE('',#414,#422,#426,.T.);
#428=ORIENTED_EDGE('',*,*,#427,.T.);
#429=CARTESIAN_POINT('',(64.,1.,-39.7075));
#430=DIRECTION('',(1.,0.,-0.));
#431=VECTOR('',#430,38.);
#432=LINE('',#429,#431);
#433=EDGE_CURVE('',#422,#406,#432,.T.);
#434=ORIENTED_EDGE('',*,*,#433,.T.);
#435=EDGE_LOOP('',(#412,#420,#428,#434));
#436=FACE_BOUND('',#435,.T.);
#437=ADVANCED_FACE('',(#436),#402,.T.);
#438=CARTESIAN_POINT('',(62.5025,0.,-42.191875));
#439=DIRECTION('',(0.,-1.,0.));
#440=DIRECTION('',(0.,0.,-1.));
#441=AXIS2_PLACEMENT_3D('',#438,#439,#440);
#442=PLANE('',#441);
#443=CARTESIAN_POINT('',(102.,0.,-39.1446875));
#444=VERTEX_POINT('',#443);
#445=CARTESIAN_POINT('',(102.,0.,-45.2546875));
#446=VERTEX_POINT('',#445);
#447=CARTESIAN_POINT('',(102.,0.,-39.1446875));
#448=DIRECTION('',(-0.,0.,-1.));
#449=VECTOR('',#448,6.11);
#450=LINE('',#447,#449);
#451=EDGE_CURVE('',#444,#446,#450,.T.);
#452=ORIENTED_EDGE('',*,*,#451,.F.);
#453=CARTESIAN_POINT('',(64.,0.,-39.1446875));
#454=VERTEX_POINT('',#453);
#455=CARTESIAN_POINT('',(64.,0.,-39.1446875));
#456=DIRECTION('',(1.,0.,-0.));
#457=VECTOR('',#456,38.);
#458=LINE('',#455,#457);
#459=EDGE_CURVE('',#454,#444,#458,.T.);
#460=ORIENTED_EDGE('',*,*,#459,.F.);
#461=CARTESIAN_POINT('',(64.,0.,-45.2546875));
#462=VERTEX_POINT('',#461);
#463=CARTESIAN_POINT('',(64.,0.,-39.1446875));
#464=DIRECTION('',(-0.,0.,-1.));
#465=VECTOR('',#464,6.11);
#466=LINE('',#463,#465);
#467=EDGE_CURVE('',#454,#462,#466,.T.);
#468=ORIENTED_EDGE('',*,*,#467,.T.);
#469=CARTESIAN_POINT('',(64.,0.,-45.2546875));
#470=DIRECTION('',(1.,0.,-0.));
#471=VECTOR('',#470,38.);
#472=LINE('',#469,#471);
#473=EDGE_CURVE('',#462,#446,#472,.T.);
#474=ORIENTED_EDGE('',*,*,#473,.T.);
#475=EDGE_LOOP('',(#452,#460,#468,#474));
#476=FACE_BOUND('',#475,.T.);
#477=ADVANCED_FACE('',(#476),#442,.T.);
#478=CARTESIAN_POINT('',(62.5025,1.,-64.411875));
#479=DIRECTION('',(0.,1.,0.));
#480=DIRECTION('',(0.,0.,1.));
#481=AXIS2_PLACEMENT_3D('',#478,#479,#480);
#482=PLANE('',#481);
#483=CARTESIAN_POINT('',(102.,1.,-66.911875));
#484=VERTEX_POINT('',#483);
#485=CARTESIAN_POINT('',(102.,1.,-61.9275));
#486=VERTEX_POINT('',#485);
#487=CARTESIAN_POINT('',(102.,1.,-66.911875));
#488=DIRECTION('',(0.,0.,1.));
#489=VECTOR('',#488,4.984375);
#490=LINE('',#487,#489);
#491=EDGE_CURVE('',#484,#486,#490,.T.);
#492=ORIENTED_EDGE('',*,*,#491,.F.);
#493=CARTESIAN_POINT('',(64.,1.,-66.911875));
#494=VERTEX_POINT('',#493);
#495=CARTESIAN_POINT('',(64.,1.,-66.911875));
#496=DIRECTION('',(1.,0.,-0.));
#497=VECTOR('',#496,38.);
#498=LINE('',#495,#497);
#499=EDGE_CURVE('',#494,#484,#498,.T.);
#500=ORIENTED_EDGE('',*,*,#499,.F.);
#501=CARTESIAN_POINT('',(64.,1.,-61.9275));
#502=VERTEX_POINT('',#501);
#503=CARTESIAN_POINT('',(64.,1.,-66.911875));
#504=DIRECTION('',(0.,0.,1.));
#505=VECTOR('',#504,4.984375);
#506=LINE('',#503,#505);
#507=EDGE_CURVE('',#494,#502,#506,.T.);
#508=ORIENTED_EDGE('',*,*,#507,.T.);
#509=CARTESIAN_POINT('',(64.,1.,-61.9275));
#510=DIRECTION('',(1.,0.,-0.));
#511=VECTOR('',#510,38.);
#512=LINE('',#509,#511);
#513=EDGE_CURVE('',#502,#486,#512,.T.);
#514=ORIENTED_EDGE('',*,*,#513,.T.);
#515=EDGE_LOOP('',(#492,#500,#508,#514));
#516=FACE_BOUND('',#515,.T.);
#517=ADVANCED_FACE('',(#516),#482,.T.);
#518=CARTESIAN_POINT('',(62.5025,0.,-64.411875));
#519=DIRECTION('',(0.,-1.,0.));
#520=DIRECTION('',(0.,0.,-1.));
#521=AXIS2_PLACEMENT_3D('',#518,#519,#520);
#522=PLANE('',#521);
#523=CARTESIAN_POINT('',(102.,0.,-61.3646875));
#524=VERTEX_POINT('',#523);
#525=CARTESIAN_POINT('',(102.,0.,-67.4746875));
#526=VERTEX_POINT('',#525);
#527=CARTESIAN_POINT('',(102.,0.,-61.3646875));
#528=DIRECTION('',(-0.,0.,-1.));
#529=VECTOR('',#528,6.11);
#530=LINE('',#527,#529);
#531=EDGE_CURVE('',#524,#526,#530,.T.);
#532=ORIENTED_EDGE('',*,*,#531,.F.);
#533=CARTESIAN_POINT('',(64.,0.,-61.3646875));
#534=VERTEX_POINT('',#533);
#535=CARTESIAN_POINT('',(64.,0.,-61.3646875));
#536=DIRECTION('',(1.,0.,-0.));
#537=VECTOR('',#536,38.);
#538=LINE('',#535,#537);
#539=EDGE_CURVE('',#534,#524,#538,.T.);
#540=ORIENTED_EDGE('',*,*,#539,.F.);
#541=CARTESIAN_POINT('',(64.,0.,-67.4746875));
#542=VERTEX_POINT('',#541);
#543=CARTESIAN_POINT('',(64.,0.,-61.3646875));
#544=DIRECTION('',(-0.,0.,-1.));
#545=VECTOR('',#544,6.11);
#546=LINE('',#543,#545);
#547=EDGE_CURVE('',#534,#542,#546,.T.);
#548=ORIENTED_EDGE('',*,*,#547,.T.);
#549=CARTESIAN_POINT('',(64.,0.,-67.4746875));
#550=DIRECTION('',(1.,0.,-0.));
#551=VECTOR('',#550,38.);
#552=LINE('',#549,#551);
#553=EDGE_CURVE('',#542,#526,#552,.T.);
#554=ORIENTED_EDGE('',*,*,#553,.T.);
#555=EDGE_LOOP('',(#532,#540,#548,#554));
#556=FACE_BOUND('',#555,.T.);
#557=ADVANCED_FACE('',(#556),#522,.T.);
#558=CARTESIAN_POINT('',(62.5025,1.,-75.521875));
#559=DIRECTION('',(0.,1.,0.));
#560=DIRECTION('',(0.,0.,1.));
#561=AXIS2_PLACEMENT_3D('',#558,#559,#560);
#562=PLANE('',#561);
#563=CARTESIAN_POINT('',(102.,1.,-78.021875));
#564=VERTEX_POINT('',#563);
#565=CARTESIAN_POINT('',(102.,1.,-73.0375));
#566=VERTEX_POINT('',#565);
#567=CARTESIAN_POINT('',(102.,1.,-78.021875));
#568=DIRECTION('',(0.,0.,1.));
#569=VECTOR('',#568,4.984375);
#570=LINE('',#567,#569);
#571=EDGE_CURVE('',#564,#566,#570,.T.);
#572=ORIENTED_EDGE('',*,*,#571,.F.);
#573=CARTESIAN_POINT('',(64.,1.,-78.021875));
#574=VERTEX_POINT('',#573);
#575=CARTESIAN_POINT('',(64.,1.,-78.021875));
#576=DIRECTION('',(1.,0.,-0.));
#577=VECTOR('',#576,38.);
#578=LINE('',#575,#577);
#579=EDGE_CURVE('',#574,#564,#578,.T.);
#580=ORIENTED_EDGE('',*,*,#579,.F.);
#581=CARTESIAN_POINT('',(64.,1.,-73.0375));
#582=VERTEX_POINT('',#581);
#583=CARTESIAN_POINT('',(64.,1.,-78.021875));
#584=DIRECTION('',(0.,0.,1.));
#585=VECTOR('',#584,4.984375);
#586=LINE('',#583,#585);
#587=EDGE_CURVE('',#574,#582,#586,.T.);
#588=ORIENTED_EDGE('',*,*,#587,.T.);
#589=CARTESIAN_POINT('',(64.,1.,-73.0375));
#590=DIRECTION('',(1.,0.,-0.));
#591=VECTOR('',#590,38.);
#592=LINE('',#589,#591);
#593=EDGE_CURVE('',#582,#566,#592,.T.);
#594=ORIENTED_EDGE('',*,*,#593,.T.);
#595=EDGE_LOOP('',(#572,#580,#588,#594));
#596=FACE_BOUND('',#595,.T.);
#597=ADVANCED_FACE('',(#596),#562,.T.);
#598=CARTESIAN_POINT('',(62.5025,0.,-75.521875));
#599=DIRECTION('',(0.,-1.,0.));
#600=DIRECTION('',(0.,0.,-1.));
#601=AXIS2_PLACEMENT_3D('',#598,#599,#600);
#602=PLANE('',#601);
#603=CARTESIAN_POINT('',(102.,0.,-72.4746875));
#604=VERTEX_POINT('',#603);
#605=CARTESIAN_POINT('',(102.,0.,-78.5846875));
#606=VERTEX_POINT('',#605);
#607=CARTESIAN_POINT('',(102.,0.,-72.4746875));
#608=DIRECTION('',(-0.,0.,-1.));
#609=VECTOR('',#608,6.11);
#610=LINE('',#607,#609);
#611=EDGE_CURVE('',#604,#606,#610,.T.);
#612=ORIENTED_EDGE('',*,*,#611,.F.);
#613=CARTESIAN_POINT('',(64.,0.,-72.4746875));
#614=VERTEX_POINT('',#613);
#615=CARTESIAN_POINT('',(64.,0.,-72.4746875));
#616=DIRECTION('',(1.,0.,-0.));
#617=VECTOR('',#616,38.);
#618=LINE('',#615,#617);
#619=EDGE_CURVE('',#614,#604,#618,.T.);
#620=ORIENTED_EDGE('',*,*,#619,.F.);
#621=CARTESIAN_POINT('',(64.,0.,-78.5846875));
#622=VERTEX_POINT('',#621);
#623=CARTESIAN_POINT('',(64.,0.,-72.4746875));
#624=DIRECTION('',(-0.,0.,-1.));
#625=VECTOR('',#624,6.11);
#626=LINE('',#623,#625);
#627=EDGE_CURVE('',#614,#622,#626,.T.);
#628=ORIENTED_EDGE('',*,*,#627,.T.);
#629=CARTESIAN_POINT('',(64.,0.,-78.5846875));
#630=DIRECTION('',(1.,0.,-0.));
#631=VECTOR('',#630,38.);
#632=LINE('',#629,#631);
#633=EDGE_CURVE('',#622,#606,#632,.T.);
#634=ORIENTED_EDGE('',*,*,#633,.T.);
#635=EDGE_LOOP('',(#612,#620,#628,#634));
#636=FACE_BOUND('',#635,.T.);
#637=ADVANCED_FACE('',(#636),#602,.T.);
#638=CARTESIAN_POINT('',(62.5025,3.175,-69.9746875));
#639=DIRECTION('',(0.,-1.,0.));
#640=DIRECTION('',(0.,0.,-1.));
#641=AXIS2_PLACEMENT_3D('',#638,#639,#640);
#642=PLANE('',#641);
#643=CARTESIAN_POINT('',(64.,3.175,-66.911875));
#644=VERTEX_POINT('',#643);
#645=CARTESIAN_POINT('',(64.,3.175,-73.0375));
#646=VERTEX_POINT('',#645);
#647=CARTESIAN_POINT('',(64.,3.175,-66.911875));
#648=DIRECTION('',(-0.,0.,-1.));
#649=VECTOR('',#648,6.125625);
#650=LINE('',#647,#649);
#651=EDGE_CURVE('',#644,#646,#650,.T.);
#652=ORIENTED_EDGE('',*,*,#651,.F.);
#653=CARTESIAN_POINT('',(102.,3.175,-66.911875));
#654=VERTEX_POINT('',#653);
#655=CARTESIAN_POINT('',(64.,3.175,-66.911875));
#656=DIRECTION('',(1.,0.,-0.));
#657=VECTOR('',#656,38.);
#658=LINE('',#655,#657);
#659=EDGE_CURVE('',#644,#654,#658,.T.);
#660=ORIENTED_EDGE('',*,*,#659,.T.);
#661=CARTESIAN_POINT('',(102.,3.175,-73.0375));
#662=VERTEX_POINT('',#661);
#663=CARTESIAN_POINT('',(102.,3.175,-66.911875));
#664=DIRECTION('',(-0.,0.,-1.));
#665=VECTOR('',#664,6.125625);
#666=LINE('',#663,#665);
#667=EDGE_CURVE('',#654,#662,#666,.T.);
#668=ORIENTED_EDGE('',*,*,#667,.T.);
#669=CARTESIAN_POINT('',(64.,3.175,-73.0375));
#670=DIRECTION('',(1.,0.,-0.));
#671=VECTOR('',#670,38.);
#672=LINE('',#669,#671);
#673=EDGE_CURVE('',#646,#662,#672,.T.);
#674=ORIENTED_EDGE('',*,*,#673,.F.);
#675=EDGE_LOOP('',(#652,#660,#668,#674));
#676=FACE_BOUND('',#675,.T.);
#677=ADVANCED_FACE('',(#676),#642,.F.);
#678=CARTESIAN_POINT('',(62.5025,2.175,-69.9746875));
#679=DIRECTION('',(0.,1.,0.));
#680=DIRECTION('',(0.,0.,1.));
#681=AXIS2_PLACEMENT_3D('',#678,#679,#680);
#682=PLANE('',#681);
#683=CARTESIAN_POINT('',(102.,2.175,-72.4746875));
#684=VERTEX_POINT('',#683);
#685=CARTESIAN_POINT('',(102.,2.175,-67.4746875));
#686=VERTEX_POINT('',#685);
#687=CARTESIAN_POINT('',(102.,2.175,-72.4746875));
#688=DIRECTION('',(0.,0.,1.));
#689=VECTOR('',#688,5.);
#690=LINE('',#687,#689);
#691=EDGE_CURVE('',#684,#686,#690,.T.);
#692=ORIENTED_EDGE('',*,*,#691,.T.);
#693=CARTESIAN_POINT('',(64.,2.175,-67.4746875));
#694=VERTEX_POINT('',#693);
#695=CARTESIAN_POINT('',(64.,2.175,-67.4746875));
#696=DIRECTION('',(1.,0.,-0.));
#697=VECTOR('',#696,38.);
#698=LINE('',#695,#697);
#699=EDGE_CURVE('',#694,#686,#698,.T.);
#700=ORIENTED_EDGE('',*,*,#699,.F.);
#701=CARTESIAN_POINT('',(64.,2.175,-72.4746875));
#702=VERTEX_POINT('',#701);
#703=CARTESIAN_POINT('',(64.,2.175,-72.4746875));
#704=DIRECTION('',(0.,0.,1.));
#705=VECTOR('',#704,5.);
#706=LINE('',#703,#705);
#707=EDGE_CURVE('',#702,#694,#706,.T.);
#708=ORIENTED_EDGE('',*,*,#707,.F.);
#709=CARTESIAN_POINT('',(64.,2.175,-72.4746875));
#710=DIRECTION('',(1.,0.,-0.));
#711=VECTOR('',#710,38.);
#712=LINE('',#709,#711);
#713=EDGE_CURVE('',#702,#684,#712,.T.);
#714=ORIENTED_EDGE('',*,*,#713,.T.);
#715=EDGE_LOOP('',(#692,#700,#708,#714));
#716=FACE_BOUND('',#715,.T.);
#717=ADVANCED_FACE('',(#716),#682,.F.);
#718=CARTESIAN_POINT('',(62.5025,2.0875,-73.0375));
#719=DIRECTION('',(-0.,0.,-1.));
#720=DIRECTION('',(-1.,0.,0.));
#721=AXIS2_PLACEMENT_3D('',#718,#719,#720);
#722=PLANE('',#721);
#723=CARTESIAN_POINT('',(102.,1.,-73.0375));
#724=DIRECTION('',(0.,1.,0.));
#725=VECTOR('',#724,2.175);
#726=LINE('',#723,#725);
#727=EDGE_CURVE('',#566,#662,#726,.T.);
#728=ORIENTED_EDGE('',*,*,#727,.F.);
#729=ORIENTED_EDGE('',*,*,#593,.F.);
#730=CARTESIAN_POINT('',(64.,1.,-73.0375));
#731=DIRECTION('',(0.,1.,0.));
#732=VECTOR('',#731,2.175);
#733=LINE('',#730,#732);
#734=EDGE_CURVE('',#582,#646,#733,.T.);
#735=ORIENTED_EDGE('',*,*,#734,.T.);
#736=ORIENTED_EDGE('',*,*,#673,.T.);
#737=EDGE_LOOP('',(#728,#729,#735,#736));
#738=FACE_BOUND('',#737,.T.);
#739=ADVANCED_FACE('',(#738),#722,.T.);
#740=CARTESIAN_POINT('',(62.5025,1.0875,-72.4746875));
#741=DIRECTION('',(-0.,-0.,-1.));
#742=DIRECTION('',(0.,1.,-0.));
#743=AXIS2_PLACEMENT_3D('',#740,#741,#742);
#744=PLANE('',#743);
#745=CARTESIAN_POINT('',(102.,0.,-72.4746875));
#746=DIRECTION('',(-0.,1.,-0.));
#747=VECTOR('',#746,2.175);
#748=LINE('',#745,#747);
#749=EDGE_CURVE('',#604,#684,#748,.T.);
#750=ORIENTED_EDGE('',*,*,#749,.T.);
#751=ORIENTED_EDGE('',*,*,#713,.F.);
#752=CARTESIAN_POINT('',(64.,0.,-72.4746875));
#753=DIRECTION('',(-0.,1.,-0.));
#754=VECTOR('',#753,2.175);
#755=LINE('',#752,#754);
#756=EDGE_CURVE('',#614,#702,#755,.T.);
#757=ORIENTED_EDGE('',*,*,#756,.F.);
#758=ORIENTED_EDGE('',*,*,#619,.T.);
#759=EDGE_LOOP('',(#750,#751,#757,#758));
#760=FACE_BOUND('',#759,.T.);
#761=ADVANCED_FACE('',(#760),#744,.F.);
#762=CARTESIAN_POINT('',(62.5025,2.0875,-66.911875));
#763=DIRECTION('',(0.,0.,1.));
#764=DIRECTION('',(1.,0.,-0.));
#765=AXIS2_PLACEMENT_3D('',#762,#763,#764);
#766=PLANE('',#765);
#767=CARTESIAN_POINT('',(102.,3.175,-66.911875));
#768=DIRECTION('',(0.,-1.,0.));
#769=VECTOR('',#768,2.175);
#770=LINE('',#767,#769);
#771=EDGE_CURVE('',#654,#484,#770,.T.);
#772=ORIENTED_EDGE('',*,*,#771,.F.);
#773=ORIENTED_EDGE('',*,*,#659,.F.);
#774=CARTESIAN_POINT('',(64.,3.175,-66.911875));
#775=DIRECTION('',(0.,-1.,0.));
#776=VECTOR('',#775,2.175);
#777=LINE('',#774,#776);
#778=EDGE_CURVE('',#644,#494,#777,.T.);
#779=ORIENTED_EDGE('',*,*,#778,.T.);
#780=ORIENTED_EDGE('',*,*,#499,.T.);
#781=EDGE_LOOP('',(#772,#773,#779,#780));
#782=FACE_BOUND('',#781,.T.);
#783=ADVANCED_FACE('',(#782),#766,.T.);
#784=CARTESIAN_POINT('',(62.5025,1.0875,-67.4746875));
#785=DIRECTION('',(-0.,0.,-1.));
#786=DIRECTION('',(-1.,0.,0.));
#787=AXIS2_PLACEMENT_3D('',#784,#785,#786);
#788=PLANE('',#787);
#789=CARTESIAN_POINT('',(102.,0.,-67.4746875));
#790=DIRECTION('',(0.,1.,0.));
#791=VECTOR('',#790,2.175);
#792=LINE('',#789,#791);
#793=EDGE_CURVE('',#526,#686,#792,.T.);
#794=ORIENTED_EDGE('',*,*,#793,.F.);
#795=ORIENTED_EDGE('',*,*,#553,.F.);
#796=CARTESIAN_POINT('',(64.,0.,-67.4746875));
#797=DIRECTION('',(0.,1.,0.));
#798=VECTOR('',#797,2.175);
#799=LINE('',#796,#798);
#800=EDGE_CURVE('',#542,#694,#799,.T.);
#801=ORIENTED_EDGE('',*,*,#800,.T.);
#802=ORIENTED_EDGE('',*,*,#699,.T.);
#803=EDGE_LOOP('',(#794,#795,#801,#802));
#804=FACE_BOUND('',#803,.T.);
#805=ADVANCED_FACE('',(#804),#788,.T.);
#806=CARTESIAN_POINT('',(62.5025,2.0875,-78.021875));
#807=DIRECTION('',(0.,0.,1.));
#808=DIRECTION('',(1.,0.,-0.));
#809=AXIS2_PLACEMENT_3D('',#806,#807,#808);
#810=PLANE('',#809);
#811=CARTESIAN_POINT('',(102.,3.175,-78.021875));
#812=DIRECTION('',(0.,-1.,0.));
#813=VECTOR('',#812,2.175);
#814=LINE('',#811,#813);
#815=EDGE_CURVE('',#324,#564,#814,.T.);
#816=ORIENTED_EDGE('',*,*,#815,.F.);
#817=ORIENTED_EDGE('',*,*,#353,.F.);
#818=CARTESIAN_POINT('',(64.,3.175,-78.021875));
#819=DIRECTION('',(0.,-1.,0.));
#820=VECTOR('',#819,2.175);
#821=LINE('',#818,#820);
#822=EDGE_CURVE('',#342,#574,#821,.T.);
#823=ORIENTED_EDGE('',*,*,#822,.T.);
#824=ORIENTED_EDGE('',*,*,#579,.T.);
#825=EDGE_LOOP('',(#816,#817,#823,#824));
#826=FACE_BOUND('',#825,.T.);
#827=ADVANCED_FACE('',(#826),#810,.T.);
#828=CARTESIAN_POINT('',(62.5025,1.0875,-78.5846875));
#829=DIRECTION('',(-0.,0.,-1.));
#830=DIRECTION('',(-1.,0.,0.));
#831=AXIS2_PLACEMENT_3D('',#828,#829,#830);
#832=PLANE('',#831);
#833=CARTESIAN_POINT('',(102.,0.,-78.5846875));
#834=DIRECTION('',(0.,1.,0.));
#835=VECTOR('',#834,2.175);
#836=LINE('',#833,#835);
#837=EDGE_CURVE('',#606,#366,#836,.T.);
#838=ORIENTED_EDGE('',*,*,#837,.F.);
#839=ORIENTED_EDGE('',*,*,#633,.F.);
#840=CARTESIAN_POINT('',(64.,0.,-78.5846875));
#841=DIRECTION('',(0.,1.,0.));
#842=VECTOR('',#841,2.175);
#843=LINE('',#840,#842);
#844=EDGE_CURVE('',#622,#374,#843,.T.);
#845=ORIENTED_EDGE('',*,*,#844,.T.);
#846=ORIENTED_EDGE('',*,*,#379,.T.);
#847=EDGE_LOOP('',(#838,#839,#845,#846));
#848=FACE_BOUND('',#847,.T.);
#849=ADVANCED_FACE('',(#848),#832,.T.);
#850=CARTESIAN_POINT('',(62.5025,3.175,-58.8646875));
#851=DIRECTION('',(0.,-1.,0.));
#852=DIRECTION('',(0.,0.,-1.));
#853=AXIS2_PLACEMENT_3D('',#850,#851,#852);
#854=PLANE('',#853);
#855=CARTESIAN_POINT('',(102.,3.175,-55.801875));
#856=VERTEX_POINT('',#855);
#857=CARTESIAN_POINT('',(102.,3.175,-61.9275));
#858=VERTEX_POINT('',#857);
#859=CARTESIAN_POINT('',(102.,3.175,-55.801875));
#860=DIRECTION('',(-0.,0.,-1.));
#861=VECTOR('',#860,6.125625);
#862=LINE('',#859,#861);
#863=EDGE_CURVE('',#856,#858,#862,.T.);
#864=ORIENTED_EDGE('',*,*,#863,.T.);
#865=CARTESIAN_POINT('',(64.,3.175,-61.9275));
#866=VERTEX_POINT('',#865);
#867=CARTESIAN_POINT('',(64.,3.175,-61.9275));
#868=DIRECTION('',(1.,0.,-0.));
#869=VECTOR('',#868,38.);
#870=LINE('',#867,#869);
#871=EDGE_CURVE('',#866,#858,#870,.T.);
#872=ORIENTED_EDGE('',*,*,#871,.F.);
#873=CARTESIAN_POINT('',(64.,3.175,-55.801875));
#874=VERTEX_POINT('',#873);
#875=CARTESIAN_POINT('',(64.,3.175,-55.801875));
#876=DIRECTION('',(-0.,0.,-1.));
#877=VECTOR('',#876,6.125625);
#878=LINE('',#875,#877);
#879=EDGE_CURVE('',#874,#866,#878,.T.);
#880=ORIENTED_EDGE('',*,*,#879,.F.);
#881=CARTESIAN_POINT('',(64.,3.175,-55.801875));
#882=DIRECTION('',(1.,0.,-0.));
#883=VECTOR('',#882,38.);
#884=LINE('',#881,#883);
#885=EDGE_CURVE('',#874,#856,#884,.T.);
#886=ORIENTED_EDGE('',*,*,#885,.T.);
#887=EDGE_LOOP('',(#864,#872,#880,#886));
#888=FACE_BOUND('',#887,.T.);
#889=ADVANCED_FACE('',(#888),#854,.F.);
#890=CARTESIAN_POINT('',(62.5025,2.175,-58.8646875));
#891=DIRECTION('',(0.,1.,0.));
#892=DIRECTION('',(0.,0.,1.));
#893=AXIS2_PLACEMENT_3D('',#890,#891,#892);
#894=PLANE('',#893);
#895=CARTESIAN_POINT('',(102.,2.175,-61.3646875));
#896=VERTEX_POINT('',#895);
#897=CARTESIAN_POINT('',(102.,2.175,-56.3646875));
#898=VERTEX_POINT('',#897);
#899=CARTESIAN_POINT('',(102.,2.175,-61.3646875));
#900=DIRECTION('',(0.,0.,1.));
#901=VECTOR('',#900,5.);
#902=LINE('',#899,#901);
#903=EDGE_CURVE('',#896,#898,#902,.T.);
#904=ORIENTED_EDGE('',*,*,#903,.T.);
#905=CARTESIAN_POINT('',(64.,2.175,-56.3646875));
#906=VERTEX_POINT('',#905);
#907=CARTESIAN_POINT('',(64.,2.175,-56.3646875));
#908=DIRECTION('',(1.,0.,-0.));
#909=VECTOR('',#908,38.);
#910=LINE('',#907,#909);
#911=EDGE_CURVE('',#906,#898,#910,.T.);
#912=ORIENTED_EDGE('',*,*,#911,.F.);
#913=CARTESIAN_POINT('',(64.,2.175,-61.3646875));
#914=VERTEX_POINT('',#913);
#915=CARTESIAN_POINT('',(64.,2.175,-61.3646875));
#916=DIRECTION('',(0.,0.,1.));
#917=VECTOR('',#916,5.);
#918=LINE('',#915,#917);
#919=EDGE_CURVE('',#914,#906,#918,.T.);
#920=ORIENTED_EDGE('',*,*,#919,.F.);
#921=CARTESIAN_POINT('',(64.,2.175,-61.3646875));
#922=DIRECTION('',(1.,0.,-0.));
#923=VECTOR('',#922,38.);
#924=LINE('',#921,#923);
#925=EDGE_CURVE('',#914,#896,#924,.T.);
#926=ORIENTED_EDGE('',*,*,#925,.T.);
#927=EDGE_LOOP('',(#904,#912,#920,#926));
#928=FACE_BOUND('',#927,.T.);
#929=ADVANCED_FACE('',(#928),#894,.F.);
#930=CARTESIAN_POINT('',(62.5025,1.,-53.301875));
#931=DIRECTION('',(0.,1.,0.));
#932=DIRECTION('',(0.,0.,1.));
#933=AXIS2_PLACEMENT_3D('',#930,#931,#932);
#934=PLANE('',#933);
#935=CARTESIAN_POINT('',(102.,1.,-55.801875));
#936=VERTEX_POINT('',#935);
#937=CARTESIAN_POINT('',(102.,1.,-50.8175));
#938=VERTEX_POINT('',#937);
#939=CARTESIAN_POINT('',(102.,1.,-55.801875));
#940=DIRECTION('',(0.,0.,1.));
#941=VECTOR('',#940,4.984375);
#942=LINE('',#939,#941);
#943=EDGE_CURVE('',#936,#938,#942,.T.);
#944=ORIENTED_EDGE('',*,*,#943,.F.);
#945=CARTESIAN_POINT('',(64.,1.,-55.801875));
#946=VERTEX_POINT('',#945);
#947=CARTESIAN_POINT('',(64.,1.,-55.801875));
#948=DIRECTION('',(1.,0.,-0.));
#949=VECTOR('',#948,38.);
#950=LINE('',#947,#949);
#951=EDGE_CURVE('',#946,#936,#950,.T.);
#952=ORIENTED_EDGE('',*,*,#951,.F.);
#953=CARTESIAN_POINT('',(64.,1.,-50.8175));
#954=VERTEX_POINT('',#953);
#955=CARTESIAN_POINT('',(64.,1.,-55.801875));
#956=DIRECTION('',(0.,0.,1.));
#957=VECTOR('',#956,4.984375);
#958=LINE('',#955,#957);
#959=EDGE_CURVE('',#946,#954,#958,.T.);
#960=ORIENTED_EDGE('',*,*,#959,.T.);
#961=CARTESIAN_POINT('',(64.,1.,-50.8175));
#962=DIRECTION('',(1.,0.,-0.));
#963=VECTOR('',#962,38.);
#964=LINE('',#961,#963);
#965=EDGE_CURVE('',#954,#938,#964,.T.);
#966=ORIENTED_EDGE('',*,*,#965,.T.);
#967=EDGE_LOOP('',(#944,#952,#960,#966));
#968=FACE_BOUND('',#967,.T.);
#969=ADVANCED_FACE('',(#968),#934,.T.);
#970=CARTESIAN_POINT('',(62.5025,0.,-53.301875));
#971=DIRECTION('',(0.,-1.,0.));
#972=DIRECTION('',(0.,0.,-1.));
#973=AXIS2_PLACEMENT_3D('',#970,#971,#972);
#974=PLANE('',#973);
#975=CARTESIAN_POINT('',(102.,0.,-50.2546875));
#976=VERTEX_POINT('',#975);
#977=CARTESIAN_POINT('',(102.,0.,-56.3646875));
#978=VERTEX_POINT('',#977);
#979=CARTESIAN_POINT('',(102.,0.,-50.2546875));
#980=DIRECTION('',(-0.,0.,-1.));
#981=VECTOR('',#980,6.11);
#982=LINE('',#979,#981);
#983=EDGE_CURVE('',#976,#978,#982,.T.);
#984=ORIENTED_EDGE('',*,*,#983,.F.);
#985=CARTESIAN_POINT('',(64.,0.,-50.2546875));
#986=VERTEX_POINT('',#985);
#987=CARTESIAN_POINT('',(64.,0.,-50.2546875));
#988=DIRECTION('',(1.,0.,-0.));
#989=VECTOR('',#988,38.);
#990=LINE('',#987,#989);
#991=EDGE_CURVE('',#986,#976,#990,.T.);
#992=ORIENTED_EDGE('',*,*,#991,.F.);
#993=CARTESIAN_POINT('',(64.,0.,-56.3646875));
#994=VERTEX_POINT('',#993);
#995=CARTESIAN_POINT('',(64.,0.,-50.2546875));
#996=DIRECTION('',(-0.,0.,-1.));
#997=VECTOR('',#996,6.11);
#998=LINE('',#995,#997);
#999=EDGE_CURVE('',#986,#994,#998,.T.);
#1000=ORIENTED_EDGE('',*,*,#999,.T.);
#1001=CARTESIAN_POINT('',(64.,0.,-56.3646875));
#1002=DIRECTION('',(1.,0.,-0.));
#1003=VECTOR('',#1002,38.);
#1004=LINE('',#1001,#1003);
#1005=EDGE_CURVE('',#994,#978,#1004,.T.);
#1006=ORIENTED_EDGE('',*,*,#1005,.T.);
#1007=EDGE_LOOP('',(#984,#992,#1000,#1006));
#1008=FACE_BOUND('',#1007,.T.);
#1009=ADVANCED_FACE('',(#1008),#974,.T.);
#1010=CARTESIAN_POINT('',(62.5025,3.175,-47.7546875));
#1011=DIRECTION('',(0.,-1.,0.));
#1012=DIRECTION('',(0.,0.,-1.));
#1013=AXIS2_PLACEMENT_3D('',#1010,#1011,#1012);
#1014=PLANE('',#1013);
#1015=CARTESIAN_POINT('',(64.,3.175,-44.691875));
#1016=VERTEX_POINT('',#1015);
#1017=CARTESIAN_POINT('',(64.,3.175,-50.8175));
#1018=VERTEX_POINT('',#1017);
#1019=CARTESIAN_POINT('',(64.,3.175,-44.691875));
#1020=DIRECTION('',(-0.,0.,-1.));
#1021=VECTOR('',#1020,6.125625);
#1022=LINE('',#1019,#1021);
#1023=EDGE_CURVE('',#1016,#1018,#1022,.T.);
#1024=ORIENTED_EDGE('',*,*,#1023,.F.);
#1025=CARTESIAN_POINT('',(102.,3.175,-44.691875));
#1026=VERTEX_POINT('',#1025);
#1027=CARTESIAN_POINT('',(64.,3.175,-44.691875));
#1028=DIRECTION('',(1.,0.,-0.));
#1029=VECTOR('',#1028,38.);
#1030=LINE('',#1027,#1029);
#1031=EDGE_CURVE('',#1016,#1026,#1030,.T.);
#1032=ORIENTED_EDGE('',*,*,#1031,.T.);
#1033=CARTESIAN_POINT('',(102.,3.175,-50.8175));
#1034=VERTEX_POINT('',#1033);
#1035=CARTESIAN_POINT('',(102.,3.175,-44.691875));
#1036=DIRECTION('',(-0.,0.,-1.));
#1037=VECTOR('',#1036,6.125625);
#1038=LINE('',#1035,#1037);
#1039=EDGE_CURVE('',#1026,#1034,#1038,.T.);
#1040=ORIENTED_EDGE('',*,*,#1039,.T.);
#1041=CARTESIAN_POINT('',(64.,3.175,-50.8175));
#1042=DIRECTION('',(1.,0.,-0.));
#1043=VECTOR('',#1042,38.);
#1044=LINE('',#1041,#1043);
#1045=EDGE_CURVE('',#1018,#1034,#1044,.T.);
#1046=ORIENTED_EDGE('',*,*,#1045,.F.);
#1047=EDGE_LOOP('',(#1024,#1032,#1040,#1046));
#1048=FACE_BOUND('',#1047,.T.);
#1049=ADVANCED_FACE('',(#1048),#1014,.F.);
#1050=CARTESIAN_POINT('',(62.5025,2.175,-47.7546875));
#1051=DIRECTION('',(0.,1.,0.));
#1052=DIRECTION('',(0.,0.,1.));
#1053=AXIS2_PLACEMENT_3D('',#1050,#1051,#1052);
#1054=PLANE('',#1053);
#1055=CARTESIAN_POINT('',(102.,2.175,-50.2546875));
#1056=VERTEX_POINT('',#1055);
#1057=CARTESIAN_POINT('',(102.,2.175,-45.2546875));
#1058=VERTEX_POINT('',#1057);
#1059=CARTESIAN_POINT('',(102.,2.175,-50.2546875));
#1060=DIRECTION('',(0.,0.,1.));
#1061=VECTOR('',#1060,5.);
#1062=LINE('',#1059,#1061);
#1063=EDGE_CURVE('',#1056,#1058,#1062,.T.);
#1064=ORIENTED_EDGE('',*,*,#1063,.T.);
#1065=CARTESIAN_POINT('',(64.,2.175,-45.2546875));
#1066=VERTEX_POINT('',#1065);
#1067=CARTESIAN_POINT('',(64.,2.175,-45.2546875));
#1068=DIRECTION('',(1.,0.,-0.));
#1069=VECTOR('',#1068,38.);
#1070=LINE('',#1067,#1069);
#1071=EDGE_CURVE('',#1066,#1058,#1070,.T.);
#1072=ORIENTED_EDGE('',*,*,#1071,.F.);
#1073=CARTESIAN_POINT('',(64.,2.175,-50.2546875));
#1074=VERTEX_POINT('',#1073);
#1075=CARTESIAN_POINT('',(64.,2.175,-50.2546875));
#1076=DIRECTION('',(0.,0.,1.));
#1077=VECTOR('',#1076,5.);
#1078=LINE('',#1075,#1077);
#1079=EDGE_CURVE('',#1074,#1066,#1078,.T.);
#1080=ORIENTED_EDGE('',*,*,#1079,.F.);
#1081=CARTESIAN_POINT('',(64.,2.175,-50.2546875));
#1082=DIRECTION('',(1.,0.,-0.));
#1083=VECTOR('',#1082,38.);
#1084=LINE('',#1081,#1083);
#1085=EDGE_CURVE('',#1074,#1056,#1084,.T.);
#1086=ORIENTED_EDGE('',*,*,#1085,.T.);
#1087=EDGE_LOOP('',(#1064,#1072,#1080,#1086));
#1088=FACE_BOUND('',#1087,.T.);
#1089=ADVANCED_FACE('',(#1088),#1054,.F.);
#1090=CARTESIAN_POINT('',(62.5025,2.0875,-50.8175));
#1091=DIRECTION('',(-0.,0.,-1.));
#1092=DIRECTION('',(-1.,0.,0.));
#1093=AXIS2_PLACEMENT_3D('',#1090,#1091,#1092);
#1094=PLANE('',#1093);
#1095=CARTESIAN_POINT('',(102.,1.,-50.8175));
#1096=DIRECTION('',(0.,1.,0.));
#1097=VECTOR('',#1096,2.175);
#1098=LINE('',#1095,#1097);
#1099=EDGE_CURVE('',#938,#1034,#1098,.T.);
#1100=ORIENTED_EDGE('',*,*,#1099,.F.);
#1101=ORIENTED_EDGE('',*,*,#965,.F.);
#1102=CARTESIAN_POINT('',(64.,1.,-50.8175));
#1103=DIRECTION('',(0.,1.,0.));
#1104=VECTOR('',#1103,2.175);
#1105=LINE('',#1102,#1104);
#1106=EDGE_CURVE('',#954,#1018,#1105,.T.);
#1107=ORIENTED_EDGE('',*,*,#1106,.T.);
#1108=ORIENTED_EDGE('',*,*,#1045,.T.);
#1109=EDGE_LOOP('',(#1100,#1101,#1107,#1108));
#1110=FACE_BOUND('',#1109,.T.);
#1111=ADVANCED_FACE('',(#1110),#1094,.T.);
#1112=CARTESIAN_POINT('',(62.5025,1.0875,-50.2546875));
#1113=DIRECTION('',(-0.,-0.,-1.));
#1114=DIRECTION('',(0.,1.,-0.));
#1115=AXIS2_PLACEMENT_3D('',#1112,#1113,#1114);
#1116=PLANE('',#1115);
#1117=CARTESIAN_POINT('',(102.,0.,-50.2546875));
#1118=DIRECTION('',(-0.,1.,-0.));
#1119=VECTOR('',#1118,2.175);
#1120=LINE('',#1117,#1119);
#1121=EDGE_CURVE('',#976,#1056,#1120,.T.);
#1122=ORIENTED_EDGE('',*,*,#1121,.T.);
#1123=ORIENTED_EDGE('',*,*,#1085,.F.);
#1124=CARTESIAN_POINT('',(64.,0.,-50.2546875));
#1125=DIRECTION('',(-0.,1.,-0.));
#1126=VECTOR('',#1125,2.175);
#1127=LINE('',#1124,#1126);
#1128=EDGE_CURVE('',#986,#1074,#1127,.T.);
#1129=ORIENTED_EDGE('',*,*,#1128,.F.);
#1130=ORIENTED_EDGE('',*,*,#991,.T.);
#1131=EDGE_LOOP('',(#1122,#1123,#1129,#1130));
#1132=FACE_BOUND('',#1131,.T.);
#1133=ADVANCED_FACE('',(#1132),#1116,.F.);
#1134=CARTESIAN_POINT('',(62.5025,2.0875,-44.691875));
#1135=DIRECTION('',(0.,0.,1.));
#1136=DIRECTION('',(1.,0.,-0.));
#1137=AXIS2_PLACEMENT_3D('',#1134,#1135,#1136);
#1138=PLANE('',#1137);
#1139=CARTESIAN_POINT('',(102.,3.175,-44.691875));
#1140=DIRECTION('',(0.,-1.,0.));
#1141=VECTOR('',#1140,2.175);
#1142=LINE('',#1139,#1141);
#1143=EDGE_CURVE('',#1026,#404,#1142,.T.);
#1144=ORIENTED_EDGE('',*,*,#1143,.F.);
#1145=ORIENTED_EDGE('',*,*,#1031,.F.);
#1146=CARTESIAN_POINT('',(64.,3.175,-44.691875));
#1147=DIRECTION('',(0.,-1.,0.));
#1148=VECTOR('',#1147,2.175);
#1149=LINE('',#1146,#1148);
#1150=EDGE_CURVE('',#1016,#414,#1149,.T.);
#1151=ORIENTED_EDGE('',*,*,#1150,.T.);
#1152=ORIENTED_EDGE('',*,*,#419,.T.);
#1153=EDGE_LOOP('',(#1144,#1145,#1151,#1152));
#1154=FACE_BOUND('',#1153,.T.);
#1155=ADVANCED_FACE('',(#1154),#1138,.T.);
#1156=CARTESIAN_POINT('',(62.5025,1.0875,-45.2546875));
#1157=DIRECTION('',(-0.,0.,-1.));
#1158=DIRECTION('',(-1.,0.,0.));
#1159=AXIS2_PLACEMENT_3D('',#1156,#1157,#1158);
#1160=PLANE('',#1159);
#1161=CARTESIAN_POINT('',(102.,0.,-45.2546875));
#1162=DIRECTION('',(0.,1.,0.));
#1163=VECTOR('',#1162,2.175);
#1164=LINE('',#1161,#1163);
#1165=EDGE_CURVE('',#446,#1058,#1164,.T.);
#1166=ORIENTED_EDGE('',*,*,#1165,.F.);
#1167=ORIENTED_EDGE('',*,*,#473,.F.);
#1168=CARTESIAN_POINT('',(64.,0.,-45.2546875));
#1169=DIRECTION('',(0.,1.,0.));
#1170=VECTOR('',#1169,2.175);
#1171=LINE('',#1168,#1170);
#1172=EDGE_CURVE('',#462,#1066,#1171,.T.);
#1173=ORIENTED_EDGE('',*,*,#1172,.T.);
#1174=ORIENTED_EDGE('',*,*,#1071,.T.);
#1175=EDGE_LOOP('',(#1166,#1167,#1173,#1174));
#1176=FACE_BOUND('',#1175,.T.);
#1177=ADVANCED_FACE('',(#1176),#1160,.T.);
#1178=CARTESIAN_POINT('',(62.5025,2.0875,-55.801875));
#1179=DIRECTION('',(0.,0.,1.));
#1180=DIRECTION('',(1.,0.,-0.));
#1181=AXIS2_PLACEMENT_3D('',#1178,#1179,#1180);
#1182=PLANE('',#1181);
#1183=CARTESIAN_POINT('',(102.,3.175,-55.801875));
#1184=DIRECTION('',(0.,-1.,0.));
#1185=VECTOR('',#1184,2.175);
#1186=LINE('',#1183,#1185);
#1187=EDGE_CURVE('',#856,#936,#1186,.T.);
#1188=ORIENTED_EDGE('',*,*,#1187,.F.);
#1189=ORIENTED_EDGE('',*,*,#885,.F.);
#1190=CARTESIAN_POINT('',(64.,3.175,-55.801875));
#1191=DIRECTION('',(0.,-1.,0.));
#1192=VECTOR('',#1191,2.175);
#1193=LINE('',#1190,#1192);
#1194=EDGE_CURVE('',#874,#946,#1193,.T.);
#1195=ORIENTED_EDGE('',*,*,#1194,.T.);
#1196=ORIENTED_EDGE('',*,*,#951,.T.);
#1197=EDGE_LOOP('',(#1188,#1189,#1195,#1196));
#1198=FACE_BOUND('',#1197,.T.);
#1199=ADVANCED_FACE('',(#1198),#1182,.T.);
#1200=CARTESIAN_POINT('',(62.5025,1.0875,-56.3646875));
#1201=DIRECTION('',(-0.,0.,-1.));
#1202=DIRECTION('',(-1.,0.,0.));
#1203=AXIS2_PLACEMENT_3D('',#1200,#1201,#1202);
#1204=PLANE('',#1203);
#1205=CARTESIAN_POINT('',(102.,0.,-56.3646875));
#1206=DIRECTION('',(0.,1.,0.));
#1207=VECTOR('',#1206,2.175);
#1208=LINE('',#1205,#1207);
#1209=EDGE_CURVE('',#978,#898,#1208,.T.);
#1210=ORIENTED_EDGE('',*,*,#1209,.F.);
#1211=ORIENTED_EDGE('',*,*,#1005,.F.);
#1212=CARTESIAN_POINT('',(64.,0.,-56.3646875));
#1213=DIRECTION('',(0.,1.,0.));
#1214=VECTOR('',#1213,2.175);
#1215=LINE('',#1212,#1214);
#1216=EDGE_CURVE('',#994,#906,#1215,.T.);
#1217=ORIENTED_EDGE('',*,*,#1216,.T.);
#1218=ORIENTED_EDGE('',*,*,#911,.T.);
#1219=EDGE_LOOP('',(#1210,#1211,#1217,#1218));
#1220=FACE_BOUND('',#1219,.T.);
#1221=ADVANCED_FACE('',(#1220),#1204,.T.);
#1222=CARTESIAN_POINT('',(62.5025,2.0875,-61.9275));
#1223=DIRECTION('',(-0.,0.,-1.));
#1224=DIRECTION('',(-1.,0.,0.));
#1225=AXIS2_PLACEMENT_3D('',#1222,#1223,#1224);
#1226=PLANE('',#1225);
#1227=CARTESIAN_POINT('',(102.,1.,-61.9275));
#1228=DIRECTION('',(0.,1.,0.));
#1229=VECTOR('',#1228,2.175);
#1230=LINE('',#1227,#1229);
#1231=EDGE_CURVE('',#486,#858,#1230,.T.);
#1232=ORIENTED_EDGE('',*,*,#1231,.F.);
#1233=ORIENTED_EDGE('',*,*,#513,.F.);
#1234=CARTESIAN_POINT('',(64.,1.,-61.9275));
#1235=DIRECTION('',(0.,1.,0.));
#1236=VECTOR('',#1235,2.175);
#1237=LINE('',#1234,#1236);
#1238=EDGE_CURVE('',#502,#866,#1237,.T.);
#1239=ORIENTED_EDGE('',*,*,#1238,.T.);
#1240=ORIENTED_EDGE('',*,*,#871,.T.);
#1241=EDGE_LOOP('',(#1232,#1233,#1239,#1240));
#1242=FACE_BOUND('',#1241,.T.);
#1243=ADVANCED_FACE('',(#1242),#1226,.T.);
#1244=CARTESIAN_POINT('',(62.5025,1.0875,-61.3646875));
#1245=DIRECTION('',(-0.,0.,-1.));
#1246=DIRECTION('',(-1.,0.,0.));
#1247=AXIS2_PLACEMENT_3D('',#1244,#1245,#1246);
#1248=PLANE('',#1247);
#1249=CARTESIAN_POINT('',(102.,0.,-61.3646875));
#1250=DIRECTION('',(0.,1.,0.));
#1251=VECTOR('',#1250,2.175);
#1252=LINE('',#1249,#1251);
#1253=EDGE_CURVE('',#524,#896,#1252,.T.);
#1254=ORIENTED_EDGE('',*,*,#1253,.T.);
#1255=ORIENTED_EDGE('',*,*,#925,.F.);
#1256=CARTESIAN_POINT('',(64.,0.,-61.3646875));
#1257=DIRECTION('',(0.,1.,0.));
#1258=VECTOR('',#1257,2.175);
#1259=LINE('',#1256,#1258);
#1260=EDGE_CURVE('',#534,#914,#1259,.T.);
#1261=ORIENTED_EDGE('',*,*,#1260,.F.);
#1262=ORIENTED_EDGE('',*,*,#539,.T.);
#1263=EDGE_LOOP('',(#1254,#1255,#1261,#1262));
#1264=FACE_BOUND('',#1263,.T.);
#1265=ADVANCED_FACE('',(#1264),#1248,.F.);
#1266=CARTESIAN_POINT('',(62.5025,3.175,-36.6446875));
#1267=DIRECTION('',(0.,-1.,0.));
#1268=DIRECTION('',(0.,0.,-1.));
#1269=AXIS2_PLACEMENT_3D('',#1266,#1267,#1268);
#1270=PLANE('',#1269);
#1271=CARTESIAN_POINT('',(102.,3.175,-33.581875));
#1272=VERTEX_POINT('',#1271);
#1273=CARTESIAN_POINT('',(102.,3.175,-39.7075));
#1274=VERTEX_POINT('',#1273);
#1275=CARTESIAN_POINT('',(102.,3.175,-33.581875));
#1276=DIRECTION('',(-0.,0.,-1.));
#1277=VECTOR('',#1276,6.125625);
#1278=LINE('',#1275,#1277);
#1279=EDGE_CURVE('',#1272,#1274,#1278,.T.);
#1280=ORIENTED_EDGE('',*,*,#1279,.T.);
#1281=CARTESIAN_POINT('',(64.,3.175,-39.7075));
#1282=VERTEX_POINT('',#1281);
#1283=CARTESIAN_POINT('',(64.,3.175,-39.7075));
#1284=DIRECTION('',(1.,0.,-0.));
#1285=VECTOR('',#1284,38.);
#1286=LINE('',#1283,#1285);
#1287=EDGE_CURVE('',#1282,#1274,#1286,.T.);
#1288=ORIENTED_EDGE('',*,*,#1287,.F.);
#1289=CARTESIAN_POINT('',(64.,3.175,-33.581875));
#1290=VERTEX_POINT('',#1289);
#1291=CARTESIAN_POINT('',(64.,3.175,-33.581875));
#1292=DIRECTION('',(-0.,0.,-1.));
#1293=VECTOR('',#1292,6.125625);
#1294=LINE('',#1291,#1293);
#1295=EDGE_CURVE('',#1290,#1282,#1294,.T.);
#1296=ORIENTED_EDGE('',*,*,#1295,.F.);
#1297=CARTESIAN_POINT('',(64.,3.175,-33.581875));
#1298=DIRECTION('',(1.,0.,-0.));
#1299=VECTOR('',#1298,38.);
#1300=LINE('',#1297,#1299);
#1301=EDGE_CURVE('',#1290,#1272,#1300,.T.);
#1302=ORIENTED_EDGE('',*,*,#1301,.T.);
#1303=EDGE_LOOP('',(#1280,#1288,#1296,#1302));
#1304=FACE_BOUND('',#1303,.T.);
#1305=ADVANCED_FACE('',(#1304),#1270,.F.);
#1306=CARTESIAN_POINT('',(62.5025,2.175,-36.6446875));
#1307=DIRECTION('',(0.,1.,0.));
#1308=DIRECTION('',(0.,0.,1.));
#1309=AXIS2_PLACEMENT_3D('',#1306,#1307,#1308);
#1310=PLANE('',#1309);
#1311=CARTESIAN_POINT('',(102.,2.175,-39.1446875));
#1312=VERTEX_POINT('',#1311);
#1313=CARTESIAN_POINT('',(102.,2.175,-34.1446875));
#1314=VERTEX_POINT('',#1313);
#1315=CARTESIAN_POINT('',(102.,2.175,-39.1446875));
#1316=DIRECTION('',(0.,0.,1.));
#1317=VECTOR('',#1316,5.);
#1318=LINE('',#1315,#1317);
#1319=EDGE_CURVE('',#1312,#1314,#1318,.T.);
#1320=ORIENTED_EDGE('',*,*,#1319,.T.);
#1321=CARTESIAN_POINT('',(64.,2.175,-34.1446875));
#1322=VERTEX_POINT('',#1321);
#1323=CARTESIAN_POINT('',(64.,2.175,-34.1446875));
#1324=DIRECTION('',(1.,0.,-0.));
#1325=VECTOR('',#1324,38.);
#1326=LINE('',#1323,#1325);
#1327=EDGE_CURVE('',#1322,#1314,#1326,.T.);
#1328=ORIENTED_EDGE('',*,*,#1327,.F.);
#1329=CARTESIAN_POINT('',(64.,2.175,-39.1446875));
#1330=VERTEX_POINT('',#1329);
#1331=CARTESIAN_POINT('',(64.,2.175,-39.1446875));
#1332=DIRECTION('',(0.,0.,1.));
#1333=VECTOR('',#1332,5.);
#1334=LINE('',#1331,#1333);
#1335=EDGE_CURVE('',#1330,#1322,#1334,.T.);
#1336=ORIENTED_EDGE('',*,*,#1335,.F.);
#1337=CARTESIAN_POINT('',(64.,2.175,-39.1446875));
#1338=DIRECTION('',(1.,0.,-0.));
#1339=VECTOR('',#1338,38.);
#1340=LINE('',#1337,#1339);
#1341=EDGE_CURVE('',#1330,#1312,#1340,.T.);
#1342=ORIENTED_EDGE('',*,*,#1341,.T.);
#1343=EDGE_LOOP('',(#1320,#1328,#1336,#1342));
#1344=FACE_BOUND('',#1343,.T.);
#1345=ADVANCED_FACE('',(#1344),#1310,.F.);
#1346=CARTESIAN_POINT('',(62.5025,1.,-31.081875));
#1347=DIRECTION('',(0.,1.,0.));
#1348=DIRECTION('',(0.,0.,1.));
#1349=AXIS2_PLACEMENT_3D('',#1346,#1347,#1348);
#1350=PLANE('',#1349);
#1351=CARTESIAN_POINT('',(102.,1.,-33.581875));
#1352=VERTEX_POINT('',#1351);
#1353=CARTESIAN_POINT('',(102.,1.,-28.5975));
#1354=VERTEX_POINT('',#1353);
#1355=CARTESIAN_POINT('',(102.,1.,-33.581875));
#1356=DIRECTION('',(0.,0.,1.));
#1357=VECTOR('',#1356,4.984375);
#1358=LINE('',#1355,#1357);
#1359=EDGE_CURVE('',#1352,#1354,#1358,.T.);
#1360=ORIENTED_EDGE('',*,*,#1359,.F.);
#1361=CARTESIAN_POINT('',(64.,1.,-33.581875));
#1362=VERTEX_POINT('',#1361);
#1363=CARTESIAN_POINT('',(64.,1.,-33.581875));
#1364=DIRECTION('',(1.,0.,-0.));
#1365=VECTOR('',#1364,38.);
#1366=LINE('',#1363,#1365);
#1367=EDGE_CURVE('',#1362,#1352,#1366,.T.);
#1368=ORIENTED_EDGE('',*,*,#1367,.F.);
#1369=CARTESIAN_POINT('',(64.,1.,-28.5975));
#1370=VERTEX_POINT('',#1369);
#1371=CARTESIAN_POINT('',(64.,1.,-33.581875));
#1372=DIRECTION('',(0.,0.,1.));
#1373=VECTOR('',#1372,4.984375);
#1374=LINE('',#1371,#1373);
#1375=EDGE_CURVE('',#1362,#1370,#1374,.T.);
#1376=ORIENTED_EDGE('',*,*,#1375,.T.);
#1377=CARTESIAN_POINT('',(64.,1.,-28.5975));
#1378=DIRECTION('',(1.,0.,-0.));
#1379=VECTOR('',#1378,38.);
#1380=LINE('',#1377,#1379);
#1381=EDGE_CURVE('',#1370,#1354,#1380,.T.);
#1382=ORIENTED_EDGE('',*,*,#1381,.T.);
#1383=EDGE_LOOP('',(#1360,#1368,#1376,#1382));
#1384=FACE_BOUND('',#1383,.T.);
#1385=ADVANCED_FACE('',(#1384),#1350,.T.);
#1386=CARTESIAN_POINT('',(62.5025,0.,-31.081875));
#1387=DIRECTION('',(0.,-1.,0.));
#1388=DIRECTION('',(0.,0.,-1.));
#1389=AXIS2_PLACEMENT_3D('',#1386,#1387,#1388);
#1390=PLANE('',#1389);
#1391=CARTESIAN_POINT('',(102.,0.,-28.0346875));
#1392=VERTEX_POINT('',#1391);
#1393=CARTESIAN_POINT('',(102.,0.,-34.1446875));
#1394=VERTEX_POINT('',#1393);
#1395=CARTESIAN_POINT('',(102.,0.,-28.0346875));
#1396=DIRECTION('',(-0.,0.,-1.));
#1397=VECTOR('',#1396,6.11);
#1398=LINE('',#1395,#1397);
#1399=EDGE_CURVE('',#1392,#1394,#1398,.T.);
#1400=ORIENTED_EDGE('',*,*,#1399,.F.);
#1401=CARTESIAN_POINT('',(64.,0.,-28.0346875));
#1402=VERTEX_POINT('',#1401);
#1403=CARTESIAN_POINT('',(64.,0.,-28.0346875));
#1404=DIRECTION('',(1.,0.,-0.));
#1405=VECTOR('',#1404,38.);
#1406=LINE('',#1403,#1405);
#1407=EDGE_CURVE('',#1402,#1392,#1406,.T.);
#1408=ORIENTED_EDGE('',*,*,#1407,.F.);
#1409=CARTESIAN_POINT('',(64.,0.,-34.1446875));
#1410=VERTEX_POINT('',#1409);
#1411=CARTESIAN_POINT('',(64.,0.,-28.0346875));
#1412=DIRECTION('',(-0.,0.,-1.));
#1413=VECTOR('',#1412,6.11);
#1414=LINE('',#1411,#1413);
#1415=EDGE_CURVE('',#1402,#1410,#1414,.T.);
#1416=ORIENTED_EDGE('',*,*,#1415,.T.);
#1417=CARTESIAN_POINT('',(64.,0.,-34.1446875));
#1418=DIRECTION('',(1.,0.,-0.));
#1419=VECTOR('',#1418,38.);
#1420=LINE('',#1417,#1419);
#1421=EDGE_CURVE('',#1410,#1394,#1420,.T.);
#1422=ORIENTED_EDGE('',*,*,#1421,.T.);
#1423=EDGE_LOOP('',(#1400,#1408,#1416,#1422));
#1424=FACE_BOUND('',#1423,.T.);
#1425=ADVANCED_FACE('',(#1424),#1390,.T.);
#1426=CARTESIAN_POINT('',(62.5025,2.0875,-28.5975));
#1427=DIRECTION('',(-0.,0.,-1.));
#1428=DIRECTION('',(-1.,0.,0.));
#1429=AXIS2_PLACEMENT_3D('',#1426,#1427,#1428);
#1430=PLANE('',#1429);
#1431=CARTESIAN_POINT('',(102.,3.175,-28.5975));
#1432=VERTEX_POINT('',#1431);
#1433=CARTESIAN_POINT('',(102.,1.,-28.5975));
#1434=DIRECTION('',(0.,1.,0.));
#1435=VECTOR('',#1434,2.175);
#1436=LINE('',#1433,#1435);
#1437=EDGE_CURVE('',#1354,#1432,#1436,.T.);
#1438=ORIENTED_EDGE('',*,*,#1437,.F.);
#1439=ORIENTED_EDGE('',*,*,#1381,.F.);
#1440=CARTESIAN_POINT('',(64.,3.175,-28.5975));
#1441=VERTEX_POINT('',#1440);
#1442=CARTESIAN_POINT('',(64.,1.,-28.5975));
#1443=DIRECTION('',(0.,1.,0.));
#1444=VECTOR('',#1443,2.175);
#1445=LINE('',#1442,#1444);
#1446=EDGE_CURVE('',#1370,#1441,#1445,.T.);
#1447=ORIENTED_EDGE('',*,*,#1446,.T.);
#1448=CARTESIAN_POINT('',(64.,3.175,-28.5975));
#1449=DIRECTION('',(1.,0.,-0.));
#1450=VECTOR('',#1449,38.);
#1451=LINE('',#1448,#1450);
#1452=EDGE_CURVE('',#1441,#1432,#1451,.T.);
#1453=ORIENTED_EDGE('',*,*,#1452,.T.);
#1454=EDGE_LOOP('',(#1438,#1439,#1447,#1453));
#1455=FACE_BOUND('',#1454,.T.);
#1456=ADVANCED_FACE('',(#1455),#1430,.T.);
#1457=CARTESIAN_POINT('',(62.5025,1.0875,-28.0346875));
#1458=DIRECTION('',(-0.,0.,-1.));
#1459=DIRECTION('',(-1.,0.,0.));
#1460=AXIS2_PLACEMENT_3D('',#1457,#1458,#1459);
#1461=PLANE('',#1460);
#1462=CARTESIAN_POINT('',(102.,2.175,-28.0346875));
#1463=VERTEX_POINT('',#1462);
#1464=CARTESIAN_POINT('',(102.,0.,-28.0346875));
#1465=DIRECTION('',(0.,1.,0.));
#1466=VECTOR('',#1465,2.175);
#1467=LINE('',#1464,#1466);
#1468=EDGE_CURVE('',#1392,#1463,#1467,.T.);
#1469=ORIENTED_EDGE('',*,*,#1468,.T.);
#1470=CARTESIAN_POINT('',(64.,2.175,-28.0346875));
#1471=VERTEX_POINT('',#1470);
#1472=CARTESIAN_POINT('',(64.,2.175,-28.0346875));
#1473=DIRECTION('',(1.,0.,-0.));
#1474=VECTOR('',#1473,38.);
#1475=LINE('',#1472,#1474);
#1476=EDGE_CURVE('',#1471,#1463,#1475,.T.);
#1477=ORIENTED_EDGE('',*,*,#1476,.F.);
#1478=CARTESIAN_POINT('',(64.,0.,-28.0346875));
#1479=DIRECTION('',(0.,1.,0.));
#1480=VECTOR('',#1479,2.175);
#1481=LINE('',#1478,#1480);
#1482=EDGE_CURVE('',#1402,#1471,#1481,.T.);
#1483=ORIENTED_EDGE('',*,*,#1482,.F.);
#1484=ORIENTED_EDGE('',*,*,#1407,.T.);
#1485=EDGE_LOOP('',(#1469,#1477,#1483,#1484));
#1486=FACE_BOUND('',#1485,.T.);
#1487=ADVANCED_FACE('',(#1486),#1461,.F.);
#1488=CARTESIAN_POINT('',(62.5025,2.0875,-33.581875));
#1489=DIRECTION('',(0.,0.,1.));
#1490=DIRECTION('',(1.,0.,-0.));
#1491=AXIS2_PLACEMENT_3D('',#1488,#1489,#1490);
#1492=PLANE('',#1491);
#1493=CARTESIAN_POINT('',(102.,3.175,-33.581875));
#1494=DIRECTION('',(0.,-1.,0.));
#1495=VECTOR('',#1494,2.175);
#1496=LINE('',#1493,#1495);
#1497=EDGE_CURVE('',#1272,#1352,#1496,.T.);
#1498=ORIENTED_EDGE('',*,*,#1497,.F.);
#1499=ORIENTED_EDGE('',*,*,#1301,.F.);
#1500=CARTESIAN_POINT('',(64.,3.175,-33.581875));
#1501=DIRECTION('',(0.,-1.,0.));
#1502=VECTOR('',#1501,2.175);
#1503=LINE('',#1500,#1502);
#1504=EDGE_CURVE('',#1290,#1362,#1503,.T.);
#1505=ORIENTED_EDGE('',*,*,#1504,.T.);
#1506=ORIENTED_EDGE('',*,*,#1367,.T.);
#1507=EDGE_LOOP('',(#1498,#1499,#1505,#1506));
#1508=FACE_BOUND('',#1507,.T.);
#1509=ADVANCED_FACE('',(#1508),#1492,.T.);
#1510=CARTESIAN_POINT('',(62.5025,1.0875,-34.1446875));
#1511=DIRECTION('',(-0.,0.,-1.));
#1512=DIRECTION('',(-1.,0.,0.));
#1513=AXIS2_PLACEMENT_3D('',#1510,#1511,#1512);
#1514=PLANE('',#1513);
#1515=CARTESIAN_POINT('',(102.,0.,-34.1446875));
#1516=DIRECTION('',(0.,1.,0.));
#1517=VECTOR('',#1516,2.175);
#1518=LINE('',#1515,#1517);
#1519=EDGE_CURVE('',#1394,#1314,#1518,.T.);
#1520=ORIENTED_EDGE('',*,*,#1519,.F.);
#1521=ORIENTED_EDGE('',*,*,#1421,.F.);
#1522=CARTESIAN_POINT('',(64.,0.,-34.1446875));
#1523=DIRECTION('',(0.,1.,0.));
#1524=VECTOR('',#1523,2.175);
#1525=LINE('',#1522,#1524);
#1526=EDGE_CURVE('',#1410,#1322,#1525,.T.);
#1527=ORIENTED_EDGE('',*,*,#1526,.T.);
#1528=ORIENTED_EDGE('',*,*,#1327,.T.);
#1529=EDGE_LOOP('',(#1520,#1521,#1527,#1528));
#1530=FACE_BOUND('',#1529,.T.);
#1531=ADVANCED_FACE('',(#1530),#1514,.T.);
#1532=CARTESIAN_POINT('',(62.5025,2.0875,-39.7075));
#1533=DIRECTION('',(-0.,0.,-1.));
#1534=DIRECTION('',(-1.,0.,0.));
#1535=AXIS2_PLACEMENT_3D('',#1532,#1533,#1534);
#1536=PLANE('',#1535);
#1537=CARTESIAN_POINT('',(102.,1.,-39.7075));
#1538=DIRECTION('',(0.,1.,0.));
#1539=VECTOR('',#1538,2.175);
#1540=LINE('',#1537,#1539);
#1541=EDGE_CURVE('',#406,#1274,#1540,.T.);
#1542=ORIENTED_EDGE('',*,*,#1541,.F.);
#1543=ORIENTED_EDGE('',*,*,#433,.F.);
#1544=CARTESIAN_POINT('',(64.,1.,-39.7075));
#1545=DIRECTION('',(0.,1.,0.));
#1546=VECTOR('',#1545,2.175);
#1547=LINE('',#1544,#1546);
#1548=EDGE_CURVE('',#422,#1282,#1547,.T.);
#1549=ORIENTED_EDGE('',*,*,#1548,.T.);
#1550=ORIENTED_EDGE('',*,*,#1287,.T.);
#1551=EDGE_LOOP('',(#1542,#1543,#1549,#1550));
#1552=FACE_BOUND('',#1551,.T.);
#1553=ADVANCED_FACE('',(#1552),#1536,.T.);
#1554=CARTESIAN_POINT('',(62.5025,1.0875,-39.1446875));
#1555=DIRECTION('',(-0.,-0.,-1.));
#1556=DIRECTION('',(0.,1.,-0.));
#1557=AXIS2_PLACEMENT_3D('',#1554,#1555,#1556);
#1558=PLANE('',#1557);
#1559=CARTESIAN_POINT('',(102.,0.,-39.1446875));
#1560=DIRECTION('',(-0.,1.,-0.));
#1561=VECTOR('',#1560,2.175);
#1562=LINE('',#1559,#1561);
#1563=EDGE_CURVE('',#444,#1312,#1562,.T.);
#1564=ORIENTED_EDGE('',*,*,#1563,.T.);
#1565=ORIENTED_EDGE('',*,*,#1341,.F.);
#1566=CARTESIAN_POINT('',(64.,0.,-39.1446875));
#1567=DIRECTION('',(-0.,1.,-0.));
#1568=VECTOR('',#1567,2.175);
#1569=LINE('',#1566,#1568);
#1570=EDGE_CURVE('',#454,#1330,#1569,.T.);
#1571=ORIENTED_EDGE('',*,*,#1570,.F.);
#1572=ORIENTED_EDGE('',*,*,#459,.T.);
#1573=EDGE_LOOP('',(#1564,#1565,#1571,#1572));
#1574=FACE_BOUND('',#1573,.T.);
#1575=ADVANCED_FACE('',(#1574),#1558,.F.);
#1576=CARTESIAN_POINT('',(62.5025,2.0875,-84.1475));
#1577=DIRECTION('',(-0.,0.,-1.));
#1578=DIRECTION('',(-1.,0.,0.));
#1579=AXIS2_PLACEMENT_3D('',#1576,#1577,#1578);
#1580=PLANE('',#1579);
#1581=CARTESIAN_POINT('',(102.,1.,-84.1475));
#1582=DIRECTION('',(0.,1.,0.));
#1583=VECTOR('',#1582,2.175);
#1584=LINE('',#1581,#1583);
#1585=EDGE_CURVE('',#286,#326,#1584,.T.);
#1586=ORIENTED_EDGE('',*,*,#1585,.F.);
#1587=ORIENTED_EDGE('',*,*,#313,.F.);
#1588=CARTESIAN_POINT('',(64.,1.,-84.1475));
#1589=DIRECTION('',(0.,1.,0.));
#1590=VECTOR('',#1589,2.175);
#1591=LINE('',#1588,#1590);
#1592=EDGE_CURVE('',#302,#334,#1591,.T.);
#1593=ORIENTED_EDGE('',*,*,#1592,.T.);
#1594=ORIENTED_EDGE('',*,*,#339,.T.);
#1595=EDGE_LOOP('',(#1586,#1587,#1593,#1594));
#1596=FACE_BOUND('',#1595,.T.);
#1597=ADVANCED_FACE('',(#1596),#1580,.T.);
#1598=CARTESIAN_POINT('',(62.5025,0.5,-83.5846875));
#1599=DIRECTION('',(-0.,0.,-1.));
#1600=DIRECTION('',(-1.,0.,0.));
#1601=AXIS2_PLACEMENT_3D('',#1598,#1599,#1600);
#1602=PLANE('',#1601);
#1603=CARTESIAN_POINT('',(102.,0.,-83.5846875));
#1604=DIRECTION('',(0.,1.,0.));
#1605=VECTOR('',#1604,2.175);
#1606=LINE('',#1603,#1605);
#1607=EDGE_CURVE('',#180,#364,#1606,.T.);
#1608=ORIENTED_EDGE('',*,*,#1607,.T.);
#1609=ORIENTED_EDGE('',*,*,#393,.F.);
#1610=CARTESIAN_POINT('',(64.,0.,-83.5846875));
#1611=DIRECTION('',(0.,1.,0.));
#1612=VECTOR('',#1611,2.175);
#1613=LINE('',#1610,#1612);
#1614=EDGE_CURVE('',#188,#382,#1613,.T.);
#1615=ORIENTED_EDGE('',*,*,#1614,.F.);
#1616=ORIENTED_EDGE('',*,*,#193,.T.);
#1617=EDGE_LOOP('',(#1608,#1609,#1615,#1616));
#1618=FACE_BOUND('',#1617,.T.);
#1619=ADVANCED_FACE('',(#1618),#1602,.F.);
#1620=CARTESIAN_POINT('',(70.,0.,-96.6475));
#1621=DIRECTION('',(0.,0.,1.));
#1622=DIRECTION('',(1.,0.,-0.));
#1623=AXIS2_PLACEMENT_3D('',#1620,#1621,#1622);
#1624=PLANE('',#1623);
#1625=ORIENTED_EDGE('',*,*,#120,.T.);
#1626=CARTESIAN_POINT('',(68.5,3.175,-96.6475));
#1627=DIRECTION('',(0.,-1.,0.));
#1628=VECTOR('',#1627,3.175);
#1629=LINE('',#1626,#1628);
#1630=EDGE_CURVE('',#107,#204,#1629,.T.);
#1631=ORIENTED_EDGE('',*,*,#1630,.T.);
#1632=ORIENTED_EDGE('',*,*,#209,.F.);
#1633=CARTESIAN_POINT('',(64.,3.175,-96.6475));
#1634=DIRECTION('',(0.,-1.,0.));
#1635=VECTOR('',#1634,3.175);
#1636=LINE('',#1633,#1635);
#1637=EDGE_CURVE('',#115,#196,#1636,.T.);
#1638=ORIENTED_EDGE('',*,*,#1637,.F.);
#1639=EDGE_LOOP('',(#1625,#1631,#1632,#1638));
#1640=FACE_BOUND('',#1639,.T.);
#1641=ADVANCED_FACE('',(#1640),#1624,.F.);
#1642=CARTESIAN_POINT('',(70.,0.,-96.6475));
#1643=DIRECTION('',(0.,0.,1.));
#1644=DIRECTION('',(1.,0.,-0.));
#1645=AXIS2_PLACEMENT_3D('',#1642,#1643,#1644);
#1646=PLANE('',#1645);
#1647=ORIENTED_EDGE('',*,*,#177,.F.);
#1648=CARTESIAN_POINT('',(82.,0.,-96.6475));
#1649=DIRECTION('',(0.,1.,0.));
#1650=VECTOR('',#1649,3.175);
#1651=LINE('',#1648,#1650);
#1652=EDGE_CURVE('',#170,#83,#1651,.T.);
#1653=ORIENTED_EDGE('',*,*,#1652,.T.);
#1654=ORIENTED_EDGE('',*,*,#88,.T.);
#1655=CARTESIAN_POINT('',(102.,3.175,-96.6475));
#1656=DIRECTION('',(0.,-1.,0.));
#1657=VECTOR('',#1656,3.175);
#1658=LINE('',#1655,#1657);
#1659=EDGE_CURVE('',#73,#172,#1658,.T.);
#1660=ORIENTED_EDGE('',*,*,#1659,.T.);
#1661=EDGE_LOOP('',(#1647,#1653,#1654,#1660));
#1662=FACE_BOUND('',#1661,.T.);
#1663=ADVANCED_FACE('',(#1662),#1646,.F.);
#1664=CARTESIAN_POINT('',(68.5,1.5875,-99.6475));
#1665=DIRECTION('',(-1.,0.,0.));
#1666=DIRECTION('',(0.,0.,1.));
#1667=AXIS2_PLACEMENT_3D('',#1664,#1665,#1666);
#1668=PLANE('',#1667);
#1669=ORIENTED_EDGE('',*,*,#1630,.F.);
#1670=ORIENTED_EDGE('',*,*,#112,.F.);
#1671=CARTESIAN_POINT('',(68.5,3.175,-99.6475));
#1672=DIRECTION('',(0.,-1.,0.));
#1673=VECTOR('',#1672,3.175);
#1674=LINE('',#1671,#1673);
#1675=EDGE_CURVE('',#99,#212,#1674,.T.);
#1676=ORIENTED_EDGE('',*,*,#1675,.T.);
#1677=ORIENTED_EDGE('',*,*,#217,.T.);
#1678=EDGE_LOOP('',(#1669,#1670,#1676,#1677));
#1679=FACE_BOUND('',#1678,.T.);
#1680=ADVANCED_FACE('',(#1679),#1668,.T.);
#1681=CARTESIAN_POINT('',(82.,1.5875,-99.6475));
#1682=DIRECTION('',(1.,0.,-0.));
#1683=DIRECTION('',(-0.,0.,-1.));
#1684=AXIS2_PLACEMENT_3D('',#1681,#1682,#1683);
#1685=PLANE('',#1684);
#1686=ORIENTED_EDGE('',*,*,#1652,.F.);
#1687=ORIENTED_EDGE('',*,*,#231,.F.);
#1688=CARTESIAN_POINT('',(82.,0.,-99.6475));
#1689=DIRECTION('',(0.,1.,0.));
#1690=VECTOR('',#1689,3.175);
#1691=LINE('',#1688,#1690);
#1692=EDGE_CURVE('',#220,#91,#1691,.T.);
#1693=ORIENTED_EDGE('',*,*,#1692,.T.);
#1694=ORIENTED_EDGE('',*,*,#96,.T.);
#1695=EDGE_LOOP('',(#1686,#1687,#1693,#1694));
#1696=FACE_BOUND('',#1695,.T.);
#1697=ADVANCED_FACE('',(#1696),#1685,.T.);
#1698=CARTESIAN_POINT('',(-0.,0.,-99.6475));
#1699=DIRECTION('',(-0.,0.,-1.));
#1700=DIRECTION('',(-1.,0.,0.));
#1701=AXIS2_PLACEMENT_3D('',#1698,#1699,#1700);
#1702=PLANE('',#1701);
#1703=ORIENTED_EDGE('',*,*,#1675,.F.);
#1704=ORIENTED_EDGE('',*,*,#104,.F.);
#1705=ORIENTED_EDGE('',*,*,#1692,.F.);
#1706=ORIENTED_EDGE('',*,*,#225,.F.);
#1707=EDGE_LOOP('',(#1703,#1704,#1705,#1706));
#1708=FACE_BOUND('',#1707,.T.);
#1709=ADVANCED_FACE('',(#1708),#1702,.T.);
#1710=CARTESIAN_POINT('',(62.5025,1.5875,-91.1396875));
#1711=DIRECTION('',(-0.,0.,-1.));
#1712=DIRECTION('',(-1.,0.,0.));
#1713=AXIS2_PLACEMENT_3D('',#1710,#1711,#1712);
#1714=PLANE('',#1713);
#1715=ORIENTED_EDGE('',*,*,#145,.T.);
#1716=ORIENTED_EDGE('',*,*,#48,.T.);
#1717=ORIENTED_EDGE('',*,*,#256,.F.);
#1718=CARTESIAN_POINT('',(67.5025,0.,-91.1396875));
#1719=DIRECTION('',(0.,1.,0.));
#1720=VECTOR('',#1719,3.175);
#1721=LINE('',#1718,#1720);
#1722=EDGE_CURVE('',#245,#140,#1721,.T.);
#1723=ORIENTED_EDGE('',*,*,#1722,.T.);
#1724=EDGE_LOOP('',(#1715,#1716,#1717,#1723));
#1725=FACE_BOUND('',#1724,.T.);
#1726=ADVANCED_FACE('',(#1725),#1714,.T.);
#1727=CARTESIAN_POINT('',(62.5025,2.0875,-89.131875));
#1728=DIRECTION('',(0.,0.,1.));
#1729=DIRECTION('',(1.,0.,-0.));
#1730=AXIS2_PLACEMENT_3D('',#1727,#1728,#1729);
#1731=PLANE('',#1730);
#1732=CARTESIAN_POINT('',(102.,3.175,-89.131875));
#1733=DIRECTION('',(0.,-1.,0.));
#1734=VECTOR('',#1733,2.175);
#1735=LINE('',#1732,#1734);
#1736=EDGE_CURVE('',#75,#284,#1735,.T.);
#1737=ORIENTED_EDGE('',*,*,#1736,.F.);
#1738=ORIENTED_EDGE('',*,*,#134,.F.);
#1739=CARTESIAN_POINT('',(64.,3.175,-89.131875));
#1740=DIRECTION('',(0.,-1.,0.));
#1741=VECTOR('',#1740,2.175);
#1742=LINE('',#1739,#1741);
#1743=EDGE_CURVE('',#123,#294,#1742,.T.);
#1744=ORIENTED_EDGE('',*,*,#1743,.T.);
#1745=ORIENTED_EDGE('',*,*,#299,.T.);
#1746=EDGE_LOOP('',(#1737,#1738,#1744,#1745));
#1747=FACE_BOUND('',#1746,.T.);
#1748=ADVANCED_FACE('',(#1747),#1731,.T.);
#1749=CARTESIAN_POINT('',(67.5025,0.,-92.1396875));
#1750=DIRECTION('',(1.,0.,0.));
#1751=DIRECTION('',(0.,0.,-1.));
#1752=AXIS2_PLACEMENT_3D('',#1749,#1750,#1751);
#1753=PLANE('',#1752);
#1754=ORIENTED_EDGE('',*,*,#153,.F.);
#1755=ORIENTED_EDGE('',*,*,#1722,.F.);
#1756=ORIENTED_EDGE('',*,*,#250,.T.);
#1757=ORIENTED_EDGE('',*,*,#272,.T.);
#1758=EDGE_LOOP('',(#1754,#1755,#1756,#1757));
#1759=FACE_BOUND('',#1758,.T.);
#1760=ADVANCED_FACE('',(#1759),#1753,.T.);
#1761=CARTESIAN_POINT('',(62.5025,3.175,-25.5346875));
#1762=DIRECTION('',(-0.,-1.,-0.));
#1763=DIRECTION('',(0.,0.,-1.));
#1764=AXIS2_PLACEMENT_3D('',#1761,#1762,#1763);
#1765=PLANE('',#1764);
#1766=CARTESIAN_POINT('',(64.,3.175,-22.471875));
#1767=VERTEX_POINT('',#1766);
#1768=CARTESIAN_POINT('',(64.,3.175,-22.471875));
#1769=DIRECTION('',(-0.,0.,-1.));
#1770=VECTOR('',#1769,6.125625);
#1771=LINE('',#1768,#1770);
#1772=EDGE_CURVE('',#1767,#1441,#1771,.T.);
#1773=ORIENTED_EDGE('',*,*,#1772,.F.);
#1774=CARTESIAN_POINT('',(102.,3.175,-22.471875));
#1775=VERTEX_POINT('',#1774);
#1776=CARTESIAN_POINT('',(64.,3.175,-22.471875));
#1777=DIRECTION('',(1.,0.,-0.));
#1778=VECTOR('',#1777,38.);
#1779=LINE('',#1776,#1778);
#1780=EDGE_CURVE('',#1767,#1775,#1779,.T.);
#1781=ORIENTED_EDGE('',*,*,#1780,.T.);
#1782=CARTESIAN_POINT('',(102.,3.175,-22.471875));
#1783=DIRECTION('',(-0.,0.,-1.));
#1784=VECTOR('',#1783,6.125625);
#1785=LINE('',#1782,#1784);
#1786=EDGE_CURVE('',#1775,#1432,#1785,.T.);
#1787=ORIENTED_EDGE('',*,*,#1786,.T.);
#1788=ORIENTED_EDGE('',*,*,#1452,.F.);
#1789=EDGE_LOOP('',(#1773,#1781,#1787,#1788));
#1790=FACE_BOUND('',#1789,.T.);
#1791=ADVANCED_FACE('',(#1790),#1765,.F.);
#1792=CARTESIAN_POINT('',(62.5025,2.175,-25.5346875));
#1793=DIRECTION('',(0.,1.,0.));
#1794=DIRECTION('',(0.,0.,1.));
#1795=AXIS2_PLACEMENT_3D('',#1792,#1793,#1794);
#1796=PLANE('',#1795);
#1797=CARTESIAN_POINT('',(102.,2.175,-23.0346875));
#1798=VERTEX_POINT('',#1797);
#1799=CARTESIAN_POINT('',(102.,2.175,-28.0346875));
#1800=DIRECTION('',(0.,0.,1.));
#1801=VECTOR('',#1800,5.);
#1802=LINE('',#1799,#1801);
#1803=EDGE_CURVE('',#1463,#1798,#1802,.T.);
#1804=ORIENTED_EDGE('',*,*,#1803,.T.);
#1805=CARTESIAN_POINT('',(64.,2.175,-23.0346875));
#1806=VERTEX_POINT('',#1805);
#1807=CARTESIAN_POINT('',(64.,2.175,-23.0346875));
#1808=DIRECTION('',(1.,0.,-0.));
#1809=VECTOR('',#1808,38.);
#1810=LINE('',#1807,#1809);
#1811=EDGE_CURVE('',#1806,#1798,#1810,.T.);
#1812=ORIENTED_EDGE('',*,*,#1811,.F.);
#1813=CARTESIAN_POINT('',(64.,2.175,-28.0346875));
#1814=DIRECTION('',(0.,0.,1.));
#1815=VECTOR('',#1814,5.);
#1816=LINE('',#1813,#1815);
#1817=EDGE_CURVE('',#1471,#1806,#1816,.T.);
#1818=ORIENTED_EDGE('',*,*,#1817,.F.);
#1819=ORIENTED_EDGE('',*,*,#1476,.T.);
#1820=EDGE_LOOP('',(#1804,#1812,#1818,#1819));
#1821=FACE_BOUND('',#1820,.T.);
#1822=ADVANCED_FACE('',(#1821),#1796,.F.);
#1823=CARTESIAN_POINT('',(64.,0.,-0.));
#1824=DIRECTION('',(1.,0.,-0.));
#1825=DIRECTION('',(0.,1.,0.));
#1826=AXIS2_PLACEMENT_3D('',#1823,#1824,#1825);
#1827=PLANE('',#1826);
#1828=ORIENTED_EDGE('',*,*,#1772,.T.);
#1829=ORIENTED_EDGE('',*,*,#1446,.F.);
#1830=ORIENTED_EDGE('',*,*,#1375,.F.);
#1831=ORIENTED_EDGE('',*,*,#1504,.F.);
#1832=ORIENTED_EDGE('',*,*,#1295,.T.);
#1833=ORIENTED_EDGE('',*,*,#1548,.F.);
#1834=ORIENTED_EDGE('',*,*,#427,.F.);
#1835=ORIENTED_EDGE('',*,*,#1150,.F.);
#1836=ORIENTED_EDGE('',*,*,#1023,.T.);
#1837=ORIENTED_EDGE('',*,*,#1106,.F.);
#1838=ORIENTED_EDGE('',*,*,#959,.F.);
#1839=ORIENTED_EDGE('',*,*,#1194,.F.);
#1840=ORIENTED_EDGE('',*,*,#879,.T.);
#1841=ORIENTED_EDGE('',*,*,#1238,.F.);
#1842=ORIENTED_EDGE('',*,*,#507,.F.);
#1843=ORIENTED_EDGE('',*,*,#778,.F.);
#1844=ORIENTED_EDGE('',*,*,#651,.T.);
#1845=ORIENTED_EDGE('',*,*,#734,.F.);
#1846=ORIENTED_EDGE('',*,*,#587,.F.);
#1847=ORIENTED_EDGE('',*,*,#822,.F.);
#1848=ORIENTED_EDGE('',*,*,#347,.T.);
#1849=ORIENTED_EDGE('',*,*,#1592,.F.);
#1850=ORIENTED_EDGE('',*,*,#307,.F.);
#1851=ORIENTED_EDGE('',*,*,#1743,.F.);
#1852=ORIENTED_EDGE('',*,*,#128,.F.);
#1853=ORIENTED_EDGE('',*,*,#1637,.T.);
#1854=ORIENTED_EDGE('',*,*,#201,.F.);
#1855=ORIENTED_EDGE('',*,*,#1614,.T.);
#1856=ORIENTED_EDGE('',*,*,#387,.T.);
#1857=ORIENTED_EDGE('',*,*,#844,.F.);
#1858=ORIENTED_EDGE('',*,*,#627,.F.);
#1859=ORIENTED_EDGE('',*,*,#756,.T.);
#1860=ORIENTED_EDGE('',*,*,#707,.T.);
#1861=ORIENTED_EDGE('',*,*,#800,.F.);
#1862=ORIENTED_EDGE('',*,*,#547,.F.);
#1863=ORIENTED_EDGE('',*,*,#1260,.T.);
#1864=ORIENTED_EDGE('',*,*,#919,.T.);
#1865=ORIENTED_EDGE('',*,*,#1216,.F.);
#1866=ORIENTED_EDGE('',*,*,#999,.F.);
#1867=ORIENTED_EDGE('',*,*,#1128,.T.);
#1868=ORIENTED_EDGE('',*,*,#1079,.T.);
#1869=ORIENTED_EDGE('',*,*,#1172,.F.);
#1870=ORIENTED_EDGE('',*,*,#467,.F.);
#1871=ORIENTED_EDGE('',*,*,#1570,.T.);
#1872=ORIENTED_EDGE('',*,*,#1335,.T.);
#1873=ORIENTED_EDGE('',*,*,#1526,.F.);
#1874=ORIENTED_EDGE('',*,*,#1415,.F.);
#1875=ORIENTED_EDGE('',*,*,#1482,.T.);
#1876=ORIENTED_EDGE('',*,*,#1817,.T.);
#1877=CARTESIAN_POINT('',(64.,0.,-23.0346875));
#1878=VERTEX_POINT('',#1877);
#1879=CARTESIAN_POINT('',(64.,0.,-23.0346875));
#1880=DIRECTION('',(0.,1.,0.));
#1881=VECTOR('',#1880,2.175);
#1882=LINE('',#1879,#1881);
#1883=EDGE_CURVE('',#1878,#1806,#1882,.T.);
#1884=ORIENTED_EDGE('',*,*,#1883,.F.);
#1885=CARTESIAN_POINT('',(64.,0.,-14.375));
#1886=VERTEX_POINT('',#1885);
#1887=CARTESIAN_POINT('',(64.,0.,-14.375));
#1888=DIRECTION('',(-0.,0.,-1.));
#1889=VECTOR('',#1888,8.6596875);
#1890=LINE('',#1887,#1889);
#1891=EDGE_CURVE('',#1886,#1878,#1890,.T.);
#1892=ORIENTED_EDGE('',*,*,#1891,.F.);
#1893=CARTESIAN_POINT('',(64.,2.175,-14.375));
#1894=VERTEX_POINT('',#1893);
#1895=CARTESIAN_POINT('',(64.,2.175,-14.375));
#1896=DIRECTION('',(0.,-1.,0.));
#1897=VECTOR('',#1896,2.175);
#1898=LINE('',#1895,#1897);
#1899=EDGE_CURVE('',#1894,#1886,#1898,.T.);
#1900=ORIENTED_EDGE('',*,*,#1899,.F.);
#1901=CARTESIAN_POINT('',(64.,2.175,-9.375));
#1902=VERTEX_POINT('',#1901);
#1903=CARTESIAN_POINT('',(64.,2.175,-14.375));
#1904=DIRECTION('',(0.,0.,1.));
#1905=VECTOR('',#1904,5.);
#1906=LINE('',#1903,#1905);
#1907=EDGE_CURVE('',#1894,#1902,#1906,.T.);
#1908=ORIENTED_EDGE('',*,*,#1907,.T.);
#1909=CARTESIAN_POINT('',(64.,-0.,-9.375));
#1910=VERTEX_POINT('',#1909);
#1911=CARTESIAN_POINT('',(64.,-0.,-9.375));
#1912=DIRECTION('',(0.,1.,0.));
#1913=VECTOR('',#1912,2.175);
#1914=LINE('',#1911,#1913);
#1915=EDGE_CURVE('',#1910,#1902,#1914,.T.);
#1916=ORIENTED_EDGE('',*,*,#1915,.F.);
#1917=CARTESIAN_POINT('',(64.,0.,-4.7625));
#1918=VERTEX_POINT('',#1917);
#1919=CARTESIAN_POINT('',(64.,0.,-9.375));
#1920=DIRECTION('',(0.,0.,1.));
#1921=VECTOR('',#1920,4.6125);
#1922=LINE('',#1919,#1921);
#1923=EDGE_CURVE('',#1910,#1918,#1922,.T.);
#1924=ORIENTED_EDGE('',*,*,#1923,.T.);
#1925=CARTESIAN_POINT('',(64.,3.175,-4.7625));
#1926=VERTEX_POINT('',#1925);
#1927=CARTESIAN_POINT('',(64.,3.175,-4.7625));
#1928=DIRECTION('',(0.,-1.,0.));
#1929=VECTOR('',#1928,3.175);
#1930=LINE('',#1927,#1929);
#1931=EDGE_CURVE('',#1926,#1918,#1930,.T.);
#1932=ORIENTED_EDGE('',*,*,#1931,.F.);
#1933=CARTESIAN_POINT('',(64.,3.175,-17.4875));
#1934=VERTEX_POINT('',#1933);
#1935=CARTESIAN_POINT('',(64.,3.175,-4.7625));
#1936=DIRECTION('',(-0.,0.,-1.));
#1937=VECTOR('',#1936,12.725);
#1938=LINE('',#1935,#1937);
#1939=EDGE_CURVE('',#1926,#1934,#1938,.T.);
#1940=ORIENTED_EDGE('',*,*,#1939,.T.);
#1941=CARTESIAN_POINT('',(64.,1.,-17.4875));
#1942=VERTEX_POINT('',#1941);
#1943=CARTESIAN_POINT('',(64.,1.,-17.4875));
#1944=DIRECTION('',(0.,1.,0.));
#1945=VECTOR('',#1944,2.175);
#1946=LINE('',#1943,#1945);
#1947=EDGE_CURVE('',#1942,#1934,#1946,.T.);
#1948=ORIENTED_EDGE('',*,*,#1947,.F.);
#1949=CARTESIAN_POINT('',(64.,1.,-22.471875));
#1950=VERTEX_POINT('',#1949);
#1951=CARTESIAN_POINT('',(64.,1.,-22.471875));
#1952=DIRECTION('',(0.,0.,1.));
#1953=VECTOR('',#1952,4.984375);
#1954=LINE('',#1951,#1953);
#1955=EDGE_CURVE('',#1950,#1942,#1954,.T.);
#1956=ORIENTED_EDGE('',*,*,#1955,.F.);
#1957=CARTESIAN_POINT('',(64.,3.175,-22.471875));
#1958=DIRECTION('',(0.,-1.,0.));
#1959=VECTOR('',#1958,2.175);
#1960=LINE('',#1957,#1959);
#1961=EDGE_CURVE('',#1767,#1950,#1960,.T.);
#1962=ORIENTED_EDGE('',*,*,#1961,.F.);
#1963=EDGE_LOOP('',(#1828,#1829,#1830,#1831,#1832,#1833,#1834,#1835,#1836,#1837,#1838,#1839,#1840,#1841,#1842,#1843,#1844,#1845,#1846,#1847,#1848,#1849,#1850,#1851,#1852,#1853,
#1854,#1855,#1856,#1857,#1858,#1859,#1860,#1861,#1862,#1863,#1864,#1865,#1866,#1867,#1868,#1869,#1870,#1871,#1872,#1873,#1874,#1875,#1876,#1884,#1892,
#1900,#1908,#1916,#1924,#1932,#1940,#1948,#1956,#1962));
#1964=FACE_BOUND('',#1963,.T.);
#1965=ADVANCED_FACE('',(#1964),#1827,.F.);
#1966=CARTESIAN_POINT('',(102.,0.,-0.));
#1967=DIRECTION('',(1.,0.,-0.));
#1968=DIRECTION('',(0.,1.,0.));
#1969=AXIS2_PLACEMENT_3D('',#1966,#1967,#1968);
#1970=PLANE('',#1969);
#1971=ORIENTED_EDGE('',*,*,#1786,.F.);
#1972=CARTESIAN_POINT('',(102.,1.,-22.471875));
#1973=VERTEX_POINT('',#1972);
#1974=CARTESIAN_POINT('',(102.,3.175,-22.471875));
#1975=DIRECTION('',(0.,-1.,0.));
#1976=VECTOR('',#1975,2.175);
#1977=LINE('',#1974,#1976);
#1978=EDGE_CURVE('',#1775,#1973,#1977,.T.);
#1979=ORIENTED_EDGE('',*,*,#1978,.T.);
#1980=CARTESIAN_POINT('',(102.,1.,-17.4875));
#1981=VERTEX_POINT('',#1980);
#1982=CARTESIAN_POINT('',(102.,1.,-22.471875));
#1983=DIRECTION('',(0.,0.,1.));
#1984=VECTOR('',#1983,4.984375);
#1985=LINE('',#1982,#1984);
#1986=EDGE_CURVE('',#1973,#1981,#1985,.T.);
#1987=ORIENTED_EDGE('',*,*,#1986,.T.);
#1988=CARTESIAN_POINT('',(102.,3.175,-17.4875));
#1989=VERTEX_POINT('',#1988);
#1990=CARTESIAN_POINT('',(102.,1.,-17.4875));
#1991=DIRECTION('',(0.,1.,0.));
#1992=VECTOR('',#1991,2.175);
#1993=LINE('',#1990,#1992);
#1994=EDGE_CURVE('',#1981,#1989,#1993,.T.);
#1995=ORIENTED_EDGE('',*,*,#1994,.T.);
#1996=CARTESIAN_POINT('',(102.,3.175,-4.7625));
#1997=VERTEX_POINT('',#1996);
#1998=CARTESIAN_POINT('',(102.,3.175,-4.7625));
#1999=DIRECTION('',(-0.,0.,-1.));
#2000=VECTOR('',#1999,12.725);
#2001=LINE('',#1998,#2000);
#2002=EDGE_CURVE('',#1997,#1989,#2001,.T.);
#2003=ORIENTED_EDGE('',*,*,#2002,.F.);
#2004=CARTESIAN_POINT('',(102.,0.,-4.7625));
#2005=VERTEX_POINT('',#2004);
#2006=CARTESIAN_POINT('',(102.,0.,-4.7625));
#2007=DIRECTION('',(0.,1.,0.));
#2008=VECTOR('',#2007,3.175);
#2009=LINE('',#2006,#2008);
#2010=EDGE_CURVE('',#2005,#1997,#2009,.T.);
#2011=ORIENTED_EDGE('',*,*,#2010,.F.);
#2012=CARTESIAN_POINT('',(102.,-0.,-9.375));
#2013=VERTEX_POINT('',#2012);
#2014=CARTESIAN_POINT('',(102.,0.,-9.375));
#2015=DIRECTION('',(0.,0.,1.));
#2016=VECTOR('',#2015,4.6125);
#2017=LINE('',#2014,#2016);
#2018=EDGE_CURVE('',#2013,#2005,#2017,.T.);
#2019=ORIENTED_EDGE('',*,*,#2018,.F.);
#2020=CARTESIAN_POINT('',(102.,2.175,-9.375));
#2021=VERTEX_POINT('',#2020);
#2022=CARTESIAN_POINT('',(102.,0.,-9.375));
#2023=DIRECTION('',(0.,1.,0.));
#2024=VECTOR('',#2023,2.175);
#2025=LINE('',#2022,#2024);
#2026=EDGE_CURVE('',#2013,#2021,#2025,.T.);
#2027=ORIENTED_EDGE('',*,*,#2026,.T.);
#2028=CARTESIAN_POINT('',(102.,2.175,-14.375));
#2029=VERTEX_POINT('',#2028);
#2030=CARTESIAN_POINT('',(102.,2.175,-14.375));
#2031=DIRECTION('',(0.,0.,1.));
#2032=VECTOR('',#2031,5.);
#2033=LINE('',#2030,#2032);
#2034=EDGE_CURVE('',#2029,#2021,#2033,.T.);
#2035=ORIENTED_EDGE('',*,*,#2034,.F.);
#2036=CARTESIAN_POINT('',(102.,0.,-14.375));
#2037=VERTEX_POINT('',#2036);
#2038=CARTESIAN_POINT('',(102.,2.175,-14.375));
#2039=DIRECTION('',(0.,-1.,0.));
#2040=VECTOR('',#2039,2.175);
#2041=LINE('',#2038,#2040);
#2042=EDGE_CURVE('',#2029,#2037,#2041,.T.);
#2043=ORIENTED_EDGE('',*,*,#2042,.T.);
#2044=CARTESIAN_POINT('',(102.,0.,-23.0346875));
#2045=VERTEX_POINT('',#2044);
#2046=CARTESIAN_POINT('',(102.,0.,-14.375));
#2047=DIRECTION('',(-0.,0.,-1.));
#2048=VECTOR('',#2047,8.6596875);
#2049=LINE('',#2046,#2048);
#2050=EDGE_CURVE('',#2037,#2045,#2049,.T.);
#2051=ORIENTED_EDGE('',*,*,#2050,.T.);
#2052=CARTESIAN_POINT('',(102.,0.,-23.0346875));
#2053=DIRECTION('',(0.,1.,0.));
#2054=VECTOR('',#2053,2.175);
#2055=LINE('',#2052,#2054);
#2056=EDGE_CURVE('',#2045,#1798,#2055,.T.);
#2057=ORIENTED_EDGE('',*,*,#2056,.T.);
#2058=ORIENTED_EDGE('',*,*,#1803,.F.);
#2059=ORIENTED_EDGE('',*,*,#1468,.F.);
#2060=ORIENTED_EDGE('',*,*,#1399,.T.);
#2061=ORIENTED_EDGE('',*,*,#1519,.T.);
#2062=ORIENTED_EDGE('',*,*,#1319,.F.);
#2063=ORIENTED_EDGE('',*,*,#1563,.F.);
#2064=ORIENTED_EDGE('',*,*,#451,.T.);
#2065=ORIENTED_EDGE('',*,*,#1165,.T.);
#2066=ORIENTED_EDGE('',*,*,#1063,.F.);
#2067=ORIENTED_EDGE('',*,*,#1121,.F.);
#2068=ORIENTED_EDGE('',*,*,#983,.T.);
#2069=ORIENTED_EDGE('',*,*,#1209,.T.);
#2070=ORIENTED_EDGE('',*,*,#903,.F.);
#2071=ORIENTED_EDGE('',*,*,#1253,.F.);
#2072=ORIENTED_EDGE('',*,*,#531,.T.);
#2073=ORIENTED_EDGE('',*,*,#793,.T.);
#2074=ORIENTED_EDGE('',*,*,#691,.F.);
#2075=ORIENTED_EDGE('',*,*,#749,.F.);
#2076=ORIENTED_EDGE('',*,*,#611,.T.);
#2077=ORIENTED_EDGE('',*,*,#837,.T.);
#2078=ORIENTED_EDGE('',*,*,#371,.F.);
#2079=ORIENTED_EDGE('',*,*,#1607,.F.);
#2080=ORIENTED_EDGE('',*,*,#185,.F.);
#2081=ORIENTED_EDGE('',*,*,#1659,.F.);
#2082=ORIENTED_EDGE('',*,*,#80,.T.);
#2083=ORIENTED_EDGE('',*,*,#1736,.T.);
#2084=ORIENTED_EDGE('',*,*,#291,.T.);
#2085=ORIENTED_EDGE('',*,*,#1585,.T.);
#2086=ORIENTED_EDGE('',*,*,#331,.F.);
#2087=ORIENTED_EDGE('',*,*,#815,.T.);
#2088=ORIENTED_EDGE('',*,*,#571,.T.);
#2089=ORIENTED_EDGE('',*,*,#727,.T.);
#2090=ORIENTED_EDGE('',*,*,#667,.F.);
#2091=ORIENTED_EDGE('',*,*,#771,.T.);
#2092=ORIENTED_EDGE('',*,*,#491,.T.);
#2093=ORIENTED_EDGE('',*,*,#1231,.T.);
#2094=ORIENTED_EDGE('',*,*,#863,.F.);
#2095=ORIENTED_EDGE('',*,*,#1187,.T.);
#2096=ORIENTED_EDGE('',*,*,#943,.T.);
#2097=ORIENTED_EDGE('',*,*,#1099,.T.);
#2098=ORIENTED_EDGE('',*,*,#1039,.F.);
#2099=ORIENTED_EDGE('',*,*,#1143,.T.);
#2100=ORIENTED_EDGE('',*,*,#411,.T.);
#2101=ORIENTED_EDGE('',*,*,#1541,.T.);
#2102=ORIENTED_EDGE('',*,*,#1279,.F.);
#2103=ORIENTED_EDGE('',*,*,#1497,.T.);
#2104=ORIENTED_EDGE('',*,*,#1359,.T.);
#2105=ORIENTED_EDGE('',*,*,#1437,.T.);
#2106=EDGE_LOOP('',(#1971,#1979,#1987,#1995,#2003,#2011,#2019,#2027,#2035,#2043,#2051,#2057,#2058,#2059,#2060,#2061,#2062,#2063,#2064,#2065,#2066,#2067,#2068,#2069,#2070,#2071,
#2072,#2073,#2074,#2075,#2076,#2077,#2078,#2079,#2080,#2081,#2082,#2083,#2084,#2085,#2086,#2087,#2088,#2089,#2090,#2091,#2092,#2093,#2094,#2095,#2096,
#2097,#2098,#2099,#2100,#2101,#2102,#2103,#2104,#2105));
#2107=FACE_BOUND('',#2106,.T.);
#2108=ADVANCED_FACE('',(#2107),#1970,.T.);
#2109=CARTESIAN_POINT('',(62.5025,1.,-19.971875));
#2110=DIRECTION('',(0.,1.,0.));
#2111=DIRECTION('',(0.,0.,1.));
#2112=AXIS2_PLACEMENT_3D('',#2109,#2110,#2111);
#2113=PLANE('',#2112);
#2114=ORIENTED_EDGE('',*,*,#1986,.F.);
#2115=CARTESIAN_POINT('',(64.,1.,-22.471875));
#2116=DIRECTION('',(1.,0.,-0.));
#2117=VECTOR('',#2116,38.);
#2118=LINE('',#2115,#2117);
#2119=EDGE_CURVE('',#1950,#1973,#2118,.T.);
#2120=ORIENTED_EDGE('',*,*,#2119,.F.);
#2121=ORIENTED_EDGE('',*,*,#1955,.T.);
#2122=CARTESIAN_POINT('',(64.,1.,-17.4875));
#2123=DIRECTION('',(1.,0.,-0.));
#2124=VECTOR('',#2123,38.);
#2125=LINE('',#2122,#2124);
#2126=EDGE_CURVE('',#1942,#1981,#2125,.T.);
#2127=ORIENTED_EDGE('',*,*,#2126,.T.);
#2128=EDGE_LOOP('',(#2114,#2120,#2121,#2127));
#2129=FACE_BOUND('',#2128,.T.);
#2130=ADVANCED_FACE('',(#2129),#2113,.T.);
#2131=CARTESIAN_POINT('',(62.5025,0.,-19.971875));
#2132=DIRECTION('',(0.,-1.,0.));
#2133=DIRECTION('',(0.,0.,-1.));
#2134=AXIS2_PLACEMENT_3D('',#2131,#2132,#2133);
#2135=PLANE('',#2134);
#2136=ORIENTED_EDGE('',*,*,#2050,.F.);
#2137=CARTESIAN_POINT('',(64.,0.,-14.375));
#2138=DIRECTION('',(1.,0.,-0.));
#2139=VECTOR('',#2138,38.);
#2140=LINE('',#2137,#2139);
#2141=EDGE_CURVE('',#1886,#2037,#2140,.T.);
#2142=ORIENTED_EDGE('',*,*,#2141,.F.);
#2143=ORIENTED_EDGE('',*,*,#1891,.T.);
#2144=CARTESIAN_POINT('',(64.,0.,-23.0346875));
#2145=DIRECTION('',(1.,0.,-0.));
#2146=VECTOR('',#2145,38.);
#2147=LINE('',#2144,#2146);
#2148=EDGE_CURVE('',#1878,#2045,#2147,.T.);
#2149=ORIENTED_EDGE('',*,*,#2148,.T.);
#2150=EDGE_LOOP('',(#2136,#2142,#2143,#2149));
#2151=FACE_BOUND('',#2150,.T.);
#2152=ADVANCED_FACE('',(#2151),#2135,.T.);
#2153=CARTESIAN_POINT('',(62.5025,3.175,-11.875));
#2154=DIRECTION('',(-0.,-1.,-0.));
#2155=DIRECTION('',(0.,0.,-1.));
#2156=AXIS2_PLACEMENT_3D('',#2153,#2154,#2155);
#2157=PLANE('',#2156);
#2158=ORIENTED_EDGE('',*,*,#2002,.T.);
#2159=CARTESIAN_POINT('',(64.,3.175,-17.4875));
#2160=DIRECTION('',(1.,0.,-0.));
#2161=VECTOR('',#2160,38.);
#2162=LINE('',#2159,#2161);
#2163=EDGE_CURVE('',#1934,#1989,#2162,.T.);
#2164=ORIENTED_EDGE('',*,*,#2163,.F.);
#2165=ORIENTED_EDGE('',*,*,#1939,.F.);
#2166=CARTESIAN_POINT('',(68.5,3.175,-4.7625));
#2167=VERTEX_POINT('',#2166);
#2168=CARTESIAN_POINT('',(68.5,3.175,-4.7625));
#2169=DIRECTION('',(-1.,0.,0.));
#2170=VECTOR('',#2169,4.5);
#2171=LINE('',#2168,#2170);
#2172=EDGE_CURVE('',#2167,#1926,#2171,.T.);
#2173=ORIENTED_EDGE('',*,*,#2172,.F.);
#2174=CARTESIAN_POINT('',(68.5,3.175,-1.7625));
#2175=VERTEX_POINT('',#2174);
#2176=CARTESIAN_POINT('',(68.5,3.175,-1.7625));
#2177=DIRECTION('',(-0.,0.,-1.));
#2178=VECTOR('',#2177,3.);
#2179=LINE('',#2176,#2178);
#2180=EDGE_CURVE('',#2175,#2167,#2179,.T.);
#2181=ORIENTED_EDGE('',*,*,#2180,.F.);
#2182=CARTESIAN_POINT('',(82.,3.175,-1.7625));
#2183=VERTEX_POINT('',#2182);
#2184=CARTESIAN_POINT('',(68.5,3.175,-1.7625));
#2185=DIRECTION('',(1.,0.,-0.));
#2186=VECTOR('',#2185,13.5);
#2187=LINE('',#2184,#2186);
#2188=EDGE_CURVE('',#2175,#2183,#2187,.T.);
#2189=ORIENTED_EDGE('',*,*,#2188,.T.);
#2190=CARTESIAN_POINT('',(82.,3.175,-4.7625));
#2191=VERTEX_POINT('',#2190);
#2192=CARTESIAN_POINT('',(82.,3.175,-1.7625));
#2193=DIRECTION('',(-0.,0.,-1.));
#2194=VECTOR('',#2193,3.);
#2195=LINE('',#2192,#2194);
#2196=EDGE_CURVE('',#2183,#2191,#2195,.T.);
#2197=ORIENTED_EDGE('',*,*,#2196,.T.);
#2198=CARTESIAN_POINT('',(102.,3.175,-4.7625));
#2199=DIRECTION('',(-1.,0.,0.));
#2200=VECTOR('',#2199,20.);
#2201=LINE('',#2198,#2200);
#2202=EDGE_CURVE('',#1997,#2191,#2201,.T.);
#2203=ORIENTED_EDGE('',*,*,#2202,.F.);
#2204=EDGE_LOOP('',(#2158,#2164,#2165,#2173,#2181,#2189,#2197,#2203));
#2205=FACE_BOUND('',#2204,.T.);
#2206=ADVANCED_FACE('',(#2205),#2157,.F.);
#2207=CARTESIAN_POINT('',(62.5025,2.175,-11.875));
#2208=DIRECTION('',(-0.,1.,-0.));
#2209=DIRECTION('',(0.,0.,1.));
#2210=AXIS2_PLACEMENT_3D('',#2207,#2208,#2209);
#2211=PLANE('',#2210);
#2212=ORIENTED_EDGE('',*,*,#2034,.T.);
#2213=CARTESIAN_POINT('',(64.,2.175,-9.375));
#2214=DIRECTION('',(1.,0.,-0.));
#2215=VECTOR('',#2214,38.);
#2216=LINE('',#2213,#2215);
#2217=EDGE_CURVE('',#1902,#2021,#2216,.T.);
#2218=ORIENTED_EDGE('',*,*,#2217,.F.);
#2219=ORIENTED_EDGE('',*,*,#1907,.F.);
#2220=CARTESIAN_POINT('',(64.,2.175,-14.375));
#2221=DIRECTION('',(1.,0.,-0.));
#2222=VECTOR('',#2221,38.);
#2223=LINE('',#2220,#2222);
#2224=EDGE_CURVE('',#1894,#2029,#2223,.T.);
#2225=ORIENTED_EDGE('',*,*,#2224,.T.);
#2226=EDGE_LOOP('',(#2212,#2218,#2219,#2225));
#2227=FACE_BOUND('',#2226,.T.);
#2228=ADVANCED_FACE('',(#2227),#2211,.F.);
#2229=CARTESIAN_POINT('',(0.,0.,0.));
#2230=DIRECTION('',(0.,-1.,0.));
#2231=DIRECTION('',(0.,0.,-1.));
#2232=AXIS2_PLACEMENT_3D('',#2229,#2230,#2231);
#2233=PLANE('',#2232);
#2234=ORIENTED_EDGE('',*,*,#1923,.F.);
#2235=CARTESIAN_POINT('',(64.,-0.,-9.375));
#2236=DIRECTION('',(1.,0.,-0.));
#2237=VECTOR('',#2236,38.);
#2238=LINE('',#2235,#2237);
#2239=EDGE_CURVE('',#1910,#2013,#2238,.T.);
#2240=ORIENTED_EDGE('',*,*,#2239,.T.);
#2241=ORIENTED_EDGE('',*,*,#2018,.T.);
#2242=CARTESIAN_POINT('',(82.,0.,-4.7625));
#2243=VERTEX_POINT('',#2242);
#2244=CARTESIAN_POINT('',(102.,0.,-4.7625));
#2245=DIRECTION('',(-1.,0.,0.));
#2246=VECTOR('',#2245,20.);
#2247=LINE('',#2244,#2246);
#2248=EDGE_CURVE('',#2005,#2243,#2247,.T.);
#2249=ORIENTED_EDGE('',*,*,#2248,.T.);
#2250=CARTESIAN_POINT('',(82.,0.,-1.7625));
#2251=VERTEX_POINT('',#2250);
#2252=CARTESIAN_POINT('',(82.,0.,-1.7625));
#2253=DIRECTION('',(-0.,0.,-1.));
#2254=VECTOR('',#2253,3.);
#2255=LINE('',#2252,#2254);
#2256=EDGE_CURVE('',#2251,#2243,#2255,.T.);
#2257=ORIENTED_EDGE('',*,*,#2256,.F.);
#2258=CARTESIAN_POINT('',(68.5,0.,-1.7625));
#2259=VERTEX_POINT('',#2258);
#2260=CARTESIAN_POINT('',(82.,0.,-1.7625));
#2261=DIRECTION('',(-1.,0.,0.));
#2262=VECTOR('',#2261,13.5);
#2263=LINE('',#2260,#2262);
#2264=EDGE_CURVE('',#2251,#2259,#2263,.T.);
#2265=ORIENTED_EDGE('',*,*,#2264,.T.);
#2266=CARTESIAN_POINT('',(68.5,0.,-4.7625));
#2267=VERTEX_POINT('',#2266);
#2268=CARTESIAN_POINT('',(68.5,0.,-1.7625));
#2269=DIRECTION('',(-0.,0.,-1.));
#2270=VECTOR('',#2269,3.);
#2271=LINE('',#2268,#2270);
#2272=EDGE_CURVE('',#2259,#2267,#2271,.T.);
#2273=ORIENTED_EDGE('',*,*,#2272,.T.);
#2274=CARTESIAN_POINT('',(68.5,0.,-4.7625));
#2275=DIRECTION('',(-1.,0.,0.));
#2276=VECTOR('',#2275,4.5);
#2277=LINE('',#2274,#2276);
#2278=EDGE_CURVE('',#2267,#1918,#2277,.T.);
#2279=ORIENTED_EDGE('',*,*,#2278,.T.);
#2280=EDGE_LOOP('',(#2234,#2240,#2241,#2249,#2257,#2265,#2273,#2279));
#2281=FACE_BOUND('',#2280,.T.);
#2282=ADVANCED_FACE('',(#2281),#2233,.T.);
#2283=CARTESIAN_POINT('',(70.,0.,-4.7625));
#2284=DIRECTION('',(-0.,0.,-1.));
#2285=DIRECTION('',(-1.,0.,0.));
#2286=AXIS2_PLACEMENT_3D('',#2283,#2284,#2285);
#2287=PLANE('',#2286);
#2288=ORIENTED_EDGE('',*,*,#2202,.T.);
#2289=CARTESIAN_POINT('',(82.,3.175,-4.7625));
#2290=DIRECTION('',(0.,-1.,0.));
#2291=VECTOR('',#2290,3.175);
#2292=LINE('',#2289,#2291);
#2293=EDGE_CURVE('',#2191,#2243,#2292,.T.);
#2294=ORIENTED_EDGE('',*,*,#2293,.T.);
#2295=ORIENTED_EDGE('',*,*,#2248,.F.);
#2296=ORIENTED_EDGE('',*,*,#2010,.T.);
#2297=EDGE_LOOP('',(#2288,#2294,#2295,#2296));
#2298=FACE_BOUND('',#2297,.T.);
#2299=ADVANCED_FACE('',(#2298),#2287,.F.);
#2300=CARTESIAN_POINT('',(70.,0.,-4.7625));
#2301=DIRECTION('',(-0.,0.,-1.));
#2302=DIRECTION('',(-1.,0.,0.));
#2303=AXIS2_PLACEMENT_3D('',#2300,#2301,#2302);
#2304=PLANE('',#2303);
#2305=ORIENTED_EDGE('',*,*,#2278,.F.);
#2306=CARTESIAN_POINT('',(68.5,0.,-4.7625));
#2307=DIRECTION('',(0.,1.,0.));
#2308=VECTOR('',#2307,3.175);
#2309=LINE('',#2306,#2308);
#2310=EDGE_CURVE('',#2267,#2167,#2309,.T.);
#2311=ORIENTED_EDGE('',*,*,#2310,.T.);
#2312=ORIENTED_EDGE('',*,*,#2172,.T.);
#2313=ORIENTED_EDGE('',*,*,#1931,.T.);
#2314=EDGE_LOOP('',(#2305,#2311,#2312,#2313));
#2315=FACE_BOUND('',#2314,.T.);
#2316=ADVANCED_FACE('',(#2315),#2304,.F.);
#2317=CARTESIAN_POINT('',(82.,1.5875,-1.7625));
#2318=DIRECTION('',(1.,0.,-0.));
#2319=DIRECTION('',(-0.,0.,-1.));
#2320=AXIS2_PLACEMENT_3D('',#2317,#2318,#2319);
#2321=PLANE('',#2320);
#2322=ORIENTED_EDGE('',*,*,#2293,.F.);
#2323=ORIENTED_EDGE('',*,*,#2196,.F.);
#2324=CARTESIAN_POINT('',(82.,3.175,-1.7625));
#2325=DIRECTION('',(0.,-1.,0.));
#2326=VECTOR('',#2325,3.175);
#2327=LINE('',#2324,#2326);
#2328=EDGE_CURVE('',#2183,#2251,#2327,.T.);
#2329=ORIENTED_EDGE('',*,*,#2328,.T.);
#2330=ORIENTED_EDGE('',*,*,#2256,.T.);
#2331=EDGE_LOOP('',(#2322,#2323,#2329,#2330));
#2332=FACE_BOUND('',#2331,.T.);
#2333=ADVANCED_FACE('',(#2332),#2321,.T.);
#2334=CARTESIAN_POINT('',(68.5,1.5875,-1.7625));
#2335=DIRECTION('',(-1.,0.,0.));
#2336=DIRECTION('',(0.,0.,1.));
#2337=AXIS2_PLACEMENT_3D('',#2334,#2335,#2336);
#2338=PLANE('',#2337);
#2339=ORIENTED_EDGE('',*,*,#2310,.F.);
#2340=ORIENTED_EDGE('',*,*,#2272,.F.);
#2341=CARTESIAN_POINT('',(68.5,0.,-1.7625));
#2342=DIRECTION('',(0.,1.,0.));
#2343=VECTOR('',#2342,3.175);
#2344=LINE('',#2341,#2343);
#2345=EDGE_CURVE('',#2259,#2175,#2344,.T.);
#2346=ORIENTED_EDGE('',*,*,#2345,.T.);
#2347=ORIENTED_EDGE('',*,*,#2180,.T.);
#2348=EDGE_LOOP('',(#2339,#2340,#2346,#2347));
#2349=FACE_BOUND('',#2348,.T.);
#2350=ADVANCED_FACE('',(#2349),#2338,.T.);
#2351=CARTESIAN_POINT('',(-0.,0.,-1.7625));
#2352=DIRECTION('',(0.,0.,1.));
#2353=DIRECTION('',(1.,0.,-0.));
#2354=AXIS2_PLACEMENT_3D('',#2351,#2352,#2353);
#2355=PLANE('',#2354);
#2356=ORIENTED_EDGE('',*,*,#2328,.F.);
#2357=ORIENTED_EDGE('',*,*,#2188,.F.);
#2358=ORIENTED_EDGE('',*,*,#2345,.F.);
#2359=ORIENTED_EDGE('',*,*,#2264,.F.);
#2360=EDGE_LOOP('',(#2356,#2357,#2358,#2359));
#2361=FACE_BOUND('',#2360,.T.);
#2362=ADVANCED_FACE('',(#2361),#2355,.T.);
#2363=CARTESIAN_POINT('',(62.5025,1.0875,-9.375));
#2364=DIRECTION('',(-0.,0.,-1.));
#2365=DIRECTION('',(-1.,0.,0.));
#2366=AXIS2_PLACEMENT_3D('',#2363,#2364,#2365);
#2367=PLANE('',#2366);
#2368=ORIENTED_EDGE('',*,*,#2026,.F.);
#2369=ORIENTED_EDGE('',*,*,#2239,.F.);
#2370=ORIENTED_EDGE('',*,*,#1915,.T.);
#2371=ORIENTED_EDGE('',*,*,#2217,.T.);
#2372=EDGE_LOOP('',(#2368,#2369,#2370,#2371));
#2373=FACE_BOUND('',#2372,.T.);
#2374=ADVANCED_FACE('',(#2373),#2367,.T.);
#2375=CARTESIAN_POINT('',(62.5025,2.0875,-17.4875));
#2376=DIRECTION('',(-0.,0.,-1.));
#2377=DIRECTION('',(-1.,0.,0.));
#2378=AXIS2_PLACEMENT_3D('',#2375,#2376,#2377);
#2379=PLANE('',#2378);
#2380=ORIENTED_EDGE('',*,*,#1994,.F.);
#2381=ORIENTED_EDGE('',*,*,#2126,.F.);
#2382=ORIENTED_EDGE('',*,*,#1947,.T.);
#2383=ORIENTED_EDGE('',*,*,#2163,.T.);
#2384=EDGE_LOOP('',(#2380,#2381,#2382,#2383));
#2385=FACE_BOUND('',#2384,.T.);
#2386=ADVANCED_FACE('',(#2385),#2379,.T.);
#2387=CARTESIAN_POINT('',(62.5025,1.0875,-14.375));
#2388=DIRECTION('',(0.,0.,1.));
#2389=DIRECTION('',(1.,0.,-0.));
#2390=AXIS2_PLACEMENT_3D('',#2387,#2388,#2389);
#2391=PLANE('',#2390);
#2392=ORIENTED_EDGE('',*,*,#2042,.F.);
#2393=ORIENTED_EDGE('',*,*,#2224,.F.);
#2394=ORIENTED_EDGE('',*,*,#1899,.T.);
#2395=ORIENTED_EDGE('',*,*,#2141,.T.);
#2396=EDGE_LOOP('',(#2392,#2393,#2394,#2395));
#2397=FACE_BOUND('',#2396,.T.);
#2398=ADVANCED_FACE('',(#2397),#2391,.T.);
#2399=CARTESIAN_POINT('',(62.5025,2.0875,-22.471875));
#2400=DIRECTION('',(0.,0.,1.));
#2401=DIRECTION('',(1.,0.,-0.));
#2402=AXIS2_PLACEMENT_3D('',#2399,#2400,#2401);
#2403=PLANE('',#2402);
#2404=ORIENTED_EDGE('',*,*,#1978,.F.);
#2405=ORIENTED_EDGE('',*,*,#1780,.F.);
#2406=ORIENTED_EDGE('',*,*,#1961,.T.);
#2407=ORIENTED_EDGE('',*,*,#2119,.T.);
#2408=EDGE_LOOP('',(#2404,#2405,#2406,#2407));
#2409=FACE_BOUND('',#2408,.T.);
#2410=ADVANCED_FACE('',(#2409),#2403,.T.);
#2411=CARTESIAN_POINT('',(62.5025,1.0875,-23.0346875));
#2412=DIRECTION('',(-0.,0.,-1.));
#2413=DIRECTION('',(-1.,0.,0.));
#2414=AXIS2_PLACEMENT_3D('',#2411,#2412,#2413);
#2415=PLANE('',#2414);
#2416=ORIENTED_EDGE('',*,*,#2056,.F.);
#2417=ORIENTED_EDGE('',*,*,#2148,.F.);
#2418=ORIENTED_EDGE('',*,*,#1883,.T.);
#2419=ORIENTED_EDGE('',*,*,#1811,.T.);
#2420=EDGE_LOOP('',(#2416,#2417,#2418,#2419));
#2421=FACE_BOUND('',#2420,.T.);
#2422=ADVANCED_FACE('',(#2421),#2415,.T.);
#2423=CLOSED_SHELL('',(#66,#163,#260,#277,#317,#357,#397,#437,#477,#517,#557,#597,#637,#677,#717,#739,#761,#783,#805,#827,#849,#889,#929,#969,#1009,#1049,
#1089,#1111,#1133,#1155,#1177,#1199,#1221,#1243,#1265,#1305,#1345,#1385,#1425,#1456,#1487,#1509,#1531,#1553,#1575,#1597,#1619,#1641,#1663,#1680,#1697,
#1709,#1726,#1748,#1760,#1791,#1822,#1965,#2108,#2130,#2152,#2206,#2228,#2282,#2299,#2316,#2333,#2350,#2362,#2374,#2386,#2398,#2410,#2422));
#2424=MANIFOLD_SOLID_BREP('Body 06',#2423);
#2425=COLOUR_RGB('',0.494117647,0.494117647,0.525490224);
#2426=FILL_AREA_STYLE_COLOUR('',#2425);
#2427=FILL_AREA_STYLE('',(#2426));
#2428=SURFACE_STYLE_FILL_AREA(#2427);
#2429=SURFACE_SIDE_STYLE('',(#2428));
#2430=SURFACE_STYLE_USAGE(.BOTH.,#2429);
#2431=PRESENTATION_STYLE_ASSIGNMENT((#2430));
#26=STYLED_ITEM('',(#2431),#2424);
#2432=(NAMED_UNIT(*)PLANE_ANGLE_UNIT()SI_UNIT($,.RADIAN.));
#2433=PLANE_ANGLE_MEASURE_WITH_UNIT(PLANE_ANGLE_MEASURE(0.0174532925),#2432);
#2434=(CONVERSION_BASED_UNIT('DEGREE',#2433)NAMED_UNIT(#2435)PLANE_ANGLE_UNIT());
#2435=DIMENSIONAL_EXPONENTS(0.,0.,0.,0.,0.,0.,0.);
#2436=(NAMED_UNIT(*)SI_UNIT($,.STERADIAN.)SOLID_ANGLE_UNIT());
#2437=(LENGTH_UNIT()NAMED_UNIT(*)SI_UNIT(.MILLI.,.METRE.));
#2438=UNCERTAINTY_MEASURE_WITH_UNIT(LENGTH_MEASURE(1.000000E-03),#2437,'DISTANCE_ACCURACY_VALUE','Maximum Tolerance applied to model');
#2439=(GEOMETRIC_REPRESENTATION_CONTEXT(3)GLOBAL_UNCERTAINTY_ASSIGNED_CONTEXT((#2438))GLOBAL_UNIT_ASSIGNED_CONTEXT((#2437,#2434,#2436))REPRESENTATION_CONTEXT('','[WOJ-CUENC-006-RevAB] Control Unit Enclosure Interface Card Support 3D Print Mid.SLDPRT'));
#2451=CARTESIAN_POINT('',(0.,0.,0.));
#2452=DIRECTION('',(0.,0.,1.));
#2453=DIRECTION('',(1.,0.,-0.));
#2454=AXIS2_PLACEMENT_3D('',#2451,#2452,#2453);
#2455=ITEM_DEFINED_TRANSFORMATION('','',#2454,#15);
#2456=(REPRESENTATION_RELATIONSHIP('','',#2441,#16)REPRESENTATION_RELATIONSHIP_WITH_TRANSFORMATION(#2455)SHAPE_REPRESENTATION_RELATIONSHIP());
#2457=NEXT_ASSEMBLY_USAGE_OCCURRENCE('[WOJ-CUENC-006-RevAB] Control Unit Enclosure Interface Card Support 3D Print Mid.SLDPRT_1','[WOJ-CUENC-006-RevAB] Control Unit Enclosure Interface Card Support 3D Print Mid.SLDPRT','[WOJ-CUENC-006-RevAB] Control Unit Enclosure Interface Card Support 3D Print Mid.SLDPRT',#25,#2450,$);
#2458=PRODUCT_DEFINITION_SHAPE('','',#2457);
#2459=CONTEXT_DEPENDENT_SHAPE_REPRESENTATION(#2456,#2458);
#2441=SHAPE_REPRESENTATION('[WOJ-CUENC-006-RevAB] Control Unit Enclosure Interface Card Support 3D Print Mid.SLDPRT',(#15),#2439);
#2460=CARTESIAN_POINT('',(0.,0.,0.));
#2461=DIRECTION('',(0.,0.,1.));
#2462=DIRECTION('',(1.,0.,0.));
#2463=AXIS2_PLACEMENT_3D('',#2460,#2461,#2462);
#2465=MAPPED_ITEM('',#2464,#2463);
#2464=REPRESENTATION_MAP(#2463,#2441);
#2466=APPLICATION_CONTEXT('Managed model based 3d engineering');
#2467=APPLICATION_PROTOCOL_DEFINITION('international standard','ap242_managed_model_based_3d_engineering',2014,#2466);
#2468=PRODUCT_CONTEXT('',#2466,'mechanical');
#2469=PRODUCT_DEFINITION_CONTEXT('part definition',#2466,'design');
#2449=PRODUCT('[WOJ-CUENC-006-RevAB] Control Unit Enclosure Interface Card Support 3D Print Mid.SLDPRT','[WOJ-CUENC-006-RevAB] Control Unit Enclosure Interface Card Support 3D Print Mid.SLDPRT','',(#2468));
#2470=PRODUCT_RELATED_PRODUCT_CATEGORY('part','',(#2449));
#2471=PRODUCT_DEFINITION_FORMATION_WITH_SPECIFIED_SOURCE('','',#2449,.NOT_KNOWN.);
#2450=PRODUCT_DEFINITION('design','',#2471,#2469);
#2448=PRODUCT_DEFINITION_SHAPE('','',#2450);
#2472=SHAPE_DEFINITION_REPRESENTATION(#2448,#2441);
#2440=DRAUGHTING_MODEL('',(#2465),#2439);
#16=SHAPE_REPRESENTATION('root',(#15,#2454),#10);
#17=ADVANCED_BREP_SHAPE_REPRESENTATION('root',(#2424),#10);
#2480=SHAPE_REPRESENTATION_RELATIONSHIP('','',#16,#17);
#2481=CARTESIAN_POINT('',(0.,0.,0.));
#2482=DIRECTION('',(0.,0.,1.));
#2483=DIRECTION('',(1.,0.,0.));
#2484=AXIS2_PLACEMENT_3D('',#2481,#2482,#2483);
#2486=MAPPED_ITEM('',#2485,#2484);
#2485=REPRESENTATION_MAP(#2484,#16);
#24=PRODUCT('root','root','',(#2468));
#2487=PRODUCT_RELATED_PRODUCT_CATEGORY('part','',(#24));
#2488=PRODUCT_DEFINITION_FORMATION_WITH_SPECIFIED_SOURCE('','',#24,.NOT_KNOWN.);
#25=PRODUCT_DEFINITION('design','',#2488,#2469);
#23=PRODUCT_DEFINITION_SHAPE('','',#25);
#2489=SHAPE_DEFINITION_REPRESENTATION(#23,#16);
#11=DRAUGHTING_MODEL('',(#2486),#10);
#2490=DESCRIPTIVE_REPRESENTATION_ITEM('KEY','C:\\Users\\bilal\\AppData\\Local\\Packages\\Shapr3D.Shapr3D_j403pzjkqtqbj\\TempState\\446a50c0-ee54-4fb5-ac24-4d030186710b.tmp');
#2491=PROPERTY_DEFINITION('KEY','',#25);
#2492=REPRESENTATION('',(#2490),#10);
#2493=PROPERTY_DEFINITION_REPRESENTATION(#2491,#2492);
#2494=GENERAL_PROPERTY('','KEY','');
#2495=GENERAL_PROPERTY_ASSOCIATION('','',#2494,#2491);
#1=MECHANICAL_DESIGN_GEOMETRIC_PRESENTATION_REPRESENTATION('',(#26),#10);
ENDSEC;
END-ISO-10303-21;
