ISO-10303-21;
HEADER;

/* File generated by Shapr3D Version 5.791.8191.0 */

FILE_DESCRIPTION(('HOOPS Exchange Step'),'2;1');

FILE_NAME('C:\\Users\\bilal\\AppData\\Local\\Packages\\Shapr3D.Shapr3D_j403pzjkqtqbj\\TempState\\export\\temp_export',
'2025-02-19T18:29:18+01:00',
('bilal'),
('Shapr3D Limited'),
'HOOPS Exchange 2024.8',
'Shapr3D',
'Authorized');

FILE_SCHEMA( ('AP242_MANAGED_MODEL_BASED_3D_ENGINEERING_MIM_LF {1 0 10303 442 1 1 4}') );

ENDSEC;

DATA;
#3=(NAMED_UNIT(*)PLANE_ANGLE_UNIT()SI_UNIT($,.RADIAN.));
#4=PLANE_ANGLE_MEASURE_WITH_UNIT(PLANE_ANGLE_MEASURE(0.0174532925),#3);
#5=(CONVERSION_BASED_UNIT('DEGREE',#4)NAMED_UNIT(#6)PLANE_ANGLE_UNIT());
#6=DIMENSIONAL_EXPONENTS(0.,0.,0.,0.,0.,0.,0.);
#7=(NAMED_UNIT(*)SI_UNIT($,.STERADIAN.)SOLID_ANGLE_UNIT());
#8=(LENGTH_UNIT()NAMED_UNIT(*)SI_UNIT(.MILLI.,.METRE.));
#9=UNCERTAINTY_MEASURE_WITH_UNIT(LENGTH_MEASURE(1.000000E-05),#8,'DISTANCE_ACCURACY_VALUE','Maximum Tolerance applied to model');
#10=(GEOMETRIC_REPRESENTATION_CONTEXT(3)GLOBAL_UNCERTAINTY_ASSIGNED_CONTEXT((#9))GLOBAL_UNIT_ASSIGNED_CONTEXT((#8,#5,#7))REPRESENTATION_CONTEXT('','root'));
#12=CARTESIAN_POINT('',(0.,0.,0.));
#13=DIRECTION('',(0.,0.,1.));
#14=DIRECTION('',(1.,0.,0.));
#15=AXIS2_PLACEMENT_3D('',#12,#13,#14);
#27=CARTESIAN_POINT('',(0.,3.175,0.));
#28=DIRECTION('',(0.,-1.,0.));
#29=DIRECTION('',(0.,0.,-1.));
#30=AXIS2_PLACEMENT_3D('',#27,#28,#29);
#31=PLANE('',#30);
#32=CARTESIAN_POINT('',(102.,3.175,-14.375));
#33=VERTEX_POINT('',#32);
#34=CARTESIAN_POINT('',(64.,3.175,-14.375));
#35=VERTEX_POINT('',#34);
#36=CARTESIAN_POINT('',(102.,3.175,-14.375));
#37=DIRECTION('',(-1.,0.,0.));
#38=VECTOR('',#37,38.);
#39=LINE('',#36,#38);
#40=EDGE_CURVE('',#33,#35,#39,.T.);
#41=ORIENTED_EDGE('',*,*,#40,.F.);
#42=CARTESIAN_POINT('',(102.,3.175,-23.0346875));
#43=VERTEX_POINT('',#42);
#44=CARTESIAN_POINT('',(102.,3.175,-14.375));
#45=DIRECTION('',(-0.,0.,-1.));
#46=VECTOR('',#45,8.6596875);
#47=LINE('',#44,#46);
#48=EDGE_CURVE('',#33,#43,#47,.T.);
#49=ORIENTED_EDGE('',*,*,#48,.T.);
#50=CARTESIAN_POINT('',(64.,3.175,-23.0346875));
#51=VERTEX_POINT('',#50);
#52=CARTESIAN_POINT('',(102.,3.175,-23.0346875));
#53=DIRECTION('',(-1.,0.,0.));
#54=VECTOR('',#53,38.);
#55=LINE('',#52,#54);
#56=EDGE_CURVE('',#43,#51,#55,.T.);
#57=ORIENTED_EDGE('',*,*,#56,.T.);
#58=CARTESIAN_POINT('',(64.,3.175,-23.0346875));
#59=DIRECTION('',(0.,0.,1.));
#60=VECTOR('',#59,8.6596875);
#61=LINE('',#58,#60);
#62=EDGE_CURVE('',#51,#35,#61,.T.);
#63=ORIENTED_EDGE('',*,*,#62,.T.);
#64=EDGE_LOOP('',(#41,#49,#57,#63));
#65=FACE_BOUND('',#64,.T.);
#66=ADVANCED_FACE('',(#65),#31,.F.);
#67=CARTESIAN_POINT('',(102.,0.,-0.));
#68=DIRECTION('',(1.,0.,-0.));
#69=DIRECTION('',(0.,1.,0.));
#70=AXIS2_PLACEMENT_3D('',#67,#68,#69);
#71=PLANE('',#70);
#72=CARTESIAN_POINT('',(102.,1.,-14.375));
#73=VERTEX_POINT('',#72);
#74=CARTESIAN_POINT('',(102.,3.175,-14.375));
#75=DIRECTION('',(0.,-1.,0.));
#76=VECTOR('',#75,2.175);
#77=LINE('',#74,#76);
#78=EDGE_CURVE('',#33,#73,#77,.T.);
#79=ORIENTED_EDGE('',*,*,#78,.T.);
#80=CARTESIAN_POINT('',(102.,1.,-9.375));
#81=VERTEX_POINT('',#80);
#82=CARTESIAN_POINT('',(102.,1.,-14.375));
#83=DIRECTION('',(0.,0.,1.));
#84=VECTOR('',#83,5.);
#85=LINE('',#82,#84);
#86=EDGE_CURVE('',#73,#81,#85,.T.);
#87=ORIENTED_EDGE('',*,*,#86,.T.);
#88=CARTESIAN_POINT('',(102.,3.175,-9.375));
#89=VERTEX_POINT('',#88);
#90=CARTESIAN_POINT('',(102.,3.175,-9.375));
#91=DIRECTION('',(0.,-1.,0.));
#92=VECTOR('',#91,2.175);
#93=LINE('',#90,#92);
#94=EDGE_CURVE('',#89,#81,#93,.T.);
#95=ORIENTED_EDGE('',*,*,#94,.F.);
#96=CARTESIAN_POINT('',(102.,3.175,-4.7625));
#97=VERTEX_POINT('',#96);
#98=CARTESIAN_POINT('',(102.,3.175,-4.7625));
#99=DIRECTION('',(-0.,0.,-1.));
#100=VECTOR('',#99,4.6125);
#101=LINE('',#98,#100);
#102=EDGE_CURVE('',#97,#89,#101,.T.);
#103=ORIENTED_EDGE('',*,*,#102,.F.);
#104=CARTESIAN_POINT('',(102.,0.,-4.7625));
#105=VERTEX_POINT('',#104);
#106=CARTESIAN_POINT('',(102.,0.,-4.7625));
#107=DIRECTION('',(0.,1.,0.));
#108=VECTOR('',#107,3.175);
#109=LINE('',#106,#108);
#110=EDGE_CURVE('',#105,#97,#109,.T.);
#111=ORIENTED_EDGE('',*,*,#110,.F.);
#112=CARTESIAN_POINT('',(102.,0.,-17.4875));
#113=VERTEX_POINT('',#112);
#114=CARTESIAN_POINT('',(102.,0.,-17.4875));
#115=DIRECTION('',(0.,0.,1.));
#116=VECTOR('',#115,12.725);
#117=LINE('',#114,#116);
#118=EDGE_CURVE('',#113,#105,#117,.T.);
#119=ORIENTED_EDGE('',*,*,#118,.F.);
#120=CARTESIAN_POINT('',(102.,2.175,-17.4875));
#121=VERTEX_POINT('',#120);
#122=CARTESIAN_POINT('',(102.,2.175,-17.4875));
#123=DIRECTION('',(0.,-1.,0.));
#124=VECTOR('',#123,2.175);
#125=LINE('',#122,#124);
#126=EDGE_CURVE('',#121,#113,#125,.T.);
#127=ORIENTED_EDGE('',*,*,#126,.F.);
#128=CARTESIAN_POINT('',(102.,2.175,-22.471875));
#129=VERTEX_POINT('',#128);
#130=CARTESIAN_POINT('',(102.,2.175,-22.471875));
#131=DIRECTION('',(0.,0.,1.));
#132=VECTOR('',#131,4.984375);
#133=LINE('',#130,#132);
#134=EDGE_CURVE('',#129,#121,#133,.T.);
#135=ORIENTED_EDGE('',*,*,#134,.F.);
#136=CARTESIAN_POINT('',(102.,0.,-22.471875));
#137=VERTEX_POINT('',#136);
#138=CARTESIAN_POINT('',(102.,0.,-22.471875));
#139=DIRECTION('',(0.,1.,0.));
#140=VECTOR('',#139,2.175);
#141=LINE('',#138,#140);
#142=EDGE_CURVE('',#137,#129,#141,.T.);
#143=ORIENTED_EDGE('',*,*,#142,.F.);
#144=CARTESIAN_POINT('',(102.,0.,-28.5975));
#145=VERTEX_POINT('',#144);
#146=CARTESIAN_POINT('',(102.,0.,-22.471875));
#147=DIRECTION('',(-0.,0.,-1.));
#148=VECTOR('',#147,6.125625);
#149=LINE('',#146,#148);
#150=EDGE_CURVE('',#137,#145,#149,.T.);
#151=ORIENTED_EDGE('',*,*,#150,.T.);
#152=CARTESIAN_POINT('',(102.,2.175,-28.5975));
#153=VERTEX_POINT('',#152);
#154=CARTESIAN_POINT('',(102.,2.175,-28.5975));
#155=DIRECTION('',(0.,-1.,0.));
#156=VECTOR('',#155,2.175);
#157=LINE('',#154,#156);
#158=EDGE_CURVE('',#153,#145,#157,.T.);
#159=ORIENTED_EDGE('',*,*,#158,.F.);
#160=CARTESIAN_POINT('',(102.,2.175,-33.581875));
#161=VERTEX_POINT('',#160);
#162=CARTESIAN_POINT('',(102.,2.175,-33.581875));
#163=DIRECTION('',(0.,0.,1.));
#164=VECTOR('',#163,4.984375);
#165=LINE('',#162,#164);
#166=EDGE_CURVE('',#161,#153,#165,.T.);
#167=ORIENTED_EDGE('',*,*,#166,.F.);
#168=CARTESIAN_POINT('',(102.,0.,-33.581875));
#169=VERTEX_POINT('',#168);
#170=CARTESIAN_POINT('',(102.,0.,-33.581875));
#171=DIRECTION('',(0.,1.,0.));
#172=VECTOR('',#171,2.175);
#173=LINE('',#170,#172);
#174=EDGE_CURVE('',#169,#161,#173,.T.);
#175=ORIENTED_EDGE('',*,*,#174,.F.);
#176=CARTESIAN_POINT('',(102.,-0.,-39.7075));
#177=VERTEX_POINT('',#176);
#178=CARTESIAN_POINT('',(102.,0.,-33.581875));
#179=DIRECTION('',(-0.,0.,-1.));
#180=VECTOR('',#179,6.125625);
#181=LINE('',#178,#180);
#182=EDGE_CURVE('',#169,#177,#181,.T.);
#183=ORIENTED_EDGE('',*,*,#182,.T.);
#184=CARTESIAN_POINT('',(102.,2.175,-39.7075));
#185=VERTEX_POINT('',#184);
#186=CARTESIAN_POINT('',(102.,2.175,-39.7075));
#187=DIRECTION('',(0.,-1.,0.));
#188=VECTOR('',#187,2.175);
#189=LINE('',#186,#188);
#190=EDGE_CURVE('',#185,#177,#189,.T.);
#191=ORIENTED_EDGE('',*,*,#190,.F.);
#192=CARTESIAN_POINT('',(102.,2.175,-44.691875));
#193=VERTEX_POINT('',#192);
#194=CARTESIAN_POINT('',(102.,2.175,-44.691875));
#195=DIRECTION('',(0.,0.,1.));
#196=VECTOR('',#195,4.984375);
#197=LINE('',#194,#196);
#198=EDGE_CURVE('',#193,#185,#197,.T.);
#199=ORIENTED_EDGE('',*,*,#198,.F.);
#200=CARTESIAN_POINT('',(102.,0.,-44.691875));
#201=VERTEX_POINT('',#200);
#202=CARTESIAN_POINT('',(102.,0.,-44.691875));
#203=DIRECTION('',(0.,1.,0.));
#204=VECTOR('',#203,2.175);
#205=LINE('',#202,#204);
#206=EDGE_CURVE('',#201,#193,#205,.T.);
#207=ORIENTED_EDGE('',*,*,#206,.F.);
#208=CARTESIAN_POINT('',(102.,-0.,-50.8175));
#209=VERTEX_POINT('',#208);
#210=CARTESIAN_POINT('',(102.,-0.,-44.691875));
#211=DIRECTION('',(-0.,0.,-1.));
#212=VECTOR('',#211,6.125625);
#213=LINE('',#210,#212);
#214=EDGE_CURVE('',#201,#209,#213,.T.);
#215=ORIENTED_EDGE('',*,*,#214,.T.);
#216=CARTESIAN_POINT('',(102.,2.175,-50.8175));
#217=VERTEX_POINT('',#216);
#218=CARTESIAN_POINT('',(102.,2.175,-50.8175));
#219=DIRECTION('',(0.,-1.,0.));
#220=VECTOR('',#219,2.175);
#221=LINE('',#218,#220);
#222=EDGE_CURVE('',#217,#209,#221,.T.);
#223=ORIENTED_EDGE('',*,*,#222,.F.);
#224=CARTESIAN_POINT('',(102.,2.175,-55.801875));
#225=VERTEX_POINT('',#224);
#226=CARTESIAN_POINT('',(102.,2.175,-55.801875));
#227=DIRECTION('',(0.,0.,1.));
#228=VECTOR('',#227,4.984375);
#229=LINE('',#226,#228);
#230=EDGE_CURVE('',#225,#217,#229,.T.);
#231=ORIENTED_EDGE('',*,*,#230,.F.);
#232=CARTESIAN_POINT('',(102.,0.,-55.801875));
#233=VERTEX_POINT('',#232);
#234=CARTESIAN_POINT('',(102.,0.,-55.801875));
#235=DIRECTION('',(0.,1.,0.));
#236=VECTOR('',#235,2.175);
#237=LINE('',#234,#236);
#238=EDGE_CURVE('',#233,#225,#237,.T.);
#239=ORIENTED_EDGE('',*,*,#238,.F.);
#240=CARTESIAN_POINT('',(102.,-0.,-61.9275));
#241=VERTEX_POINT('',#240);
#242=CARTESIAN_POINT('',(102.,-0.,-55.801875));
#243=DIRECTION('',(-0.,0.,-1.));
#244=VECTOR('',#243,6.125625);
#245=LINE('',#242,#244);
#246=EDGE_CURVE('',#233,#241,#245,.T.);
#247=ORIENTED_EDGE('',*,*,#246,.T.);
#248=CARTESIAN_POINT('',(102.,2.175,-61.9275));
#249=VERTEX_POINT('',#248);
#250=CARTESIAN_POINT('',(102.,2.175,-61.9275));
#251=DIRECTION('',(0.,-1.,0.));
#252=VECTOR('',#251,2.175);
#253=LINE('',#250,#252);
#254=EDGE_CURVE('',#249,#241,#253,.T.);
#255=ORIENTED_EDGE('',*,*,#254,.F.);
#256=CARTESIAN_POINT('',(102.,2.175,-66.911875));
#257=VERTEX_POINT('',#256);
#258=CARTESIAN_POINT('',(102.,2.175,-66.911875));
#259=DIRECTION('',(0.,0.,1.));
#260=VECTOR('',#259,4.984375);
#261=LINE('',#258,#260);
#262=EDGE_CURVE('',#257,#249,#261,.T.);
#263=ORIENTED_EDGE('',*,*,#262,.F.);
#264=CARTESIAN_POINT('',(102.,0.,-66.911875));
#265=VERTEX_POINT('',#264);
#266=CARTESIAN_POINT('',(102.,0.,-66.911875));
#267=DIRECTION('',(0.,1.,0.));
#268=VECTOR('',#267,2.175);
#269=LINE('',#266,#268);
#270=EDGE_CURVE('',#265,#257,#269,.T.);
#271=ORIENTED_EDGE('',*,*,#270,.F.);
#272=CARTESIAN_POINT('',(102.,-0.,-73.0375));
#273=VERTEX_POINT('',#272);
#274=CARTESIAN_POINT('',(102.,-0.,-66.911875));
#275=DIRECTION('',(-0.,0.,-1.));
#276=VECTOR('',#275,6.125625);
#277=LINE('',#274,#276);
#278=EDGE_CURVE('',#265,#273,#277,.T.);
#279=ORIENTED_EDGE('',*,*,#278,.T.);
#280=CARTESIAN_POINT('',(102.,2.175,-73.0375));
#281=VERTEX_POINT('',#280);
#282=CARTESIAN_POINT('',(102.,2.175,-73.0375));
#283=DIRECTION('',(0.,-1.,0.));
#284=VECTOR('',#283,2.175);
#285=LINE('',#282,#284);
#286=EDGE_CURVE('',#281,#273,#285,.T.);
#287=ORIENTED_EDGE('',*,*,#286,.F.);
#288=CARTESIAN_POINT('',(102.,2.175,-78.021875));
#289=VERTEX_POINT('',#288);
#290=CARTESIAN_POINT('',(102.,2.175,-78.021875));
#291=DIRECTION('',(0.,0.,1.));
#292=VECTOR('',#291,4.984375);
#293=LINE('',#290,#292);
#294=EDGE_CURVE('',#289,#281,#293,.T.);
#295=ORIENTED_EDGE('',*,*,#294,.F.);
#296=CARTESIAN_POINT('',(102.,0.,-78.021875));
#297=VERTEX_POINT('',#296);
#298=CARTESIAN_POINT('',(102.,0.,-78.021875));
#299=DIRECTION('',(0.,1.,0.));
#300=VECTOR('',#299,2.175);
#301=LINE('',#298,#300);
#302=EDGE_CURVE('',#297,#289,#301,.T.);
#303=ORIENTED_EDGE('',*,*,#302,.F.);
#304=CARTESIAN_POINT('',(102.,0.,-84.1475));
#305=VERTEX_POINT('',#304);
#306=CARTESIAN_POINT('',(102.,0.,-78.021875));
#307=DIRECTION('',(-0.,0.,-1.));
#308=VECTOR('',#307,6.125625);
#309=LINE('',#306,#308);
#310=EDGE_CURVE('',#297,#305,#309,.T.);
#311=ORIENTED_EDGE('',*,*,#310,.T.);
#312=CARTESIAN_POINT('',(102.,2.175,-84.1475));
#313=VERTEX_POINT('',#312);
#314=CARTESIAN_POINT('',(102.,2.175,-84.1475));
#315=DIRECTION('',(0.,-1.,0.));
#316=VECTOR('',#315,2.175);
#317=LINE('',#314,#316);
#318=EDGE_CURVE('',#313,#305,#317,.T.);
#319=ORIENTED_EDGE('',*,*,#318,.F.);
#320=CARTESIAN_POINT('',(102.,2.175,-89.131875));
#321=VERTEX_POINT('',#320);
#322=CARTESIAN_POINT('',(102.,2.175,-89.131875));
#323=DIRECTION('',(0.,0.,1.));
#324=VECTOR('',#323,4.984375);
#325=LINE('',#322,#324);
#326=EDGE_CURVE('',#321,#313,#325,.T.);
#327=ORIENTED_EDGE('',*,*,#326,.F.);
#328=CARTESIAN_POINT('',(102.,0.,-89.131875));
#329=VERTEX_POINT('',#328);
#330=CARTESIAN_POINT('',(102.,0.,-89.131875));
#331=DIRECTION('',(0.,1.,0.));
#332=VECTOR('',#331,2.175);
#333=LINE('',#330,#332);
#334=EDGE_CURVE('',#329,#321,#333,.T.);
#335=ORIENTED_EDGE('',*,*,#334,.F.);
#336=CARTESIAN_POINT('',(102.,0.,-96.6475));
#337=VERTEX_POINT('',#336);
#338=CARTESIAN_POINT('',(102.,0.,-96.6475));
#339=DIRECTION('',(0.,0.,1.));
#340=VECTOR('',#339,7.515625);
#341=LINE('',#338,#340);
#342=EDGE_CURVE('',#337,#329,#341,.T.);
#343=ORIENTED_EDGE('',*,*,#342,.F.);
#344=CARTESIAN_POINT('',(102.,3.175,-96.6475));
#345=VERTEX_POINT('',#344);
#346=CARTESIAN_POINT('',(102.,3.175,-96.6475));
#347=DIRECTION('',(0.,-1.,0.));
#348=VECTOR('',#347,3.175);
#349=LINE('',#346,#348);
#350=EDGE_CURVE('',#345,#337,#349,.T.);
#351=ORIENTED_EDGE('',*,*,#350,.F.);
#352=CARTESIAN_POINT('',(102.,3.175,-83.5846875));
#353=VERTEX_POINT('',#352);
#354=CARTESIAN_POINT('',(102.,3.175,-96.6475));
#355=DIRECTION('',(0.,0.,1.));
#356=VECTOR('',#355,13.0628125);
#357=LINE('',#354,#356);
#358=EDGE_CURVE('',#345,#353,#357,.T.);
#359=ORIENTED_EDGE('',*,*,#358,.T.);
#360=CARTESIAN_POINT('',(102.,1.,-83.5846875));
#361=VERTEX_POINT('',#360);
#362=CARTESIAN_POINT('',(102.,3.175,-83.5846875));
#363=DIRECTION('',(0.,-1.,0.));
#364=VECTOR('',#363,2.175);
#365=LINE('',#362,#364);
#366=EDGE_CURVE('',#353,#361,#365,.T.);
#367=ORIENTED_EDGE('',*,*,#366,.T.);
#368=CARTESIAN_POINT('',(102.,1.,-78.5846875));
#369=VERTEX_POINT('',#368);
#370=CARTESIAN_POINT('',(102.,1.,-83.5846875));
#371=DIRECTION('',(0.,0.,1.));
#372=VECTOR('',#371,5.);
#373=LINE('',#370,#372);
#374=EDGE_CURVE('',#361,#369,#373,.T.);
#375=ORIENTED_EDGE('',*,*,#374,.T.);
#376=CARTESIAN_POINT('',(102.,3.175,-78.5846875));
#377=VERTEX_POINT('',#376);
#378=CARTESIAN_POINT('',(102.,1.,-78.5846875));
#379=DIRECTION('',(0.,1.,0.));
#380=VECTOR('',#379,2.175);
#381=LINE('',#378,#380);
#382=EDGE_CURVE('',#369,#377,#381,.T.);
#383=ORIENTED_EDGE('',*,*,#382,.T.);
#384=CARTESIAN_POINT('',(102.,3.175,-72.4746875));
#385=VERTEX_POINT('',#384);
#386=CARTESIAN_POINT('',(102.,3.175,-72.4746875));
#387=DIRECTION('',(-0.,0.,-1.));
#388=VECTOR('',#387,6.11);
#389=LINE('',#386,#388);
#390=EDGE_CURVE('',#385,#377,#389,.T.);
#391=ORIENTED_EDGE('',*,*,#390,.F.);
#392=CARTESIAN_POINT('',(102.,1.,-72.4746875));
#393=VERTEX_POINT('',#392);
#394=CARTESIAN_POINT('',(102.,3.175,-72.4746875));
#395=DIRECTION('',(0.,-1.,0.));
#396=VECTOR('',#395,2.175);
#397=LINE('',#394,#396);
#398=EDGE_CURVE('',#385,#393,#397,.T.);
#399=ORIENTED_EDGE('',*,*,#398,.T.);
#400=CARTESIAN_POINT('',(102.,1.,-67.4746875));
#401=VERTEX_POINT('',#400);
#402=CARTESIAN_POINT('',(102.,1.,-72.4746875));
#403=DIRECTION('',(0.,0.,1.));
#404=VECTOR('',#403,5.);
#405=LINE('',#402,#404);
#406=EDGE_CURVE('',#393,#401,#405,.T.);
#407=ORIENTED_EDGE('',*,*,#406,.T.);
#408=CARTESIAN_POINT('',(102.,3.175,-67.4746875));
#409=VERTEX_POINT('',#408);
#410=CARTESIAN_POINT('',(102.,1.,-67.4746875));
#411=DIRECTION('',(0.,1.,0.));
#412=VECTOR('',#411,2.175);
#413=LINE('',#410,#412);
#414=EDGE_CURVE('',#401,#409,#413,.T.);
#415=ORIENTED_EDGE('',*,*,#414,.T.);
#416=CARTESIAN_POINT('',(102.,3.175,-61.3646875));
#417=VERTEX_POINT('',#416);
#418=CARTESIAN_POINT('',(102.,3.175,-61.3646875));
#419=DIRECTION('',(-0.,0.,-1.));
#420=VECTOR('',#419,6.11);
#421=LINE('',#418,#420);
#422=EDGE_CURVE('',#417,#409,#421,.T.);
#423=ORIENTED_EDGE('',*,*,#422,.F.);
#424=CARTESIAN_POINT('',(102.,1.,-61.3646875));
#425=VERTEX_POINT('',#424);
#426=CARTESIAN_POINT('',(102.,3.175,-61.3646875));
#427=DIRECTION('',(0.,-1.,0.));
#428=VECTOR('',#427,2.175);
#429=LINE('',#426,#428);
#430=EDGE_CURVE('',#417,#425,#429,.T.);
#431=ORIENTED_EDGE('',*,*,#430,.T.);
#432=CARTESIAN_POINT('',(102.,1.,-56.3646875));
#433=VERTEX_POINT('',#432);
#434=CARTESIAN_POINT('',(102.,1.,-61.3646875));
#435=DIRECTION('',(0.,0.,1.));
#436=VECTOR('',#435,5.);
#437=LINE('',#434,#436);
#438=EDGE_CURVE('',#425,#433,#437,.T.);
#439=ORIENTED_EDGE('',*,*,#438,.T.);
#440=CARTESIAN_POINT('',(102.,3.175,-56.3646875));
#441=VERTEX_POINT('',#440);
#442=CARTESIAN_POINT('',(102.,1.,-56.3646875));
#443=DIRECTION('',(0.,1.,0.));
#444=VECTOR('',#443,2.175);
#445=LINE('',#442,#444);
#446=EDGE_CURVE('',#433,#441,#445,.T.);
#447=ORIENTED_EDGE('',*,*,#446,.T.);
#448=CARTESIAN_POINT('',(102.,3.175,-50.2546875));
#449=VERTEX_POINT('',#448);
#450=CARTESIAN_POINT('',(102.,3.175,-50.2546875));
#451=DIRECTION('',(-0.,0.,-1.));
#452=VECTOR('',#451,6.11);
#453=LINE('',#450,#452);
#454=EDGE_CURVE('',#449,#441,#453,.T.);
#455=ORIENTED_EDGE('',*,*,#454,.F.);
#456=CARTESIAN_POINT('',(102.,1.,-50.2546875));
#457=VERTEX_POINT('',#456);
#458=CARTESIAN_POINT('',(102.,3.175,-50.2546875));
#459=DIRECTION('',(0.,-1.,0.));
#460=VECTOR('',#459,2.175);
#461=LINE('',#458,#460);
#462=EDGE_CURVE('',#449,#457,#461,.T.);
#463=ORIENTED_EDGE('',*,*,#462,.T.);
#464=CARTESIAN_POINT('',(102.,1.,-45.2546875));
#465=VERTEX_POINT('',#464);
#466=CARTESIAN_POINT('',(102.,1.,-50.2546875));
#467=DIRECTION('',(0.,0.,1.));
#468=VECTOR('',#467,5.);
#469=LINE('',#466,#468);
#470=EDGE_CURVE('',#457,#465,#469,.T.);
#471=ORIENTED_EDGE('',*,*,#470,.T.);
#472=CARTESIAN_POINT('',(102.,3.175,-45.2546875));
#473=VERTEX_POINT('',#472);
#474=CARTESIAN_POINT('',(102.,1.,-45.2546875));
#475=DIRECTION('',(0.,1.,0.));
#476=VECTOR('',#475,2.175);
#477=LINE('',#474,#476);
#478=EDGE_CURVE('',#465,#473,#477,.T.);
#479=ORIENTED_EDGE('',*,*,#478,.T.);
#480=CARTESIAN_POINT('',(102.,3.175,-39.1446875));
#481=VERTEX_POINT('',#480);
#482=CARTESIAN_POINT('',(102.,3.175,-39.1446875));
#483=DIRECTION('',(-0.,0.,-1.));
#484=VECTOR('',#483,6.11);
#485=LINE('',#482,#484);
#486=EDGE_CURVE('',#481,#473,#485,.T.);
#487=ORIENTED_EDGE('',*,*,#486,.F.);
#488=CARTESIAN_POINT('',(102.,1.,-39.1446875));
#489=VERTEX_POINT('',#488);
#490=CARTESIAN_POINT('',(102.,3.175,-39.1446875));
#491=DIRECTION('',(0.,-1.,0.));
#492=VECTOR('',#491,2.175);
#493=LINE('',#490,#492);
#494=EDGE_CURVE('',#481,#489,#493,.T.);
#495=ORIENTED_EDGE('',*,*,#494,.T.);
#496=CARTESIAN_POINT('',(102.,1.,-34.1446875));
#497=VERTEX_POINT('',#496);
#498=CARTESIAN_POINT('',(102.,1.,-39.1446875));
#499=DIRECTION('',(0.,0.,1.));
#500=VECTOR('',#499,5.);
#501=LINE('',#498,#500);
#502=EDGE_CURVE('',#489,#497,#501,.T.);
#503=ORIENTED_EDGE('',*,*,#502,.T.);
#504=CARTESIAN_POINT('',(102.,3.175,-34.1446875));
#505=VERTEX_POINT('',#504);
#506=CARTESIAN_POINT('',(102.,1.,-34.1446875));
#507=DIRECTION('',(0.,1.,0.));
#508=VECTOR('',#507,2.175);
#509=LINE('',#506,#508);
#510=EDGE_CURVE('',#497,#505,#509,.T.);
#511=ORIENTED_EDGE('',*,*,#510,.T.);
#512=CARTESIAN_POINT('',(102.,3.175,-28.0346875));
#513=VERTEX_POINT('',#512);
#514=CARTESIAN_POINT('',(102.,3.175,-28.0346875));
#515=DIRECTION('',(-0.,0.,-1.));
#516=VECTOR('',#515,6.11);
#517=LINE('',#514,#516);
#518=EDGE_CURVE('',#513,#505,#517,.T.);
#519=ORIENTED_EDGE('',*,*,#518,.F.);
#520=CARTESIAN_POINT('',(102.,1.,-28.0346875));
#521=VERTEX_POINT('',#520);
#522=CARTESIAN_POINT('',(102.,3.175,-28.0346875));
#523=DIRECTION('',(0.,-1.,0.));
#524=VECTOR('',#523,2.175);
#525=LINE('',#522,#524);
#526=EDGE_CURVE('',#513,#521,#525,.T.);
#527=ORIENTED_EDGE('',*,*,#526,.T.);
#528=CARTESIAN_POINT('',(102.,1.,-23.0346875));
#529=VERTEX_POINT('',#528);
#530=CARTESIAN_POINT('',(102.,1.,-28.0346875));
#531=DIRECTION('',(0.,0.,1.));
#532=VECTOR('',#531,5.);
#533=LINE('',#530,#532);
#534=EDGE_CURVE('',#521,#529,#533,.T.);
#535=ORIENTED_EDGE('',*,*,#534,.T.);
#536=CARTESIAN_POINT('',(102.,1.,-23.0346875));
#537=DIRECTION('',(0.,1.,0.));
#538=VECTOR('',#537,2.175);
#539=LINE('',#536,#538);
#540=EDGE_CURVE('',#529,#43,#539,.T.);
#541=ORIENTED_EDGE('',*,*,#540,.T.);
#542=ORIENTED_EDGE('',*,*,#48,.F.);
#543=EDGE_LOOP('',(#79,#87,#95,#103,#111,#119,#127,#135,#143,#151,#159,#167,#175,#183,#191,#199,#207,#215,#223,#231,#239,#247,#255,#263,#271,#279,
#287,#295,#303,#311,#319,#327,#335,#343,#351,#359,#367,#375,#383,#391,#399,#407,#415,#423,#431,#439,#447,#455,#463,#471,#479,
#487,#495,#503,#511,#519,#527,#535,#541,#542));
#544=FACE_BOUND('',#543,.T.);
#545=ADVANCED_FACE('',(#544),#71,.T.);
#546=CARTESIAN_POINT('',(64.,0.,-0.));
#547=DIRECTION('',(-1.,0.,0.));
#548=DIRECTION('',(0.,-1.,0.));
#549=AXIS2_PLACEMENT_3D('',#546,#547,#548);
#550=PLANE('',#549);
#551=CARTESIAN_POINT('',(64.,1.,-14.375));
#552=VERTEX_POINT('',#551);
#553=CARTESIAN_POINT('',(64.,1.,-9.375));
#554=VERTEX_POINT('',#553);
#555=CARTESIAN_POINT('',(64.,1.,-14.375));
#556=DIRECTION('',(0.,0.,1.));
#557=VECTOR('',#556,5.);
#558=LINE('',#555,#557);
#559=EDGE_CURVE('',#552,#554,#558,.T.);
#560=ORIENTED_EDGE('',*,*,#559,.F.);
#561=CARTESIAN_POINT('',(64.,1.,-14.375));
#562=DIRECTION('',(0.,1.,0.));
#563=VECTOR('',#562,2.175);
#564=LINE('',#561,#563);
#565=EDGE_CURVE('',#552,#35,#564,.T.);
#566=ORIENTED_EDGE('',*,*,#565,.T.);
#567=ORIENTED_EDGE('',*,*,#62,.F.);
#568=CARTESIAN_POINT('',(64.,1.,-23.0346875));
#569=VERTEX_POINT('',#568);
#570=CARTESIAN_POINT('',(64.,1.,-23.0346875));
#571=DIRECTION('',(0.,1.,0.));
#572=VECTOR('',#571,2.175);
#573=LINE('',#570,#572);
#574=EDGE_CURVE('',#569,#51,#573,.T.);
#575=ORIENTED_EDGE('',*,*,#574,.F.);
#576=CARTESIAN_POINT('',(64.,1.,-28.0346875));
#577=VERTEX_POINT('',#576);
#578=CARTESIAN_POINT('',(64.,1.,-28.0346875));
#579=DIRECTION('',(0.,0.,1.));
#580=VECTOR('',#579,5.);
#581=LINE('',#578,#580);
#582=EDGE_CURVE('',#577,#569,#581,.T.);
#583=ORIENTED_EDGE('',*,*,#582,.F.);
#584=CARTESIAN_POINT('',(64.,3.175,-28.0346875));
#585=VERTEX_POINT('',#584);
#586=CARTESIAN_POINT('',(64.,3.175,-28.0346875));
#587=DIRECTION('',(0.,-1.,0.));
#588=VECTOR('',#587,2.175);
#589=LINE('',#586,#588);
#590=EDGE_CURVE('',#585,#577,#589,.T.);
#591=ORIENTED_EDGE('',*,*,#590,.F.);
#592=CARTESIAN_POINT('',(64.,3.175,-34.1446875));
#593=VERTEX_POINT('',#592);
#594=CARTESIAN_POINT('',(64.,3.175,-28.0346875));
#595=DIRECTION('',(-0.,0.,-1.));
#596=VECTOR('',#595,6.11);
#597=LINE('',#594,#596);
#598=EDGE_CURVE('',#585,#593,#597,.T.);
#599=ORIENTED_EDGE('',*,*,#598,.T.);
#600=CARTESIAN_POINT('',(64.,1.,-34.1446875));
#601=VERTEX_POINT('',#600);
#602=CARTESIAN_POINT('',(64.,1.,-34.1446875));
#603=DIRECTION('',(0.,1.,0.));
#604=VECTOR('',#603,2.175);
#605=LINE('',#602,#604);
#606=EDGE_CURVE('',#601,#593,#605,.T.);
#607=ORIENTED_EDGE('',*,*,#606,.F.);
#608=CARTESIAN_POINT('',(64.,1.,-39.1446875));
#609=VERTEX_POINT('',#608);
#610=CARTESIAN_POINT('',(64.,1.,-39.1446875));
#611=DIRECTION('',(0.,0.,1.));
#612=VECTOR('',#611,5.);
#613=LINE('',#610,#612);
#614=EDGE_CURVE('',#609,#601,#613,.T.);
#615=ORIENTED_EDGE('',*,*,#614,.F.);
#616=CARTESIAN_POINT('',(64.,3.175,-39.1446875));
#617=VERTEX_POINT('',#616);
#618=CARTESIAN_POINT('',(64.,3.175,-39.1446875));
#619=DIRECTION('',(0.,-1.,0.));
#620=VECTOR('',#619,2.175);
#621=LINE('',#618,#620);
#622=EDGE_CURVE('',#617,#609,#621,.T.);
#623=ORIENTED_EDGE('',*,*,#622,.F.);
#624=CARTESIAN_POINT('',(64.,3.175,-45.2546875));
#625=VERTEX_POINT('',#624);
#626=CARTESIAN_POINT('',(64.,3.175,-39.1446875));
#627=DIRECTION('',(-0.,0.,-1.));
#628=VECTOR('',#627,6.11);
#629=LINE('',#626,#628);
#630=EDGE_CURVE('',#617,#625,#629,.T.);
#631=ORIENTED_EDGE('',*,*,#630,.T.);
#632=CARTESIAN_POINT('',(64.,1.,-45.2546875));
#633=VERTEX_POINT('',#632);
#634=CARTESIAN_POINT('',(64.,1.,-45.2546875));
#635=DIRECTION('',(0.,1.,0.));
#636=VECTOR('',#635,2.175);
#637=LINE('',#634,#636);
#638=EDGE_CURVE('',#633,#625,#637,.T.);
#639=ORIENTED_EDGE('',*,*,#638,.F.);
#640=CARTESIAN_POINT('',(64.,1.,-50.2546875));
#641=VERTEX_POINT('',#640);
#642=CARTESIAN_POINT('',(64.,1.,-50.2546875));
#643=DIRECTION('',(0.,0.,1.));
#644=VECTOR('',#643,5.);
#645=LINE('',#642,#644);
#646=EDGE_CURVE('',#641,#633,#645,.T.);
#647=ORIENTED_EDGE('',*,*,#646,.F.);
#648=CARTESIAN_POINT('',(64.,3.175,-50.2546875));
#649=VERTEX_POINT('',#648);
#650=CARTESIAN_POINT('',(64.,3.175,-50.2546875));
#651=DIRECTION('',(0.,-1.,0.));
#652=VECTOR('',#651,2.175);
#653=LINE('',#650,#652);
#654=EDGE_CURVE('',#649,#641,#653,.T.);
#655=ORIENTED_EDGE('',*,*,#654,.F.);
#656=CARTESIAN_POINT('',(64.,3.175,-56.3646875));
#657=VERTEX_POINT('',#656);
#658=CARTESIAN_POINT('',(64.,3.175,-50.2546875));
#659=DIRECTION('',(-0.,0.,-1.));
#660=VECTOR('',#659,6.11);
#661=LINE('',#658,#660);
#662=EDGE_CURVE('',#649,#657,#661,.T.);
#663=ORIENTED_EDGE('',*,*,#662,.T.);
#664=CARTESIAN_POINT('',(64.,1.,-56.3646875));
#665=VERTEX_POINT('',#664);
#666=CARTESIAN_POINT('',(64.,1.,-56.3646875));
#667=DIRECTION('',(0.,1.,0.));
#668=VECTOR('',#667,2.175);
#669=LINE('',#666,#668);
#670=EDGE_CURVE('',#665,#657,#669,.T.);
#671=ORIENTED_EDGE('',*,*,#670,.F.);
#672=CARTESIAN_POINT('',(64.,1.,-61.3646875));
#673=VERTEX_POINT('',#672);
#674=CARTESIAN_POINT('',(64.,1.,-61.3646875));
#675=DIRECTION('',(0.,0.,1.));
#676=VECTOR('',#675,5.);
#677=LINE('',#674,#676);
#678=EDGE_CURVE('',#673,#665,#677,.T.);
#679=ORIENTED_EDGE('',*,*,#678,.F.);
#680=CARTESIAN_POINT('',(64.,3.175,-61.3646875));
#681=VERTEX_POINT('',#680);
#682=CARTESIAN_POINT('',(64.,3.175,-61.3646875));
#683=DIRECTION('',(0.,-1.,0.));
#684=VECTOR('',#683,2.175);
#685=LINE('',#682,#684);
#686=EDGE_CURVE('',#681,#673,#685,.T.);
#687=ORIENTED_EDGE('',*,*,#686,.F.);
#688=CARTESIAN_POINT('',(64.,3.175,-67.4746875));
#689=VERTEX_POINT('',#688);
#690=CARTESIAN_POINT('',(64.,3.175,-61.3646875));
#691=DIRECTION('',(-0.,0.,-1.));
#692=VECTOR('',#691,6.11);
#693=LINE('',#690,#692);
#694=EDGE_CURVE('',#681,#689,#693,.T.);
#695=ORIENTED_EDGE('',*,*,#694,.T.);
#696=CARTESIAN_POINT('',(64.,1.,-67.4746875));
#697=VERTEX_POINT('',#696);
#698=CARTESIAN_POINT('',(64.,1.,-67.4746875));
#699=DIRECTION('',(0.,1.,0.));
#700=VECTOR('',#699,2.175);
#701=LINE('',#698,#700);
#702=EDGE_CURVE('',#697,#689,#701,.T.);
#703=ORIENTED_EDGE('',*,*,#702,.F.);
#704=CARTESIAN_POINT('',(64.,1.,-72.4746875));
#705=VERTEX_POINT('',#704);
#706=CARTESIAN_POINT('',(64.,1.,-72.4746875));
#707=DIRECTION('',(0.,0.,1.));
#708=VECTOR('',#707,5.);
#709=LINE('',#706,#708);
#710=EDGE_CURVE('',#705,#697,#709,.T.);
#711=ORIENTED_EDGE('',*,*,#710,.F.);
#712=CARTESIAN_POINT('',(64.,3.175,-72.4746875));
#713=VERTEX_POINT('',#712);
#714=CARTESIAN_POINT('',(64.,3.175,-72.4746875));
#715=DIRECTION('',(0.,-1.,0.));
#716=VECTOR('',#715,2.175);
#717=LINE('',#714,#716);
#718=EDGE_CURVE('',#713,#705,#717,.T.);
#719=ORIENTED_EDGE('',*,*,#718,.F.);
#720=CARTESIAN_POINT('',(64.,3.175,-78.5846875));
#721=VERTEX_POINT('',#720);
#722=CARTESIAN_POINT('',(64.,3.175,-72.4746875));
#723=DIRECTION('',(-0.,0.,-1.));
#724=VECTOR('',#723,6.11);
#725=LINE('',#722,#724);
#726=EDGE_CURVE('',#713,#721,#725,.T.);
#727=ORIENTED_EDGE('',*,*,#726,.T.);
#728=CARTESIAN_POINT('',(64.,1.,-78.5846875));
#729=VERTEX_POINT('',#728);
#730=CARTESIAN_POINT('',(64.,1.,-78.5846875));
#731=DIRECTION('',(0.,1.,0.));
#732=VECTOR('',#731,2.175);
#733=LINE('',#730,#732);
#734=EDGE_CURVE('',#729,#721,#733,.T.);
#735=ORIENTED_EDGE('',*,*,#734,.F.);
#736=CARTESIAN_POINT('',(64.,1.,-83.5846875));
#737=VERTEX_POINT('',#736);
#738=CARTESIAN_POINT('',(64.,1.,-83.5846875));
#739=DIRECTION('',(0.,0.,1.));
#740=VECTOR('',#739,5.);
#741=LINE('',#738,#740);
#742=EDGE_CURVE('',#737,#729,#741,.T.);
#743=ORIENTED_EDGE('',*,*,#742,.F.);
#744=CARTESIAN_POINT('',(64.,3.175,-83.5846875));
#745=VERTEX_POINT('',#744);
#746=CARTESIAN_POINT('',(64.,3.175,-83.5846875));
#747=DIRECTION('',(0.,-1.,0.));
#748=VECTOR('',#747,2.175);
#749=LINE('',#746,#748);
#750=EDGE_CURVE('',#745,#737,#749,.T.);
#751=ORIENTED_EDGE('',*,*,#750,.F.);
#752=CARTESIAN_POINT('',(64.,3.175,-96.6475));
#753=VERTEX_POINT('',#752);
#754=CARTESIAN_POINT('',(64.,3.175,-96.6475));
#755=DIRECTION('',(0.,0.,1.));
#756=VECTOR('',#755,13.0628125);
#757=LINE('',#754,#756);
#758=EDGE_CURVE('',#753,#745,#757,.T.);
#759=ORIENTED_EDGE('',*,*,#758,.F.);
#760=CARTESIAN_POINT('',(64.,0.,-96.6475));
#761=VERTEX_POINT('',#760);
#762=CARTESIAN_POINT('',(64.,0.,-96.6475));
#763=DIRECTION('',(0.,1.,0.));
#764=VECTOR('',#763,3.175);
#765=LINE('',#762,#764);
#766=EDGE_CURVE('',#761,#753,#765,.T.);
#767=ORIENTED_EDGE('',*,*,#766,.F.);
#768=CARTESIAN_POINT('',(64.,0.,-89.131875));
#769=VERTEX_POINT('',#768);
#770=CARTESIAN_POINT('',(64.,0.,-96.6475));
#771=DIRECTION('',(0.,0.,1.));
#772=VECTOR('',#771,7.515625);
#773=LINE('',#770,#772);
#774=EDGE_CURVE('',#761,#769,#773,.T.);
#775=ORIENTED_EDGE('',*,*,#774,.T.);
#776=CARTESIAN_POINT('',(64.,2.175,-89.131875));
#777=VERTEX_POINT('',#776);
#778=CARTESIAN_POINT('',(64.,0.,-89.131875));
#779=DIRECTION('',(0.,1.,0.));
#780=VECTOR('',#779,2.175);
#781=LINE('',#778,#780);
#782=EDGE_CURVE('',#769,#777,#781,.T.);
#783=ORIENTED_EDGE('',*,*,#782,.T.);
#784=CARTESIAN_POINT('',(64.,2.175,-84.1475));
#785=VERTEX_POINT('',#784);
#786=CARTESIAN_POINT('',(64.,2.175,-89.131875));
#787=DIRECTION('',(0.,0.,1.));
#788=VECTOR('',#787,4.984375);
#789=LINE('',#786,#788);
#790=EDGE_CURVE('',#777,#785,#789,.T.);
#791=ORIENTED_EDGE('',*,*,#790,.T.);
#792=CARTESIAN_POINT('',(64.,-0.,-84.1475));
#793=VERTEX_POINT('',#792);
#794=CARTESIAN_POINT('',(64.,2.175,-84.1475));
#795=DIRECTION('',(0.,-1.,0.));
#796=VECTOR('',#795,2.175);
#797=LINE('',#794,#796);
#798=EDGE_CURVE('',#785,#793,#797,.T.);
#799=ORIENTED_EDGE('',*,*,#798,.T.);
#800=CARTESIAN_POINT('',(64.,0.,-78.021875));
#801=VERTEX_POINT('',#800);
#802=CARTESIAN_POINT('',(64.,0.,-78.021875));
#803=DIRECTION('',(-0.,0.,-1.));
#804=VECTOR('',#803,6.125625);
#805=LINE('',#802,#804);
#806=EDGE_CURVE('',#801,#793,#805,.T.);
#807=ORIENTED_EDGE('',*,*,#806,.F.);
#808=CARTESIAN_POINT('',(64.,2.175,-78.021875));
#809=VERTEX_POINT('',#808);
#810=CARTESIAN_POINT('',(64.,0.,-78.021875));
#811=DIRECTION('',(0.,1.,0.));
#812=VECTOR('',#811,2.175);
#813=LINE('',#810,#812);
#814=EDGE_CURVE('',#801,#809,#813,.T.);
#815=ORIENTED_EDGE('',*,*,#814,.T.);
#816=CARTESIAN_POINT('',(64.,2.175,-73.0375));
#817=VERTEX_POINT('',#816);
#818=CARTESIAN_POINT('',(64.,2.175,-78.021875));
#819=DIRECTION('',(0.,0.,1.));
#820=VECTOR('',#819,4.984375);
#821=LINE('',#818,#820);
#822=EDGE_CURVE('',#809,#817,#821,.T.);
#823=ORIENTED_EDGE('',*,*,#822,.T.);
#824=CARTESIAN_POINT('',(64.,-0.,-73.0375));
#825=VERTEX_POINT('',#824);
#826=CARTESIAN_POINT('',(64.,2.175,-73.0375));
#827=DIRECTION('',(0.,-1.,0.));
#828=VECTOR('',#827,2.175);
#829=LINE('',#826,#828);
#830=EDGE_CURVE('',#817,#825,#829,.T.);
#831=ORIENTED_EDGE('',*,*,#830,.T.);
#832=CARTESIAN_POINT('',(64.,0.,-66.911875));
#833=VERTEX_POINT('',#832);
#834=CARTESIAN_POINT('',(64.,-0.,-66.911875));
#835=DIRECTION('',(-0.,0.,-1.));
#836=VECTOR('',#835,6.125625);
#837=LINE('',#834,#836);
#838=EDGE_CURVE('',#833,#825,#837,.T.);
#839=ORIENTED_EDGE('',*,*,#838,.F.);
#840=CARTESIAN_POINT('',(64.,2.175,-66.911875));
#841=VERTEX_POINT('',#840);
#842=CARTESIAN_POINT('',(64.,0.,-66.911875));
#843=DIRECTION('',(0.,1.,0.));
#844=VECTOR('',#843,2.175);
#845=LINE('',#842,#844);
#846=EDGE_CURVE('',#833,#841,#845,.T.);
#847=ORIENTED_EDGE('',*,*,#846,.T.);
#848=CARTESIAN_POINT('',(64.,2.175,-61.9275));
#849=VERTEX_POINT('',#848);
#850=CARTESIAN_POINT('',(64.,2.175,-66.911875));
#851=DIRECTION('',(0.,0.,1.));
#852=VECTOR('',#851,4.984375);
#853=LINE('',#850,#852);
#854=EDGE_CURVE('',#841,#849,#853,.T.);
#855=ORIENTED_EDGE('',*,*,#854,.T.);
#856=CARTESIAN_POINT('',(64.,-0.,-61.9275));
#857=VERTEX_POINT('',#856);
#858=CARTESIAN_POINT('',(64.,2.175,-61.9275));
#859=DIRECTION('',(0.,-1.,0.));
#860=VECTOR('',#859,2.175);
#861=LINE('',#858,#860);
#862=EDGE_CURVE('',#849,#857,#861,.T.);
#863=ORIENTED_EDGE('',*,*,#862,.T.);
#864=CARTESIAN_POINT('',(64.,0.,-55.801875));
#865=VERTEX_POINT('',#864);
#866=CARTESIAN_POINT('',(64.,-0.,-55.801875));
#867=DIRECTION('',(-0.,0.,-1.));
#868=VECTOR('',#867,6.125625);
#869=LINE('',#866,#868);
#870=EDGE_CURVE('',#865,#857,#869,.T.);
#871=ORIENTED_EDGE('',*,*,#870,.F.);
#872=CARTESIAN_POINT('',(64.,2.175,-55.801875));
#873=VERTEX_POINT('',#872);
#874=CARTESIAN_POINT('',(64.,0.,-55.801875));
#875=DIRECTION('',(0.,1.,0.));
#876=VECTOR('',#875,2.175);
#877=LINE('',#874,#876);
#878=EDGE_CURVE('',#865,#873,#877,.T.);
#879=ORIENTED_EDGE('',*,*,#878,.T.);
#880=CARTESIAN_POINT('',(64.,2.175,-50.8175));
#881=VERTEX_POINT('',#880);
#882=CARTESIAN_POINT('',(64.,2.175,-55.801875));
#883=DIRECTION('',(0.,0.,1.));
#884=VECTOR('',#883,4.984375);
#885=LINE('',#882,#884);
#886=EDGE_CURVE('',#873,#881,#885,.T.);
#887=ORIENTED_EDGE('',*,*,#886,.T.);
#888=CARTESIAN_POINT('',(64.,-0.,-50.8175));
#889=VERTEX_POINT('',#888);
#890=CARTESIAN_POINT('',(64.,2.175,-50.8175));
#891=DIRECTION('',(0.,-1.,0.));
#892=VECTOR('',#891,2.175);
#893=LINE('',#890,#892);
#894=EDGE_CURVE('',#881,#889,#893,.T.);
#895=ORIENTED_EDGE('',*,*,#894,.T.);
#896=CARTESIAN_POINT('',(64.,0.,-44.691875));
#897=VERTEX_POINT('',#896);
#898=CARTESIAN_POINT('',(64.,-0.,-44.691875));
#899=DIRECTION('',(-0.,0.,-1.));
#900=VECTOR('',#899,6.125625);
#901=LINE('',#898,#900);
#902=EDGE_CURVE('',#897,#889,#901,.T.);
#903=ORIENTED_EDGE('',*,*,#902,.F.);
#904=CARTESIAN_POINT('',(64.,2.175,-44.691875));
#905=VERTEX_POINT('',#904);
#906=CARTESIAN_POINT('',(64.,0.,-44.691875));
#907=DIRECTION('',(0.,1.,0.));
#908=VECTOR('',#907,2.175);
#909=LINE('',#906,#908);
#910=EDGE_CURVE('',#897,#905,#909,.T.);
#911=ORIENTED_EDGE('',*,*,#910,.T.);
#912=CARTESIAN_POINT('',(64.,2.175,-39.7075));
#913=VERTEX_POINT('',#912);
#914=CARTESIAN_POINT('',(64.,2.175,-44.691875));
#915=DIRECTION('',(0.,0.,1.));
#916=VECTOR('',#915,4.984375);
#917=LINE('',#914,#916);
#918=EDGE_CURVE('',#905,#913,#917,.T.);
#919=ORIENTED_EDGE('',*,*,#918,.T.);
#920=CARTESIAN_POINT('',(64.,-0.,-39.7075));
#921=VERTEX_POINT('',#920);
#922=CARTESIAN_POINT('',(64.,2.175,-39.7075));
#923=DIRECTION('',(0.,-1.,0.));
#924=VECTOR('',#923,2.175);
#925=LINE('',#922,#924);
#926=EDGE_CURVE('',#913,#921,#925,.T.);
#927=ORIENTED_EDGE('',*,*,#926,.T.);
#928=CARTESIAN_POINT('',(64.,0.,-33.581875));
#929=VERTEX_POINT('',#928);
#930=CARTESIAN_POINT('',(64.,0.,-33.581875));
#931=DIRECTION('',(-0.,0.,-1.));
#932=VECTOR('',#931,6.125625);
#933=LINE('',#930,#932);
#934=EDGE_CURVE('',#929,#921,#933,.T.);
#935=ORIENTED_EDGE('',*,*,#934,.F.);
#936=CARTESIAN_POINT('',(64.,2.175,-33.581875));
#937=VERTEX_POINT('',#936);
#938=CARTESIAN_POINT('',(64.,0.,-33.581875));
#939=DIRECTION('',(0.,1.,0.));
#940=VECTOR('',#939,2.175);
#941=LINE('',#938,#940);
#942=EDGE_CURVE('',#929,#937,#941,.T.);
#943=ORIENTED_EDGE('',*,*,#942,.T.);
#944=CARTESIAN_POINT('',(64.,2.175,-28.5975));
#945=VERTEX_POINT('',#944);
#946=CARTESIAN_POINT('',(64.,2.175,-33.581875));
#947=DIRECTION('',(0.,0.,1.));
#948=VECTOR('',#947,4.984375);
#949=LINE('',#946,#948);
#950=EDGE_CURVE('',#937,#945,#949,.T.);
#951=ORIENTED_EDGE('',*,*,#950,.T.);
#952=CARTESIAN_POINT('',(64.,-0.,-28.5975));
#953=VERTEX_POINT('',#952);
#954=CARTESIAN_POINT('',(64.,2.175,-28.5975));
#955=DIRECTION('',(0.,-1.,0.));
#956=VECTOR('',#955,2.175);
#957=LINE('',#954,#956);
#958=EDGE_CURVE('',#945,#953,#957,.T.);
#959=ORIENTED_EDGE('',*,*,#958,.T.);
#960=CARTESIAN_POINT('',(64.,0.,-22.471875));
#961=VERTEX_POINT('',#960);
#962=CARTESIAN_POINT('',(64.,0.,-22.471875));
#963=DIRECTION('',(-0.,0.,-1.));
#964=VECTOR('',#963,6.125625);
#965=LINE('',#962,#964);
#966=EDGE_CURVE('',#961,#953,#965,.T.);
#967=ORIENTED_EDGE('',*,*,#966,.F.);
#968=CARTESIAN_POINT('',(64.,2.175,-22.471875));
#969=VERTEX_POINT('',#968);
#970=CARTESIAN_POINT('',(64.,0.,-22.471875));
#971=DIRECTION('',(0.,1.,0.));
#972=VECTOR('',#971,2.175);
#973=LINE('',#970,#972);
#974=EDGE_CURVE('',#961,#969,#973,.T.);
#975=ORIENTED_EDGE('',*,*,#974,.T.);
#976=CARTESIAN_POINT('',(64.,2.175,-17.4875));
#977=VERTEX_POINT('',#976);
#978=CARTESIAN_POINT('',(64.,2.175,-22.471875));
#979=DIRECTION('',(0.,0.,1.));
#980=VECTOR('',#979,4.984375);
#981=LINE('',#978,#980);
#982=EDGE_CURVE('',#969,#977,#981,.T.);
#983=ORIENTED_EDGE('',*,*,#982,.T.);
#984=CARTESIAN_POINT('',(64.,-0.,-17.4875));
#985=VERTEX_POINT('',#984);
#986=CARTESIAN_POINT('',(64.,2.175,-17.4875));
#987=DIRECTION('',(0.,-1.,0.));
#988=VECTOR('',#987,2.175);
#989=LINE('',#986,#988);
#990=EDGE_CURVE('',#977,#985,#989,.T.);
#991=ORIENTED_EDGE('',*,*,#990,.T.);
#992=CARTESIAN_POINT('',(64.,0.,-4.7625));
#993=VERTEX_POINT('',#992);
#994=CARTESIAN_POINT('',(64.,0.,-17.4875));
#995=DIRECTION('',(0.,0.,1.));
#996=VECTOR('',#995,12.725);
#997=LINE('',#994,#996);
#998=EDGE_CURVE('',#985,#993,#997,.T.);
#999=ORIENTED_EDGE('',*,*,#998,.T.);
#1000=CARTESIAN_POINT('',(64.,3.175,-4.7625));
#1001=VERTEX_POINT('',#1000);
#1002=CARTESIAN_POINT('',(64.,0.,-4.7625));
#1003=DIRECTION('',(0.,1.,0.));
#1004=VECTOR('',#1003,3.175);
#1005=LINE('',#1002,#1004);
#1006=EDGE_CURVE('',#993,#1001,#1005,.T.);
#1007=ORIENTED_EDGE('',*,*,#1006,.T.);
#1008=CARTESIAN_POINT('',(64.,3.175,-9.375));
#1009=VERTEX_POINT('',#1008);
#1010=CARTESIAN_POINT('',(64.,3.175,-9.375));
#1011=DIRECTION('',(0.,0.,1.));
#1012=VECTOR('',#1011,4.6125);
#1013=LINE('',#1010,#1012);
#1014=EDGE_CURVE('',#1009,#1001,#1013,.T.);
#1015=ORIENTED_EDGE('',*,*,#1014,.F.);
#1016=CARTESIAN_POINT('',(64.,1.,-9.375));
#1017=DIRECTION('',(0.,1.,0.));
#1018=VECTOR('',#1017,2.175);
#1019=LINE('',#1016,#1018);
#1020=EDGE_CURVE('',#554,#1009,#1019,.T.);
#1021=ORIENTED_EDGE('',*,*,#1020,.F.);
#1022=EDGE_LOOP('',(#560,#566,#567,#575,#583,#591,#599,#607,#615,#623,#631,#639,#647,#655,#663,#671,#679,#687,#695,#703,#711,#719,#727,#735,#743,#751,
#759,#767,#775,#783,#791,#799,#807,#815,#823,#831,#839,#847,#855,#863,#871,#879,#887,#895,#903,#911,#919,#927,#935,#943,#951,
#959,#967,#975,#983,#991,#999,#1007,#1015,#1021));
#1023=FACE_BOUND('',#1022,.T.);
#1024=ADVANCED_FACE('',(#1023),#550,.T.);
#1025=CARTESIAN_POINT('',(62.5025,3.175,-64.411875));
#1026=DIRECTION('',(0.,-1.,0.));
#1027=DIRECTION('',(0.,0.,-1.));
#1028=AXIS2_PLACEMENT_3D('',#1025,#1026,#1027);
#1029=PLANE('',#1028);
#1030=ORIENTED_EDGE('',*,*,#694,.F.);
#1031=CARTESIAN_POINT('',(102.,3.175,-61.3646875));
#1032=DIRECTION('',(-1.,0.,0.));
#1033=VECTOR('',#1032,38.);
#1034=LINE('',#1031,#1033);
#1035=EDGE_CURVE('',#417,#681,#1034,.T.);
#1036=ORIENTED_EDGE('',*,*,#1035,.F.);
#1037=ORIENTED_EDGE('',*,*,#422,.T.);
#1038=CARTESIAN_POINT('',(102.,3.175,-67.4746875));
#1039=DIRECTION('',(-1.,0.,0.));
#1040=VECTOR('',#1039,38.);
#1041=LINE('',#1038,#1040);
#1042=EDGE_CURVE('',#409,#689,#1041,.T.);
#1043=ORIENTED_EDGE('',*,*,#1042,.T.);
#1044=EDGE_LOOP('',(#1030,#1036,#1037,#1043));
#1045=FACE_BOUND('',#1044,.T.);
#1046=ADVANCED_FACE('',(#1045),#1029,.F.);
#1047=CARTESIAN_POINT('',(62.5025,3.175,-75.521875));
#1048=DIRECTION('',(0.,-1.,0.));
#1049=DIRECTION('',(0.,0.,-1.));
#1050=AXIS2_PLACEMENT_3D('',#1047,#1048,#1049);
#1051=PLANE('',#1050);
#1052=ORIENTED_EDGE('',*,*,#726,.F.);
#1053=CARTESIAN_POINT('',(102.,3.175,-72.4746875));
#1054=DIRECTION('',(-1.,0.,0.));
#1055=VECTOR('',#1054,38.);
#1056=LINE('',#1053,#1055);
#1057=EDGE_CURVE('',#385,#713,#1056,.T.);
#1058=ORIENTED_EDGE('',*,*,#1057,.F.);
#1059=ORIENTED_EDGE('',*,*,#390,.T.);
#1060=CARTESIAN_POINT('',(102.,3.175,-78.5846875));
#1061=DIRECTION('',(-1.,0.,0.));
#1062=VECTOR('',#1061,38.);
#1063=LINE('',#1060,#1062);
#1064=EDGE_CURVE('',#377,#721,#1063,.T.);
#1065=ORIENTED_EDGE('',*,*,#1064,.T.);
#1066=EDGE_LOOP('',(#1052,#1058,#1059,#1065));
#1067=FACE_BOUND('',#1066,.T.);
#1068=ADVANCED_FACE('',(#1067),#1051,.F.);
#1069=CARTESIAN_POINT('',(62.5025,0.,-81.0846875));
#1070=DIRECTION('',(0.,-1.,0.));
#1071=DIRECTION('',(0.,0.,-1.));
#1072=AXIS2_PLACEMENT_3D('',#1069,#1070,#1071);
#1073=PLANE('',#1072);
#1074=CARTESIAN_POINT('',(102.,0.,-78.021875));
#1075=DIRECTION('',(-1.,0.,0.));
#1076=VECTOR('',#1075,38.);
#1077=LINE('',#1074,#1076);
#1078=EDGE_CURVE('',#297,#801,#1077,.T.);
#1079=ORIENTED_EDGE('',*,*,#1078,.T.);
#1080=ORIENTED_EDGE('',*,*,#806,.T.);
#1081=CARTESIAN_POINT('',(102.,-0.,-84.1475));
#1082=DIRECTION('',(-1.,0.,0.));
#1083=VECTOR('',#1082,38.);
#1084=LINE('',#1081,#1083);
#1085=EDGE_CURVE('',#305,#793,#1084,.T.);
#1086=ORIENTED_EDGE('',*,*,#1085,.F.);
#1087=ORIENTED_EDGE('',*,*,#310,.F.);
#1088=EDGE_LOOP('',(#1079,#1080,#1086,#1087));
#1089=FACE_BOUND('',#1088,.T.);
#1090=ADVANCED_FACE('',(#1089),#1073,.T.);
#1091=CARTESIAN_POINT('',(62.5025,0.,-36.6446875));
#1092=DIRECTION('',(0.,-1.,0.));
#1093=DIRECTION('',(0.,0.,-1.));
#1094=AXIS2_PLACEMENT_3D('',#1091,#1092,#1093);
#1095=PLANE('',#1094);
#1096=CARTESIAN_POINT('',(102.,0.,-33.581875));
#1097=DIRECTION('',(-1.,0.,0.));
#1098=VECTOR('',#1097,38.);
#1099=LINE('',#1096,#1098);
#1100=EDGE_CURVE('',#169,#929,#1099,.T.);
#1101=ORIENTED_EDGE('',*,*,#1100,.T.);
#1102=ORIENTED_EDGE('',*,*,#934,.T.);
#1103=CARTESIAN_POINT('',(102.,-0.,-39.7075));
#1104=DIRECTION('',(-1.,0.,0.));
#1105=VECTOR('',#1104,38.);
#1106=LINE('',#1103,#1105);
#1107=EDGE_CURVE('',#177,#921,#1106,.T.);
#1108=ORIENTED_EDGE('',*,*,#1107,.F.);
#1109=ORIENTED_EDGE('',*,*,#182,.F.);
#1110=EDGE_LOOP('',(#1101,#1102,#1108,#1109));
#1111=FACE_BOUND('',#1110,.T.);
#1112=ADVANCED_FACE('',(#1111),#1095,.T.);
#1113=CARTESIAN_POINT('',(62.5025,-0.,-47.7546875));
#1114=DIRECTION('',(0.,-1.,0.));
#1115=DIRECTION('',(0.,0.,-1.));
#1116=AXIS2_PLACEMENT_3D('',#1113,#1114,#1115);
#1117=PLANE('',#1116);
#1118=CARTESIAN_POINT('',(102.,0.,-44.691875));
#1119=DIRECTION('',(-1.,0.,0.));
#1120=VECTOR('',#1119,38.);
#1121=LINE('',#1118,#1120);
#1122=EDGE_CURVE('',#201,#897,#1121,.T.);
#1123=ORIENTED_EDGE('',*,*,#1122,.T.);
#1124=ORIENTED_EDGE('',*,*,#902,.T.);
#1125=CARTESIAN_POINT('',(102.,-0.,-50.8175));
#1126=DIRECTION('',(-1.,0.,0.));
#1127=VECTOR('',#1126,38.);
#1128=LINE('',#1125,#1127);
#1129=EDGE_CURVE('',#209,#889,#1128,.T.);
#1130=ORIENTED_EDGE('',*,*,#1129,.F.);
#1131=ORIENTED_EDGE('',*,*,#214,.F.);
#1132=EDGE_LOOP('',(#1123,#1124,#1130,#1131));
#1133=FACE_BOUND('',#1132,.T.);
#1134=ADVANCED_FACE('',(#1133),#1117,.T.);
#1135=CARTESIAN_POINT('',(62.5025,0.,-25.5346875));
#1136=DIRECTION('',(0.,-1.,0.));
#1137=DIRECTION('',(0.,0.,-1.));
#1138=AXIS2_PLACEMENT_3D('',#1135,#1136,#1137);
#1139=PLANE('',#1138);
#1140=CARTESIAN_POINT('',(102.,0.,-22.471875));
#1141=DIRECTION('',(-1.,0.,0.));
#1142=VECTOR('',#1141,38.);
#1143=LINE('',#1140,#1142);
#1144=EDGE_CURVE('',#137,#961,#1143,.T.);
#1145=ORIENTED_EDGE('',*,*,#1144,.T.);
#1146=ORIENTED_EDGE('',*,*,#966,.T.);
#1147=CARTESIAN_POINT('',(102.,-0.,-28.5975));
#1148=DIRECTION('',(-1.,0.,0.));
#1149=VECTOR('',#1148,38.);
#1150=LINE('',#1147,#1149);
#1151=EDGE_CURVE('',#145,#953,#1150,.T.);
#1152=ORIENTED_EDGE('',*,*,#1151,.F.);
#1153=ORIENTED_EDGE('',*,*,#150,.F.);
#1154=EDGE_LOOP('',(#1145,#1146,#1152,#1153));
#1155=FACE_BOUND('',#1154,.T.);
#1156=ADVANCED_FACE('',(#1155),#1139,.T.);
#1157=CARTESIAN_POINT('',(62.5025,3.175,-31.081875));
#1158=DIRECTION('',(0.,-1.,0.));
#1159=DIRECTION('',(0.,0.,-1.));
#1160=AXIS2_PLACEMENT_3D('',#1157,#1158,#1159);
#1161=PLANE('',#1160);
#1162=ORIENTED_EDGE('',*,*,#598,.F.);
#1163=CARTESIAN_POINT('',(102.,3.175,-28.0346875));
#1164=DIRECTION('',(-1.,0.,0.));
#1165=VECTOR('',#1164,38.);
#1166=LINE('',#1163,#1165);
#1167=EDGE_CURVE('',#513,#585,#1166,.T.);
#1168=ORIENTED_EDGE('',*,*,#1167,.F.);
#1169=ORIENTED_EDGE('',*,*,#518,.T.);
#1170=CARTESIAN_POINT('',(102.,3.175,-34.1446875));
#1171=DIRECTION('',(-1.,0.,0.));
#1172=VECTOR('',#1171,38.);
#1173=LINE('',#1170,#1172);
#1174=EDGE_CURVE('',#505,#593,#1173,.T.);
#1175=ORIENTED_EDGE('',*,*,#1174,.T.);
#1176=EDGE_LOOP('',(#1162,#1168,#1169,#1175));
#1177=FACE_BOUND('',#1176,.T.);
#1178=ADVANCED_FACE('',(#1177),#1161,.F.);
#1179=CARTESIAN_POINT('',(62.5025,-0.,-58.8646875));
#1180=DIRECTION('',(0.,-1.,0.));
#1181=DIRECTION('',(0.,0.,-1.));
#1182=AXIS2_PLACEMENT_3D('',#1179,#1180,#1181);
#1183=PLANE('',#1182);
#1184=CARTESIAN_POINT('',(102.,0.,-55.801875));
#1185=DIRECTION('',(-1.,0.,0.));
#1186=VECTOR('',#1185,38.);
#1187=LINE('',#1184,#1186);
#1188=EDGE_CURVE('',#233,#865,#1187,.T.);
#1189=ORIENTED_EDGE('',*,*,#1188,.T.);
#1190=ORIENTED_EDGE('',*,*,#870,.T.);
#1191=CARTESIAN_POINT('',(102.,-0.,-61.9275));
#1192=DIRECTION('',(-1.,0.,0.));
#1193=VECTOR('',#1192,38.);
#1194=LINE('',#1191,#1193);
#1195=EDGE_CURVE('',#241,#857,#1194,.T.);
#1196=ORIENTED_EDGE('',*,*,#1195,.F.);
#1197=ORIENTED_EDGE('',*,*,#246,.F.);
#1198=EDGE_LOOP('',(#1189,#1190,#1196,#1197));
#1199=FACE_BOUND('',#1198,.T.);
#1200=ADVANCED_FACE('',(#1199),#1183,.T.);
#1201=CARTESIAN_POINT('',(62.5025,3.175,-42.191875));
#1202=DIRECTION('',(0.,-1.,0.));
#1203=DIRECTION('',(0.,0.,-1.));
#1204=AXIS2_PLACEMENT_3D('',#1201,#1202,#1203);
#1205=PLANE('',#1204);
#1206=ORIENTED_EDGE('',*,*,#630,.F.);
#1207=CARTESIAN_POINT('',(102.,3.175,-39.1446875));
#1208=DIRECTION('',(-1.,0.,0.));
#1209=VECTOR('',#1208,38.);
#1210=LINE('',#1207,#1209);
#1211=EDGE_CURVE('',#481,#617,#1210,.T.);
#1212=ORIENTED_EDGE('',*,*,#1211,.F.);
#1213=ORIENTED_EDGE('',*,*,#486,.T.);
#1214=CARTESIAN_POINT('',(102.,3.175,-45.2546875));
#1215=DIRECTION('',(-1.,0.,0.));
#1216=VECTOR('',#1215,38.);
#1217=LINE('',#1214,#1216);
#1218=EDGE_CURVE('',#473,#625,#1217,.T.);
#1219=ORIENTED_EDGE('',*,*,#1218,.T.);
#1220=EDGE_LOOP('',(#1206,#1212,#1213,#1219));
#1221=FACE_BOUND('',#1220,.T.);
#1222=ADVANCED_FACE('',(#1221),#1205,.F.);
#1223=CARTESIAN_POINT('',(62.5025,-0.,-69.9746875));
#1224=DIRECTION('',(0.,-1.,0.));
#1225=DIRECTION('',(0.,0.,-1.));
#1226=AXIS2_PLACEMENT_3D('',#1223,#1224,#1225);
#1227=PLANE('',#1226);
#1228=CARTESIAN_POINT('',(102.,0.,-66.911875));
#1229=DIRECTION('',(-1.,0.,0.));
#1230=VECTOR('',#1229,38.);
#1231=LINE('',#1228,#1230);
#1232=EDGE_CURVE('',#265,#833,#1231,.T.);
#1233=ORIENTED_EDGE('',*,*,#1232,.T.);
#1234=ORIENTED_EDGE('',*,*,#838,.T.);
#1235=CARTESIAN_POINT('',(102.,-0.,-73.0375));
#1236=DIRECTION('',(-1.,0.,0.));
#1237=VECTOR('',#1236,38.);
#1238=LINE('',#1235,#1237);
#1239=EDGE_CURVE('',#273,#825,#1238,.T.);
#1240=ORIENTED_EDGE('',*,*,#1239,.F.);
#1241=ORIENTED_EDGE('',*,*,#278,.F.);
#1242=EDGE_LOOP('',(#1233,#1234,#1240,#1241));
#1243=FACE_BOUND('',#1242,.T.);
#1244=ADVANCED_FACE('',(#1243),#1227,.T.);
#1245=CARTESIAN_POINT('',(62.5025,3.175,-53.301875));
#1246=DIRECTION('',(0.,-1.,0.));
#1247=DIRECTION('',(0.,0.,-1.));
#1248=AXIS2_PLACEMENT_3D('',#1245,#1246,#1247);
#1249=PLANE('',#1248);
#1250=ORIENTED_EDGE('',*,*,#662,.F.);
#1251=CARTESIAN_POINT('',(102.,3.175,-50.2546875));
#1252=DIRECTION('',(-1.,0.,0.));
#1253=VECTOR('',#1252,38.);
#1254=LINE('',#1251,#1253);
#1255=EDGE_CURVE('',#449,#649,#1254,.T.);
#1256=ORIENTED_EDGE('',*,*,#1255,.F.);
#1257=ORIENTED_EDGE('',*,*,#454,.T.);
#1258=CARTESIAN_POINT('',(102.,3.175,-56.3646875));
#1259=DIRECTION('',(-1.,0.,0.));
#1260=VECTOR('',#1259,38.);
#1261=LINE('',#1258,#1260);
#1262=EDGE_CURVE('',#441,#657,#1261,.T.);
#1263=ORIENTED_EDGE('',*,*,#1262,.T.);
#1264=EDGE_LOOP('',(#1250,#1256,#1257,#1263));
#1265=FACE_BOUND('',#1264,.T.);
#1266=ADVANCED_FACE('',(#1265),#1249,.F.);
#1267=CARTESIAN_POINT('',(0.,0.,0.));
#1268=DIRECTION('',(0.,1.,0.));
#1269=DIRECTION('',(0.,0.,1.));
#1270=AXIS2_PLACEMENT_3D('',#1267,#1268,#1269);
#1271=PLANE('',#1270);
#1272=CARTESIAN_POINT('',(67.5025,0.,-91.1396875));
#1273=VERTEX_POINT('',#1272);
#1274=CARTESIAN_POINT('',(97.,0.,-91.1396875));
#1275=VERTEX_POINT('',#1274);
#1276=CARTESIAN_POINT('',(67.5025,0.,-91.1396875));
#1277=DIRECTION('',(1.,0.,-0.));
#1278=VECTOR('',#1277,29.4975);
#1279=LINE('',#1276,#1278);
#1280=EDGE_CURVE('',#1273,#1275,#1279,.T.);
#1281=ORIENTED_EDGE('',*,*,#1280,.T.);
#1282=CARTESIAN_POINT('',(97.,0.,-93.1396875));
#1283=VERTEX_POINT('',#1282);
#1284=CARTESIAN_POINT('',(97.,0.,-91.1396875));
#1285=DIRECTION('',(0.,0.,-1.));
#1286=VECTOR('',#1285,2.);
#1287=LINE('',#1284,#1286);
#1288=EDGE_CURVE('',#1275,#1283,#1287,.T.);
#1289=ORIENTED_EDGE('',*,*,#1288,.T.);
#1290=CARTESIAN_POINT('',(67.5025,-0.,-93.1396875));
#1291=VERTEX_POINT('',#1290);
#1292=CARTESIAN_POINT('',(67.5025,-0.,-93.1396875));
#1293=DIRECTION('',(1.,0.,-0.));
#1294=VECTOR('',#1293,29.4975);
#1295=LINE('',#1292,#1294);
#1296=EDGE_CURVE('',#1291,#1283,#1295,.T.);
#1297=ORIENTED_EDGE('',*,*,#1296,.F.);
#1298=CARTESIAN_POINT('',(67.5025,0.,-93.1396875));
#1299=DIRECTION('',(0.,0.,1.));
#1300=VECTOR('',#1299,2.);
#1301=LINE('',#1298,#1300);
#1302=EDGE_CURVE('',#1291,#1273,#1301,.T.);
#1303=ORIENTED_EDGE('',*,*,#1302,.T.);
#1304=EDGE_LOOP('',(#1281,#1289,#1297,#1303));
#1305=FACE_BOUND('',#1304,.T.);
#1306=ORIENTED_EDGE('',*,*,#774,.F.);
#1307=CARTESIAN_POINT('',(68.5,0.,-96.6475));
#1308=VERTEX_POINT('',#1307);
#1309=CARTESIAN_POINT('',(64.,0.,-96.6475));
#1310=DIRECTION('',(1.,0.,-0.));
#1311=VECTOR('',#1310,4.5);
#1312=LINE('',#1309,#1311);
#1313=EDGE_CURVE('',#761,#1308,#1312,.T.);
#1314=ORIENTED_EDGE('',*,*,#1313,.T.);
#1315=CARTESIAN_POINT('',(68.5,0.,-99.6475));
#1316=VERTEX_POINT('',#1315);
#1317=CARTESIAN_POINT('',(68.5,0.,-99.6475));
#1318=DIRECTION('',(0.,0.,1.));
#1319=VECTOR('',#1318,3.);
#1320=LINE('',#1317,#1319);
#1321=EDGE_CURVE('',#1316,#1308,#1320,.T.);
#1322=ORIENTED_EDGE('',*,*,#1321,.F.);
#1323=CARTESIAN_POINT('',(82.,0.,-99.6475));
#1324=VERTEX_POINT('',#1323);
#1325=CARTESIAN_POINT('',(68.5,0.,-99.6475));
#1326=DIRECTION('',(1.,0.,-0.));
#1327=VECTOR('',#1326,13.5);
#1328=LINE('',#1325,#1327);
#1329=EDGE_CURVE('',#1316,#1324,#1328,.T.);
#1330=ORIENTED_EDGE('',*,*,#1329,.T.);
#1331=CARTESIAN_POINT('',(82.,0.,-96.6475));
#1332=VERTEX_POINT('',#1331);
#1333=CARTESIAN_POINT('',(82.,0.,-99.6475));
#1334=DIRECTION('',(0.,0.,1.));
#1335=VECTOR('',#1334,3.);
#1336=LINE('',#1333,#1335);
#1337=EDGE_CURVE('',#1324,#1332,#1336,.T.);
#1338=ORIENTED_EDGE('',*,*,#1337,.T.);
#1339=CARTESIAN_POINT('',(82.,0.,-96.6475));
#1340=DIRECTION('',(1.,0.,-0.));
#1341=VECTOR('',#1340,20.);
#1342=LINE('',#1339,#1341);
#1343=EDGE_CURVE('',#1332,#337,#1342,.T.);
#1344=ORIENTED_EDGE('',*,*,#1343,.T.);
#1345=ORIENTED_EDGE('',*,*,#342,.T.);
#1346=CARTESIAN_POINT('',(102.,0.,-89.131875));
#1347=DIRECTION('',(-1.,0.,0.));
#1348=VECTOR('',#1347,38.);
#1349=LINE('',#1346,#1348);
#1350=EDGE_CURVE('',#329,#769,#1349,.T.);
#1351=ORIENTED_EDGE('',*,*,#1350,.T.);
#1352=EDGE_LOOP('',(#1306,#1314,#1322,#1330,#1338,#1344,#1345,#1351));
#1353=FACE_BOUND('',#1352,.T.);
#1354=ADVANCED_FACE('',(#1305,#1353),#1271,.F.);
#1355=CARTESIAN_POINT('',(0.,3.175,0.));
#1356=DIRECTION('',(0.,1.,0.));
#1357=DIRECTION('',(0.,0.,1.));
#1358=AXIS2_PLACEMENT_3D('',#1355,#1356,#1357);
#1359=PLANE('',#1358);
#1360=CARTESIAN_POINT('',(97.,3.175,-91.1396875));
#1361=VERTEX_POINT('',#1360);
#1362=CARTESIAN_POINT('',(97.,3.175,-93.1396875));
#1363=VERTEX_POINT('',#1362);
#1364=CARTESIAN_POINT('',(97.,3.175,-91.1396875));
#1365=DIRECTION('',(0.,0.,-1.));
#1366=VECTOR('',#1365,2.);
#1367=LINE('',#1364,#1366);
#1368=EDGE_CURVE('',#1361,#1363,#1367,.T.);
#1369=ORIENTED_EDGE('',*,*,#1368,.F.);
#1370=CARTESIAN_POINT('',(67.5025,3.175,-91.1396875));
#1371=VERTEX_POINT('',#1370);
#1372=CARTESIAN_POINT('',(67.5025,3.175,-91.1396875));
#1373=DIRECTION('',(1.,0.,-0.));
#1374=VECTOR('',#1373,29.4975);
#1375=LINE('',#1372,#1374);
#1376=EDGE_CURVE('',#1371,#1361,#1375,.T.);
#1377=ORIENTED_EDGE('',*,*,#1376,.F.);
#1378=CARTESIAN_POINT('',(67.5025,3.175,-93.1396875));
#1379=VERTEX_POINT('',#1378);
#1380=CARTESIAN_POINT('',(67.5025,3.175,-93.1396875));
#1381=DIRECTION('',(0.,0.,1.));
#1382=VECTOR('',#1381,2.);
#1383=LINE('',#1380,#1382);
#1384=EDGE_CURVE('',#1379,#1371,#1383,.T.);
#1385=ORIENTED_EDGE('',*,*,#1384,.F.);
#1386=CARTESIAN_POINT('',(67.5025,3.175,-93.1396875));
#1387=DIRECTION('',(1.,0.,-0.));
#1388=VECTOR('',#1387,29.4975);
#1389=LINE('',#1386,#1388);
#1390=EDGE_CURVE('',#1379,#1363,#1389,.T.);
#1391=ORIENTED_EDGE('',*,*,#1390,.T.);
#1392=EDGE_LOOP('',(#1369,#1377,#1385,#1391));
#1393=FACE_BOUND('',#1392,.T.);
#1394=CARTESIAN_POINT('',(68.5,3.175,-96.6475));
#1395=VERTEX_POINT('',#1394);
#1396=CARTESIAN_POINT('',(64.,3.175,-96.6475));
#1397=DIRECTION('',(1.,0.,-0.));
#1398=VECTOR('',#1397,4.5);
#1399=LINE('',#1396,#1398);
#1400=EDGE_CURVE('',#753,#1395,#1399,.T.);
#1401=ORIENTED_EDGE('',*,*,#1400,.F.);
#1402=ORIENTED_EDGE('',*,*,#758,.T.);
#1403=CARTESIAN_POINT('',(102.,3.175,-83.5846875));
#1404=DIRECTION('',(-1.,0.,0.));
#1405=VECTOR('',#1404,38.);
#1406=LINE('',#1403,#1405);
#1407=EDGE_CURVE('',#353,#745,#1406,.T.);
#1408=ORIENTED_EDGE('',*,*,#1407,.F.);
#1409=ORIENTED_EDGE('',*,*,#358,.F.);
#1410=CARTESIAN_POINT('',(82.,3.175,-96.6475));
#1411=VERTEX_POINT('',#1410);
#1412=CARTESIAN_POINT('',(82.,3.175,-96.6475));
#1413=DIRECTION('',(1.,0.,-0.));
#1414=VECTOR('',#1413,20.);
#1415=LINE('',#1412,#1414);
#1416=EDGE_CURVE('',#1411,#345,#1415,.T.);
#1417=ORIENTED_EDGE('',*,*,#1416,.F.);
#1418=CARTESIAN_POINT('',(82.,3.175,-99.6475));
#1419=VERTEX_POINT('',#1418);
#1420=CARTESIAN_POINT('',(82.,3.175,-99.6475));
#1421=DIRECTION('',(0.,0.,1.));
#1422=VECTOR('',#1421,3.);
#1423=LINE('',#1420,#1422);
#1424=EDGE_CURVE('',#1419,#1411,#1423,.T.);
#1425=ORIENTED_EDGE('',*,*,#1424,.F.);
#1426=CARTESIAN_POINT('',(68.5,3.175,-99.6475));
#1427=VERTEX_POINT('',#1426);
#1428=CARTESIAN_POINT('',(82.,3.175,-99.6475));
#1429=DIRECTION('',(-1.,0.,0.));
#1430=VECTOR('',#1429,13.5);
#1431=LINE('',#1428,#1430);
#1432=EDGE_CURVE('',#1419,#1427,#1431,.T.);
#1433=ORIENTED_EDGE('',*,*,#1432,.T.);
#1434=CARTESIAN_POINT('',(68.5,3.175,-99.6475));
#1435=DIRECTION('',(0.,0.,1.));
#1436=VECTOR('',#1435,3.);
#1437=LINE('',#1434,#1436);
#1438=EDGE_CURVE('',#1427,#1395,#1437,.T.);
#1439=ORIENTED_EDGE('',*,*,#1438,.T.);
#1440=EDGE_LOOP('',(#1401,#1402,#1408,#1409,#1417,#1425,#1433,#1439));
#1441=FACE_BOUND('',#1440,.T.);
#1442=ADVANCED_FACE('',(#1393,#1441),#1359,.T.);
#1443=CARTESIAN_POINT('',(70.,0.,-4.7625));
#1444=DIRECTION('',(-0.,0.,-1.));
#1445=DIRECTION('',(-1.,0.,0.));
#1446=AXIS2_PLACEMENT_3D('',#1443,#1444,#1445);
#1447=PLANE('',#1446);
#1448=ORIENTED_EDGE('',*,*,#1006,.F.);
#1449=CARTESIAN_POINT('',(68.5,0.,-4.7625));
#1450=VERTEX_POINT('',#1449);
#1451=CARTESIAN_POINT('',(68.5,0.,-4.7625));
#1452=DIRECTION('',(-1.,0.,0.));
#1453=VECTOR('',#1452,4.5);
#1454=LINE('',#1451,#1453);
#1455=EDGE_CURVE('',#1450,#993,#1454,.T.);
#1456=ORIENTED_EDGE('',*,*,#1455,.F.);
#1457=CARTESIAN_POINT('',(68.5,3.175,-4.7625));
#1458=VERTEX_POINT('',#1457);
#1459=CARTESIAN_POINT('',(68.5,0.,-4.7625));
#1460=DIRECTION('',(0.,1.,0.));
#1461=VECTOR('',#1460,3.175);
#1462=LINE('',#1459,#1461);
#1463=EDGE_CURVE('',#1450,#1458,#1462,.T.);
#1464=ORIENTED_EDGE('',*,*,#1463,.T.);
#1465=CARTESIAN_POINT('',(68.5,3.175,-4.7625));
#1466=DIRECTION('',(-1.,0.,0.));
#1467=VECTOR('',#1466,4.5);
#1468=LINE('',#1465,#1467);
#1469=EDGE_CURVE('',#1458,#1001,#1468,.T.);
#1470=ORIENTED_EDGE('',*,*,#1469,.T.);
#1471=EDGE_LOOP('',(#1448,#1456,#1464,#1470));
#1472=FACE_BOUND('',#1471,.T.);
#1473=ADVANCED_FACE('',(#1472),#1447,.F.);
#1474=CARTESIAN_POINT('',(62.5025,2.175,-42.191875));
#1475=DIRECTION('',(0.,1.,0.));
#1476=DIRECTION('',(0.,0.,1.));
#1477=AXIS2_PLACEMENT_3D('',#1474,#1475,#1476);
#1478=PLANE('',#1477);
#1479=ORIENTED_EDGE('',*,*,#918,.F.);
#1480=CARTESIAN_POINT('',(102.,2.175,-44.691875));
#1481=DIRECTION('',(-1.,0.,0.));
#1482=VECTOR('',#1481,38.);
#1483=LINE('',#1480,#1482);
#1484=EDGE_CURVE('',#193,#905,#1483,.T.);
#1485=ORIENTED_EDGE('',*,*,#1484,.F.);
#1486=ORIENTED_EDGE('',*,*,#198,.T.);
#1487=CARTESIAN_POINT('',(102.,2.175,-39.7075));
#1488=DIRECTION('',(-1.,0.,0.));
#1489=VECTOR('',#1488,38.);
#1490=LINE('',#1487,#1489);
#1491=EDGE_CURVE('',#185,#913,#1490,.T.);
#1492=ORIENTED_EDGE('',*,*,#1491,.T.);
#1493=EDGE_LOOP('',(#1479,#1485,#1486,#1492));
#1494=FACE_BOUND('',#1493,.T.);
#1495=ADVANCED_FACE('',(#1494),#1478,.F.);
#1496=CARTESIAN_POINT('',(62.5025,1.,-36.6446875));
#1497=DIRECTION('',(0.,1.,0.));
#1498=DIRECTION('',(0.,0.,1.));
#1499=AXIS2_PLACEMENT_3D('',#1496,#1497,#1498);
#1500=PLANE('',#1499);
#1501=CARTESIAN_POINT('',(102.,1.,-39.1446875));
#1502=DIRECTION('',(-1.,0.,0.));
#1503=VECTOR('',#1502,38.);
#1504=LINE('',#1501,#1503);
#1505=EDGE_CURVE('',#489,#609,#1504,.T.);
#1506=ORIENTED_EDGE('',*,*,#1505,.T.);
#1507=ORIENTED_EDGE('',*,*,#614,.T.);
#1508=CARTESIAN_POINT('',(102.,1.,-34.1446875));
#1509=DIRECTION('',(-1.,0.,0.));
#1510=VECTOR('',#1509,38.);
#1511=LINE('',#1508,#1510);
#1512=EDGE_CURVE('',#497,#601,#1511,.T.);
#1513=ORIENTED_EDGE('',*,*,#1512,.F.);
#1514=ORIENTED_EDGE('',*,*,#502,.F.);
#1515=EDGE_LOOP('',(#1506,#1507,#1513,#1514));
#1516=FACE_BOUND('',#1515,.T.);
#1517=ADVANCED_FACE('',(#1516),#1500,.T.);
#1518=CARTESIAN_POINT('',(62.5025,1.,-47.7546875));
#1519=DIRECTION('',(0.,1.,0.));
#1520=DIRECTION('',(0.,0.,1.));
#1521=AXIS2_PLACEMENT_3D('',#1518,#1519,#1520);
#1522=PLANE('',#1521);
#1523=CARTESIAN_POINT('',(102.,1.,-50.2546875));
#1524=DIRECTION('',(-1.,0.,0.));
#1525=VECTOR('',#1524,38.);
#1526=LINE('',#1523,#1525);
#1527=EDGE_CURVE('',#457,#641,#1526,.T.);
#1528=ORIENTED_EDGE('',*,*,#1527,.T.);
#1529=ORIENTED_EDGE('',*,*,#646,.T.);
#1530=CARTESIAN_POINT('',(102.,1.,-45.2546875));
#1531=DIRECTION('',(-1.,0.,0.));
#1532=VECTOR('',#1531,38.);
#1533=LINE('',#1530,#1532);
#1534=EDGE_CURVE('',#465,#633,#1533,.T.);
#1535=ORIENTED_EDGE('',*,*,#1534,.F.);
#1536=ORIENTED_EDGE('',*,*,#470,.F.);
#1537=EDGE_LOOP('',(#1528,#1529,#1535,#1536));
#1538=FACE_BOUND('',#1537,.T.);
#1539=ADVANCED_FACE('',(#1538),#1522,.T.);
#1540=CARTESIAN_POINT('',(62.5025,2.175,-53.301875));
#1541=DIRECTION('',(0.,1.,0.));
#1542=DIRECTION('',(0.,0.,1.));
#1543=AXIS2_PLACEMENT_3D('',#1540,#1541,#1542);
#1544=PLANE('',#1543);
#1545=ORIENTED_EDGE('',*,*,#886,.F.);
#1546=CARTESIAN_POINT('',(102.,2.175,-55.801875));
#1547=DIRECTION('',(-1.,0.,0.));
#1548=VECTOR('',#1547,38.);
#1549=LINE('',#1546,#1548);
#1550=EDGE_CURVE('',#225,#873,#1549,.T.);
#1551=ORIENTED_EDGE('',*,*,#1550,.F.);
#1552=ORIENTED_EDGE('',*,*,#230,.T.);
#1553=CARTESIAN_POINT('',(102.,2.175,-50.8175));
#1554=DIRECTION('',(-1.,0.,0.));
#1555=VECTOR('',#1554,38.);
#1556=LINE('',#1553,#1555);
#1557=EDGE_CURVE('',#217,#881,#1556,.T.);
#1558=ORIENTED_EDGE('',*,*,#1557,.T.);
#1559=EDGE_LOOP('',(#1545,#1551,#1552,#1558));
#1560=FACE_BOUND('',#1559,.T.);
#1561=ADVANCED_FACE('',(#1560),#1544,.F.);
#1562=CARTESIAN_POINT('',(62.5025,1.,-58.8646875));
#1563=DIRECTION('',(0.,1.,0.));
#1564=DIRECTION('',(0.,0.,1.));
#1565=AXIS2_PLACEMENT_3D('',#1562,#1563,#1564);
#1566=PLANE('',#1565);
#1567=CARTESIAN_POINT('',(102.,1.,-61.3646875));
#1568=DIRECTION('',(-1.,0.,0.));
#1569=VECTOR('',#1568,38.);
#1570=LINE('',#1567,#1569);
#1571=EDGE_CURVE('',#425,#673,#1570,.T.);
#1572=ORIENTED_EDGE('',*,*,#1571,.T.);
#1573=ORIENTED_EDGE('',*,*,#678,.T.);
#1574=CARTESIAN_POINT('',(102.,1.,-56.3646875));
#1575=DIRECTION('',(-1.,0.,0.));
#1576=VECTOR('',#1575,38.);
#1577=LINE('',#1574,#1576);
#1578=EDGE_CURVE('',#433,#665,#1577,.T.);
#1579=ORIENTED_EDGE('',*,*,#1578,.F.);
#1580=ORIENTED_EDGE('',*,*,#438,.F.);
#1581=EDGE_LOOP('',(#1572,#1573,#1579,#1580));
#1582=FACE_BOUND('',#1581,.T.);
#1583=ADVANCED_FACE('',(#1582),#1566,.T.);
#1584=CARTESIAN_POINT('',(62.5025,2.175,-64.411875));
#1585=DIRECTION('',(0.,1.,0.));
#1586=DIRECTION('',(0.,0.,1.));
#1587=AXIS2_PLACEMENT_3D('',#1584,#1585,#1586);
#1588=PLANE('',#1587);
#1589=ORIENTED_EDGE('',*,*,#854,.F.);
#1590=CARTESIAN_POINT('',(102.,2.175,-66.911875));
#1591=DIRECTION('',(-1.,0.,0.));
#1592=VECTOR('',#1591,38.);
#1593=LINE('',#1590,#1592);
#1594=EDGE_CURVE('',#257,#841,#1593,.T.);
#1595=ORIENTED_EDGE('',*,*,#1594,.F.);
#1596=ORIENTED_EDGE('',*,*,#262,.T.);
#1597=CARTESIAN_POINT('',(102.,2.175,-61.9275));
#1598=DIRECTION('',(-1.,0.,0.));
#1599=VECTOR('',#1598,38.);
#1600=LINE('',#1597,#1599);
#1601=EDGE_CURVE('',#249,#849,#1600,.T.);
#1602=ORIENTED_EDGE('',*,*,#1601,.T.);
#1603=EDGE_LOOP('',(#1589,#1595,#1596,#1602));
#1604=FACE_BOUND('',#1603,.T.);
#1605=ADVANCED_FACE('',(#1604),#1588,.F.);
#1606=CARTESIAN_POINT('',(62.5025,1.,-69.9746875));
#1607=DIRECTION('',(0.,1.,0.));
#1608=DIRECTION('',(0.,0.,1.));
#1609=AXIS2_PLACEMENT_3D('',#1606,#1607,#1608);
#1610=PLANE('',#1609);
#1611=CARTESIAN_POINT('',(102.,1.,-72.4746875));
#1612=DIRECTION('',(-1.,0.,0.));
#1613=VECTOR('',#1612,38.);
#1614=LINE('',#1611,#1613);
#1615=EDGE_CURVE('',#393,#705,#1614,.T.);
#1616=ORIENTED_EDGE('',*,*,#1615,.T.);
#1617=ORIENTED_EDGE('',*,*,#710,.T.);
#1618=CARTESIAN_POINT('',(102.,1.,-67.4746875));
#1619=DIRECTION('',(-1.,0.,0.));
#1620=VECTOR('',#1619,38.);
#1621=LINE('',#1618,#1620);
#1622=EDGE_CURVE('',#401,#697,#1621,.T.);
#1623=ORIENTED_EDGE('',*,*,#1622,.F.);
#1624=ORIENTED_EDGE('',*,*,#406,.F.);
#1625=EDGE_LOOP('',(#1616,#1617,#1623,#1624));
#1626=FACE_BOUND('',#1625,.T.);
#1627=ADVANCED_FACE('',(#1626),#1610,.T.);
#1628=CARTESIAN_POINT('',(62.5025,2.175,-31.081875));
#1629=DIRECTION('',(0.,1.,0.));
#1630=DIRECTION('',(0.,0.,1.));
#1631=AXIS2_PLACEMENT_3D('',#1628,#1629,#1630);
#1632=PLANE('',#1631);
#1633=ORIENTED_EDGE('',*,*,#950,.F.);
#1634=CARTESIAN_POINT('',(102.,2.175,-33.581875));
#1635=DIRECTION('',(-1.,0.,0.));
#1636=VECTOR('',#1635,38.);
#1637=LINE('',#1634,#1636);
#1638=EDGE_CURVE('',#161,#937,#1637,.T.);
#1639=ORIENTED_EDGE('',*,*,#1638,.F.);
#1640=ORIENTED_EDGE('',*,*,#166,.T.);
#1641=CARTESIAN_POINT('',(102.,2.175,-28.5975));
#1642=DIRECTION('',(-1.,0.,0.));
#1643=VECTOR('',#1642,38.);
#1644=LINE('',#1641,#1643);
#1645=EDGE_CURVE('',#153,#945,#1644,.T.);
#1646=ORIENTED_EDGE('',*,*,#1645,.T.);
#1647=EDGE_LOOP('',(#1633,#1639,#1640,#1646));
#1648=FACE_BOUND('',#1647,.T.);
#1649=ADVANCED_FACE('',(#1648),#1632,.F.);
#1650=CARTESIAN_POINT('',(62.5025,2.175,-75.521875));
#1651=DIRECTION('',(0.,1.,0.));
#1652=DIRECTION('',(0.,0.,1.));
#1653=AXIS2_PLACEMENT_3D('',#1650,#1651,#1652);
#1654=PLANE('',#1653);
#1655=ORIENTED_EDGE('',*,*,#822,.F.);
#1656=CARTESIAN_POINT('',(102.,2.175,-78.021875));
#1657=DIRECTION('',(-1.,0.,0.));
#1658=VECTOR('',#1657,38.);
#1659=LINE('',#1656,#1658);
#1660=EDGE_CURVE('',#289,#809,#1659,.T.);
#1661=ORIENTED_EDGE('',*,*,#1660,.F.);
#1662=ORIENTED_EDGE('',*,*,#294,.T.);
#1663=CARTESIAN_POINT('',(102.,2.175,-73.0375));
#1664=DIRECTION('',(-1.,0.,0.));
#1665=VECTOR('',#1664,38.);
#1666=LINE('',#1663,#1665);
#1667=EDGE_CURVE('',#281,#817,#1666,.T.);
#1668=ORIENTED_EDGE('',*,*,#1667,.T.);
#1669=EDGE_LOOP('',(#1655,#1661,#1662,#1668));
#1670=FACE_BOUND('',#1669,.T.);
#1671=ADVANCED_FACE('',(#1670),#1654,.F.);
#1672=CARTESIAN_POINT('',(62.5025,1.,-81.0846875));
#1673=DIRECTION('',(0.,1.,0.));
#1674=DIRECTION('',(0.,0.,1.));
#1675=AXIS2_PLACEMENT_3D('',#1672,#1673,#1674);
#1676=PLANE('',#1675);
#1677=CARTESIAN_POINT('',(102.,1.,-83.5846875));
#1678=DIRECTION('',(-1.,0.,0.));
#1679=VECTOR('',#1678,38.);
#1680=LINE('',#1677,#1679);
#1681=EDGE_CURVE('',#361,#737,#1680,.T.);
#1682=ORIENTED_EDGE('',*,*,#1681,.T.);
#1683=ORIENTED_EDGE('',*,*,#742,.T.);
#1684=CARTESIAN_POINT('',(102.,1.,-78.5846875));
#1685=DIRECTION('',(-1.,0.,0.));
#1686=VECTOR('',#1685,38.);
#1687=LINE('',#1684,#1686);
#1688=EDGE_CURVE('',#369,#729,#1687,.T.);
#1689=ORIENTED_EDGE('',*,*,#1688,.F.);
#1690=ORIENTED_EDGE('',*,*,#374,.F.);
#1691=EDGE_LOOP('',(#1682,#1683,#1689,#1690));
#1692=FACE_BOUND('',#1691,.T.);
#1693=ADVANCED_FACE('',(#1692),#1676,.T.);
#1694=CARTESIAN_POINT('',(62.5025,2.175,-86.631875));
#1695=DIRECTION('',(0.,1.,0.));
#1696=DIRECTION('',(0.,0.,1.));
#1697=AXIS2_PLACEMENT_3D('',#1694,#1695,#1696);
#1698=PLANE('',#1697);
#1699=ORIENTED_EDGE('',*,*,#790,.F.);
#1700=CARTESIAN_POINT('',(102.,2.175,-89.131875));
#1701=DIRECTION('',(-1.,0.,0.));
#1702=VECTOR('',#1701,38.);
#1703=LINE('',#1700,#1702);
#1704=EDGE_CURVE('',#321,#777,#1703,.T.);
#1705=ORIENTED_EDGE('',*,*,#1704,.F.);
#1706=ORIENTED_EDGE('',*,*,#326,.T.);
#1707=CARTESIAN_POINT('',(102.,2.175,-84.1475));
#1708=DIRECTION('',(-1.,0.,0.));
#1709=VECTOR('',#1708,38.);
#1710=LINE('',#1707,#1709);
#1711=EDGE_CURVE('',#313,#785,#1710,.T.);
#1712=ORIENTED_EDGE('',*,*,#1711,.T.);
#1713=EDGE_LOOP('',(#1699,#1705,#1706,#1712));
#1714=FACE_BOUND('',#1713,.T.);
#1715=ADVANCED_FACE('',(#1714),#1698,.F.);
#1716=CARTESIAN_POINT('',(62.5025,1.,-25.5346875));
#1717=DIRECTION('',(0.,1.,0.));
#1718=DIRECTION('',(0.,0.,1.));
#1719=AXIS2_PLACEMENT_3D('',#1716,#1717,#1718);
#1720=PLANE('',#1719);
#1721=CARTESIAN_POINT('',(102.,1.,-28.0346875));
#1722=DIRECTION('',(-1.,0.,0.));
#1723=VECTOR('',#1722,38.);
#1724=LINE('',#1721,#1723);
#1725=EDGE_CURVE('',#521,#577,#1724,.T.);
#1726=ORIENTED_EDGE('',*,*,#1725,.T.);
#1727=ORIENTED_EDGE('',*,*,#582,.T.);
#1728=CARTESIAN_POINT('',(102.,1.,-23.0346875));
#1729=DIRECTION('',(-1.,0.,0.));
#1730=VECTOR('',#1729,38.);
#1731=LINE('',#1728,#1730);
#1732=EDGE_CURVE('',#529,#569,#1731,.T.);
#1733=ORIENTED_EDGE('',*,*,#1732,.F.);
#1734=ORIENTED_EDGE('',*,*,#534,.F.);
#1735=EDGE_LOOP('',(#1726,#1727,#1733,#1734));
#1736=FACE_BOUND('',#1735,.T.);
#1737=ADVANCED_FACE('',(#1736),#1720,.T.);
#1738=CARTESIAN_POINT('',(62.5025,2.175,-19.971875));
#1739=DIRECTION('',(0.,1.,0.));
#1740=DIRECTION('',(0.,0.,1.));
#1741=AXIS2_PLACEMENT_3D('',#1738,#1739,#1740);
#1742=PLANE('',#1741);
#1743=ORIENTED_EDGE('',*,*,#982,.F.);
#1744=CARTESIAN_POINT('',(102.,2.175,-22.471875));
#1745=DIRECTION('',(-1.,0.,0.));
#1746=VECTOR('',#1745,38.);
#1747=LINE('',#1744,#1746);
#1748=EDGE_CURVE('',#129,#969,#1747,.T.);
#1749=ORIENTED_EDGE('',*,*,#1748,.F.);
#1750=ORIENTED_EDGE('',*,*,#134,.T.);
#1751=CARTESIAN_POINT('',(102.,2.175,-17.4875));
#1752=DIRECTION('',(-1.,0.,0.));
#1753=VECTOR('',#1752,38.);
#1754=LINE('',#1751,#1753);
#1755=EDGE_CURVE('',#121,#977,#1754,.T.);
#1756=ORIENTED_EDGE('',*,*,#1755,.T.);
#1757=EDGE_LOOP('',(#1743,#1749,#1750,#1756));
#1758=FACE_BOUND('',#1757,.T.);
#1759=ADVANCED_FACE('',(#1758),#1742,.F.);
#1760=CARTESIAN_POINT('',(62.5025,1.,-11.875));
#1761=DIRECTION('',(0.,1.,0.));
#1762=DIRECTION('',(0.,0.,1.));
#1763=AXIS2_PLACEMENT_3D('',#1760,#1761,#1762);
#1764=PLANE('',#1763);
#1765=ORIENTED_EDGE('',*,*,#86,.F.);
#1766=CARTESIAN_POINT('',(102.,1.,-14.375));
#1767=DIRECTION('',(-1.,0.,0.));
#1768=VECTOR('',#1767,38.);
#1769=LINE('',#1766,#1768);
#1770=EDGE_CURVE('',#73,#552,#1769,.T.);
#1771=ORIENTED_EDGE('',*,*,#1770,.T.);
#1772=ORIENTED_EDGE('',*,*,#559,.T.);
#1773=CARTESIAN_POINT('',(102.,1.,-9.375));
#1774=DIRECTION('',(-1.,0.,0.));
#1775=VECTOR('',#1774,38.);
#1776=LINE('',#1773,#1775);
#1777=EDGE_CURVE('',#81,#554,#1776,.T.);
#1778=ORIENTED_EDGE('',*,*,#1777,.F.);
#1779=EDGE_LOOP('',(#1765,#1771,#1772,#1778));
#1780=FACE_BOUND('',#1779,.T.);
#1781=ADVANCED_FACE('',(#1780),#1764,.T.);
#1782=CARTESIAN_POINT('',(102.,2.0875,-50.2546875));
#1783=DIRECTION('',(-0.,0.,-1.));
#1784=DIRECTION('',(-1.,0.,0.));
#1785=AXIS2_PLACEMENT_3D('',#1782,#1783,#1784);
#1786=PLANE('',#1785);
#1787=ORIENTED_EDGE('',*,*,#654,.T.);
#1788=ORIENTED_EDGE('',*,*,#1527,.F.);
#1789=ORIENTED_EDGE('',*,*,#462,.F.);
#1790=ORIENTED_EDGE('',*,*,#1255,.T.);
#1791=EDGE_LOOP('',(#1787,#1788,#1789,#1790));
#1792=FACE_BOUND('',#1791,.T.);
#1793=ADVANCED_FACE('',(#1792),#1786,.F.);
#1794=CARTESIAN_POINT('',(102.,1.0875,-28.5975));
#1795=DIRECTION('',(-0.,0.,-1.));
#1796=DIRECTION('',(-1.,0.,0.));
#1797=AXIS2_PLACEMENT_3D('',#1794,#1795,#1796);
#1798=PLANE('',#1797);
#1799=ORIENTED_EDGE('',*,*,#1151,.T.);
#1800=ORIENTED_EDGE('',*,*,#958,.F.);
#1801=ORIENTED_EDGE('',*,*,#1645,.F.);
#1802=ORIENTED_EDGE('',*,*,#158,.T.);
#1803=EDGE_LOOP('',(#1799,#1800,#1801,#1802));
#1804=FACE_BOUND('',#1803,.T.);
#1805=ADVANCED_FACE('',(#1804),#1798,.T.);
#1806=CARTESIAN_POINT('',(102.,1.0875,-73.0375));
#1807=DIRECTION('',(-0.,0.,-1.));
#1808=DIRECTION('',(-1.,0.,0.));
#1809=AXIS2_PLACEMENT_3D('',#1806,#1807,#1808);
#1810=PLANE('',#1809);
#1811=ORIENTED_EDGE('',*,*,#1239,.T.);
#1812=ORIENTED_EDGE('',*,*,#830,.F.);
#1813=ORIENTED_EDGE('',*,*,#1667,.F.);
#1814=ORIENTED_EDGE('',*,*,#286,.T.);
#1815=EDGE_LOOP('',(#1811,#1812,#1813,#1814));
#1816=FACE_BOUND('',#1815,.T.);
#1817=ADVANCED_FACE('',(#1816),#1810,.T.);
#1818=CARTESIAN_POINT('',(102.,1.0875,-66.911875));
#1819=DIRECTION('',(0.,0.,1.));
#1820=DIRECTION('',(1.,0.,-0.));
#1821=AXIS2_PLACEMENT_3D('',#1818,#1819,#1820);
#1822=PLANE('',#1821);
#1823=ORIENTED_EDGE('',*,*,#1594,.T.);
#1824=ORIENTED_EDGE('',*,*,#846,.F.);
#1825=ORIENTED_EDGE('',*,*,#1232,.F.);
#1826=ORIENTED_EDGE('',*,*,#270,.T.);
#1827=EDGE_LOOP('',(#1823,#1824,#1825,#1826));
#1828=FACE_BOUND('',#1827,.T.);
#1829=ADVANCED_FACE('',(#1828),#1822,.T.);
#1830=CARTESIAN_POINT('',(102.,2.0875,-78.5846875));
#1831=DIRECTION('',(0.,0.,1.));
#1832=DIRECTION('',(1.,0.,-0.));
#1833=AXIS2_PLACEMENT_3D('',#1830,#1831,#1832);
#1834=PLANE('',#1833);
#1835=ORIENTED_EDGE('',*,*,#734,.T.);
#1836=ORIENTED_EDGE('',*,*,#1064,.F.);
#1837=ORIENTED_EDGE('',*,*,#382,.F.);
#1838=ORIENTED_EDGE('',*,*,#1688,.T.);
#1839=EDGE_LOOP('',(#1835,#1836,#1837,#1838));
#1840=FACE_BOUND('',#1839,.T.);
#1841=ADVANCED_FACE('',(#1840),#1834,.F.);
#1842=CARTESIAN_POINT('',(102.,1.0875,-17.4875));
#1843=DIRECTION('',(-0.,0.,-1.));
#1844=DIRECTION('',(-1.,0.,0.));
#1845=AXIS2_PLACEMENT_3D('',#1842,#1843,#1844);
#1846=PLANE('',#1845);
#1847=CARTESIAN_POINT('',(102.,-0.,-17.4875));
#1848=DIRECTION('',(-1.,0.,0.));
#1849=VECTOR('',#1848,38.);
#1850=LINE('',#1847,#1849);
#1851=EDGE_CURVE('',#113,#985,#1850,.T.);
#1852=ORIENTED_EDGE('',*,*,#1851,.T.);
#1853=ORIENTED_EDGE('',*,*,#990,.F.);
#1854=ORIENTED_EDGE('',*,*,#1755,.F.);
#1855=ORIENTED_EDGE('',*,*,#126,.T.);
#1856=EDGE_LOOP('',(#1852,#1853,#1854,#1855));
#1857=FACE_BOUND('',#1856,.T.);
#1858=ADVANCED_FACE('',(#1857),#1846,.T.);
#1859=CARTESIAN_POINT('',(102.,2.0875,-34.1446875));
#1860=DIRECTION('',(0.,0.,1.));
#1861=DIRECTION('',(1.,0.,-0.));
#1862=AXIS2_PLACEMENT_3D('',#1859,#1860,#1861);
#1863=PLANE('',#1862);
#1864=ORIENTED_EDGE('',*,*,#606,.T.);
#1865=ORIENTED_EDGE('',*,*,#1174,.F.);
#1866=ORIENTED_EDGE('',*,*,#510,.F.);
#1867=ORIENTED_EDGE('',*,*,#1512,.T.);
#1868=EDGE_LOOP('',(#1864,#1865,#1866,#1867));
#1869=FACE_BOUND('',#1868,.T.);
#1870=ADVANCED_FACE('',(#1869),#1863,.F.);
#1871=CARTESIAN_POINT('',(102.,2.0875,-83.5846875));
#1872=DIRECTION('',(-0.,0.,-1.));
#1873=DIRECTION('',(-1.,0.,0.));
#1874=AXIS2_PLACEMENT_3D('',#1871,#1872,#1873);
#1875=PLANE('',#1874);
#1876=ORIENTED_EDGE('',*,*,#750,.T.);
#1877=ORIENTED_EDGE('',*,*,#1681,.F.);
#1878=ORIENTED_EDGE('',*,*,#366,.F.);
#1879=ORIENTED_EDGE('',*,*,#1407,.T.);
#1880=EDGE_LOOP('',(#1876,#1877,#1878,#1879));
#1881=FACE_BOUND('',#1880,.T.);
#1882=ADVANCED_FACE('',(#1881),#1875,.F.);
#1883=CARTESIAN_POINT('',(102.,2.0875,-39.1446875));
#1884=DIRECTION('',(-0.,0.,-1.));
#1885=DIRECTION('',(-1.,0.,0.));
#1886=AXIS2_PLACEMENT_3D('',#1883,#1884,#1885);
#1887=PLANE('',#1886);
#1888=ORIENTED_EDGE('',*,*,#622,.T.);
#1889=ORIENTED_EDGE('',*,*,#1505,.F.);
#1890=ORIENTED_EDGE('',*,*,#494,.F.);
#1891=ORIENTED_EDGE('',*,*,#1211,.T.);
#1892=EDGE_LOOP('',(#1888,#1889,#1890,#1891));
#1893=FACE_BOUND('',#1892,.T.);
#1894=ADVANCED_FACE('',(#1893),#1887,.F.);
#1895=CARTESIAN_POINT('',(102.,1.0875,-55.801875));
#1896=DIRECTION('',(0.,0.,1.));
#1897=DIRECTION('',(1.,0.,-0.));
#1898=AXIS2_PLACEMENT_3D('',#1895,#1896,#1897);
#1899=PLANE('',#1898);
#1900=ORIENTED_EDGE('',*,*,#1550,.T.);
#1901=ORIENTED_EDGE('',*,*,#878,.F.);
#1902=ORIENTED_EDGE('',*,*,#1188,.F.);
#1903=ORIENTED_EDGE('',*,*,#238,.T.);
#1904=EDGE_LOOP('',(#1900,#1901,#1902,#1903));
#1905=FACE_BOUND('',#1904,.T.);
#1906=ADVANCED_FACE('',(#1905),#1899,.T.);
#1907=CARTESIAN_POINT('',(102.,2.0875,-67.4746875));
#1908=DIRECTION('',(0.,0.,1.));
#1909=DIRECTION('',(1.,0.,-0.));
#1910=AXIS2_PLACEMENT_3D('',#1907,#1908,#1909);
#1911=PLANE('',#1910);
#1912=ORIENTED_EDGE('',*,*,#702,.T.);
#1913=ORIENTED_EDGE('',*,*,#1042,.F.);
#1914=ORIENTED_EDGE('',*,*,#414,.F.);
#1915=ORIENTED_EDGE('',*,*,#1622,.T.);
#1916=EDGE_LOOP('',(#1912,#1913,#1914,#1915));
#1917=FACE_BOUND('',#1916,.T.);
#1918=ADVANCED_FACE('',(#1917),#1911,.F.);
#1919=CARTESIAN_POINT('',(102.,2.0875,-28.0346875));
#1920=DIRECTION('',(-0.,0.,-1.));
#1921=DIRECTION('',(-1.,0.,0.));
#1922=AXIS2_PLACEMENT_3D('',#1919,#1920,#1921);
#1923=PLANE('',#1922);
#1924=ORIENTED_EDGE('',*,*,#590,.T.);
#1925=ORIENTED_EDGE('',*,*,#1725,.F.);
#1926=ORIENTED_EDGE('',*,*,#526,.F.);
#1927=ORIENTED_EDGE('',*,*,#1167,.T.);
#1928=EDGE_LOOP('',(#1924,#1925,#1926,#1927));
#1929=FACE_BOUND('',#1928,.T.);
#1930=ADVANCED_FACE('',(#1929),#1923,.F.);
#1931=CARTESIAN_POINT('',(102.,1.0875,-22.471875));
#1932=DIRECTION('',(0.,0.,1.));
#1933=DIRECTION('',(1.,0.,-0.));
#1934=AXIS2_PLACEMENT_3D('',#1931,#1932,#1933);
#1935=PLANE('',#1934);
#1936=ORIENTED_EDGE('',*,*,#1748,.T.);
#1937=ORIENTED_EDGE('',*,*,#974,.F.);
#1938=ORIENTED_EDGE('',*,*,#1144,.F.);
#1939=ORIENTED_EDGE('',*,*,#142,.T.);
#1940=EDGE_LOOP('',(#1936,#1937,#1938,#1939));
#1941=FACE_BOUND('',#1940,.T.);
#1942=ADVANCED_FACE('',(#1941),#1935,.T.);
#1943=CARTESIAN_POINT('',(102.,2.0875,-23.0346875));
#1944=DIRECTION('',(0.,0.,1.));
#1945=DIRECTION('',(1.,0.,-0.));
#1946=AXIS2_PLACEMENT_3D('',#1943,#1944,#1945);
#1947=PLANE('',#1946);
#1948=ORIENTED_EDGE('',*,*,#574,.T.);
#1949=ORIENTED_EDGE('',*,*,#56,.F.);
#1950=ORIENTED_EDGE('',*,*,#540,.F.);
#1951=ORIENTED_EDGE('',*,*,#1732,.T.);
#1952=EDGE_LOOP('',(#1948,#1949,#1950,#1951));
#1953=FACE_BOUND('',#1952,.T.);
#1954=ADVANCED_FACE('',(#1953),#1947,.F.);
#1955=CARTESIAN_POINT('',(102.,1.0875,-44.691875));
#1956=DIRECTION('',(0.,0.,1.));
#1957=DIRECTION('',(1.,0.,-0.));
#1958=AXIS2_PLACEMENT_3D('',#1955,#1956,#1957);
#1959=PLANE('',#1958);
#1960=ORIENTED_EDGE('',*,*,#1484,.T.);
#1961=ORIENTED_EDGE('',*,*,#910,.F.);
#1962=ORIENTED_EDGE('',*,*,#1122,.F.);
#1963=ORIENTED_EDGE('',*,*,#206,.T.);
#1964=EDGE_LOOP('',(#1960,#1961,#1962,#1963));
#1965=FACE_BOUND('',#1964,.T.);
#1966=ADVANCED_FACE('',(#1965),#1959,.T.);
#1967=CARTESIAN_POINT('',(102.,1.0875,-33.581875));
#1968=DIRECTION('',(0.,0.,1.));
#1969=DIRECTION('',(1.,0.,-0.));
#1970=AXIS2_PLACEMENT_3D('',#1967,#1968,#1969);
#1971=PLANE('',#1970);
#1972=ORIENTED_EDGE('',*,*,#1638,.T.);
#1973=ORIENTED_EDGE('',*,*,#942,.F.);
#1974=ORIENTED_EDGE('',*,*,#1100,.F.);
#1975=ORIENTED_EDGE('',*,*,#174,.T.);
#1976=EDGE_LOOP('',(#1972,#1973,#1974,#1975));
#1977=FACE_BOUND('',#1976,.T.);
#1978=ADVANCED_FACE('',(#1977),#1971,.T.);
#1979=CARTESIAN_POINT('',(102.,1.0875,-78.021875));
#1980=DIRECTION('',(0.,0.,1.));
#1981=DIRECTION('',(1.,0.,-0.));
#1982=AXIS2_PLACEMENT_3D('',#1979,#1980,#1981);
#1983=PLANE('',#1982);
#1984=ORIENTED_EDGE('',*,*,#1660,.T.);
#1985=ORIENTED_EDGE('',*,*,#814,.F.);
#1986=ORIENTED_EDGE('',*,*,#1078,.F.);
#1987=ORIENTED_EDGE('',*,*,#302,.T.);
#1988=EDGE_LOOP('',(#1984,#1985,#1986,#1987));
#1989=FACE_BOUND('',#1988,.T.);
#1990=ADVANCED_FACE('',(#1989),#1983,.T.);
#1991=CARTESIAN_POINT('',(102.,1.0875,-39.7075));
#1992=DIRECTION('',(-0.,0.,-1.));
#1993=DIRECTION('',(-1.,0.,0.));
#1994=AXIS2_PLACEMENT_3D('',#1991,#1992,#1993);
#1995=PLANE('',#1994);
#1996=ORIENTED_EDGE('',*,*,#1107,.T.);
#1997=ORIENTED_EDGE('',*,*,#926,.F.);
#1998=ORIENTED_EDGE('',*,*,#1491,.F.);
#1999=ORIENTED_EDGE('',*,*,#190,.T.);
#2000=EDGE_LOOP('',(#1996,#1997,#1998,#1999));
#2001=FACE_BOUND('',#2000,.T.);
#2002=ADVANCED_FACE('',(#2001),#1995,.T.);
#2003=CARTESIAN_POINT('',(102.,2.0875,-72.4746875));
#2004=DIRECTION('',(-0.,0.,-1.));
#2005=DIRECTION('',(-1.,0.,0.));
#2006=AXIS2_PLACEMENT_3D('',#2003,#2004,#2005);
#2007=PLANE('',#2006);
#2008=ORIENTED_EDGE('',*,*,#718,.T.);
#2009=ORIENTED_EDGE('',*,*,#1615,.F.);
#2010=ORIENTED_EDGE('',*,*,#398,.F.);
#2011=ORIENTED_EDGE('',*,*,#1057,.T.);
#2012=EDGE_LOOP('',(#2008,#2009,#2010,#2011));
#2013=FACE_BOUND('',#2012,.T.);
#2014=ADVANCED_FACE('',(#2013),#2007,.F.);
#2015=CARTESIAN_POINT('',(102.,1.0875,-61.9275));
#2016=DIRECTION('',(-0.,0.,-1.));
#2017=DIRECTION('',(-1.,0.,0.));
#2018=AXIS2_PLACEMENT_3D('',#2015,#2016,#2017);
#2019=PLANE('',#2018);
#2020=ORIENTED_EDGE('',*,*,#1195,.T.);
#2021=ORIENTED_EDGE('',*,*,#862,.F.);
#2022=ORIENTED_EDGE('',*,*,#1601,.F.);
#2023=ORIENTED_EDGE('',*,*,#254,.T.);
#2024=EDGE_LOOP('',(#2020,#2021,#2022,#2023));
#2025=FACE_BOUND('',#2024,.T.);
#2026=ADVANCED_FACE('',(#2025),#2019,.T.);
#2027=CARTESIAN_POINT('',(102.,2.0875,-61.3646875));
#2028=DIRECTION('',(-0.,0.,-1.));
#2029=DIRECTION('',(-1.,0.,0.));
#2030=AXIS2_PLACEMENT_3D('',#2027,#2028,#2029);
#2031=PLANE('',#2030);
#2032=ORIENTED_EDGE('',*,*,#686,.T.);
#2033=ORIENTED_EDGE('',*,*,#1571,.F.);
#2034=ORIENTED_EDGE('',*,*,#430,.F.);
#2035=ORIENTED_EDGE('',*,*,#1035,.T.);
#2036=EDGE_LOOP('',(#2032,#2033,#2034,#2035));
#2037=FACE_BOUND('',#2036,.T.);
#2038=ADVANCED_FACE('',(#2037),#2031,.F.);
#2039=CARTESIAN_POINT('',(102.,2.0875,-45.2546875));
#2040=DIRECTION('',(0.,0.,1.));
#2041=DIRECTION('',(1.,0.,-0.));
#2042=AXIS2_PLACEMENT_3D('',#2039,#2040,#2041);
#2043=PLANE('',#2042);
#2044=ORIENTED_EDGE('',*,*,#638,.T.);
#2045=ORIENTED_EDGE('',*,*,#1218,.F.);
#2046=ORIENTED_EDGE('',*,*,#478,.F.);
#2047=ORIENTED_EDGE('',*,*,#1534,.T.);
#2048=EDGE_LOOP('',(#2044,#2045,#2046,#2047));
#2049=FACE_BOUND('',#2048,.T.);
#2050=ADVANCED_FACE('',(#2049),#2043,.F.);
#2051=CARTESIAN_POINT('',(102.,2.0875,-56.3646875));
#2052=DIRECTION('',(0.,0.,1.));
#2053=DIRECTION('',(1.,0.,-0.));
#2054=AXIS2_PLACEMENT_3D('',#2051,#2052,#2053);
#2055=PLANE('',#2054);
#2056=ORIENTED_EDGE('',*,*,#670,.T.);
#2057=ORIENTED_EDGE('',*,*,#1262,.F.);
#2058=ORIENTED_EDGE('',*,*,#446,.F.);
#2059=ORIENTED_EDGE('',*,*,#1578,.T.);
#2060=EDGE_LOOP('',(#2056,#2057,#2058,#2059));
#2061=FACE_BOUND('',#2060,.T.);
#2062=ADVANCED_FACE('',(#2061),#2055,.F.);
#2063=CARTESIAN_POINT('',(102.,1.0875,-50.8175));
#2064=DIRECTION('',(-0.,0.,-1.));
#2065=DIRECTION('',(-1.,0.,0.));
#2066=AXIS2_PLACEMENT_3D('',#2063,#2064,#2065);
#2067=PLANE('',#2066);
#2068=ORIENTED_EDGE('',*,*,#1129,.T.);
#2069=ORIENTED_EDGE('',*,*,#894,.F.);
#2070=ORIENTED_EDGE('',*,*,#1557,.F.);
#2071=ORIENTED_EDGE('',*,*,#222,.T.);
#2072=EDGE_LOOP('',(#2068,#2069,#2070,#2071));
#2073=FACE_BOUND('',#2072,.T.);
#2074=ADVANCED_FACE('',(#2073),#2067,.T.);
#2075=CARTESIAN_POINT('',(102.,1.0875,-89.131875));
#2076=DIRECTION('',(0.,0.,1.));
#2077=DIRECTION('',(1.,0.,-0.));
#2078=AXIS2_PLACEMENT_3D('',#2075,#2076,#2077);
#2079=PLANE('',#2078);
#2080=ORIENTED_EDGE('',*,*,#1704,.T.);
#2081=ORIENTED_EDGE('',*,*,#782,.F.);
#2082=ORIENTED_EDGE('',*,*,#1350,.F.);
#2083=ORIENTED_EDGE('',*,*,#334,.T.);
#2084=EDGE_LOOP('',(#2080,#2081,#2082,#2083));
#2085=FACE_BOUND('',#2084,.T.);
#2086=ADVANCED_FACE('',(#2085),#2079,.T.);
#2087=CARTESIAN_POINT('',(102.,1.0875,-84.1475));
#2088=DIRECTION('',(-0.,0.,-1.));
#2089=DIRECTION('',(-1.,0.,0.));
#2090=AXIS2_PLACEMENT_3D('',#2087,#2088,#2089);
#2091=PLANE('',#2090);
#2092=ORIENTED_EDGE('',*,*,#1085,.T.);
#2093=ORIENTED_EDGE('',*,*,#798,.F.);
#2094=ORIENTED_EDGE('',*,*,#1711,.F.);
#2095=ORIENTED_EDGE('',*,*,#318,.T.);
#2096=EDGE_LOOP('',(#2092,#2093,#2094,#2095));
#2097=FACE_BOUND('',#2096,.T.);
#2098=ADVANCED_FACE('',(#2097),#2091,.T.);
#2099=CARTESIAN_POINT('',(97.,0.,-92.1396875));
#2100=DIRECTION('',(1.,0.,0.));
#2101=DIRECTION('',(0.,0.,-1.));
#2102=AXIS2_PLACEMENT_3D('',#2099,#2100,#2101);
#2103=PLANE('',#2102);
#2104=ORIENTED_EDGE('',*,*,#1368,.T.);
#2105=CARTESIAN_POINT('',(97.,0.,-93.1396875));
#2106=DIRECTION('',(0.,1.,0.));
#2107=VECTOR('',#2106,3.175);
#2108=LINE('',#2105,#2107);
#2109=EDGE_CURVE('',#1283,#1363,#2108,.T.);
#2110=ORIENTED_EDGE('',*,*,#2109,.F.);
#2111=ORIENTED_EDGE('',*,*,#1288,.F.);
#2112=CARTESIAN_POINT('',(97.,0.,-91.1396875));
#2113=DIRECTION('',(0.,1.,0.));
#2114=VECTOR('',#2113,3.175);
#2115=LINE('',#2112,#2114);
#2116=EDGE_CURVE('',#1275,#1361,#2115,.T.);
#2117=ORIENTED_EDGE('',*,*,#2116,.T.);
#2118=EDGE_LOOP('',(#2104,#2110,#2111,#2117));
#2119=FACE_BOUND('',#2118,.T.);
#2120=ADVANCED_FACE('',(#2119),#2103,.F.);
#2121=CARTESIAN_POINT('',(62.5025,1.5875,-93.1396875));
#2122=DIRECTION('',(0.,0.,1.));
#2123=DIRECTION('',(1.,0.,-0.));
#2124=AXIS2_PLACEMENT_3D('',#2121,#2122,#2123);
#2125=PLANE('',#2124);
#2126=ORIENTED_EDGE('',*,*,#1296,.T.);
#2127=ORIENTED_EDGE('',*,*,#2109,.T.);
#2128=ORIENTED_EDGE('',*,*,#1390,.F.);
#2129=CARTESIAN_POINT('',(67.5025,3.175,-93.1396875));
#2130=DIRECTION('',(0.,-1.,0.));
#2131=VECTOR('',#2130,3.175);
#2132=LINE('',#2129,#2131);
#2133=EDGE_CURVE('',#1379,#1291,#2132,.T.);
#2134=ORIENTED_EDGE('',*,*,#2133,.T.);
#2135=EDGE_LOOP('',(#2126,#2127,#2128,#2134));
#2136=FACE_BOUND('',#2135,.T.);
#2137=ADVANCED_FACE('',(#2136),#2125,.T.);
#2138=CARTESIAN_POINT('',(70.,0.,-96.6475));
#2139=DIRECTION('',(0.,0.,1.));
#2140=DIRECTION('',(1.,0.,-0.));
#2141=AXIS2_PLACEMENT_3D('',#2138,#2139,#2140);
#2142=PLANE('',#2141);
#2143=ORIENTED_EDGE('',*,*,#1313,.F.);
#2144=ORIENTED_EDGE('',*,*,#766,.T.);
#2145=ORIENTED_EDGE('',*,*,#1400,.T.);
#2146=CARTESIAN_POINT('',(68.5,3.175,-96.6475));
#2147=DIRECTION('',(0.,-1.,0.));
#2148=VECTOR('',#2147,3.175);
#2149=LINE('',#2146,#2148);
#2150=EDGE_CURVE('',#1395,#1308,#2149,.T.);
#2151=ORIENTED_EDGE('',*,*,#2150,.T.);
#2152=EDGE_LOOP('',(#2143,#2144,#2145,#2151));
#2153=FACE_BOUND('',#2152,.T.);
#2154=ADVANCED_FACE('',(#2153),#2142,.F.);
#2155=CARTESIAN_POINT('',(70.,0.,-96.6475));
#2156=DIRECTION('',(0.,0.,1.));
#2157=DIRECTION('',(1.,0.,-0.));
#2158=AXIS2_PLACEMENT_3D('',#2155,#2156,#2157);
#2159=PLANE('',#2158);
#2160=ORIENTED_EDGE('',*,*,#1343,.F.);
#2161=CARTESIAN_POINT('',(82.,0.,-96.6475));
#2162=DIRECTION('',(0.,1.,0.));
#2163=VECTOR('',#2162,3.175);
#2164=LINE('',#2161,#2163);
#2165=EDGE_CURVE('',#1332,#1411,#2164,.T.);
#2166=ORIENTED_EDGE('',*,*,#2165,.T.);
#2167=ORIENTED_EDGE('',*,*,#1416,.T.);
#2168=ORIENTED_EDGE('',*,*,#350,.T.);
#2169=EDGE_LOOP('',(#2160,#2166,#2167,#2168));
#2170=FACE_BOUND('',#2169,.T.);
#2171=ADVANCED_FACE('',(#2170),#2159,.F.);
#2172=CARTESIAN_POINT('',(68.5,1.5875,-99.6475));
#2173=DIRECTION('',(-1.,0.,0.));
#2174=DIRECTION('',(0.,0.,1.));
#2175=AXIS2_PLACEMENT_3D('',#2172,#2173,#2174);
#2176=PLANE('',#2175);
#2177=ORIENTED_EDGE('',*,*,#2150,.F.);
#2178=ORIENTED_EDGE('',*,*,#1438,.F.);
#2179=CARTESIAN_POINT('',(68.5,3.175,-99.6475));
#2180=DIRECTION('',(0.,-1.,0.));
#2181=VECTOR('',#2180,3.175);
#2182=LINE('',#2179,#2181);
#2183=EDGE_CURVE('',#1427,#1316,#2182,.T.);
#2184=ORIENTED_EDGE('',*,*,#2183,.T.);
#2185=ORIENTED_EDGE('',*,*,#1321,.T.);
#2186=EDGE_LOOP('',(#2177,#2178,#2184,#2185));
#2187=FACE_BOUND('',#2186,.T.);
#2188=ADVANCED_FACE('',(#2187),#2176,.T.);
#2189=CARTESIAN_POINT('',(82.,1.5875,-99.6475));
#2190=DIRECTION('',(1.,0.,-0.));
#2191=DIRECTION('',(-0.,0.,-1.));
#2192=AXIS2_PLACEMENT_3D('',#2189,#2190,#2191);
#2193=PLANE('',#2192);
#2194=ORIENTED_EDGE('',*,*,#2165,.F.);
#2195=ORIENTED_EDGE('',*,*,#1337,.F.);
#2196=CARTESIAN_POINT('',(82.,0.,-99.6475));
#2197=DIRECTION('',(0.,1.,0.));
#2198=VECTOR('',#2197,3.175);
#2199=LINE('',#2196,#2198);
#2200=EDGE_CURVE('',#1324,#1419,#2199,.T.);
#2201=ORIENTED_EDGE('',*,*,#2200,.T.);
#2202=ORIENTED_EDGE('',*,*,#1424,.T.);
#2203=EDGE_LOOP('',(#2194,#2195,#2201,#2202));
#2204=FACE_BOUND('',#2203,.T.);
#2205=ADVANCED_FACE('',(#2204),#2193,.T.);
#2206=CARTESIAN_POINT('',(-0.,0.,-99.6475));
#2207=DIRECTION('',(-0.,0.,-1.));
#2208=DIRECTION('',(-1.,0.,0.));
#2209=AXIS2_PLACEMENT_3D('',#2206,#2207,#2208);
#2210=PLANE('',#2209);
#2211=ORIENTED_EDGE('',*,*,#2183,.F.);
#2212=ORIENTED_EDGE('',*,*,#1432,.F.);
#2213=ORIENTED_EDGE('',*,*,#2200,.F.);
#2214=ORIENTED_EDGE('',*,*,#1329,.F.);
#2215=EDGE_LOOP('',(#2211,#2212,#2213,#2214));
#2216=FACE_BOUND('',#2215,.T.);
#2217=ADVANCED_FACE('',(#2216),#2210,.T.);
#2218=CARTESIAN_POINT('',(67.5025,3.175,-92.1396875));
#2219=DIRECTION('',(1.,0.,0.));
#2220=DIRECTION('',(0.,0.,-1.));
#2221=AXIS2_PLACEMENT_3D('',#2218,#2219,#2220);
#2222=PLANE('',#2221);
#2223=ORIENTED_EDGE('',*,*,#1302,.F.);
#2224=ORIENTED_EDGE('',*,*,#2133,.F.);
#2225=ORIENTED_EDGE('',*,*,#1384,.T.);
#2226=CARTESIAN_POINT('',(67.5025,3.175,-91.1396875));
#2227=DIRECTION('',(0.,-1.,0.));
#2228=VECTOR('',#2227,3.175);
#2229=LINE('',#2226,#2228);
#2230=EDGE_CURVE('',#1371,#1273,#2229,.T.);
#2231=ORIENTED_EDGE('',*,*,#2230,.T.);
#2232=EDGE_LOOP('',(#2223,#2224,#2225,#2231));
#2233=FACE_BOUND('',#2232,.T.);
#2234=ADVANCED_FACE('',(#2233),#2222,.T.);
#2235=CARTESIAN_POINT('',(62.5025,1.5875,-91.1396875));
#2236=DIRECTION('',(-0.,0.,-1.));
#2237=DIRECTION('',(-1.,0.,0.));
#2238=AXIS2_PLACEMENT_3D('',#2235,#2236,#2237);
#2239=PLANE('',#2238);
#2240=ORIENTED_EDGE('',*,*,#2116,.F.);
#2241=ORIENTED_EDGE('',*,*,#1280,.F.);
#2242=ORIENTED_EDGE('',*,*,#2230,.F.);
#2243=ORIENTED_EDGE('',*,*,#1376,.T.);
#2244=EDGE_LOOP('',(#2240,#2241,#2242,#2243));
#2245=FACE_BOUND('',#2244,.T.);
#2246=ADVANCED_FACE('',(#2245),#2239,.T.);
#2247=CARTESIAN_POINT('',(0.,0.,0.));
#2248=DIRECTION('',(0.,-1.,0.));
#2249=DIRECTION('',(0.,0.,-1.));
#2250=AXIS2_PLACEMENT_3D('',#2247,#2248,#2249);
#2251=PLANE('',#2250);
#2252=ORIENTED_EDGE('',*,*,#998,.F.);
#2253=ORIENTED_EDGE('',*,*,#1851,.F.);
#2254=ORIENTED_EDGE('',*,*,#118,.T.);
#2255=CARTESIAN_POINT('',(82.,0.,-4.7625));
#2256=VERTEX_POINT('',#2255);
#2257=CARTESIAN_POINT('',(102.,0.,-4.7625));
#2258=DIRECTION('',(-1.,0.,0.));
#2259=VECTOR('',#2258,20.);
#2260=LINE('',#2257,#2259);
#2261=EDGE_CURVE('',#105,#2256,#2260,.T.);
#2262=ORIENTED_EDGE('',*,*,#2261,.T.);
#2263=CARTESIAN_POINT('',(82.,0.,-1.7625));
#2264=VERTEX_POINT('',#2263);
#2265=CARTESIAN_POINT('',(82.,0.,-1.7625));
#2266=DIRECTION('',(0.,0.,-1.));
#2267=VECTOR('',#2266,3.);
#2268=LINE('',#2265,#2267);
#2269=EDGE_CURVE('',#2264,#2256,#2268,.T.);
#2270=ORIENTED_EDGE('',*,*,#2269,.F.);
#2271=CARTESIAN_POINT('',(68.5,0.,-1.7625));
#2272=VERTEX_POINT('',#2271);
#2273=CARTESIAN_POINT('',(82.,0.,-1.7625));
#2274=DIRECTION('',(-1.,0.,0.));
#2275=VECTOR('',#2274,13.5);
#2276=LINE('',#2273,#2275);
#2277=EDGE_CURVE('',#2264,#2272,#2276,.T.);
#2278=ORIENTED_EDGE('',*,*,#2277,.T.);
#2279=CARTESIAN_POINT('',(68.5,0.,-1.7625));
#2280=DIRECTION('',(0.,0.,-1.));
#2281=VECTOR('',#2280,3.);
#2282=LINE('',#2279,#2281);
#2283=EDGE_CURVE('',#2272,#1450,#2282,.T.);
#2284=ORIENTED_EDGE('',*,*,#2283,.T.);
#2285=ORIENTED_EDGE('',*,*,#1455,.T.);
#2286=EDGE_LOOP('',(#2252,#2253,#2254,#2262,#2270,#2278,#2284,#2285));
#2287=FACE_BOUND('',#2286,.T.);
#2288=ADVANCED_FACE('',(#2287),#2251,.T.);
#2289=CARTESIAN_POINT('',(70.,0.,-4.7625));
#2290=DIRECTION('',(-0.,0.,-1.));
#2291=DIRECTION('',(-1.,0.,0.));
#2292=AXIS2_PLACEMENT_3D('',#2289,#2290,#2291);
#2293=PLANE('',#2292);
#2294=CARTESIAN_POINT('',(82.,3.175,-4.7625));
#2295=VERTEX_POINT('',#2294);
#2296=CARTESIAN_POINT('',(102.,3.175,-4.7625));
#2297=DIRECTION('',(-1.,0.,0.));
#2298=VECTOR('',#2297,20.);
#2299=LINE('',#2296,#2298);
#2300=EDGE_CURVE('',#97,#2295,#2299,.T.);
#2301=ORIENTED_EDGE('',*,*,#2300,.T.);
#2302=CARTESIAN_POINT('',(82.,3.175,-4.7625));
#2303=DIRECTION('',(0.,-1.,0.));
#2304=VECTOR('',#2303,3.175);
#2305=LINE('',#2302,#2304);
#2306=EDGE_CURVE('',#2295,#2256,#2305,.T.);
#2307=ORIENTED_EDGE('',*,*,#2306,.T.);
#2308=ORIENTED_EDGE('',*,*,#2261,.F.);
#2309=ORIENTED_EDGE('',*,*,#110,.T.);
#2310=EDGE_LOOP('',(#2301,#2307,#2308,#2309));
#2311=FACE_BOUND('',#2310,.T.);
#2312=ADVANCED_FACE('',(#2311),#2293,.F.);
#2313=CARTESIAN_POINT('',(0.,3.175,0.));
#2314=DIRECTION('',(0.,-1.,0.));
#2315=DIRECTION('',(0.,0.,-1.));
#2316=AXIS2_PLACEMENT_3D('',#2313,#2314,#2315);
#2317=PLANE('',#2316);
#2318=ORIENTED_EDGE('',*,*,#102,.T.);
#2319=CARTESIAN_POINT('',(102.,3.175,-9.375));
#2320=DIRECTION('',(-1.,0.,0.));
#2321=VECTOR('',#2320,38.);
#2322=LINE('',#2319,#2321);
#2323=EDGE_CURVE('',#89,#1009,#2322,.T.);
#2324=ORIENTED_EDGE('',*,*,#2323,.T.);
#2325=ORIENTED_EDGE('',*,*,#1014,.T.);
#2326=ORIENTED_EDGE('',*,*,#1469,.F.);
#2327=CARTESIAN_POINT('',(68.5,3.175,-1.7625));
#2328=VERTEX_POINT('',#2327);
#2329=CARTESIAN_POINT('',(68.5,3.175,-1.7625));
#2330=DIRECTION('',(0.,0.,-1.));
#2331=VECTOR('',#2330,3.);
#2332=LINE('',#2329,#2331);
#2333=EDGE_CURVE('',#2328,#1458,#2332,.T.);
#2334=ORIENTED_EDGE('',*,*,#2333,.F.);
#2335=CARTESIAN_POINT('',(82.,3.175,-1.7625));
#2336=VERTEX_POINT('',#2335);
#2337=CARTESIAN_POINT('',(68.5,3.175,-1.7625));
#2338=DIRECTION('',(1.,0.,-0.));
#2339=VECTOR('',#2338,13.5);
#2340=LINE('',#2337,#2339);
#2341=EDGE_CURVE('',#2328,#2336,#2340,.T.);
#2342=ORIENTED_EDGE('',*,*,#2341,.T.);
#2343=CARTESIAN_POINT('',(82.,3.175,-1.7625));
#2344=DIRECTION('',(0.,0.,-1.));
#2345=VECTOR('',#2344,3.);
#2346=LINE('',#2343,#2345);
#2347=EDGE_CURVE('',#2336,#2295,#2346,.T.);
#2348=ORIENTED_EDGE('',*,*,#2347,.T.);
#2349=ORIENTED_EDGE('',*,*,#2300,.F.);
#2350=EDGE_LOOP('',(#2318,#2324,#2325,#2326,#2334,#2342,#2348,#2349));
#2351=FACE_BOUND('',#2350,.T.);
#2352=ADVANCED_FACE('',(#2351),#2317,.F.);
#2353=CARTESIAN_POINT('',(82.,1.5875,-1.7625));
#2354=DIRECTION('',(1.,0.,0.));
#2355=DIRECTION('',(0.,0.,-1.));
#2356=AXIS2_PLACEMENT_3D('',#2353,#2354,#2355);
#2357=PLANE('',#2356);
#2358=ORIENTED_EDGE('',*,*,#2306,.F.);
#2359=ORIENTED_EDGE('',*,*,#2347,.F.);
#2360=CARTESIAN_POINT('',(82.,3.175,-1.7625));
#2361=DIRECTION('',(0.,-1.,0.));
#2362=VECTOR('',#2361,3.175);
#2363=LINE('',#2360,#2362);
#2364=EDGE_CURVE('',#2336,#2264,#2363,.T.);
#2365=ORIENTED_EDGE('',*,*,#2364,.T.);
#2366=ORIENTED_EDGE('',*,*,#2269,.T.);
#2367=EDGE_LOOP('',(#2358,#2359,#2365,#2366));
#2368=FACE_BOUND('',#2367,.T.);
#2369=ADVANCED_FACE('',(#2368),#2357,.T.);
#2370=CARTESIAN_POINT('',(68.5,1.5875,-1.7625));
#2371=DIRECTION('',(-1.,0.,0.));
#2372=DIRECTION('',(0.,0.,1.));
#2373=AXIS2_PLACEMENT_3D('',#2370,#2371,#2372);
#2374=PLANE('',#2373);
#2375=ORIENTED_EDGE('',*,*,#1463,.F.);
#2376=ORIENTED_EDGE('',*,*,#2283,.F.);
#2377=CARTESIAN_POINT('',(68.5,0.,-1.7625));
#2378=DIRECTION('',(0.,1.,0.));
#2379=VECTOR('',#2378,3.175);
#2380=LINE('',#2377,#2379);
#2381=EDGE_CURVE('',#2272,#2328,#2380,.T.);
#2382=ORIENTED_EDGE('',*,*,#2381,.T.);
#2383=ORIENTED_EDGE('',*,*,#2333,.T.);
#2384=EDGE_LOOP('',(#2375,#2376,#2382,#2383));
#2385=FACE_BOUND('',#2384,.T.);
#2386=ADVANCED_FACE('',(#2385),#2374,.T.);
#2387=CARTESIAN_POINT('',(0.,0.,-1.7625));
#2388=DIRECTION('',(0.,0.,1.));
#2389=DIRECTION('',(1.,0.,0.));
#2390=AXIS2_PLACEMENT_3D('',#2387,#2388,#2389);
#2391=PLANE('',#2390);
#2392=ORIENTED_EDGE('',*,*,#2277,.F.);
#2393=ORIENTED_EDGE('',*,*,#2364,.F.);
#2394=ORIENTED_EDGE('',*,*,#2341,.F.);
#2395=ORIENTED_EDGE('',*,*,#2381,.F.);
#2396=EDGE_LOOP('',(#2392,#2393,#2394,#2395));
#2397=FACE_BOUND('',#2396,.T.);
#2398=ADVANCED_FACE('',(#2397),#2391,.T.);
#2399=CARTESIAN_POINT('',(122.5025,2.0875,-9.375));
#2400=DIRECTION('',(0.,0.,1.));
#2401=DIRECTION('',(1.,0.,-0.));
#2402=AXIS2_PLACEMENT_3D('',#2399,#2400,#2401);
#2403=PLANE('',#2402);
#2404=ORIENTED_EDGE('',*,*,#94,.T.);
#2405=ORIENTED_EDGE('',*,*,#1777,.T.);
#2406=ORIENTED_EDGE('',*,*,#1020,.T.);
#2407=ORIENTED_EDGE('',*,*,#2323,.F.);
#2408=EDGE_LOOP('',(#2404,#2405,#2406,#2407));
#2409=FACE_BOUND('',#2408,.T.);
#2410=ADVANCED_FACE('',(#2409),#2403,.F.);
#2411=CARTESIAN_POINT('',(122.5025,2.0875,-14.375));
#2412=DIRECTION('',(0.,0.,1.));
#2413=DIRECTION('',(1.,0.,-0.));
#2414=AXIS2_PLACEMENT_3D('',#2411,#2412,#2413);
#2415=PLANE('',#2414);
#2416=ORIENTED_EDGE('',*,*,#40,.T.);
#2417=ORIENTED_EDGE('',*,*,#565,.F.);
#2418=ORIENTED_EDGE('',*,*,#1770,.F.);
#2419=ORIENTED_EDGE('',*,*,#78,.F.);
#2420=EDGE_LOOP('',(#2416,#2417,#2418,#2419));
#2421=FACE_BOUND('',#2420,.T.);
#2422=ADVANCED_FACE('',(#2421),#2415,.T.);
#2423=CLOSED_SHELL('',(#66,#545,#1024,#1046,#1068,#1090,#1112,#1134,#1156,#1178,#1200,#1222,#1244,#1266,#1354,#1442,#1473,#1495,#1517,#1539,#1561,#1583,#1605,#1627,#1649,#1671,
#1693,#1715,#1737,#1759,#1781,#1793,#1805,#1817,#1829,#1841,#1858,#1870,#1882,#1894,#1906,#1918,#1930,#1942,#1954,#1966,#1978,#1990,#2002,#2014,#2026,
#2038,#2050,#2062,#2074,#2086,#2098,#2120,#2137,#2154,#2171,#2188,#2205,#2217,#2234,#2246,#2288,#2312,#2352,#2369,#2386,#2398,#2410,#2422));
#2424=MANIFOLD_SOLID_BREP('Body 04',#2423);
#2425=COLOUR_RGB('',0.494117647,0.494117647,0.525490224);
#2426=FILL_AREA_STYLE_COLOUR('',#2425);
#2427=FILL_AREA_STYLE('',(#2426));
#2428=SURFACE_STYLE_FILL_AREA(#2427);
#2429=SURFACE_SIDE_STYLE('',(#2428));
#2430=SURFACE_STYLE_USAGE(.BOTH.,#2429);
#2431=PRESENTATION_STYLE_ASSIGNMENT((#2430));
#26=STYLED_ITEM('',(#2431),#2424);
#2432=(NAMED_UNIT(*)PLANE_ANGLE_UNIT()SI_UNIT($,.RADIAN.));
#2433=PLANE_ANGLE_MEASURE_WITH_UNIT(PLANE_ANGLE_MEASURE(0.0174532925),#2432);
#2434=(CONVERSION_BASED_UNIT('DEGREE',#2433)NAMED_UNIT(#2435)PLANE_ANGLE_UNIT());
#2435=DIMENSIONAL_EXPONENTS(0.,0.,0.,0.,0.,0.,0.);
#2436=(NAMED_UNIT(*)SI_UNIT($,.STERADIAN.)SOLID_ANGLE_UNIT());
#2437=(LENGTH_UNIT()NAMED_UNIT(*)SI_UNIT(.MILLI.,.METRE.));
#2438=UNCERTAINTY_MEASURE_WITH_UNIT(LENGTH_MEASURE(1.000000E-03),#2437,'DISTANCE_ACCURACY_VALUE','Maximum Tolerance applied to model');
#2439=(GEOMETRIC_REPRESENTATION_CONTEXT(3)GLOBAL_UNCERTAINTY_ASSIGNED_CONTEXT((#2438))GLOBAL_UNIT_ASSIGNED_CONTEXT((#2437,#2434,#2436))REPRESENTATION_CONTEXT('','[WOJ-CUENC-006-RevAB] Control Unit Enclosure Interface Card Support 3D Print Mid.SLDPRT'));
#2451=CARTESIAN_POINT('',(0.,0.,0.));
#2452=DIRECTION('',(0.,0.,1.));
#2453=DIRECTION('',(1.,0.,-0.));
#2454=AXIS2_PLACEMENT_3D('',#2451,#2452,#2453);
#2455=ITEM_DEFINED_TRANSFORMATION('','',#2454,#15);
#2456=(REPRESENTATION_RELATIONSHIP('','',#2441,#16)REPRESENTATION_RELATIONSHIP_WITH_TRANSFORMATION(#2455)SHAPE_REPRESENTATION_RELATIONSHIP());
#2457=NEXT_ASSEMBLY_USAGE_OCCURRENCE('[WOJ-CUENC-006-RevAB] Control Unit Enclosure Interface Card Support 3D Print Mid.SLDPRT_1','[WOJ-CUENC-006-RevAB] Control Unit Enclosure Interface Card Support 3D Print Mid.SLDPRT','[WOJ-CUENC-006-RevAB] Control Unit Enclosure Interface Card Support 3D Print Mid.SLDPRT',#25,#2450,$);
#2458=PRODUCT_DEFINITION_SHAPE('','',#2457);
#2459=CONTEXT_DEPENDENT_SHAPE_REPRESENTATION(#2456,#2458);
#2441=SHAPE_REPRESENTATION('[WOJ-CUENC-006-RevAB] Control Unit Enclosure Interface Card Support 3D Print Mid.SLDPRT',(#15),#2439);
#2460=CARTESIAN_POINT('',(0.,0.,0.));
#2461=DIRECTION('',(0.,0.,1.));
#2462=DIRECTION('',(1.,0.,0.));
#2463=AXIS2_PLACEMENT_3D('',#2460,#2461,#2462);
#2465=MAPPED_ITEM('',#2464,#2463);
#2464=REPRESENTATION_MAP(#2463,#2441);
#2466=APPLICATION_CONTEXT('Managed model based 3d engineering');
#2467=APPLICATION_PROTOCOL_DEFINITION('international standard','ap242_managed_model_based_3d_engineering',2014,#2466);
#2468=PRODUCT_CONTEXT('',#2466,'mechanical');
#2469=PRODUCT_DEFINITION_CONTEXT('part definition',#2466,'design');
#2449=PRODUCT('[WOJ-CUENC-006-RevAB] Control Unit Enclosure Interface Card Support 3D Print Mid.SLDPRT','[WOJ-CUENC-006-RevAB] Control Unit Enclosure Interface Card Support 3D Print Mid.SLDPRT','',(#2468));
#2470=PRODUCT_RELATED_PRODUCT_CATEGORY('part','',(#2449));
#2471=PRODUCT_DEFINITION_FORMATION_WITH_SPECIFIED_SOURCE('','',#2449,.NOT_KNOWN.);
#2450=PRODUCT_DEFINITION('design','',#2471,#2469);
#2448=PRODUCT_DEFINITION_SHAPE('','',#2450);
#2472=SHAPE_DEFINITION_REPRESENTATION(#2448,#2441);
#2440=DRAUGHTING_MODEL('',(#2465),#2439);
#16=SHAPE_REPRESENTATION('root',(#15,#2454),#10);
#17=ADVANCED_BREP_SHAPE_REPRESENTATION('root',(#2424),#10);
#2480=SHAPE_REPRESENTATION_RELATIONSHIP('','',#16,#17);
#2481=CARTESIAN_POINT('',(0.,0.,0.));
#2482=DIRECTION('',(0.,0.,1.));
#2483=DIRECTION('',(1.,0.,0.));
#2484=AXIS2_PLACEMENT_3D('',#2481,#2482,#2483);
#2486=MAPPED_ITEM('',#2485,#2484);
#2485=REPRESENTATION_MAP(#2484,#16);
#24=PRODUCT('root','root','',(#2468));
#2487=PRODUCT_RELATED_PRODUCT_CATEGORY('part','',(#24));
#2488=PRODUCT_DEFINITION_FORMATION_WITH_SPECIFIED_SOURCE('','',#24,.NOT_KNOWN.);
#25=PRODUCT_DEFINITION('design','',#2488,#2469);
#23=PRODUCT_DEFINITION_SHAPE('','',#25);
#2489=SHAPE_DEFINITION_REPRESENTATION(#23,#16);
#11=DRAUGHTING_MODEL('',(#2486),#10);
#2490=DESCRIPTIVE_REPRESENTATION_ITEM('KEY','C:\\Users\\bilal\\AppData\\Local\\Packages\\Shapr3D.Shapr3D_j403pzjkqtqbj\\TempState\\ee600a82-0c34-490c-83a1-ca7d72a07840.tmp');
#2491=PROPERTY_DEFINITION('KEY','',#25);
#2492=REPRESENTATION('',(#2490),#10);
#2493=PROPERTY_DEFINITION_REPRESENTATION(#2491,#2492);
#2494=GENERAL_PROPERTY('','KEY','');
#2495=GENERAL_PROPERTY_ASSOCIATION('','',#2494,#2491);
#1=MECHANICAL_DESIGN_GEOMETRIC_PRESENTATION_REPRESENTATION('',(#26),#10);
ENDSEC;
END-ISO-10303-21;
